M48
; DRILL file {KiCad (5.1.5)-3} date 21.03.2021 23:17:20
; FORMAT={-:-/ absolute / inch / decimal}
; #@! TF.CreationDate,2021-03-21T23:17:20+01:00
; #@! TF.GenerationSoftware,Kicad,Pcbnew,(5.1.5)-3
; #@! TF.FileFunction,Plated,1,2,PTH
FMAT,2
INCH
T1C0.0157
T2C0.0315
T3C0.0394
T4C0.0472
T5C0.0512
T6C0.0984
T7C0.1220
%
G90
G05
T1
X3.4429Y-2.6339
X5.0285Y-4.7687
T2
X3.7992Y-4.0551
X3.7992Y-4.1929
X4.1929Y-3.6811
X4.1929Y-3.8189
X4.1929Y-4.0551
X4.1929Y-4.1929
T3
X2.2461Y-1.7126
X2.3461Y-1.7126
X2.4461Y-1.7126
X2.5461Y-1.7126
X2.6461Y-1.7126
X2.977Y-4.1339
X1.8888Y-3.8281
X1.8888Y-3.9856
X1.8888Y-4.1431
X2.3612Y-3.8281
X2.3612Y-3.9856
X2.3612Y-4.1431
X2.5197Y-3.3878
X2.5197Y-3.4862
X2.5197Y-3.5846
X1.8888Y-4.3281
X1.8888Y-4.4856
X1.8888Y-4.6431
X2.3612Y-4.3281
X2.3612Y-4.4856
X2.3612Y-4.6431
X2.558Y-4.413
X1.8888Y-3.3281
X1.8888Y-3.4856
X1.8888Y-3.6431
X2.3612Y-3.3281
X2.3612Y-3.4856
X2.3612Y-3.6431
X5.4134Y-3.8976
X2.8465Y-3.2362
X3.4449Y-3.8189
X3.5433Y-3.8189
X3.6417Y-3.8189
X3.76Y-1.7126
X3.86Y-1.7126
X3.96Y-1.7126
X4.06Y-1.7126
X4.16Y-1.7126
X1.949Y-3.154
X2.049Y-3.154
X4.37Y-1.7126
X4.47Y-1.7126
X4.57Y-1.7126
X4.67Y-1.7126
X3.1472Y-4.0339
X3.1472Y-4.1339
X3.1472Y-4.2339
X3.4472Y-4.0339
X3.4472Y-4.1339
X3.4472Y-4.2339
X1.8888Y-4.8301
X1.8888Y-4.9876
X1.8888Y-5.1451
X2.3612Y-4.8301
X2.3612Y-4.9876
X2.3612Y-5.1451
X2.5338Y-3.8576
X2.2463Y-2.016
X2.2463Y-3.016
X2.3463Y-2.016
X2.3463Y-3.016
X2.4463Y-2.016
X2.4463Y-3.016
X2.5463Y-2.016
X2.5463Y-3.016
X2.6463Y-2.016
X2.6463Y-3.016
X2.7463Y-2.016
X2.7463Y-3.016
X2.8463Y-2.016
X2.8463Y-3.016
X2.9463Y-2.016
X2.9463Y-3.016
X3.0463Y-2.016
X3.0463Y-3.016
X3.1463Y-2.016
X3.1463Y-3.016
X3.2463Y-2.016
X3.2463Y-3.016
X3.3463Y-2.016
X3.3463Y-3.016
X3.4463Y-2.016
X3.4463Y-3.016
X3.5463Y-2.016
X3.5463Y-3.016
X3.6463Y-2.016
X3.6463Y-3.016
X2.5469Y-4.0339
X2.5469Y-4.1339
X2.5469Y-4.2339
X2.8469Y-4.0339
X2.8469Y-4.1339
X2.8469Y-4.2339
T4
X3.7992Y-3.1614
X3.7992Y-3.6614
X4.8366Y-5.1181
X5.0335Y-5.1181
X4.5906Y-4.4567
X4.5906Y-4.7559
X5.2402Y-4.7559
X5.378Y-4.4567
X5.5157Y-4.7559
X2.8465Y-3.3858
X3.3465Y-3.3858
X4.1476Y-5.1181
X4.3445Y-5.1181
X2.6476Y-3.8583
X3.1476Y-3.8583
X2.5591Y-4.5437
X2.5591Y-5.1437
X3.4587Y-5.1181
X3.6555Y-5.1181
X3.3976Y-4.4567
X3.3976Y-4.7559
X4.0472Y-4.7559
X4.185Y-4.4567
X4.3228Y-4.7559
X2.748Y-3.622
X3.248Y-3.622
T5
X2.874Y-4.3996
X2.874Y-4.9996
X3.1496Y-4.4
X3.1496Y-5.0
X5.0394Y-3.8976
X5.1394Y-3.8976
X2.3622Y-5.4134
X2.9622Y-5.4134
T6
X5.6004Y-1.752
X1.9291Y-1.752
X1.9291Y-5.4232
X5.6004Y-5.4232
T7
X4.8819Y-2.5984
X5.0591Y-3.6614
T0
M30
