G04 #@! TF.GenerationSoftware,KiCad,Pcbnew,(5.1.5)-3*
G04 #@! TF.CreationDate,2021-03-22T00:26:30+01:00*
G04 #@! TF.ProjectId,12V_to_5V,3132565f-746f-45f3-9556-2e6b69636164,rev?*
G04 #@! TF.SameCoordinates,Original*
G04 #@! TF.FileFunction,Copper,L2,Bot*
G04 #@! TF.FilePolarity,Positive*
%FSLAX46Y46*%
G04 Gerber Fmt 4.6, Leading zero omitted, Abs format (unit mm)*
G04 Created by KiCad (PCBNEW (5.1.5)-3) date 2021-03-22 00:26:30*
%MOMM*%
%LPD*%
G04 APERTURE LIST*
%ADD10C,3.500000*%
%ADD11O,1.700000X1.700000*%
%ADD12R,1.700000X1.700000*%
%ADD13C,2.500000*%
%ADD14R,1.600000X1.600000*%
%ADD15C,1.600000*%
%ADD16R,2.400000X2.400000*%
%ADD17O,2.400000X2.400000*%
%ADD18C,1.000000*%
%ADD19C,0.254000*%
G04 APERTURE END LIST*
D10*
X120000000Y-84500000D03*
X93000000Y-89000000D03*
D11*
X87000000Y-91040000D03*
D12*
X87000000Y-88500000D03*
D13*
X90200000Y-78350000D03*
X90200000Y-83350000D03*
D14*
X100500000Y-78000000D03*
D15*
X100500000Y-81500000D03*
D14*
X94000000Y-97000000D03*
D15*
X94000000Y-94500000D03*
X100000000Y-89500000D03*
D14*
X100000000Y-87000000D03*
D16*
X117000000Y-95500000D03*
D17*
X101760000Y-95500000D03*
D13*
X129800000Y-77650000D03*
X129800000Y-82650000D03*
D12*
X87000000Y-98000000D03*
D18*
X102788800Y-87000000D02*
X100000000Y-87000000D01*
X111150400Y-78638400D02*
X102788800Y-87000000D01*
X127043834Y-78638400D02*
X111150400Y-78638400D01*
X129800000Y-77650000D02*
X128032234Y-77650000D01*
X128032234Y-77650000D02*
X127043834Y-78638400D01*
X87100001Y-86549999D02*
X87000000Y-86650000D01*
X97749999Y-86549999D02*
X87100001Y-86549999D01*
X98200000Y-87000000D02*
X97749999Y-86549999D01*
X87000000Y-86650000D02*
X87000000Y-88500000D01*
X100000000Y-87000000D02*
X98200000Y-87000000D01*
D19*
G36*
X134340001Y-99340000D02*
G01*
X88253889Y-99340000D01*
X88301185Y-99301185D01*
X88380537Y-99204494D01*
X88439502Y-99094180D01*
X88475812Y-98974482D01*
X88488072Y-98850000D01*
X88485000Y-98285750D01*
X88326250Y-98127000D01*
X87127000Y-98127000D01*
X87127000Y-98147000D01*
X86873000Y-98147000D01*
X86873000Y-98127000D01*
X86853000Y-98127000D01*
X86853000Y-97873000D01*
X86873000Y-97873000D01*
X86873000Y-96673750D01*
X87127000Y-96673750D01*
X87127000Y-97873000D01*
X88326250Y-97873000D01*
X88485000Y-97714250D01*
X88488072Y-97150000D01*
X88475812Y-97025518D01*
X88439502Y-96905820D01*
X88380537Y-96795506D01*
X88301185Y-96698815D01*
X88204494Y-96619463D01*
X88094180Y-96560498D01*
X87974482Y-96524188D01*
X87850000Y-96511928D01*
X87285750Y-96515000D01*
X87127000Y-96673750D01*
X86873000Y-96673750D01*
X86714250Y-96515000D01*
X86150000Y-96511928D01*
X86025518Y-96524188D01*
X85905820Y-96560498D01*
X85795506Y-96619463D01*
X85698815Y-96698815D01*
X85660000Y-96746111D01*
X85660000Y-96200000D01*
X92561928Y-96200000D01*
X92561928Y-97800000D01*
X92574188Y-97924482D01*
X92610498Y-98044180D01*
X92669463Y-98154494D01*
X92748815Y-98251185D01*
X92845506Y-98330537D01*
X92955820Y-98389502D01*
X93075518Y-98425812D01*
X93200000Y-98438072D01*
X94800000Y-98438072D01*
X94924482Y-98425812D01*
X95044180Y-98389502D01*
X95154494Y-98330537D01*
X95251185Y-98251185D01*
X95330537Y-98154494D01*
X95389502Y-98044180D01*
X95425812Y-97924482D01*
X95438072Y-97800000D01*
X95438072Y-96200000D01*
X95425812Y-96075518D01*
X95389502Y-95955820D01*
X95365976Y-95911805D01*
X99971805Y-95911805D01*
X100044379Y-96151066D01*
X100204361Y-96473257D01*
X100424125Y-96758046D01*
X100695226Y-96994489D01*
X101007246Y-97173500D01*
X101348194Y-97288199D01*
X101633000Y-97171854D01*
X101633000Y-95627000D01*
X101887000Y-95627000D01*
X101887000Y-97171854D01*
X102171806Y-97288199D01*
X102512754Y-97173500D01*
X102824774Y-96994489D01*
X103095875Y-96758046D01*
X103315639Y-96473257D01*
X103475621Y-96151066D01*
X103548195Y-95911805D01*
X103431432Y-95627000D01*
X101887000Y-95627000D01*
X101633000Y-95627000D01*
X100088568Y-95627000D01*
X99971805Y-95911805D01*
X95365976Y-95911805D01*
X95330537Y-95845506D01*
X95251185Y-95748815D01*
X95154494Y-95669463D01*
X95044180Y-95610498D01*
X94924482Y-95574188D01*
X94800000Y-95561928D01*
X94792785Y-95561928D01*
X94813097Y-95492702D01*
X94000000Y-94679605D01*
X93186903Y-95492702D01*
X93207215Y-95561928D01*
X93200000Y-95561928D01*
X93075518Y-95574188D01*
X92955820Y-95610498D01*
X92845506Y-95669463D01*
X92748815Y-95748815D01*
X92669463Y-95845506D01*
X92610498Y-95955820D01*
X92574188Y-96075518D01*
X92561928Y-96200000D01*
X85660000Y-96200000D01*
X85660000Y-94570512D01*
X92559783Y-94570512D01*
X92601213Y-94850130D01*
X92696397Y-95116292D01*
X92763329Y-95241514D01*
X93007298Y-95313097D01*
X93820395Y-94500000D01*
X94179605Y-94500000D01*
X94992702Y-95313097D01*
X95236671Y-95241514D01*
X95309217Y-95088195D01*
X99971805Y-95088195D01*
X100088568Y-95373000D01*
X101633000Y-95373000D01*
X101633000Y-93828146D01*
X101887000Y-93828146D01*
X101887000Y-95373000D01*
X103431432Y-95373000D01*
X103548195Y-95088195D01*
X103475621Y-94848934D01*
X103315639Y-94526743D01*
X103140668Y-94300000D01*
X115161928Y-94300000D01*
X115161928Y-96700000D01*
X115174188Y-96824482D01*
X115210498Y-96944180D01*
X115269463Y-97054494D01*
X115348815Y-97151185D01*
X115445506Y-97230537D01*
X115555820Y-97289502D01*
X115675518Y-97325812D01*
X115800000Y-97338072D01*
X118200000Y-97338072D01*
X118324482Y-97325812D01*
X118444180Y-97289502D01*
X118554494Y-97230537D01*
X118651185Y-97151185D01*
X118730537Y-97054494D01*
X118789502Y-96944180D01*
X118825812Y-96824482D01*
X118838072Y-96700000D01*
X118838072Y-94300000D01*
X118825812Y-94175518D01*
X118789502Y-94055820D01*
X118730537Y-93945506D01*
X118651185Y-93848815D01*
X118554494Y-93769463D01*
X118444180Y-93710498D01*
X118324482Y-93674188D01*
X118200000Y-93661928D01*
X115800000Y-93661928D01*
X115675518Y-93674188D01*
X115555820Y-93710498D01*
X115445506Y-93769463D01*
X115348815Y-93848815D01*
X115269463Y-93945506D01*
X115210498Y-94055820D01*
X115174188Y-94175518D01*
X115161928Y-94300000D01*
X103140668Y-94300000D01*
X103095875Y-94241954D01*
X102824774Y-94005511D01*
X102512754Y-93826500D01*
X102171806Y-93711801D01*
X101887000Y-93828146D01*
X101633000Y-93828146D01*
X101348194Y-93711801D01*
X101007246Y-93826500D01*
X100695226Y-94005511D01*
X100424125Y-94241954D01*
X100204361Y-94526743D01*
X100044379Y-94848934D01*
X99971805Y-95088195D01*
X95309217Y-95088195D01*
X95357571Y-94986004D01*
X95426300Y-94711816D01*
X95440217Y-94429488D01*
X95398787Y-94149870D01*
X95303603Y-93883708D01*
X95236671Y-93758486D01*
X94992702Y-93686903D01*
X94179605Y-94500000D01*
X93820395Y-94500000D01*
X93007298Y-93686903D01*
X92763329Y-93758486D01*
X92642429Y-94013996D01*
X92573700Y-94288184D01*
X92559783Y-94570512D01*
X85660000Y-94570512D01*
X85660000Y-93507298D01*
X93186903Y-93507298D01*
X94000000Y-94320395D01*
X94813097Y-93507298D01*
X94741514Y-93263329D01*
X94486004Y-93142429D01*
X94211816Y-93073700D01*
X93929488Y-93059783D01*
X93649870Y-93101213D01*
X93383708Y-93196397D01*
X93258486Y-93263329D01*
X93186903Y-93507298D01*
X85660000Y-93507298D01*
X85660000Y-91685445D01*
X85684010Y-91743411D01*
X85846525Y-91986632D01*
X86053368Y-92193475D01*
X86296589Y-92355990D01*
X86566842Y-92467932D01*
X86853740Y-92525000D01*
X87146260Y-92525000D01*
X87433158Y-92467932D01*
X87703411Y-92355990D01*
X87946632Y-92193475D01*
X88153475Y-91986632D01*
X88315990Y-91743411D01*
X88427932Y-91473158D01*
X88485000Y-91186260D01*
X88485000Y-90893740D01*
X88440418Y-90669609D01*
X91509997Y-90669609D01*
X91696073Y-91010766D01*
X92113409Y-91226513D01*
X92564815Y-91356696D01*
X93032946Y-91396313D01*
X93499811Y-91343842D01*
X93947468Y-91201297D01*
X94303927Y-91010766D01*
X94490003Y-90669609D01*
X94313097Y-90492702D01*
X99186903Y-90492702D01*
X99258486Y-90736671D01*
X99513996Y-90857571D01*
X99788184Y-90926300D01*
X100070512Y-90940217D01*
X100350130Y-90898787D01*
X100616292Y-90803603D01*
X100741514Y-90736671D01*
X100813097Y-90492702D01*
X100000000Y-89679605D01*
X99186903Y-90492702D01*
X94313097Y-90492702D01*
X93000000Y-89179605D01*
X91509997Y-90669609D01*
X88440418Y-90669609D01*
X88427932Y-90606842D01*
X88315990Y-90336589D01*
X88153475Y-90093368D01*
X88021620Y-89961513D01*
X88094180Y-89939502D01*
X88204494Y-89880537D01*
X88301185Y-89801185D01*
X88380537Y-89704494D01*
X88439502Y-89594180D01*
X88475812Y-89474482D01*
X88488072Y-89350000D01*
X88488072Y-87684999D01*
X91009537Y-87684999D01*
X90989234Y-87696073D01*
X90773487Y-88113409D01*
X90643304Y-88564815D01*
X90603687Y-89032946D01*
X90656158Y-89499811D01*
X90798703Y-89947468D01*
X90989234Y-90303927D01*
X91330391Y-90490003D01*
X92820395Y-89000000D01*
X92806252Y-88985858D01*
X92985858Y-88806252D01*
X93000000Y-88820395D01*
X93014142Y-88806252D01*
X93193748Y-88985858D01*
X93179605Y-89000000D01*
X94669609Y-90490003D01*
X95010766Y-90303927D01*
X95226513Y-89886591D01*
X95317668Y-89570512D01*
X98559783Y-89570512D01*
X98601213Y-89850130D01*
X98696397Y-90116292D01*
X98763329Y-90241514D01*
X99007298Y-90313097D01*
X99820395Y-89500000D01*
X100179605Y-89500000D01*
X100992702Y-90313097D01*
X101236671Y-90241514D01*
X101357571Y-89986004D01*
X101426300Y-89711816D01*
X101440217Y-89429488D01*
X101398787Y-89149870D01*
X101303603Y-88883708D01*
X101236671Y-88758486D01*
X100992702Y-88686903D01*
X100179605Y-89500000D01*
X99820395Y-89500000D01*
X99007298Y-88686903D01*
X98763329Y-88758486D01*
X98642429Y-89013996D01*
X98573700Y-89288184D01*
X98559783Y-89570512D01*
X95317668Y-89570512D01*
X95356696Y-89435185D01*
X95396313Y-88967054D01*
X95343842Y-88500189D01*
X95201297Y-88052532D01*
X95010766Y-87696073D01*
X94990463Y-87684999D01*
X97279867Y-87684999D01*
X97358008Y-87763140D01*
X97393551Y-87806449D01*
X97566377Y-87948284D01*
X97745787Y-88044180D01*
X97763553Y-88053676D01*
X97977501Y-88118577D01*
X98200000Y-88140491D01*
X98255752Y-88135000D01*
X98659043Y-88135000D01*
X98669463Y-88154494D01*
X98748815Y-88251185D01*
X98845506Y-88330537D01*
X98955820Y-88389502D01*
X99075518Y-88425812D01*
X99200000Y-88438072D01*
X99207215Y-88438072D01*
X99186903Y-88507298D01*
X100000000Y-89320395D01*
X100813097Y-88507298D01*
X100792785Y-88438072D01*
X100800000Y-88438072D01*
X100924482Y-88425812D01*
X101044180Y-88389502D01*
X101154494Y-88330537D01*
X101251185Y-88251185D01*
X101330537Y-88154494D01*
X101340957Y-88135000D01*
X102733049Y-88135000D01*
X102788800Y-88140491D01*
X102844551Y-88135000D01*
X102844552Y-88135000D01*
X103011299Y-88118577D01*
X103225247Y-88053676D01*
X103422423Y-87948284D01*
X103595249Y-87806449D01*
X103630796Y-87763135D01*
X105224322Y-86169609D01*
X118509997Y-86169609D01*
X118696073Y-86510766D01*
X119113409Y-86726513D01*
X119564815Y-86856696D01*
X120032946Y-86896313D01*
X120499811Y-86843842D01*
X120947468Y-86701297D01*
X121303927Y-86510766D01*
X121490003Y-86169609D01*
X120000000Y-84679605D01*
X118509997Y-86169609D01*
X105224322Y-86169609D01*
X106860985Y-84532946D01*
X117603687Y-84532946D01*
X117656158Y-84999811D01*
X117798703Y-85447468D01*
X117989234Y-85803927D01*
X118330391Y-85990003D01*
X119820395Y-84500000D01*
X120179605Y-84500000D01*
X121669609Y-85990003D01*
X122010766Y-85803927D01*
X122226513Y-85386591D01*
X122356696Y-84935185D01*
X122396313Y-84467054D01*
X122343842Y-84000189D01*
X122332193Y-83963605D01*
X128666000Y-83963605D01*
X128791914Y-84253577D01*
X129124126Y-84419433D01*
X129482312Y-84517290D01*
X129852706Y-84543389D01*
X130221075Y-84496725D01*
X130573262Y-84379094D01*
X130808086Y-84253577D01*
X130934000Y-83963605D01*
X129800000Y-82829605D01*
X128666000Y-83963605D01*
X122332193Y-83963605D01*
X122201297Y-83552532D01*
X122010766Y-83196073D01*
X121669609Y-83009997D01*
X120179605Y-84500000D01*
X119820395Y-84500000D01*
X118330391Y-83009997D01*
X117989234Y-83196073D01*
X117773487Y-83613409D01*
X117643304Y-84064815D01*
X117603687Y-84532946D01*
X106860985Y-84532946D01*
X108563540Y-82830391D01*
X118509997Y-82830391D01*
X120000000Y-84320395D01*
X121490003Y-82830391D01*
X121420361Y-82702706D01*
X127906611Y-82702706D01*
X127953275Y-83071075D01*
X128070906Y-83423262D01*
X128196423Y-83658086D01*
X128486395Y-83784000D01*
X129620395Y-82650000D01*
X129979605Y-82650000D01*
X131113605Y-83784000D01*
X131403577Y-83658086D01*
X131569433Y-83325874D01*
X131667290Y-82967688D01*
X131693389Y-82597294D01*
X131646725Y-82228925D01*
X131529094Y-81876738D01*
X131403577Y-81641914D01*
X131113605Y-81516000D01*
X129979605Y-82650000D01*
X129620395Y-82650000D01*
X128486395Y-81516000D01*
X128196423Y-81641914D01*
X128030567Y-81974126D01*
X127932710Y-82332312D01*
X127906611Y-82702706D01*
X121420361Y-82702706D01*
X121303927Y-82489234D01*
X120886591Y-82273487D01*
X120435185Y-82143304D01*
X119967054Y-82103687D01*
X119500189Y-82156158D01*
X119052532Y-82298703D01*
X118696073Y-82489234D01*
X118509997Y-82830391D01*
X108563540Y-82830391D01*
X110057536Y-81336395D01*
X128666000Y-81336395D01*
X129800000Y-82470395D01*
X130934000Y-81336395D01*
X130808086Y-81046423D01*
X130475874Y-80880567D01*
X130117688Y-80782710D01*
X129747294Y-80756611D01*
X129378925Y-80803275D01*
X129026738Y-80920906D01*
X128791914Y-81046423D01*
X128666000Y-81336395D01*
X110057536Y-81336395D01*
X111620532Y-79773400D01*
X126988083Y-79773400D01*
X127043834Y-79778891D01*
X127099585Y-79773400D01*
X127099586Y-79773400D01*
X127266333Y-79756977D01*
X127480281Y-79692076D01*
X127677457Y-79586684D01*
X127850283Y-79444849D01*
X127885829Y-79401536D01*
X128385787Y-78901580D01*
X128598382Y-79114175D01*
X128907118Y-79320466D01*
X129250166Y-79462561D01*
X129614344Y-79535000D01*
X129985656Y-79535000D01*
X130349834Y-79462561D01*
X130692882Y-79320466D01*
X131001618Y-79114175D01*
X131264175Y-78851618D01*
X131470466Y-78542882D01*
X131612561Y-78199834D01*
X131685000Y-77835656D01*
X131685000Y-77464344D01*
X131612561Y-77100166D01*
X131470466Y-76757118D01*
X131264175Y-76448382D01*
X131001618Y-76185825D01*
X130692882Y-75979534D01*
X130349834Y-75837439D01*
X129985656Y-75765000D01*
X129614344Y-75765000D01*
X129250166Y-75837439D01*
X128907118Y-75979534D01*
X128598382Y-76185825D01*
X128335825Y-76448382D01*
X128291312Y-76515000D01*
X128087986Y-76515000D01*
X128032234Y-76509509D01*
X127809735Y-76531423D01*
X127595787Y-76596324D01*
X127398611Y-76701716D01*
X127269090Y-76808011D01*
X127269088Y-76808013D01*
X127225785Y-76843551D01*
X127190247Y-76886855D01*
X126573702Y-77503400D01*
X111206151Y-77503400D01*
X111150399Y-77497909D01*
X110927900Y-77519823D01*
X110878105Y-77534929D01*
X110713953Y-77584724D01*
X110516777Y-77690116D01*
X110343951Y-77831951D01*
X110308411Y-77875257D01*
X102318669Y-85865000D01*
X101340957Y-85865000D01*
X101330537Y-85845506D01*
X101251185Y-85748815D01*
X101154494Y-85669463D01*
X101044180Y-85610498D01*
X100924482Y-85574188D01*
X100800000Y-85561928D01*
X99200000Y-85561928D01*
X99075518Y-85574188D01*
X98955820Y-85610498D01*
X98845506Y-85669463D01*
X98748815Y-85748815D01*
X98669463Y-85845506D01*
X98662905Y-85857774D01*
X98591994Y-85786863D01*
X98556448Y-85743550D01*
X98383622Y-85601715D01*
X98186446Y-85496323D01*
X97972498Y-85431422D01*
X97805751Y-85414999D01*
X97805750Y-85414999D01*
X97749999Y-85409508D01*
X97694248Y-85414999D01*
X87155753Y-85414999D01*
X87100001Y-85409508D01*
X87044250Y-85414999D01*
X87044249Y-85414999D01*
X86877502Y-85431422D01*
X86663554Y-85496323D01*
X86466378Y-85601715D01*
X86293552Y-85743550D01*
X86258005Y-85786864D01*
X86236865Y-85808004D01*
X86193551Y-85843551D01*
X86051716Y-86016377D01*
X85969813Y-86169609D01*
X85946324Y-86213554D01*
X85881423Y-86427502D01*
X85859509Y-86650000D01*
X85865000Y-86705752D01*
X85865000Y-87082317D01*
X85795506Y-87119463D01*
X85698815Y-87198815D01*
X85660000Y-87246111D01*
X85660000Y-84663605D01*
X89066000Y-84663605D01*
X89191914Y-84953577D01*
X89524126Y-85119433D01*
X89882312Y-85217290D01*
X90252706Y-85243389D01*
X90621075Y-85196725D01*
X90973262Y-85079094D01*
X91208086Y-84953577D01*
X91334000Y-84663605D01*
X90200000Y-83529605D01*
X89066000Y-84663605D01*
X85660000Y-84663605D01*
X85660000Y-83402706D01*
X88306611Y-83402706D01*
X88353275Y-83771075D01*
X88470906Y-84123262D01*
X88596423Y-84358086D01*
X88886395Y-84484000D01*
X90020395Y-83350000D01*
X90379605Y-83350000D01*
X91513605Y-84484000D01*
X91803577Y-84358086D01*
X91969433Y-84025874D01*
X92067290Y-83667688D01*
X92093389Y-83297294D01*
X92046725Y-82928925D01*
X91929094Y-82576738D01*
X91884176Y-82492702D01*
X99686903Y-82492702D01*
X99758486Y-82736671D01*
X100013996Y-82857571D01*
X100288184Y-82926300D01*
X100570512Y-82940217D01*
X100850130Y-82898787D01*
X101116292Y-82803603D01*
X101241514Y-82736671D01*
X101313097Y-82492702D01*
X100500000Y-81679605D01*
X99686903Y-82492702D01*
X91884176Y-82492702D01*
X91803577Y-82341914D01*
X91513605Y-82216000D01*
X90379605Y-83350000D01*
X90020395Y-83350000D01*
X88886395Y-82216000D01*
X88596423Y-82341914D01*
X88430567Y-82674126D01*
X88332710Y-83032312D01*
X88306611Y-83402706D01*
X85660000Y-83402706D01*
X85660000Y-82036395D01*
X89066000Y-82036395D01*
X90200000Y-83170395D01*
X91334000Y-82036395D01*
X91208086Y-81746423D01*
X90875874Y-81580567D01*
X90839070Y-81570512D01*
X99059783Y-81570512D01*
X99101213Y-81850130D01*
X99196397Y-82116292D01*
X99263329Y-82241514D01*
X99507298Y-82313097D01*
X100320395Y-81500000D01*
X100679605Y-81500000D01*
X101492702Y-82313097D01*
X101736671Y-82241514D01*
X101857571Y-81986004D01*
X101926300Y-81711816D01*
X101940217Y-81429488D01*
X101898787Y-81149870D01*
X101803603Y-80883708D01*
X101736671Y-80758486D01*
X101492702Y-80686903D01*
X100679605Y-81500000D01*
X100320395Y-81500000D01*
X99507298Y-80686903D01*
X99263329Y-80758486D01*
X99142429Y-81013996D01*
X99073700Y-81288184D01*
X99059783Y-81570512D01*
X90839070Y-81570512D01*
X90517688Y-81482710D01*
X90147294Y-81456611D01*
X89778925Y-81503275D01*
X89426738Y-81620906D01*
X89191914Y-81746423D01*
X89066000Y-82036395D01*
X85660000Y-82036395D01*
X85660000Y-80507298D01*
X99686903Y-80507298D01*
X100500000Y-81320395D01*
X101313097Y-80507298D01*
X101241514Y-80263329D01*
X100986004Y-80142429D01*
X100711816Y-80073700D01*
X100429488Y-80059783D01*
X100149870Y-80101213D01*
X99883708Y-80196397D01*
X99758486Y-80263329D01*
X99686903Y-80507298D01*
X85660000Y-80507298D01*
X85660000Y-78164344D01*
X88315000Y-78164344D01*
X88315000Y-78535656D01*
X88387439Y-78899834D01*
X88529534Y-79242882D01*
X88735825Y-79551618D01*
X88998382Y-79814175D01*
X89307118Y-80020466D01*
X89650166Y-80162561D01*
X90014344Y-80235000D01*
X90385656Y-80235000D01*
X90749834Y-80162561D01*
X91092882Y-80020466D01*
X91401618Y-79814175D01*
X91664175Y-79551618D01*
X91870466Y-79242882D01*
X92012561Y-78899834D01*
X92085000Y-78535656D01*
X92085000Y-78164344D01*
X92012561Y-77800166D01*
X91870466Y-77457118D01*
X91698666Y-77200000D01*
X99061928Y-77200000D01*
X99061928Y-78800000D01*
X99074188Y-78924482D01*
X99110498Y-79044180D01*
X99169463Y-79154494D01*
X99248815Y-79251185D01*
X99345506Y-79330537D01*
X99455820Y-79389502D01*
X99575518Y-79425812D01*
X99700000Y-79438072D01*
X101300000Y-79438072D01*
X101424482Y-79425812D01*
X101544180Y-79389502D01*
X101654494Y-79330537D01*
X101751185Y-79251185D01*
X101830537Y-79154494D01*
X101889502Y-79044180D01*
X101925812Y-78924482D01*
X101938072Y-78800000D01*
X101938072Y-77200000D01*
X101925812Y-77075518D01*
X101889502Y-76955820D01*
X101830537Y-76845506D01*
X101751185Y-76748815D01*
X101654494Y-76669463D01*
X101544180Y-76610498D01*
X101424482Y-76574188D01*
X101300000Y-76561928D01*
X99700000Y-76561928D01*
X99575518Y-76574188D01*
X99455820Y-76610498D01*
X99345506Y-76669463D01*
X99248815Y-76748815D01*
X99169463Y-76845506D01*
X99110498Y-76955820D01*
X99074188Y-77075518D01*
X99061928Y-77200000D01*
X91698666Y-77200000D01*
X91664175Y-77148382D01*
X91401618Y-76885825D01*
X91092882Y-76679534D01*
X90749834Y-76537439D01*
X90385656Y-76465000D01*
X90014344Y-76465000D01*
X89650166Y-76537439D01*
X89307118Y-76679534D01*
X88998382Y-76885825D01*
X88735825Y-77148382D01*
X88529534Y-77457118D01*
X88387439Y-77800166D01*
X88315000Y-78164344D01*
X85660000Y-78164344D01*
X85660000Y-75660000D01*
X134340000Y-75660000D01*
X134340001Y-99340000D01*
G37*
X134340001Y-99340000D02*
X88253889Y-99340000D01*
X88301185Y-99301185D01*
X88380537Y-99204494D01*
X88439502Y-99094180D01*
X88475812Y-98974482D01*
X88488072Y-98850000D01*
X88485000Y-98285750D01*
X88326250Y-98127000D01*
X87127000Y-98127000D01*
X87127000Y-98147000D01*
X86873000Y-98147000D01*
X86873000Y-98127000D01*
X86853000Y-98127000D01*
X86853000Y-97873000D01*
X86873000Y-97873000D01*
X86873000Y-96673750D01*
X87127000Y-96673750D01*
X87127000Y-97873000D01*
X88326250Y-97873000D01*
X88485000Y-97714250D01*
X88488072Y-97150000D01*
X88475812Y-97025518D01*
X88439502Y-96905820D01*
X88380537Y-96795506D01*
X88301185Y-96698815D01*
X88204494Y-96619463D01*
X88094180Y-96560498D01*
X87974482Y-96524188D01*
X87850000Y-96511928D01*
X87285750Y-96515000D01*
X87127000Y-96673750D01*
X86873000Y-96673750D01*
X86714250Y-96515000D01*
X86150000Y-96511928D01*
X86025518Y-96524188D01*
X85905820Y-96560498D01*
X85795506Y-96619463D01*
X85698815Y-96698815D01*
X85660000Y-96746111D01*
X85660000Y-96200000D01*
X92561928Y-96200000D01*
X92561928Y-97800000D01*
X92574188Y-97924482D01*
X92610498Y-98044180D01*
X92669463Y-98154494D01*
X92748815Y-98251185D01*
X92845506Y-98330537D01*
X92955820Y-98389502D01*
X93075518Y-98425812D01*
X93200000Y-98438072D01*
X94800000Y-98438072D01*
X94924482Y-98425812D01*
X95044180Y-98389502D01*
X95154494Y-98330537D01*
X95251185Y-98251185D01*
X95330537Y-98154494D01*
X95389502Y-98044180D01*
X95425812Y-97924482D01*
X95438072Y-97800000D01*
X95438072Y-96200000D01*
X95425812Y-96075518D01*
X95389502Y-95955820D01*
X95365976Y-95911805D01*
X99971805Y-95911805D01*
X100044379Y-96151066D01*
X100204361Y-96473257D01*
X100424125Y-96758046D01*
X100695226Y-96994489D01*
X101007246Y-97173500D01*
X101348194Y-97288199D01*
X101633000Y-97171854D01*
X101633000Y-95627000D01*
X101887000Y-95627000D01*
X101887000Y-97171854D01*
X102171806Y-97288199D01*
X102512754Y-97173500D01*
X102824774Y-96994489D01*
X103095875Y-96758046D01*
X103315639Y-96473257D01*
X103475621Y-96151066D01*
X103548195Y-95911805D01*
X103431432Y-95627000D01*
X101887000Y-95627000D01*
X101633000Y-95627000D01*
X100088568Y-95627000D01*
X99971805Y-95911805D01*
X95365976Y-95911805D01*
X95330537Y-95845506D01*
X95251185Y-95748815D01*
X95154494Y-95669463D01*
X95044180Y-95610498D01*
X94924482Y-95574188D01*
X94800000Y-95561928D01*
X94792785Y-95561928D01*
X94813097Y-95492702D01*
X94000000Y-94679605D01*
X93186903Y-95492702D01*
X93207215Y-95561928D01*
X93200000Y-95561928D01*
X93075518Y-95574188D01*
X92955820Y-95610498D01*
X92845506Y-95669463D01*
X92748815Y-95748815D01*
X92669463Y-95845506D01*
X92610498Y-95955820D01*
X92574188Y-96075518D01*
X92561928Y-96200000D01*
X85660000Y-96200000D01*
X85660000Y-94570512D01*
X92559783Y-94570512D01*
X92601213Y-94850130D01*
X92696397Y-95116292D01*
X92763329Y-95241514D01*
X93007298Y-95313097D01*
X93820395Y-94500000D01*
X94179605Y-94500000D01*
X94992702Y-95313097D01*
X95236671Y-95241514D01*
X95309217Y-95088195D01*
X99971805Y-95088195D01*
X100088568Y-95373000D01*
X101633000Y-95373000D01*
X101633000Y-93828146D01*
X101887000Y-93828146D01*
X101887000Y-95373000D01*
X103431432Y-95373000D01*
X103548195Y-95088195D01*
X103475621Y-94848934D01*
X103315639Y-94526743D01*
X103140668Y-94300000D01*
X115161928Y-94300000D01*
X115161928Y-96700000D01*
X115174188Y-96824482D01*
X115210498Y-96944180D01*
X115269463Y-97054494D01*
X115348815Y-97151185D01*
X115445506Y-97230537D01*
X115555820Y-97289502D01*
X115675518Y-97325812D01*
X115800000Y-97338072D01*
X118200000Y-97338072D01*
X118324482Y-97325812D01*
X118444180Y-97289502D01*
X118554494Y-97230537D01*
X118651185Y-97151185D01*
X118730537Y-97054494D01*
X118789502Y-96944180D01*
X118825812Y-96824482D01*
X118838072Y-96700000D01*
X118838072Y-94300000D01*
X118825812Y-94175518D01*
X118789502Y-94055820D01*
X118730537Y-93945506D01*
X118651185Y-93848815D01*
X118554494Y-93769463D01*
X118444180Y-93710498D01*
X118324482Y-93674188D01*
X118200000Y-93661928D01*
X115800000Y-93661928D01*
X115675518Y-93674188D01*
X115555820Y-93710498D01*
X115445506Y-93769463D01*
X115348815Y-93848815D01*
X115269463Y-93945506D01*
X115210498Y-94055820D01*
X115174188Y-94175518D01*
X115161928Y-94300000D01*
X103140668Y-94300000D01*
X103095875Y-94241954D01*
X102824774Y-94005511D01*
X102512754Y-93826500D01*
X102171806Y-93711801D01*
X101887000Y-93828146D01*
X101633000Y-93828146D01*
X101348194Y-93711801D01*
X101007246Y-93826500D01*
X100695226Y-94005511D01*
X100424125Y-94241954D01*
X100204361Y-94526743D01*
X100044379Y-94848934D01*
X99971805Y-95088195D01*
X95309217Y-95088195D01*
X95357571Y-94986004D01*
X95426300Y-94711816D01*
X95440217Y-94429488D01*
X95398787Y-94149870D01*
X95303603Y-93883708D01*
X95236671Y-93758486D01*
X94992702Y-93686903D01*
X94179605Y-94500000D01*
X93820395Y-94500000D01*
X93007298Y-93686903D01*
X92763329Y-93758486D01*
X92642429Y-94013996D01*
X92573700Y-94288184D01*
X92559783Y-94570512D01*
X85660000Y-94570512D01*
X85660000Y-93507298D01*
X93186903Y-93507298D01*
X94000000Y-94320395D01*
X94813097Y-93507298D01*
X94741514Y-93263329D01*
X94486004Y-93142429D01*
X94211816Y-93073700D01*
X93929488Y-93059783D01*
X93649870Y-93101213D01*
X93383708Y-93196397D01*
X93258486Y-93263329D01*
X93186903Y-93507298D01*
X85660000Y-93507298D01*
X85660000Y-91685445D01*
X85684010Y-91743411D01*
X85846525Y-91986632D01*
X86053368Y-92193475D01*
X86296589Y-92355990D01*
X86566842Y-92467932D01*
X86853740Y-92525000D01*
X87146260Y-92525000D01*
X87433158Y-92467932D01*
X87703411Y-92355990D01*
X87946632Y-92193475D01*
X88153475Y-91986632D01*
X88315990Y-91743411D01*
X88427932Y-91473158D01*
X88485000Y-91186260D01*
X88485000Y-90893740D01*
X88440418Y-90669609D01*
X91509997Y-90669609D01*
X91696073Y-91010766D01*
X92113409Y-91226513D01*
X92564815Y-91356696D01*
X93032946Y-91396313D01*
X93499811Y-91343842D01*
X93947468Y-91201297D01*
X94303927Y-91010766D01*
X94490003Y-90669609D01*
X94313097Y-90492702D01*
X99186903Y-90492702D01*
X99258486Y-90736671D01*
X99513996Y-90857571D01*
X99788184Y-90926300D01*
X100070512Y-90940217D01*
X100350130Y-90898787D01*
X100616292Y-90803603D01*
X100741514Y-90736671D01*
X100813097Y-90492702D01*
X100000000Y-89679605D01*
X99186903Y-90492702D01*
X94313097Y-90492702D01*
X93000000Y-89179605D01*
X91509997Y-90669609D01*
X88440418Y-90669609D01*
X88427932Y-90606842D01*
X88315990Y-90336589D01*
X88153475Y-90093368D01*
X88021620Y-89961513D01*
X88094180Y-89939502D01*
X88204494Y-89880537D01*
X88301185Y-89801185D01*
X88380537Y-89704494D01*
X88439502Y-89594180D01*
X88475812Y-89474482D01*
X88488072Y-89350000D01*
X88488072Y-87684999D01*
X91009537Y-87684999D01*
X90989234Y-87696073D01*
X90773487Y-88113409D01*
X90643304Y-88564815D01*
X90603687Y-89032946D01*
X90656158Y-89499811D01*
X90798703Y-89947468D01*
X90989234Y-90303927D01*
X91330391Y-90490003D01*
X92820395Y-89000000D01*
X92806252Y-88985858D01*
X92985858Y-88806252D01*
X93000000Y-88820395D01*
X93014142Y-88806252D01*
X93193748Y-88985858D01*
X93179605Y-89000000D01*
X94669609Y-90490003D01*
X95010766Y-90303927D01*
X95226513Y-89886591D01*
X95317668Y-89570512D01*
X98559783Y-89570512D01*
X98601213Y-89850130D01*
X98696397Y-90116292D01*
X98763329Y-90241514D01*
X99007298Y-90313097D01*
X99820395Y-89500000D01*
X100179605Y-89500000D01*
X100992702Y-90313097D01*
X101236671Y-90241514D01*
X101357571Y-89986004D01*
X101426300Y-89711816D01*
X101440217Y-89429488D01*
X101398787Y-89149870D01*
X101303603Y-88883708D01*
X101236671Y-88758486D01*
X100992702Y-88686903D01*
X100179605Y-89500000D01*
X99820395Y-89500000D01*
X99007298Y-88686903D01*
X98763329Y-88758486D01*
X98642429Y-89013996D01*
X98573700Y-89288184D01*
X98559783Y-89570512D01*
X95317668Y-89570512D01*
X95356696Y-89435185D01*
X95396313Y-88967054D01*
X95343842Y-88500189D01*
X95201297Y-88052532D01*
X95010766Y-87696073D01*
X94990463Y-87684999D01*
X97279867Y-87684999D01*
X97358008Y-87763140D01*
X97393551Y-87806449D01*
X97566377Y-87948284D01*
X97745787Y-88044180D01*
X97763553Y-88053676D01*
X97977501Y-88118577D01*
X98200000Y-88140491D01*
X98255752Y-88135000D01*
X98659043Y-88135000D01*
X98669463Y-88154494D01*
X98748815Y-88251185D01*
X98845506Y-88330537D01*
X98955820Y-88389502D01*
X99075518Y-88425812D01*
X99200000Y-88438072D01*
X99207215Y-88438072D01*
X99186903Y-88507298D01*
X100000000Y-89320395D01*
X100813097Y-88507298D01*
X100792785Y-88438072D01*
X100800000Y-88438072D01*
X100924482Y-88425812D01*
X101044180Y-88389502D01*
X101154494Y-88330537D01*
X101251185Y-88251185D01*
X101330537Y-88154494D01*
X101340957Y-88135000D01*
X102733049Y-88135000D01*
X102788800Y-88140491D01*
X102844551Y-88135000D01*
X102844552Y-88135000D01*
X103011299Y-88118577D01*
X103225247Y-88053676D01*
X103422423Y-87948284D01*
X103595249Y-87806449D01*
X103630796Y-87763135D01*
X105224322Y-86169609D01*
X118509997Y-86169609D01*
X118696073Y-86510766D01*
X119113409Y-86726513D01*
X119564815Y-86856696D01*
X120032946Y-86896313D01*
X120499811Y-86843842D01*
X120947468Y-86701297D01*
X121303927Y-86510766D01*
X121490003Y-86169609D01*
X120000000Y-84679605D01*
X118509997Y-86169609D01*
X105224322Y-86169609D01*
X106860985Y-84532946D01*
X117603687Y-84532946D01*
X117656158Y-84999811D01*
X117798703Y-85447468D01*
X117989234Y-85803927D01*
X118330391Y-85990003D01*
X119820395Y-84500000D01*
X120179605Y-84500000D01*
X121669609Y-85990003D01*
X122010766Y-85803927D01*
X122226513Y-85386591D01*
X122356696Y-84935185D01*
X122396313Y-84467054D01*
X122343842Y-84000189D01*
X122332193Y-83963605D01*
X128666000Y-83963605D01*
X128791914Y-84253577D01*
X129124126Y-84419433D01*
X129482312Y-84517290D01*
X129852706Y-84543389D01*
X130221075Y-84496725D01*
X130573262Y-84379094D01*
X130808086Y-84253577D01*
X130934000Y-83963605D01*
X129800000Y-82829605D01*
X128666000Y-83963605D01*
X122332193Y-83963605D01*
X122201297Y-83552532D01*
X122010766Y-83196073D01*
X121669609Y-83009997D01*
X120179605Y-84500000D01*
X119820395Y-84500000D01*
X118330391Y-83009997D01*
X117989234Y-83196073D01*
X117773487Y-83613409D01*
X117643304Y-84064815D01*
X117603687Y-84532946D01*
X106860985Y-84532946D01*
X108563540Y-82830391D01*
X118509997Y-82830391D01*
X120000000Y-84320395D01*
X121490003Y-82830391D01*
X121420361Y-82702706D01*
X127906611Y-82702706D01*
X127953275Y-83071075D01*
X128070906Y-83423262D01*
X128196423Y-83658086D01*
X128486395Y-83784000D01*
X129620395Y-82650000D01*
X129979605Y-82650000D01*
X131113605Y-83784000D01*
X131403577Y-83658086D01*
X131569433Y-83325874D01*
X131667290Y-82967688D01*
X131693389Y-82597294D01*
X131646725Y-82228925D01*
X131529094Y-81876738D01*
X131403577Y-81641914D01*
X131113605Y-81516000D01*
X129979605Y-82650000D01*
X129620395Y-82650000D01*
X128486395Y-81516000D01*
X128196423Y-81641914D01*
X128030567Y-81974126D01*
X127932710Y-82332312D01*
X127906611Y-82702706D01*
X121420361Y-82702706D01*
X121303927Y-82489234D01*
X120886591Y-82273487D01*
X120435185Y-82143304D01*
X119967054Y-82103687D01*
X119500189Y-82156158D01*
X119052532Y-82298703D01*
X118696073Y-82489234D01*
X118509997Y-82830391D01*
X108563540Y-82830391D01*
X110057536Y-81336395D01*
X128666000Y-81336395D01*
X129800000Y-82470395D01*
X130934000Y-81336395D01*
X130808086Y-81046423D01*
X130475874Y-80880567D01*
X130117688Y-80782710D01*
X129747294Y-80756611D01*
X129378925Y-80803275D01*
X129026738Y-80920906D01*
X128791914Y-81046423D01*
X128666000Y-81336395D01*
X110057536Y-81336395D01*
X111620532Y-79773400D01*
X126988083Y-79773400D01*
X127043834Y-79778891D01*
X127099585Y-79773400D01*
X127099586Y-79773400D01*
X127266333Y-79756977D01*
X127480281Y-79692076D01*
X127677457Y-79586684D01*
X127850283Y-79444849D01*
X127885829Y-79401536D01*
X128385787Y-78901580D01*
X128598382Y-79114175D01*
X128907118Y-79320466D01*
X129250166Y-79462561D01*
X129614344Y-79535000D01*
X129985656Y-79535000D01*
X130349834Y-79462561D01*
X130692882Y-79320466D01*
X131001618Y-79114175D01*
X131264175Y-78851618D01*
X131470466Y-78542882D01*
X131612561Y-78199834D01*
X131685000Y-77835656D01*
X131685000Y-77464344D01*
X131612561Y-77100166D01*
X131470466Y-76757118D01*
X131264175Y-76448382D01*
X131001618Y-76185825D01*
X130692882Y-75979534D01*
X130349834Y-75837439D01*
X129985656Y-75765000D01*
X129614344Y-75765000D01*
X129250166Y-75837439D01*
X128907118Y-75979534D01*
X128598382Y-76185825D01*
X128335825Y-76448382D01*
X128291312Y-76515000D01*
X128087986Y-76515000D01*
X128032234Y-76509509D01*
X127809735Y-76531423D01*
X127595787Y-76596324D01*
X127398611Y-76701716D01*
X127269090Y-76808011D01*
X127269088Y-76808013D01*
X127225785Y-76843551D01*
X127190247Y-76886855D01*
X126573702Y-77503400D01*
X111206151Y-77503400D01*
X111150399Y-77497909D01*
X110927900Y-77519823D01*
X110878105Y-77534929D01*
X110713953Y-77584724D01*
X110516777Y-77690116D01*
X110343951Y-77831951D01*
X110308411Y-77875257D01*
X102318669Y-85865000D01*
X101340957Y-85865000D01*
X101330537Y-85845506D01*
X101251185Y-85748815D01*
X101154494Y-85669463D01*
X101044180Y-85610498D01*
X100924482Y-85574188D01*
X100800000Y-85561928D01*
X99200000Y-85561928D01*
X99075518Y-85574188D01*
X98955820Y-85610498D01*
X98845506Y-85669463D01*
X98748815Y-85748815D01*
X98669463Y-85845506D01*
X98662905Y-85857774D01*
X98591994Y-85786863D01*
X98556448Y-85743550D01*
X98383622Y-85601715D01*
X98186446Y-85496323D01*
X97972498Y-85431422D01*
X97805751Y-85414999D01*
X97805750Y-85414999D01*
X97749999Y-85409508D01*
X97694248Y-85414999D01*
X87155753Y-85414999D01*
X87100001Y-85409508D01*
X87044250Y-85414999D01*
X87044249Y-85414999D01*
X86877502Y-85431422D01*
X86663554Y-85496323D01*
X86466378Y-85601715D01*
X86293552Y-85743550D01*
X86258005Y-85786864D01*
X86236865Y-85808004D01*
X86193551Y-85843551D01*
X86051716Y-86016377D01*
X85969813Y-86169609D01*
X85946324Y-86213554D01*
X85881423Y-86427502D01*
X85859509Y-86650000D01*
X85865000Y-86705752D01*
X85865000Y-87082317D01*
X85795506Y-87119463D01*
X85698815Y-87198815D01*
X85660000Y-87246111D01*
X85660000Y-84663605D01*
X89066000Y-84663605D01*
X89191914Y-84953577D01*
X89524126Y-85119433D01*
X89882312Y-85217290D01*
X90252706Y-85243389D01*
X90621075Y-85196725D01*
X90973262Y-85079094D01*
X91208086Y-84953577D01*
X91334000Y-84663605D01*
X90200000Y-83529605D01*
X89066000Y-84663605D01*
X85660000Y-84663605D01*
X85660000Y-83402706D01*
X88306611Y-83402706D01*
X88353275Y-83771075D01*
X88470906Y-84123262D01*
X88596423Y-84358086D01*
X88886395Y-84484000D01*
X90020395Y-83350000D01*
X90379605Y-83350000D01*
X91513605Y-84484000D01*
X91803577Y-84358086D01*
X91969433Y-84025874D01*
X92067290Y-83667688D01*
X92093389Y-83297294D01*
X92046725Y-82928925D01*
X91929094Y-82576738D01*
X91884176Y-82492702D01*
X99686903Y-82492702D01*
X99758486Y-82736671D01*
X100013996Y-82857571D01*
X100288184Y-82926300D01*
X100570512Y-82940217D01*
X100850130Y-82898787D01*
X101116292Y-82803603D01*
X101241514Y-82736671D01*
X101313097Y-82492702D01*
X100500000Y-81679605D01*
X99686903Y-82492702D01*
X91884176Y-82492702D01*
X91803577Y-82341914D01*
X91513605Y-82216000D01*
X90379605Y-83350000D01*
X90020395Y-83350000D01*
X88886395Y-82216000D01*
X88596423Y-82341914D01*
X88430567Y-82674126D01*
X88332710Y-83032312D01*
X88306611Y-83402706D01*
X85660000Y-83402706D01*
X85660000Y-82036395D01*
X89066000Y-82036395D01*
X90200000Y-83170395D01*
X91334000Y-82036395D01*
X91208086Y-81746423D01*
X90875874Y-81580567D01*
X90839070Y-81570512D01*
X99059783Y-81570512D01*
X99101213Y-81850130D01*
X99196397Y-82116292D01*
X99263329Y-82241514D01*
X99507298Y-82313097D01*
X100320395Y-81500000D01*
X100679605Y-81500000D01*
X101492702Y-82313097D01*
X101736671Y-82241514D01*
X101857571Y-81986004D01*
X101926300Y-81711816D01*
X101940217Y-81429488D01*
X101898787Y-81149870D01*
X101803603Y-80883708D01*
X101736671Y-80758486D01*
X101492702Y-80686903D01*
X100679605Y-81500000D01*
X100320395Y-81500000D01*
X99507298Y-80686903D01*
X99263329Y-80758486D01*
X99142429Y-81013996D01*
X99073700Y-81288184D01*
X99059783Y-81570512D01*
X90839070Y-81570512D01*
X90517688Y-81482710D01*
X90147294Y-81456611D01*
X89778925Y-81503275D01*
X89426738Y-81620906D01*
X89191914Y-81746423D01*
X89066000Y-82036395D01*
X85660000Y-82036395D01*
X85660000Y-80507298D01*
X99686903Y-80507298D01*
X100500000Y-81320395D01*
X101313097Y-80507298D01*
X101241514Y-80263329D01*
X100986004Y-80142429D01*
X100711816Y-80073700D01*
X100429488Y-80059783D01*
X100149870Y-80101213D01*
X99883708Y-80196397D01*
X99758486Y-80263329D01*
X99686903Y-80507298D01*
X85660000Y-80507298D01*
X85660000Y-78164344D01*
X88315000Y-78164344D01*
X88315000Y-78535656D01*
X88387439Y-78899834D01*
X88529534Y-79242882D01*
X88735825Y-79551618D01*
X88998382Y-79814175D01*
X89307118Y-80020466D01*
X89650166Y-80162561D01*
X90014344Y-80235000D01*
X90385656Y-80235000D01*
X90749834Y-80162561D01*
X91092882Y-80020466D01*
X91401618Y-79814175D01*
X91664175Y-79551618D01*
X91870466Y-79242882D01*
X92012561Y-78899834D01*
X92085000Y-78535656D01*
X92085000Y-78164344D01*
X92012561Y-77800166D01*
X91870466Y-77457118D01*
X91698666Y-77200000D01*
X99061928Y-77200000D01*
X99061928Y-78800000D01*
X99074188Y-78924482D01*
X99110498Y-79044180D01*
X99169463Y-79154494D01*
X99248815Y-79251185D01*
X99345506Y-79330537D01*
X99455820Y-79389502D01*
X99575518Y-79425812D01*
X99700000Y-79438072D01*
X101300000Y-79438072D01*
X101424482Y-79425812D01*
X101544180Y-79389502D01*
X101654494Y-79330537D01*
X101751185Y-79251185D01*
X101830537Y-79154494D01*
X101889502Y-79044180D01*
X101925812Y-78924482D01*
X101938072Y-78800000D01*
X101938072Y-77200000D01*
X101925812Y-77075518D01*
X101889502Y-76955820D01*
X101830537Y-76845506D01*
X101751185Y-76748815D01*
X101654494Y-76669463D01*
X101544180Y-76610498D01*
X101424482Y-76574188D01*
X101300000Y-76561928D01*
X99700000Y-76561928D01*
X99575518Y-76574188D01*
X99455820Y-76610498D01*
X99345506Y-76669463D01*
X99248815Y-76748815D01*
X99169463Y-76845506D01*
X99110498Y-76955820D01*
X99074188Y-77075518D01*
X99061928Y-77200000D01*
X91698666Y-77200000D01*
X91664175Y-77148382D01*
X91401618Y-76885825D01*
X91092882Y-76679534D01*
X90749834Y-76537439D01*
X90385656Y-76465000D01*
X90014344Y-76465000D01*
X89650166Y-76537439D01*
X89307118Y-76679534D01*
X88998382Y-76885825D01*
X88735825Y-77148382D01*
X88529534Y-77457118D01*
X88387439Y-77800166D01*
X88315000Y-78164344D01*
X85660000Y-78164344D01*
X85660000Y-75660000D01*
X134340000Y-75660000D01*
X134340001Y-99340000D01*
M02*
