G04 #@! TF.GenerationSoftware,KiCad,Pcbnew,(5.1.5)-3*
G04 #@! TF.CreationDate,2021-03-22T00:26:30+01:00*
G04 #@! TF.ProjectId,12V_to_5V,3132565f-746f-45f3-9556-2e6b69636164,rev?*
G04 #@! TF.SameCoordinates,Original*
G04 #@! TF.FileFunction,Copper,L1,Top*
G04 #@! TF.FilePolarity,Positive*
%FSLAX46Y46*%
G04 Gerber Fmt 4.6, Leading zero omitted, Abs format (unit mm)*
G04 Created by KiCad (PCBNEW (5.1.5)-3) date 2021-03-22 00:26:30*
%MOMM*%
%LPD*%
G04 APERTURE LIST*
%ADD10C,3.500000*%
%ADD11O,1.700000X1.700000*%
%ADD12R,1.700000X1.700000*%
%ADD13C,2.500000*%
%ADD14R,1.100000X4.600000*%
%ADD15R,10.800000X9.400000*%
%ADD16R,1.600000X1.600000*%
%ADD17C,1.600000*%
%ADD18R,2.400000X2.400000*%
%ADD19O,2.400000X2.400000*%
%ADD20R,3.000000X5.400000*%
%ADD21R,5.700000X2.000000*%
%ADD22C,1.000000*%
%ADD23C,0.254000*%
G04 APERTURE END LIST*
D10*
X120000000Y-84500000D03*
X93000000Y-89000000D03*
D11*
X87000000Y-91040000D03*
D12*
X87000000Y-88500000D03*
D13*
X90200000Y-78350000D03*
X90200000Y-83350000D03*
D14*
X107600000Y-89275000D03*
X109300000Y-89275000D03*
X111000000Y-89275000D03*
X112700000Y-89275000D03*
X114400000Y-89275000D03*
D15*
X111000000Y-80125000D03*
D16*
X100500000Y-78000000D03*
D17*
X100500000Y-81500000D03*
D16*
X94000000Y-97000000D03*
D17*
X94000000Y-94500000D03*
X100000000Y-89500000D03*
D16*
X100000000Y-87000000D03*
D18*
X117000000Y-95500000D03*
D19*
X101760000Y-95500000D03*
D13*
X129800000Y-77650000D03*
X129800000Y-82650000D03*
D20*
X123000000Y-92500000D03*
X133000000Y-92500000D03*
D21*
X120500000Y-80900000D03*
X120500000Y-76100000D03*
D12*
X87000000Y-98000000D03*
D22*
X100150000Y-78350000D02*
X100500000Y-78000000D01*
X90200000Y-78350000D02*
X100150000Y-78350000D01*
X104216200Y-87441200D02*
X106050000Y-89275000D01*
X104216200Y-79527400D02*
X104216200Y-87441200D01*
X100500000Y-78000000D02*
X102688800Y-78000000D01*
X102688800Y-78000000D02*
X104216200Y-79527400D01*
X87849999Y-91889999D02*
X87000000Y-91040000D01*
X103435001Y-91889999D02*
X87849999Y-91889999D01*
X106050000Y-89275000D02*
X103435001Y-91889999D01*
X107600000Y-89275000D02*
X106050000Y-89275000D01*
X129870200Y-77515600D02*
X129870200Y-76962000D01*
X128250000Y-76100000D02*
X129800000Y-77650000D01*
X120500000Y-76100000D02*
X128250000Y-76100000D01*
X112700000Y-92575000D02*
X112700000Y-89275000D01*
X114800000Y-95500000D02*
X112700000Y-93400000D01*
X112700000Y-93400000D02*
X112700000Y-92575000D01*
X117000000Y-95500000D02*
X114800000Y-95500000D01*
X120000000Y-92500000D02*
X123000000Y-92500000D01*
X117000000Y-95500000D02*
X120000000Y-92500000D01*
X94000000Y-97000000D02*
X95800000Y-97000000D01*
X95800000Y-97000000D02*
X97758400Y-98958400D01*
X109270800Y-92604200D02*
X109270800Y-98958400D01*
X109300000Y-89275000D02*
X109300000Y-92575000D01*
X97758400Y-98958400D02*
X109270800Y-98958400D01*
X109300000Y-92575000D02*
X109270800Y-92604200D01*
X133000000Y-96200000D02*
X132994400Y-96205600D01*
X133000000Y-92500000D02*
X133000000Y-96200000D01*
X109296200Y-98933000D02*
X109270800Y-98958400D01*
X132740400Y-98933000D02*
X109296200Y-98933000D01*
X133000000Y-96200000D02*
X133000000Y-98673400D01*
X133000000Y-98673400D02*
X132740400Y-98933000D01*
X133000000Y-86441800D02*
X133000000Y-92500000D01*
X126415800Y-85140800D02*
X131699000Y-85140800D01*
X131699000Y-85140800D02*
X133000000Y-86441800D01*
X125831600Y-80900000D02*
X125831600Y-84556600D01*
X120500000Y-80900000D02*
X125831600Y-80900000D01*
X125831600Y-84556600D02*
X126415800Y-85140800D01*
D23*
G36*
X106411928Y-91575000D02*
G01*
X106424188Y-91699482D01*
X106460498Y-91819180D01*
X106519463Y-91929494D01*
X106598815Y-92026185D01*
X106695506Y-92105537D01*
X106805820Y-92164502D01*
X106925518Y-92200812D01*
X107050000Y-92213072D01*
X108150000Y-92213072D01*
X108165001Y-92211595D01*
X108165001Y-92339579D01*
X108152223Y-92381702D01*
X108130309Y-92604200D01*
X108135800Y-92659952D01*
X108135801Y-97823400D01*
X98228532Y-97823400D01*
X96641996Y-96236865D01*
X96606449Y-96193551D01*
X96433623Y-96051716D01*
X96236447Y-95946324D01*
X96122655Y-95911805D01*
X99971805Y-95911805D01*
X100044379Y-96151066D01*
X100204361Y-96473257D01*
X100424125Y-96758046D01*
X100695226Y-96994489D01*
X101007246Y-97173500D01*
X101348194Y-97288199D01*
X101633000Y-97171854D01*
X101633000Y-95627000D01*
X101887000Y-95627000D01*
X101887000Y-97171854D01*
X102171806Y-97288199D01*
X102512754Y-97173500D01*
X102824774Y-96994489D01*
X103095875Y-96758046D01*
X103315639Y-96473257D01*
X103475621Y-96151066D01*
X103548195Y-95911805D01*
X103431432Y-95627000D01*
X101887000Y-95627000D01*
X101633000Y-95627000D01*
X100088568Y-95627000D01*
X99971805Y-95911805D01*
X96122655Y-95911805D01*
X96022499Y-95881423D01*
X95855752Y-95865000D01*
X95855751Y-95865000D01*
X95800000Y-95859509D01*
X95744249Y-95865000D01*
X95340957Y-95865000D01*
X95330537Y-95845506D01*
X95251185Y-95748815D01*
X95154494Y-95669463D01*
X95044180Y-95610498D01*
X94924482Y-95574188D01*
X94800000Y-95561928D01*
X94792785Y-95561928D01*
X94813097Y-95492702D01*
X94000000Y-94679605D01*
X93186903Y-95492702D01*
X93207215Y-95561928D01*
X93200000Y-95561928D01*
X93075518Y-95574188D01*
X92955820Y-95610498D01*
X92845506Y-95669463D01*
X92748815Y-95748815D01*
X92669463Y-95845506D01*
X92610498Y-95955820D01*
X92574188Y-96075518D01*
X92561928Y-96200000D01*
X92561928Y-97800000D01*
X92574188Y-97924482D01*
X92610498Y-98044180D01*
X92669463Y-98154494D01*
X92748815Y-98251185D01*
X92845506Y-98330537D01*
X92955820Y-98389502D01*
X93075518Y-98425812D01*
X93200000Y-98438072D01*
X94800000Y-98438072D01*
X94924482Y-98425812D01*
X95044180Y-98389502D01*
X95154494Y-98330537D01*
X95251185Y-98251185D01*
X95330537Y-98154494D01*
X95337095Y-98142226D01*
X96534868Y-99340000D01*
X88253889Y-99340000D01*
X88301185Y-99301185D01*
X88380537Y-99204494D01*
X88439502Y-99094180D01*
X88475812Y-98974482D01*
X88488072Y-98850000D01*
X88485000Y-98285750D01*
X88326250Y-98127000D01*
X87127000Y-98127000D01*
X87127000Y-98147000D01*
X86873000Y-98147000D01*
X86873000Y-98127000D01*
X86853000Y-98127000D01*
X86853000Y-97873000D01*
X86873000Y-97873000D01*
X86873000Y-96673750D01*
X87127000Y-96673750D01*
X87127000Y-97873000D01*
X88326250Y-97873000D01*
X88485000Y-97714250D01*
X88488072Y-97150000D01*
X88475812Y-97025518D01*
X88439502Y-96905820D01*
X88380537Y-96795506D01*
X88301185Y-96698815D01*
X88204494Y-96619463D01*
X88094180Y-96560498D01*
X87974482Y-96524188D01*
X87850000Y-96511928D01*
X87285750Y-96515000D01*
X87127000Y-96673750D01*
X86873000Y-96673750D01*
X86714250Y-96515000D01*
X86150000Y-96511928D01*
X86025518Y-96524188D01*
X85905820Y-96560498D01*
X85795506Y-96619463D01*
X85698815Y-96698815D01*
X85660000Y-96746111D01*
X85660000Y-94570512D01*
X92559783Y-94570512D01*
X92601213Y-94850130D01*
X92696397Y-95116292D01*
X92763329Y-95241514D01*
X93007298Y-95313097D01*
X93820395Y-94500000D01*
X94179605Y-94500000D01*
X94992702Y-95313097D01*
X95236671Y-95241514D01*
X95309217Y-95088195D01*
X99971805Y-95088195D01*
X100088568Y-95373000D01*
X101633000Y-95373000D01*
X101633000Y-93828146D01*
X101887000Y-93828146D01*
X101887000Y-95373000D01*
X103431432Y-95373000D01*
X103548195Y-95088195D01*
X103475621Y-94848934D01*
X103315639Y-94526743D01*
X103095875Y-94241954D01*
X102824774Y-94005511D01*
X102512754Y-93826500D01*
X102171806Y-93711801D01*
X101887000Y-93828146D01*
X101633000Y-93828146D01*
X101348194Y-93711801D01*
X101007246Y-93826500D01*
X100695226Y-94005511D01*
X100424125Y-94241954D01*
X100204361Y-94526743D01*
X100044379Y-94848934D01*
X99971805Y-95088195D01*
X95309217Y-95088195D01*
X95357571Y-94986004D01*
X95426300Y-94711816D01*
X95440217Y-94429488D01*
X95398787Y-94149870D01*
X95303603Y-93883708D01*
X95236671Y-93758486D01*
X94992702Y-93686903D01*
X94179605Y-94500000D01*
X93820395Y-94500000D01*
X93007298Y-93686903D01*
X92763329Y-93758486D01*
X92642429Y-94013996D01*
X92573700Y-94288184D01*
X92559783Y-94570512D01*
X85660000Y-94570512D01*
X85660000Y-93507298D01*
X93186903Y-93507298D01*
X94000000Y-94320395D01*
X94813097Y-93507298D01*
X94741514Y-93263329D01*
X94486004Y-93142429D01*
X94211816Y-93073700D01*
X93929488Y-93059783D01*
X93649870Y-93101213D01*
X93383708Y-93196397D01*
X93258486Y-93263329D01*
X93186903Y-93507298D01*
X85660000Y-93507298D01*
X85660000Y-91685445D01*
X85684010Y-91743411D01*
X85846525Y-91986632D01*
X86053368Y-92193475D01*
X86296589Y-92355990D01*
X86566842Y-92467932D01*
X86853740Y-92525000D01*
X86879868Y-92525000D01*
X87008007Y-92653139D01*
X87043550Y-92696448D01*
X87216376Y-92838283D01*
X87413552Y-92943675D01*
X87577704Y-92993470D01*
X87627499Y-93008576D01*
X87849998Y-93030490D01*
X87905750Y-93024999D01*
X103379250Y-93024999D01*
X103435001Y-93030490D01*
X103490752Y-93024999D01*
X103490753Y-93024999D01*
X103657500Y-93008576D01*
X103871448Y-92943675D01*
X104068624Y-92838283D01*
X104241450Y-92696448D01*
X104276997Y-92653134D01*
X106411928Y-90518204D01*
X106411928Y-91575000D01*
G37*
X106411928Y-91575000D02*
X106424188Y-91699482D01*
X106460498Y-91819180D01*
X106519463Y-91929494D01*
X106598815Y-92026185D01*
X106695506Y-92105537D01*
X106805820Y-92164502D01*
X106925518Y-92200812D01*
X107050000Y-92213072D01*
X108150000Y-92213072D01*
X108165001Y-92211595D01*
X108165001Y-92339579D01*
X108152223Y-92381702D01*
X108130309Y-92604200D01*
X108135800Y-92659952D01*
X108135801Y-97823400D01*
X98228532Y-97823400D01*
X96641996Y-96236865D01*
X96606449Y-96193551D01*
X96433623Y-96051716D01*
X96236447Y-95946324D01*
X96122655Y-95911805D01*
X99971805Y-95911805D01*
X100044379Y-96151066D01*
X100204361Y-96473257D01*
X100424125Y-96758046D01*
X100695226Y-96994489D01*
X101007246Y-97173500D01*
X101348194Y-97288199D01*
X101633000Y-97171854D01*
X101633000Y-95627000D01*
X101887000Y-95627000D01*
X101887000Y-97171854D01*
X102171806Y-97288199D01*
X102512754Y-97173500D01*
X102824774Y-96994489D01*
X103095875Y-96758046D01*
X103315639Y-96473257D01*
X103475621Y-96151066D01*
X103548195Y-95911805D01*
X103431432Y-95627000D01*
X101887000Y-95627000D01*
X101633000Y-95627000D01*
X100088568Y-95627000D01*
X99971805Y-95911805D01*
X96122655Y-95911805D01*
X96022499Y-95881423D01*
X95855752Y-95865000D01*
X95855751Y-95865000D01*
X95800000Y-95859509D01*
X95744249Y-95865000D01*
X95340957Y-95865000D01*
X95330537Y-95845506D01*
X95251185Y-95748815D01*
X95154494Y-95669463D01*
X95044180Y-95610498D01*
X94924482Y-95574188D01*
X94800000Y-95561928D01*
X94792785Y-95561928D01*
X94813097Y-95492702D01*
X94000000Y-94679605D01*
X93186903Y-95492702D01*
X93207215Y-95561928D01*
X93200000Y-95561928D01*
X93075518Y-95574188D01*
X92955820Y-95610498D01*
X92845506Y-95669463D01*
X92748815Y-95748815D01*
X92669463Y-95845506D01*
X92610498Y-95955820D01*
X92574188Y-96075518D01*
X92561928Y-96200000D01*
X92561928Y-97800000D01*
X92574188Y-97924482D01*
X92610498Y-98044180D01*
X92669463Y-98154494D01*
X92748815Y-98251185D01*
X92845506Y-98330537D01*
X92955820Y-98389502D01*
X93075518Y-98425812D01*
X93200000Y-98438072D01*
X94800000Y-98438072D01*
X94924482Y-98425812D01*
X95044180Y-98389502D01*
X95154494Y-98330537D01*
X95251185Y-98251185D01*
X95330537Y-98154494D01*
X95337095Y-98142226D01*
X96534868Y-99340000D01*
X88253889Y-99340000D01*
X88301185Y-99301185D01*
X88380537Y-99204494D01*
X88439502Y-99094180D01*
X88475812Y-98974482D01*
X88488072Y-98850000D01*
X88485000Y-98285750D01*
X88326250Y-98127000D01*
X87127000Y-98127000D01*
X87127000Y-98147000D01*
X86873000Y-98147000D01*
X86873000Y-98127000D01*
X86853000Y-98127000D01*
X86853000Y-97873000D01*
X86873000Y-97873000D01*
X86873000Y-96673750D01*
X87127000Y-96673750D01*
X87127000Y-97873000D01*
X88326250Y-97873000D01*
X88485000Y-97714250D01*
X88488072Y-97150000D01*
X88475812Y-97025518D01*
X88439502Y-96905820D01*
X88380537Y-96795506D01*
X88301185Y-96698815D01*
X88204494Y-96619463D01*
X88094180Y-96560498D01*
X87974482Y-96524188D01*
X87850000Y-96511928D01*
X87285750Y-96515000D01*
X87127000Y-96673750D01*
X86873000Y-96673750D01*
X86714250Y-96515000D01*
X86150000Y-96511928D01*
X86025518Y-96524188D01*
X85905820Y-96560498D01*
X85795506Y-96619463D01*
X85698815Y-96698815D01*
X85660000Y-96746111D01*
X85660000Y-94570512D01*
X92559783Y-94570512D01*
X92601213Y-94850130D01*
X92696397Y-95116292D01*
X92763329Y-95241514D01*
X93007298Y-95313097D01*
X93820395Y-94500000D01*
X94179605Y-94500000D01*
X94992702Y-95313097D01*
X95236671Y-95241514D01*
X95309217Y-95088195D01*
X99971805Y-95088195D01*
X100088568Y-95373000D01*
X101633000Y-95373000D01*
X101633000Y-93828146D01*
X101887000Y-93828146D01*
X101887000Y-95373000D01*
X103431432Y-95373000D01*
X103548195Y-95088195D01*
X103475621Y-94848934D01*
X103315639Y-94526743D01*
X103095875Y-94241954D01*
X102824774Y-94005511D01*
X102512754Y-93826500D01*
X102171806Y-93711801D01*
X101887000Y-93828146D01*
X101633000Y-93828146D01*
X101348194Y-93711801D01*
X101007246Y-93826500D01*
X100695226Y-94005511D01*
X100424125Y-94241954D01*
X100204361Y-94526743D01*
X100044379Y-94848934D01*
X99971805Y-95088195D01*
X95309217Y-95088195D01*
X95357571Y-94986004D01*
X95426300Y-94711816D01*
X95440217Y-94429488D01*
X95398787Y-94149870D01*
X95303603Y-93883708D01*
X95236671Y-93758486D01*
X94992702Y-93686903D01*
X94179605Y-94500000D01*
X93820395Y-94500000D01*
X93007298Y-93686903D01*
X92763329Y-93758486D01*
X92642429Y-94013996D01*
X92573700Y-94288184D01*
X92559783Y-94570512D01*
X85660000Y-94570512D01*
X85660000Y-93507298D01*
X93186903Y-93507298D01*
X94000000Y-94320395D01*
X94813097Y-93507298D01*
X94741514Y-93263329D01*
X94486004Y-93142429D01*
X94211816Y-93073700D01*
X93929488Y-93059783D01*
X93649870Y-93101213D01*
X93383708Y-93196397D01*
X93258486Y-93263329D01*
X93186903Y-93507298D01*
X85660000Y-93507298D01*
X85660000Y-91685445D01*
X85684010Y-91743411D01*
X85846525Y-91986632D01*
X86053368Y-92193475D01*
X86296589Y-92355990D01*
X86566842Y-92467932D01*
X86853740Y-92525000D01*
X86879868Y-92525000D01*
X87008007Y-92653139D01*
X87043550Y-92696448D01*
X87216376Y-92838283D01*
X87413552Y-92943675D01*
X87577704Y-92993470D01*
X87627499Y-93008576D01*
X87849998Y-93030490D01*
X87905750Y-93024999D01*
X103379250Y-93024999D01*
X103435001Y-93030490D01*
X103490752Y-93024999D01*
X103490753Y-93024999D01*
X103657500Y-93008576D01*
X103871448Y-92943675D01*
X104068624Y-92838283D01*
X104241450Y-92696448D01*
X104276997Y-92653134D01*
X106411928Y-90518204D01*
X106411928Y-91575000D01*
G36*
X111127000Y-79998000D02*
G01*
X111147000Y-79998000D01*
X111147000Y-80252000D01*
X111127000Y-80252000D01*
X111127000Y-85301250D01*
X111285750Y-85460000D01*
X116400000Y-85463072D01*
X116524482Y-85450812D01*
X116644180Y-85414502D01*
X116754494Y-85355537D01*
X116851185Y-85276185D01*
X116930537Y-85179494D01*
X116989502Y-85069180D01*
X117025812Y-84949482D01*
X117038072Y-84825000D01*
X117037869Y-84532946D01*
X117603687Y-84532946D01*
X117656158Y-84999811D01*
X117798703Y-85447468D01*
X117989234Y-85803927D01*
X118330391Y-85990003D01*
X119820395Y-84500000D01*
X120179605Y-84500000D01*
X121669609Y-85990003D01*
X122010766Y-85803927D01*
X122226513Y-85386591D01*
X122356696Y-84935185D01*
X122396313Y-84467054D01*
X122343842Y-84000189D01*
X122201297Y-83552532D01*
X122010766Y-83196073D01*
X121669609Y-83009997D01*
X120179605Y-84500000D01*
X119820395Y-84500000D01*
X118330391Y-83009997D01*
X117989234Y-83196073D01*
X117773487Y-83613409D01*
X117643304Y-84064815D01*
X117603687Y-84532946D01*
X117037869Y-84532946D01*
X117036150Y-82063917D01*
X117060498Y-82144180D01*
X117119463Y-82254494D01*
X117198815Y-82351185D01*
X117295506Y-82430537D01*
X117405820Y-82489502D01*
X117525518Y-82525812D01*
X117650000Y-82538072D01*
X118669435Y-82538072D01*
X118509997Y-82830391D01*
X120000000Y-84320395D01*
X121490003Y-82830391D01*
X121330565Y-82538072D01*
X123350000Y-82538072D01*
X123474482Y-82525812D01*
X123594180Y-82489502D01*
X123704494Y-82430537D01*
X123801185Y-82351185D01*
X123880537Y-82254494D01*
X123939502Y-82144180D01*
X123972621Y-82035000D01*
X124696600Y-82035000D01*
X124696601Y-84500839D01*
X124691109Y-84556600D01*
X124713023Y-84779098D01*
X124777924Y-84993046D01*
X124777925Y-84993047D01*
X124883317Y-85190223D01*
X125025152Y-85363049D01*
X125068460Y-85398591D01*
X125573808Y-85903940D01*
X125609351Y-85947249D01*
X125782177Y-86089084D01*
X125932830Y-86169609D01*
X125979353Y-86194476D01*
X126193301Y-86259377D01*
X126415800Y-86281291D01*
X126471552Y-86275800D01*
X131228869Y-86275800D01*
X131865000Y-86911932D01*
X131865000Y-89161928D01*
X131500000Y-89161928D01*
X131375518Y-89174188D01*
X131255820Y-89210498D01*
X131145506Y-89269463D01*
X131048815Y-89348815D01*
X130969463Y-89445506D01*
X130910498Y-89555820D01*
X130874188Y-89675518D01*
X130861928Y-89800000D01*
X130861928Y-95200000D01*
X130874188Y-95324482D01*
X130910498Y-95444180D01*
X130969463Y-95554494D01*
X131048815Y-95651185D01*
X131145506Y-95730537D01*
X131255820Y-95789502D01*
X131375518Y-95825812D01*
X131500000Y-95838072D01*
X131865001Y-95838072D01*
X131865001Y-96092981D01*
X131853909Y-96205600D01*
X131865000Y-96318210D01*
X131865001Y-97798000D01*
X110405800Y-97798000D01*
X110405800Y-92839619D01*
X110418577Y-92797499D01*
X110435000Y-92630752D01*
X110435000Y-92630751D01*
X110440491Y-92575001D01*
X110435000Y-92519248D01*
X110435000Y-92211595D01*
X110450000Y-92213072D01*
X110714250Y-92210000D01*
X110873000Y-92051250D01*
X110873000Y-89402000D01*
X110853000Y-89402000D01*
X110853000Y-89148000D01*
X110873000Y-89148000D01*
X110873000Y-86498750D01*
X111127000Y-86498750D01*
X111127000Y-89148000D01*
X111147000Y-89148000D01*
X111147000Y-89402000D01*
X111127000Y-89402000D01*
X111127000Y-92051250D01*
X111285750Y-92210000D01*
X111550000Y-92213072D01*
X111565000Y-92211595D01*
X111565000Y-93344249D01*
X111559509Y-93400000D01*
X111565000Y-93455751D01*
X111581423Y-93622498D01*
X111646324Y-93836446D01*
X111751716Y-94033623D01*
X111893551Y-94206449D01*
X111936865Y-94241996D01*
X113958009Y-96263141D01*
X113993551Y-96306449D01*
X114166377Y-96448284D01*
X114363553Y-96553676D01*
X114577501Y-96618577D01*
X114744248Y-96635000D01*
X114744257Y-96635000D01*
X114799999Y-96640490D01*
X114855741Y-96635000D01*
X115161928Y-96635000D01*
X115161928Y-96700000D01*
X115174188Y-96824482D01*
X115210498Y-96944180D01*
X115269463Y-97054494D01*
X115348815Y-97151185D01*
X115445506Y-97230537D01*
X115555820Y-97289502D01*
X115675518Y-97325812D01*
X115800000Y-97338072D01*
X118200000Y-97338072D01*
X118324482Y-97325812D01*
X118444180Y-97289502D01*
X118554494Y-97230537D01*
X118651185Y-97151185D01*
X118730537Y-97054494D01*
X118789502Y-96944180D01*
X118825812Y-96824482D01*
X118838072Y-96700000D01*
X118838072Y-95267060D01*
X120470133Y-93635000D01*
X120861928Y-93635000D01*
X120861928Y-95200000D01*
X120874188Y-95324482D01*
X120910498Y-95444180D01*
X120969463Y-95554494D01*
X121048815Y-95651185D01*
X121145506Y-95730537D01*
X121255820Y-95789502D01*
X121375518Y-95825812D01*
X121500000Y-95838072D01*
X124500000Y-95838072D01*
X124624482Y-95825812D01*
X124744180Y-95789502D01*
X124854494Y-95730537D01*
X124951185Y-95651185D01*
X125030537Y-95554494D01*
X125089502Y-95444180D01*
X125125812Y-95324482D01*
X125138072Y-95200000D01*
X125138072Y-89800000D01*
X125125812Y-89675518D01*
X125089502Y-89555820D01*
X125030537Y-89445506D01*
X124951185Y-89348815D01*
X124854494Y-89269463D01*
X124744180Y-89210498D01*
X124624482Y-89174188D01*
X124500000Y-89161928D01*
X121500000Y-89161928D01*
X121375518Y-89174188D01*
X121255820Y-89210498D01*
X121145506Y-89269463D01*
X121048815Y-89348815D01*
X120969463Y-89445506D01*
X120910498Y-89555820D01*
X120874188Y-89675518D01*
X120861928Y-89800000D01*
X120861928Y-91365000D01*
X120055752Y-91365000D01*
X120000000Y-91359509D01*
X119777501Y-91381423D01*
X119563553Y-91446324D01*
X119366377Y-91551716D01*
X119236856Y-91658011D01*
X119236854Y-91658013D01*
X119193551Y-91693551D01*
X119158013Y-91736854D01*
X117232940Y-93661928D01*
X115800000Y-93661928D01*
X115675518Y-93674188D01*
X115555820Y-93710498D01*
X115445506Y-93769463D01*
X115348815Y-93848815D01*
X115269463Y-93945506D01*
X115210498Y-94055820D01*
X115174188Y-94175518D01*
X115165802Y-94260670D01*
X113835000Y-92929869D01*
X113835000Y-92211595D01*
X113850000Y-92213072D01*
X114114250Y-92210000D01*
X114273000Y-92051250D01*
X114273000Y-89402000D01*
X114527000Y-89402000D01*
X114527000Y-92051250D01*
X114685750Y-92210000D01*
X114950000Y-92213072D01*
X115074482Y-92200812D01*
X115194180Y-92164502D01*
X115304494Y-92105537D01*
X115401185Y-92026185D01*
X115480537Y-91929494D01*
X115539502Y-91819180D01*
X115575812Y-91699482D01*
X115588072Y-91575000D01*
X115585000Y-89560750D01*
X115426250Y-89402000D01*
X114527000Y-89402000D01*
X114273000Y-89402000D01*
X114253000Y-89402000D01*
X114253000Y-89148000D01*
X114273000Y-89148000D01*
X114273000Y-86498750D01*
X114527000Y-86498750D01*
X114527000Y-89148000D01*
X115426250Y-89148000D01*
X115585000Y-88989250D01*
X115588072Y-86975000D01*
X115575812Y-86850518D01*
X115539502Y-86730820D01*
X115480537Y-86620506D01*
X115401185Y-86523815D01*
X115304494Y-86444463D01*
X115194180Y-86385498D01*
X115074482Y-86349188D01*
X114950000Y-86336928D01*
X114685750Y-86340000D01*
X114527000Y-86498750D01*
X114273000Y-86498750D01*
X114114250Y-86340000D01*
X113850000Y-86336928D01*
X113725518Y-86349188D01*
X113605820Y-86385498D01*
X113550000Y-86415335D01*
X113494180Y-86385498D01*
X113374482Y-86349188D01*
X113250000Y-86336928D01*
X112150000Y-86336928D01*
X112025518Y-86349188D01*
X111905820Y-86385498D01*
X111850000Y-86415335D01*
X111794180Y-86385498D01*
X111674482Y-86349188D01*
X111550000Y-86336928D01*
X111285750Y-86340000D01*
X111127000Y-86498750D01*
X110873000Y-86498750D01*
X110714250Y-86340000D01*
X110450000Y-86336928D01*
X110325518Y-86349188D01*
X110205820Y-86385498D01*
X110150000Y-86415335D01*
X110094180Y-86385498D01*
X109974482Y-86349188D01*
X109850000Y-86336928D01*
X108750000Y-86336928D01*
X108625518Y-86349188D01*
X108505820Y-86385498D01*
X108450000Y-86415335D01*
X108394180Y-86385498D01*
X108274482Y-86349188D01*
X108150000Y-86336928D01*
X107050000Y-86336928D01*
X106925518Y-86349188D01*
X106805820Y-86385498D01*
X106695506Y-86444463D01*
X106598815Y-86523815D01*
X106519463Y-86620506D01*
X106460498Y-86730820D01*
X106424188Y-86850518D01*
X106411928Y-86975000D01*
X106411928Y-88031796D01*
X105351200Y-86971069D01*
X105351200Y-86169609D01*
X118509997Y-86169609D01*
X118696073Y-86510766D01*
X119113409Y-86726513D01*
X119564815Y-86856696D01*
X120032946Y-86896313D01*
X120499811Y-86843842D01*
X120947468Y-86701297D01*
X121303927Y-86510766D01*
X121490003Y-86169609D01*
X120000000Y-84679605D01*
X118509997Y-86169609D01*
X105351200Y-86169609D01*
X105351200Y-85412033D01*
X105355820Y-85414502D01*
X105475518Y-85450812D01*
X105600000Y-85463072D01*
X110714250Y-85460000D01*
X110873000Y-85301250D01*
X110873000Y-80252000D01*
X110853000Y-80252000D01*
X110853000Y-79998000D01*
X110873000Y-79998000D01*
X110873000Y-79978000D01*
X111127000Y-79978000D01*
X111127000Y-79998000D01*
G37*
X111127000Y-79998000D02*
X111147000Y-79998000D01*
X111147000Y-80252000D01*
X111127000Y-80252000D01*
X111127000Y-85301250D01*
X111285750Y-85460000D01*
X116400000Y-85463072D01*
X116524482Y-85450812D01*
X116644180Y-85414502D01*
X116754494Y-85355537D01*
X116851185Y-85276185D01*
X116930537Y-85179494D01*
X116989502Y-85069180D01*
X117025812Y-84949482D01*
X117038072Y-84825000D01*
X117037869Y-84532946D01*
X117603687Y-84532946D01*
X117656158Y-84999811D01*
X117798703Y-85447468D01*
X117989234Y-85803927D01*
X118330391Y-85990003D01*
X119820395Y-84500000D01*
X120179605Y-84500000D01*
X121669609Y-85990003D01*
X122010766Y-85803927D01*
X122226513Y-85386591D01*
X122356696Y-84935185D01*
X122396313Y-84467054D01*
X122343842Y-84000189D01*
X122201297Y-83552532D01*
X122010766Y-83196073D01*
X121669609Y-83009997D01*
X120179605Y-84500000D01*
X119820395Y-84500000D01*
X118330391Y-83009997D01*
X117989234Y-83196073D01*
X117773487Y-83613409D01*
X117643304Y-84064815D01*
X117603687Y-84532946D01*
X117037869Y-84532946D01*
X117036150Y-82063917D01*
X117060498Y-82144180D01*
X117119463Y-82254494D01*
X117198815Y-82351185D01*
X117295506Y-82430537D01*
X117405820Y-82489502D01*
X117525518Y-82525812D01*
X117650000Y-82538072D01*
X118669435Y-82538072D01*
X118509997Y-82830391D01*
X120000000Y-84320395D01*
X121490003Y-82830391D01*
X121330565Y-82538072D01*
X123350000Y-82538072D01*
X123474482Y-82525812D01*
X123594180Y-82489502D01*
X123704494Y-82430537D01*
X123801185Y-82351185D01*
X123880537Y-82254494D01*
X123939502Y-82144180D01*
X123972621Y-82035000D01*
X124696600Y-82035000D01*
X124696601Y-84500839D01*
X124691109Y-84556600D01*
X124713023Y-84779098D01*
X124777924Y-84993046D01*
X124777925Y-84993047D01*
X124883317Y-85190223D01*
X125025152Y-85363049D01*
X125068460Y-85398591D01*
X125573808Y-85903940D01*
X125609351Y-85947249D01*
X125782177Y-86089084D01*
X125932830Y-86169609D01*
X125979353Y-86194476D01*
X126193301Y-86259377D01*
X126415800Y-86281291D01*
X126471552Y-86275800D01*
X131228869Y-86275800D01*
X131865000Y-86911932D01*
X131865000Y-89161928D01*
X131500000Y-89161928D01*
X131375518Y-89174188D01*
X131255820Y-89210498D01*
X131145506Y-89269463D01*
X131048815Y-89348815D01*
X130969463Y-89445506D01*
X130910498Y-89555820D01*
X130874188Y-89675518D01*
X130861928Y-89800000D01*
X130861928Y-95200000D01*
X130874188Y-95324482D01*
X130910498Y-95444180D01*
X130969463Y-95554494D01*
X131048815Y-95651185D01*
X131145506Y-95730537D01*
X131255820Y-95789502D01*
X131375518Y-95825812D01*
X131500000Y-95838072D01*
X131865001Y-95838072D01*
X131865001Y-96092981D01*
X131853909Y-96205600D01*
X131865000Y-96318210D01*
X131865001Y-97798000D01*
X110405800Y-97798000D01*
X110405800Y-92839619D01*
X110418577Y-92797499D01*
X110435000Y-92630752D01*
X110435000Y-92630751D01*
X110440491Y-92575001D01*
X110435000Y-92519248D01*
X110435000Y-92211595D01*
X110450000Y-92213072D01*
X110714250Y-92210000D01*
X110873000Y-92051250D01*
X110873000Y-89402000D01*
X110853000Y-89402000D01*
X110853000Y-89148000D01*
X110873000Y-89148000D01*
X110873000Y-86498750D01*
X111127000Y-86498750D01*
X111127000Y-89148000D01*
X111147000Y-89148000D01*
X111147000Y-89402000D01*
X111127000Y-89402000D01*
X111127000Y-92051250D01*
X111285750Y-92210000D01*
X111550000Y-92213072D01*
X111565000Y-92211595D01*
X111565000Y-93344249D01*
X111559509Y-93400000D01*
X111565000Y-93455751D01*
X111581423Y-93622498D01*
X111646324Y-93836446D01*
X111751716Y-94033623D01*
X111893551Y-94206449D01*
X111936865Y-94241996D01*
X113958009Y-96263141D01*
X113993551Y-96306449D01*
X114166377Y-96448284D01*
X114363553Y-96553676D01*
X114577501Y-96618577D01*
X114744248Y-96635000D01*
X114744257Y-96635000D01*
X114799999Y-96640490D01*
X114855741Y-96635000D01*
X115161928Y-96635000D01*
X115161928Y-96700000D01*
X115174188Y-96824482D01*
X115210498Y-96944180D01*
X115269463Y-97054494D01*
X115348815Y-97151185D01*
X115445506Y-97230537D01*
X115555820Y-97289502D01*
X115675518Y-97325812D01*
X115800000Y-97338072D01*
X118200000Y-97338072D01*
X118324482Y-97325812D01*
X118444180Y-97289502D01*
X118554494Y-97230537D01*
X118651185Y-97151185D01*
X118730537Y-97054494D01*
X118789502Y-96944180D01*
X118825812Y-96824482D01*
X118838072Y-96700000D01*
X118838072Y-95267060D01*
X120470133Y-93635000D01*
X120861928Y-93635000D01*
X120861928Y-95200000D01*
X120874188Y-95324482D01*
X120910498Y-95444180D01*
X120969463Y-95554494D01*
X121048815Y-95651185D01*
X121145506Y-95730537D01*
X121255820Y-95789502D01*
X121375518Y-95825812D01*
X121500000Y-95838072D01*
X124500000Y-95838072D01*
X124624482Y-95825812D01*
X124744180Y-95789502D01*
X124854494Y-95730537D01*
X124951185Y-95651185D01*
X125030537Y-95554494D01*
X125089502Y-95444180D01*
X125125812Y-95324482D01*
X125138072Y-95200000D01*
X125138072Y-89800000D01*
X125125812Y-89675518D01*
X125089502Y-89555820D01*
X125030537Y-89445506D01*
X124951185Y-89348815D01*
X124854494Y-89269463D01*
X124744180Y-89210498D01*
X124624482Y-89174188D01*
X124500000Y-89161928D01*
X121500000Y-89161928D01*
X121375518Y-89174188D01*
X121255820Y-89210498D01*
X121145506Y-89269463D01*
X121048815Y-89348815D01*
X120969463Y-89445506D01*
X120910498Y-89555820D01*
X120874188Y-89675518D01*
X120861928Y-89800000D01*
X120861928Y-91365000D01*
X120055752Y-91365000D01*
X120000000Y-91359509D01*
X119777501Y-91381423D01*
X119563553Y-91446324D01*
X119366377Y-91551716D01*
X119236856Y-91658011D01*
X119236854Y-91658013D01*
X119193551Y-91693551D01*
X119158013Y-91736854D01*
X117232940Y-93661928D01*
X115800000Y-93661928D01*
X115675518Y-93674188D01*
X115555820Y-93710498D01*
X115445506Y-93769463D01*
X115348815Y-93848815D01*
X115269463Y-93945506D01*
X115210498Y-94055820D01*
X115174188Y-94175518D01*
X115165802Y-94260670D01*
X113835000Y-92929869D01*
X113835000Y-92211595D01*
X113850000Y-92213072D01*
X114114250Y-92210000D01*
X114273000Y-92051250D01*
X114273000Y-89402000D01*
X114527000Y-89402000D01*
X114527000Y-92051250D01*
X114685750Y-92210000D01*
X114950000Y-92213072D01*
X115074482Y-92200812D01*
X115194180Y-92164502D01*
X115304494Y-92105537D01*
X115401185Y-92026185D01*
X115480537Y-91929494D01*
X115539502Y-91819180D01*
X115575812Y-91699482D01*
X115588072Y-91575000D01*
X115585000Y-89560750D01*
X115426250Y-89402000D01*
X114527000Y-89402000D01*
X114273000Y-89402000D01*
X114253000Y-89402000D01*
X114253000Y-89148000D01*
X114273000Y-89148000D01*
X114273000Y-86498750D01*
X114527000Y-86498750D01*
X114527000Y-89148000D01*
X115426250Y-89148000D01*
X115585000Y-88989250D01*
X115588072Y-86975000D01*
X115575812Y-86850518D01*
X115539502Y-86730820D01*
X115480537Y-86620506D01*
X115401185Y-86523815D01*
X115304494Y-86444463D01*
X115194180Y-86385498D01*
X115074482Y-86349188D01*
X114950000Y-86336928D01*
X114685750Y-86340000D01*
X114527000Y-86498750D01*
X114273000Y-86498750D01*
X114114250Y-86340000D01*
X113850000Y-86336928D01*
X113725518Y-86349188D01*
X113605820Y-86385498D01*
X113550000Y-86415335D01*
X113494180Y-86385498D01*
X113374482Y-86349188D01*
X113250000Y-86336928D01*
X112150000Y-86336928D01*
X112025518Y-86349188D01*
X111905820Y-86385498D01*
X111850000Y-86415335D01*
X111794180Y-86385498D01*
X111674482Y-86349188D01*
X111550000Y-86336928D01*
X111285750Y-86340000D01*
X111127000Y-86498750D01*
X110873000Y-86498750D01*
X110714250Y-86340000D01*
X110450000Y-86336928D01*
X110325518Y-86349188D01*
X110205820Y-86385498D01*
X110150000Y-86415335D01*
X110094180Y-86385498D01*
X109974482Y-86349188D01*
X109850000Y-86336928D01*
X108750000Y-86336928D01*
X108625518Y-86349188D01*
X108505820Y-86385498D01*
X108450000Y-86415335D01*
X108394180Y-86385498D01*
X108274482Y-86349188D01*
X108150000Y-86336928D01*
X107050000Y-86336928D01*
X106925518Y-86349188D01*
X106805820Y-86385498D01*
X106695506Y-86444463D01*
X106598815Y-86523815D01*
X106519463Y-86620506D01*
X106460498Y-86730820D01*
X106424188Y-86850518D01*
X106411928Y-86975000D01*
X106411928Y-88031796D01*
X105351200Y-86971069D01*
X105351200Y-86169609D01*
X118509997Y-86169609D01*
X118696073Y-86510766D01*
X119113409Y-86726513D01*
X119564815Y-86856696D01*
X120032946Y-86896313D01*
X120499811Y-86843842D01*
X120947468Y-86701297D01*
X121303927Y-86510766D01*
X121490003Y-86169609D01*
X120000000Y-84679605D01*
X118509997Y-86169609D01*
X105351200Y-86169609D01*
X105351200Y-85412033D01*
X105355820Y-85414502D01*
X105475518Y-85450812D01*
X105600000Y-85463072D01*
X110714250Y-85460000D01*
X110873000Y-85301250D01*
X110873000Y-80252000D01*
X110853000Y-80252000D01*
X110853000Y-79998000D01*
X110873000Y-79998000D01*
X110873000Y-79978000D01*
X111127000Y-79978000D01*
X111127000Y-79998000D01*
G36*
X104964186Y-78670255D02*
G01*
X103530796Y-77236865D01*
X103495249Y-77193551D01*
X103322423Y-77051716D01*
X103125247Y-76946324D01*
X102911299Y-76881423D01*
X102744552Y-76865000D01*
X102744551Y-76865000D01*
X102688800Y-76859509D01*
X102633049Y-76865000D01*
X101840957Y-76865000D01*
X101830537Y-76845506D01*
X101751185Y-76748815D01*
X101654494Y-76669463D01*
X101544180Y-76610498D01*
X101424482Y-76574188D01*
X101300000Y-76561928D01*
X99700000Y-76561928D01*
X99575518Y-76574188D01*
X99455820Y-76610498D01*
X99345506Y-76669463D01*
X99248815Y-76748815D01*
X99169463Y-76845506D01*
X99110498Y-76955820D01*
X99074188Y-77075518D01*
X99061928Y-77200000D01*
X99061928Y-77215000D01*
X91708688Y-77215000D01*
X91664175Y-77148382D01*
X91401618Y-76885825D01*
X91092882Y-76679534D01*
X90749834Y-76537439D01*
X90385656Y-76465000D01*
X90014344Y-76465000D01*
X89650166Y-76537439D01*
X89307118Y-76679534D01*
X88998382Y-76885825D01*
X88735825Y-77148382D01*
X88529534Y-77457118D01*
X88387439Y-77800166D01*
X88315000Y-78164344D01*
X88315000Y-78535656D01*
X88387439Y-78899834D01*
X88529534Y-79242882D01*
X88735825Y-79551618D01*
X88998382Y-79814175D01*
X89307118Y-80020466D01*
X89650166Y-80162561D01*
X90014344Y-80235000D01*
X90385656Y-80235000D01*
X90749834Y-80162561D01*
X91092882Y-80020466D01*
X91401618Y-79814175D01*
X91664175Y-79551618D01*
X91708688Y-79485000D01*
X100094249Y-79485000D01*
X100150000Y-79490491D01*
X100205751Y-79485000D01*
X100205752Y-79485000D01*
X100372499Y-79468577D01*
X100473060Y-79438072D01*
X101300000Y-79438072D01*
X101424482Y-79425812D01*
X101544180Y-79389502D01*
X101654494Y-79330537D01*
X101751185Y-79251185D01*
X101830537Y-79154494D01*
X101840957Y-79135000D01*
X102218669Y-79135000D01*
X103081200Y-79997532D01*
X103081201Y-87385439D01*
X103075709Y-87441200D01*
X103097623Y-87663698D01*
X103162524Y-87877646D01*
X103211584Y-87969430D01*
X103267917Y-88074823D01*
X103409752Y-88247649D01*
X103453060Y-88283191D01*
X104444868Y-89275000D01*
X102964870Y-90754999D01*
X100707224Y-90754999D01*
X100741514Y-90736671D01*
X100813097Y-90492702D01*
X100000000Y-89679605D01*
X99186903Y-90492702D01*
X99258486Y-90736671D01*
X99297220Y-90754999D01*
X94443429Y-90754999D01*
X94490003Y-90669609D01*
X93000000Y-89179605D01*
X91509997Y-90669609D01*
X91556571Y-90754999D01*
X88457402Y-90754999D01*
X88427932Y-90606842D01*
X88315990Y-90336589D01*
X88153475Y-90093368D01*
X88021620Y-89961513D01*
X88094180Y-89939502D01*
X88204494Y-89880537D01*
X88301185Y-89801185D01*
X88380537Y-89704494D01*
X88439502Y-89594180D01*
X88475812Y-89474482D01*
X88488072Y-89350000D01*
X88488072Y-89032946D01*
X90603687Y-89032946D01*
X90656158Y-89499811D01*
X90798703Y-89947468D01*
X90989234Y-90303927D01*
X91330391Y-90490003D01*
X92820395Y-89000000D01*
X93179605Y-89000000D01*
X94669609Y-90490003D01*
X95010766Y-90303927D01*
X95226513Y-89886591D01*
X95317668Y-89570512D01*
X98559783Y-89570512D01*
X98601213Y-89850130D01*
X98696397Y-90116292D01*
X98763329Y-90241514D01*
X99007298Y-90313097D01*
X99820395Y-89500000D01*
X100179605Y-89500000D01*
X100992702Y-90313097D01*
X101236671Y-90241514D01*
X101357571Y-89986004D01*
X101426300Y-89711816D01*
X101440217Y-89429488D01*
X101398787Y-89149870D01*
X101303603Y-88883708D01*
X101236671Y-88758486D01*
X100992702Y-88686903D01*
X100179605Y-89500000D01*
X99820395Y-89500000D01*
X99007298Y-88686903D01*
X98763329Y-88758486D01*
X98642429Y-89013996D01*
X98573700Y-89288184D01*
X98559783Y-89570512D01*
X95317668Y-89570512D01*
X95356696Y-89435185D01*
X95396313Y-88967054D01*
X95343842Y-88500189D01*
X95201297Y-88052532D01*
X95010766Y-87696073D01*
X94669609Y-87509997D01*
X93179605Y-89000000D01*
X92820395Y-89000000D01*
X91330391Y-87509997D01*
X90989234Y-87696073D01*
X90773487Y-88113409D01*
X90643304Y-88564815D01*
X90603687Y-89032946D01*
X88488072Y-89032946D01*
X88488072Y-87650000D01*
X88475812Y-87525518D01*
X88439502Y-87405820D01*
X88399184Y-87330391D01*
X91509997Y-87330391D01*
X93000000Y-88820395D01*
X94490003Y-87330391D01*
X94303927Y-86989234D01*
X93886591Y-86773487D01*
X93435185Y-86643304D01*
X92967054Y-86603687D01*
X92500189Y-86656158D01*
X92052532Y-86798703D01*
X91696073Y-86989234D01*
X91509997Y-87330391D01*
X88399184Y-87330391D01*
X88380537Y-87295506D01*
X88301185Y-87198815D01*
X88204494Y-87119463D01*
X88094180Y-87060498D01*
X87974482Y-87024188D01*
X87850000Y-87011928D01*
X86150000Y-87011928D01*
X86025518Y-87024188D01*
X85905820Y-87060498D01*
X85795506Y-87119463D01*
X85698815Y-87198815D01*
X85660000Y-87246111D01*
X85660000Y-86200000D01*
X98561928Y-86200000D01*
X98561928Y-87800000D01*
X98574188Y-87924482D01*
X98610498Y-88044180D01*
X98669463Y-88154494D01*
X98748815Y-88251185D01*
X98845506Y-88330537D01*
X98955820Y-88389502D01*
X99075518Y-88425812D01*
X99200000Y-88438072D01*
X99207215Y-88438072D01*
X99186903Y-88507298D01*
X100000000Y-89320395D01*
X100813097Y-88507298D01*
X100792785Y-88438072D01*
X100800000Y-88438072D01*
X100924482Y-88425812D01*
X101044180Y-88389502D01*
X101154494Y-88330537D01*
X101251185Y-88251185D01*
X101330537Y-88154494D01*
X101389502Y-88044180D01*
X101425812Y-87924482D01*
X101438072Y-87800000D01*
X101438072Y-86200000D01*
X101425812Y-86075518D01*
X101389502Y-85955820D01*
X101330537Y-85845506D01*
X101251185Y-85748815D01*
X101154494Y-85669463D01*
X101044180Y-85610498D01*
X100924482Y-85574188D01*
X100800000Y-85561928D01*
X99200000Y-85561928D01*
X99075518Y-85574188D01*
X98955820Y-85610498D01*
X98845506Y-85669463D01*
X98748815Y-85748815D01*
X98669463Y-85845506D01*
X98610498Y-85955820D01*
X98574188Y-86075518D01*
X98561928Y-86200000D01*
X85660000Y-86200000D01*
X85660000Y-84663605D01*
X89066000Y-84663605D01*
X89191914Y-84953577D01*
X89524126Y-85119433D01*
X89882312Y-85217290D01*
X90252706Y-85243389D01*
X90621075Y-85196725D01*
X90973262Y-85079094D01*
X91208086Y-84953577D01*
X91334000Y-84663605D01*
X90200000Y-83529605D01*
X89066000Y-84663605D01*
X85660000Y-84663605D01*
X85660000Y-83402706D01*
X88306611Y-83402706D01*
X88353275Y-83771075D01*
X88470906Y-84123262D01*
X88596423Y-84358086D01*
X88886395Y-84484000D01*
X90020395Y-83350000D01*
X90379605Y-83350000D01*
X91513605Y-84484000D01*
X91803577Y-84358086D01*
X91969433Y-84025874D01*
X92067290Y-83667688D01*
X92093389Y-83297294D01*
X92046725Y-82928925D01*
X91929094Y-82576738D01*
X91884176Y-82492702D01*
X99686903Y-82492702D01*
X99758486Y-82736671D01*
X100013996Y-82857571D01*
X100288184Y-82926300D01*
X100570512Y-82940217D01*
X100850130Y-82898787D01*
X101116292Y-82803603D01*
X101241514Y-82736671D01*
X101313097Y-82492702D01*
X100500000Y-81679605D01*
X99686903Y-82492702D01*
X91884176Y-82492702D01*
X91803577Y-82341914D01*
X91513605Y-82216000D01*
X90379605Y-83350000D01*
X90020395Y-83350000D01*
X88886395Y-82216000D01*
X88596423Y-82341914D01*
X88430567Y-82674126D01*
X88332710Y-83032312D01*
X88306611Y-83402706D01*
X85660000Y-83402706D01*
X85660000Y-82036395D01*
X89066000Y-82036395D01*
X90200000Y-83170395D01*
X91334000Y-82036395D01*
X91208086Y-81746423D01*
X90875874Y-81580567D01*
X90839070Y-81570512D01*
X99059783Y-81570512D01*
X99101213Y-81850130D01*
X99196397Y-82116292D01*
X99263329Y-82241514D01*
X99507298Y-82313097D01*
X100320395Y-81500000D01*
X100679605Y-81500000D01*
X101492702Y-82313097D01*
X101736671Y-82241514D01*
X101857571Y-81986004D01*
X101926300Y-81711816D01*
X101940217Y-81429488D01*
X101898787Y-81149870D01*
X101803603Y-80883708D01*
X101736671Y-80758486D01*
X101492702Y-80686903D01*
X100679605Y-81500000D01*
X100320395Y-81500000D01*
X99507298Y-80686903D01*
X99263329Y-80758486D01*
X99142429Y-81013996D01*
X99073700Y-81288184D01*
X99059783Y-81570512D01*
X90839070Y-81570512D01*
X90517688Y-81482710D01*
X90147294Y-81456611D01*
X89778925Y-81503275D01*
X89426738Y-81620906D01*
X89191914Y-81746423D01*
X89066000Y-82036395D01*
X85660000Y-82036395D01*
X85660000Y-80507298D01*
X99686903Y-80507298D01*
X100500000Y-81320395D01*
X101313097Y-80507298D01*
X101241514Y-80263329D01*
X100986004Y-80142429D01*
X100711816Y-80073700D01*
X100429488Y-80059783D01*
X100149870Y-80101213D01*
X99883708Y-80196397D01*
X99758486Y-80263329D01*
X99686903Y-80507298D01*
X85660000Y-80507298D01*
X85660000Y-75660000D01*
X104962092Y-75660000D01*
X104964186Y-78670255D01*
G37*
X104964186Y-78670255D02*
X103530796Y-77236865D01*
X103495249Y-77193551D01*
X103322423Y-77051716D01*
X103125247Y-76946324D01*
X102911299Y-76881423D01*
X102744552Y-76865000D01*
X102744551Y-76865000D01*
X102688800Y-76859509D01*
X102633049Y-76865000D01*
X101840957Y-76865000D01*
X101830537Y-76845506D01*
X101751185Y-76748815D01*
X101654494Y-76669463D01*
X101544180Y-76610498D01*
X101424482Y-76574188D01*
X101300000Y-76561928D01*
X99700000Y-76561928D01*
X99575518Y-76574188D01*
X99455820Y-76610498D01*
X99345506Y-76669463D01*
X99248815Y-76748815D01*
X99169463Y-76845506D01*
X99110498Y-76955820D01*
X99074188Y-77075518D01*
X99061928Y-77200000D01*
X99061928Y-77215000D01*
X91708688Y-77215000D01*
X91664175Y-77148382D01*
X91401618Y-76885825D01*
X91092882Y-76679534D01*
X90749834Y-76537439D01*
X90385656Y-76465000D01*
X90014344Y-76465000D01*
X89650166Y-76537439D01*
X89307118Y-76679534D01*
X88998382Y-76885825D01*
X88735825Y-77148382D01*
X88529534Y-77457118D01*
X88387439Y-77800166D01*
X88315000Y-78164344D01*
X88315000Y-78535656D01*
X88387439Y-78899834D01*
X88529534Y-79242882D01*
X88735825Y-79551618D01*
X88998382Y-79814175D01*
X89307118Y-80020466D01*
X89650166Y-80162561D01*
X90014344Y-80235000D01*
X90385656Y-80235000D01*
X90749834Y-80162561D01*
X91092882Y-80020466D01*
X91401618Y-79814175D01*
X91664175Y-79551618D01*
X91708688Y-79485000D01*
X100094249Y-79485000D01*
X100150000Y-79490491D01*
X100205751Y-79485000D01*
X100205752Y-79485000D01*
X100372499Y-79468577D01*
X100473060Y-79438072D01*
X101300000Y-79438072D01*
X101424482Y-79425812D01*
X101544180Y-79389502D01*
X101654494Y-79330537D01*
X101751185Y-79251185D01*
X101830537Y-79154494D01*
X101840957Y-79135000D01*
X102218669Y-79135000D01*
X103081200Y-79997532D01*
X103081201Y-87385439D01*
X103075709Y-87441200D01*
X103097623Y-87663698D01*
X103162524Y-87877646D01*
X103211584Y-87969430D01*
X103267917Y-88074823D01*
X103409752Y-88247649D01*
X103453060Y-88283191D01*
X104444868Y-89275000D01*
X102964870Y-90754999D01*
X100707224Y-90754999D01*
X100741514Y-90736671D01*
X100813097Y-90492702D01*
X100000000Y-89679605D01*
X99186903Y-90492702D01*
X99258486Y-90736671D01*
X99297220Y-90754999D01*
X94443429Y-90754999D01*
X94490003Y-90669609D01*
X93000000Y-89179605D01*
X91509997Y-90669609D01*
X91556571Y-90754999D01*
X88457402Y-90754999D01*
X88427932Y-90606842D01*
X88315990Y-90336589D01*
X88153475Y-90093368D01*
X88021620Y-89961513D01*
X88094180Y-89939502D01*
X88204494Y-89880537D01*
X88301185Y-89801185D01*
X88380537Y-89704494D01*
X88439502Y-89594180D01*
X88475812Y-89474482D01*
X88488072Y-89350000D01*
X88488072Y-89032946D01*
X90603687Y-89032946D01*
X90656158Y-89499811D01*
X90798703Y-89947468D01*
X90989234Y-90303927D01*
X91330391Y-90490003D01*
X92820395Y-89000000D01*
X93179605Y-89000000D01*
X94669609Y-90490003D01*
X95010766Y-90303927D01*
X95226513Y-89886591D01*
X95317668Y-89570512D01*
X98559783Y-89570512D01*
X98601213Y-89850130D01*
X98696397Y-90116292D01*
X98763329Y-90241514D01*
X99007298Y-90313097D01*
X99820395Y-89500000D01*
X100179605Y-89500000D01*
X100992702Y-90313097D01*
X101236671Y-90241514D01*
X101357571Y-89986004D01*
X101426300Y-89711816D01*
X101440217Y-89429488D01*
X101398787Y-89149870D01*
X101303603Y-88883708D01*
X101236671Y-88758486D01*
X100992702Y-88686903D01*
X100179605Y-89500000D01*
X99820395Y-89500000D01*
X99007298Y-88686903D01*
X98763329Y-88758486D01*
X98642429Y-89013996D01*
X98573700Y-89288184D01*
X98559783Y-89570512D01*
X95317668Y-89570512D01*
X95356696Y-89435185D01*
X95396313Y-88967054D01*
X95343842Y-88500189D01*
X95201297Y-88052532D01*
X95010766Y-87696073D01*
X94669609Y-87509997D01*
X93179605Y-89000000D01*
X92820395Y-89000000D01*
X91330391Y-87509997D01*
X90989234Y-87696073D01*
X90773487Y-88113409D01*
X90643304Y-88564815D01*
X90603687Y-89032946D01*
X88488072Y-89032946D01*
X88488072Y-87650000D01*
X88475812Y-87525518D01*
X88439502Y-87405820D01*
X88399184Y-87330391D01*
X91509997Y-87330391D01*
X93000000Y-88820395D01*
X94490003Y-87330391D01*
X94303927Y-86989234D01*
X93886591Y-86773487D01*
X93435185Y-86643304D01*
X92967054Y-86603687D01*
X92500189Y-86656158D01*
X92052532Y-86798703D01*
X91696073Y-86989234D01*
X91509997Y-87330391D01*
X88399184Y-87330391D01*
X88380537Y-87295506D01*
X88301185Y-87198815D01*
X88204494Y-87119463D01*
X88094180Y-87060498D01*
X87974482Y-87024188D01*
X87850000Y-87011928D01*
X86150000Y-87011928D01*
X86025518Y-87024188D01*
X85905820Y-87060498D01*
X85795506Y-87119463D01*
X85698815Y-87198815D01*
X85660000Y-87246111D01*
X85660000Y-86200000D01*
X98561928Y-86200000D01*
X98561928Y-87800000D01*
X98574188Y-87924482D01*
X98610498Y-88044180D01*
X98669463Y-88154494D01*
X98748815Y-88251185D01*
X98845506Y-88330537D01*
X98955820Y-88389502D01*
X99075518Y-88425812D01*
X99200000Y-88438072D01*
X99207215Y-88438072D01*
X99186903Y-88507298D01*
X100000000Y-89320395D01*
X100813097Y-88507298D01*
X100792785Y-88438072D01*
X100800000Y-88438072D01*
X100924482Y-88425812D01*
X101044180Y-88389502D01*
X101154494Y-88330537D01*
X101251185Y-88251185D01*
X101330537Y-88154494D01*
X101389502Y-88044180D01*
X101425812Y-87924482D01*
X101438072Y-87800000D01*
X101438072Y-86200000D01*
X101425812Y-86075518D01*
X101389502Y-85955820D01*
X101330537Y-85845506D01*
X101251185Y-85748815D01*
X101154494Y-85669463D01*
X101044180Y-85610498D01*
X100924482Y-85574188D01*
X100800000Y-85561928D01*
X99200000Y-85561928D01*
X99075518Y-85574188D01*
X98955820Y-85610498D01*
X98845506Y-85669463D01*
X98748815Y-85748815D01*
X98669463Y-85845506D01*
X98610498Y-85955820D01*
X98574188Y-86075518D01*
X98561928Y-86200000D01*
X85660000Y-86200000D01*
X85660000Y-84663605D01*
X89066000Y-84663605D01*
X89191914Y-84953577D01*
X89524126Y-85119433D01*
X89882312Y-85217290D01*
X90252706Y-85243389D01*
X90621075Y-85196725D01*
X90973262Y-85079094D01*
X91208086Y-84953577D01*
X91334000Y-84663605D01*
X90200000Y-83529605D01*
X89066000Y-84663605D01*
X85660000Y-84663605D01*
X85660000Y-83402706D01*
X88306611Y-83402706D01*
X88353275Y-83771075D01*
X88470906Y-84123262D01*
X88596423Y-84358086D01*
X88886395Y-84484000D01*
X90020395Y-83350000D01*
X90379605Y-83350000D01*
X91513605Y-84484000D01*
X91803577Y-84358086D01*
X91969433Y-84025874D01*
X92067290Y-83667688D01*
X92093389Y-83297294D01*
X92046725Y-82928925D01*
X91929094Y-82576738D01*
X91884176Y-82492702D01*
X99686903Y-82492702D01*
X99758486Y-82736671D01*
X100013996Y-82857571D01*
X100288184Y-82926300D01*
X100570512Y-82940217D01*
X100850130Y-82898787D01*
X101116292Y-82803603D01*
X101241514Y-82736671D01*
X101313097Y-82492702D01*
X100500000Y-81679605D01*
X99686903Y-82492702D01*
X91884176Y-82492702D01*
X91803577Y-82341914D01*
X91513605Y-82216000D01*
X90379605Y-83350000D01*
X90020395Y-83350000D01*
X88886395Y-82216000D01*
X88596423Y-82341914D01*
X88430567Y-82674126D01*
X88332710Y-83032312D01*
X88306611Y-83402706D01*
X85660000Y-83402706D01*
X85660000Y-82036395D01*
X89066000Y-82036395D01*
X90200000Y-83170395D01*
X91334000Y-82036395D01*
X91208086Y-81746423D01*
X90875874Y-81580567D01*
X90839070Y-81570512D01*
X99059783Y-81570512D01*
X99101213Y-81850130D01*
X99196397Y-82116292D01*
X99263329Y-82241514D01*
X99507298Y-82313097D01*
X100320395Y-81500000D01*
X100679605Y-81500000D01*
X101492702Y-82313097D01*
X101736671Y-82241514D01*
X101857571Y-81986004D01*
X101926300Y-81711816D01*
X101940217Y-81429488D01*
X101898787Y-81149870D01*
X101803603Y-80883708D01*
X101736671Y-80758486D01*
X101492702Y-80686903D01*
X100679605Y-81500000D01*
X100320395Y-81500000D01*
X99507298Y-80686903D01*
X99263329Y-80758486D01*
X99142429Y-81013996D01*
X99073700Y-81288184D01*
X99059783Y-81570512D01*
X90839070Y-81570512D01*
X90517688Y-81482710D01*
X90147294Y-81456611D01*
X89778925Y-81503275D01*
X89426738Y-81620906D01*
X89191914Y-81746423D01*
X89066000Y-82036395D01*
X85660000Y-82036395D01*
X85660000Y-80507298D01*
X99686903Y-80507298D01*
X100500000Y-81320395D01*
X101313097Y-80507298D01*
X101241514Y-80263329D01*
X100986004Y-80142429D01*
X100711816Y-80073700D01*
X100429488Y-80059783D01*
X100149870Y-80101213D01*
X99883708Y-80196397D01*
X99758486Y-80263329D01*
X99686903Y-80507298D01*
X85660000Y-80507298D01*
X85660000Y-75660000D01*
X104962092Y-75660000D01*
X104964186Y-78670255D01*
G36*
X134340001Y-89161928D02*
G01*
X134135000Y-89161928D01*
X134135000Y-86497552D01*
X134140491Y-86441800D01*
X134118577Y-86219301D01*
X134053676Y-86005353D01*
X133948284Y-85808177D01*
X133920582Y-85774422D01*
X133806449Y-85635351D01*
X133763140Y-85599808D01*
X132540996Y-84377665D01*
X132505449Y-84334351D01*
X132332623Y-84192516D01*
X132135447Y-84087124D01*
X131921499Y-84022223D01*
X131754752Y-84005800D01*
X131754751Y-84005800D01*
X131699000Y-84000309D01*
X131643249Y-84005800D01*
X130915678Y-84005800D01*
X130934000Y-83963605D01*
X129800000Y-82829605D01*
X128666000Y-83963605D01*
X128684322Y-84005800D01*
X126966600Y-84005800D01*
X126966600Y-82702706D01*
X127906611Y-82702706D01*
X127953275Y-83071075D01*
X128070906Y-83423262D01*
X128196423Y-83658086D01*
X128486395Y-83784000D01*
X129620395Y-82650000D01*
X129979605Y-82650000D01*
X131113605Y-83784000D01*
X131403577Y-83658086D01*
X131569433Y-83325874D01*
X131667290Y-82967688D01*
X131693389Y-82597294D01*
X131646725Y-82228925D01*
X131529094Y-81876738D01*
X131403577Y-81641914D01*
X131113605Y-81516000D01*
X129979605Y-82650000D01*
X129620395Y-82650000D01*
X128486395Y-81516000D01*
X128196423Y-81641914D01*
X128030567Y-81974126D01*
X127932710Y-82332312D01*
X127906611Y-82702706D01*
X126966600Y-82702706D01*
X126966600Y-81336395D01*
X128666000Y-81336395D01*
X129800000Y-82470395D01*
X130934000Y-81336395D01*
X130808086Y-81046423D01*
X130475874Y-80880567D01*
X130117688Y-80782710D01*
X129747294Y-80756611D01*
X129378925Y-80803275D01*
X129026738Y-80920906D01*
X128791914Y-81046423D01*
X128666000Y-81336395D01*
X126966600Y-81336395D01*
X126966600Y-80955752D01*
X126972091Y-80900000D01*
X126950177Y-80677501D01*
X126885276Y-80463553D01*
X126779884Y-80266377D01*
X126638049Y-80093551D01*
X126465223Y-79951716D01*
X126268047Y-79846324D01*
X126054099Y-79781423D01*
X125887352Y-79765000D01*
X125887351Y-79765000D01*
X125831600Y-79759509D01*
X125775848Y-79765000D01*
X123972621Y-79765000D01*
X123939502Y-79655820D01*
X123880537Y-79545506D01*
X123801185Y-79448815D01*
X123704494Y-79369463D01*
X123594180Y-79310498D01*
X123474482Y-79274188D01*
X123350000Y-79261928D01*
X117650000Y-79261928D01*
X117525518Y-79274188D01*
X117405820Y-79310498D01*
X117295506Y-79369463D01*
X117198815Y-79448815D01*
X117119463Y-79545506D01*
X117060498Y-79655820D01*
X117035069Y-79739647D01*
X117036791Y-77266028D01*
X117060498Y-77344180D01*
X117119463Y-77454494D01*
X117198815Y-77551185D01*
X117295506Y-77630537D01*
X117405820Y-77689502D01*
X117525518Y-77725812D01*
X117650000Y-77738072D01*
X123350000Y-77738072D01*
X123474482Y-77725812D01*
X123594180Y-77689502D01*
X123704494Y-77630537D01*
X123801185Y-77551185D01*
X123880537Y-77454494D01*
X123939502Y-77344180D01*
X123972621Y-77235000D01*
X127779869Y-77235000D01*
X127930631Y-77385762D01*
X127915000Y-77464344D01*
X127915000Y-77835656D01*
X127987439Y-78199834D01*
X128129534Y-78542882D01*
X128335825Y-78851618D01*
X128598382Y-79114175D01*
X128907118Y-79320466D01*
X129250166Y-79462561D01*
X129614344Y-79535000D01*
X129985656Y-79535000D01*
X130349834Y-79462561D01*
X130692882Y-79320466D01*
X131001618Y-79114175D01*
X131264175Y-78851618D01*
X131470466Y-78542882D01*
X131612561Y-78199834D01*
X131685000Y-77835656D01*
X131685000Y-77464344D01*
X131612561Y-77100166D01*
X131470466Y-76757118D01*
X131264175Y-76448382D01*
X131001618Y-76185825D01*
X130692882Y-75979534D01*
X130349834Y-75837439D01*
X129985656Y-75765000D01*
X129614344Y-75765000D01*
X129535762Y-75780631D01*
X129415131Y-75660000D01*
X134340000Y-75660000D01*
X134340001Y-89161928D01*
G37*
X134340001Y-89161928D02*
X134135000Y-89161928D01*
X134135000Y-86497552D01*
X134140491Y-86441800D01*
X134118577Y-86219301D01*
X134053676Y-86005353D01*
X133948284Y-85808177D01*
X133920582Y-85774422D01*
X133806449Y-85635351D01*
X133763140Y-85599808D01*
X132540996Y-84377665D01*
X132505449Y-84334351D01*
X132332623Y-84192516D01*
X132135447Y-84087124D01*
X131921499Y-84022223D01*
X131754752Y-84005800D01*
X131754751Y-84005800D01*
X131699000Y-84000309D01*
X131643249Y-84005800D01*
X130915678Y-84005800D01*
X130934000Y-83963605D01*
X129800000Y-82829605D01*
X128666000Y-83963605D01*
X128684322Y-84005800D01*
X126966600Y-84005800D01*
X126966600Y-82702706D01*
X127906611Y-82702706D01*
X127953275Y-83071075D01*
X128070906Y-83423262D01*
X128196423Y-83658086D01*
X128486395Y-83784000D01*
X129620395Y-82650000D01*
X129979605Y-82650000D01*
X131113605Y-83784000D01*
X131403577Y-83658086D01*
X131569433Y-83325874D01*
X131667290Y-82967688D01*
X131693389Y-82597294D01*
X131646725Y-82228925D01*
X131529094Y-81876738D01*
X131403577Y-81641914D01*
X131113605Y-81516000D01*
X129979605Y-82650000D01*
X129620395Y-82650000D01*
X128486395Y-81516000D01*
X128196423Y-81641914D01*
X128030567Y-81974126D01*
X127932710Y-82332312D01*
X127906611Y-82702706D01*
X126966600Y-82702706D01*
X126966600Y-81336395D01*
X128666000Y-81336395D01*
X129800000Y-82470395D01*
X130934000Y-81336395D01*
X130808086Y-81046423D01*
X130475874Y-80880567D01*
X130117688Y-80782710D01*
X129747294Y-80756611D01*
X129378925Y-80803275D01*
X129026738Y-80920906D01*
X128791914Y-81046423D01*
X128666000Y-81336395D01*
X126966600Y-81336395D01*
X126966600Y-80955752D01*
X126972091Y-80900000D01*
X126950177Y-80677501D01*
X126885276Y-80463553D01*
X126779884Y-80266377D01*
X126638049Y-80093551D01*
X126465223Y-79951716D01*
X126268047Y-79846324D01*
X126054099Y-79781423D01*
X125887352Y-79765000D01*
X125887351Y-79765000D01*
X125831600Y-79759509D01*
X125775848Y-79765000D01*
X123972621Y-79765000D01*
X123939502Y-79655820D01*
X123880537Y-79545506D01*
X123801185Y-79448815D01*
X123704494Y-79369463D01*
X123594180Y-79310498D01*
X123474482Y-79274188D01*
X123350000Y-79261928D01*
X117650000Y-79261928D01*
X117525518Y-79274188D01*
X117405820Y-79310498D01*
X117295506Y-79369463D01*
X117198815Y-79448815D01*
X117119463Y-79545506D01*
X117060498Y-79655820D01*
X117035069Y-79739647D01*
X117036791Y-77266028D01*
X117060498Y-77344180D01*
X117119463Y-77454494D01*
X117198815Y-77551185D01*
X117295506Y-77630537D01*
X117405820Y-77689502D01*
X117525518Y-77725812D01*
X117650000Y-77738072D01*
X123350000Y-77738072D01*
X123474482Y-77725812D01*
X123594180Y-77689502D01*
X123704494Y-77630537D01*
X123801185Y-77551185D01*
X123880537Y-77454494D01*
X123939502Y-77344180D01*
X123972621Y-77235000D01*
X127779869Y-77235000D01*
X127930631Y-77385762D01*
X127915000Y-77464344D01*
X127915000Y-77835656D01*
X127987439Y-78199834D01*
X128129534Y-78542882D01*
X128335825Y-78851618D01*
X128598382Y-79114175D01*
X128907118Y-79320466D01*
X129250166Y-79462561D01*
X129614344Y-79535000D01*
X129985656Y-79535000D01*
X130349834Y-79462561D01*
X130692882Y-79320466D01*
X131001618Y-79114175D01*
X131264175Y-78851618D01*
X131470466Y-78542882D01*
X131612561Y-78199834D01*
X131685000Y-77835656D01*
X131685000Y-77464344D01*
X131612561Y-77100166D01*
X131470466Y-76757118D01*
X131264175Y-76448382D01*
X131001618Y-76185825D01*
X130692882Y-75979534D01*
X130349834Y-75837439D01*
X129985656Y-75765000D01*
X129614344Y-75765000D01*
X129535762Y-75780631D01*
X129415131Y-75660000D01*
X134340000Y-75660000D01*
X134340001Y-89161928D01*
M02*
