G04 #@! TF.GenerationSoftware,KiCad,Pcbnew,(5.1.5)-3*
G04 #@! TF.CreationDate,2021-03-22T00:26:30+01:00*
G04 #@! TF.ProjectId,12V_to_5V,3132565f-746f-45f3-9556-2e6b69636164,rev?*
G04 #@! TF.SameCoordinates,Original*
G04 #@! TF.FileFunction,Legend,Top*
G04 #@! TF.FilePolarity,Positive*
%FSLAX46Y46*%
G04 Gerber Fmt 4.6, Leading zero omitted, Abs format (unit mm)*
G04 Created by KiCad (PCBNEW (5.1.5)-3) date 2021-03-22 00:26:30*
%MOMM*%
%LPD*%
G04 APERTURE LIST*
%ADD10C,0.120000*%
%ADD11C,0.150000*%
G04 APERTURE END LIST*
D10*
X85670000Y-87170000D02*
X87000000Y-87170000D01*
X85670000Y-88500000D02*
X85670000Y-87170000D01*
X85670000Y-89770000D02*
X88330000Y-89770000D01*
X88330000Y-89770000D02*
X88330000Y-92370000D01*
X85670000Y-89770000D02*
X85670000Y-92370000D01*
X85670000Y-92370000D02*
X88330000Y-92370000D01*
X95300000Y-75150000D02*
X95300000Y-85850000D01*
X95300000Y-85850000D02*
X85100000Y-85850000D01*
X85100000Y-85850000D02*
X85100000Y-75150000D01*
X85100000Y-75150000D02*
X95300000Y-75150000D01*
X84200000Y-85850000D02*
X84200000Y-75150000D01*
X105800000Y-84950000D02*
X105800000Y-86450000D01*
X105800000Y-86450000D02*
X106750000Y-86450000D01*
X106750000Y-86450000D02*
X106750000Y-91575000D01*
X116200000Y-84950000D02*
X116200000Y-86450000D01*
X116200000Y-86450000D02*
X115250000Y-86450000D01*
X115250000Y-86450000D02*
X115250000Y-87550000D01*
X104620000Y-79750000D02*
G75*
G03X104620000Y-79750000I-4120000J0D01*
G01*
X104580000Y-79750000D02*
X96420000Y-79750000D01*
X104580000Y-79790000D02*
X96420000Y-79790000D01*
X104580000Y-79830000D02*
X96420000Y-79830000D01*
X104579000Y-79870000D02*
X96421000Y-79870000D01*
X104577000Y-79910000D02*
X96423000Y-79910000D01*
X104576000Y-79950000D02*
X96424000Y-79950000D01*
X104574000Y-79990000D02*
X96426000Y-79990000D01*
X104571000Y-80030000D02*
X96429000Y-80030000D01*
X104568000Y-80070000D02*
X96432000Y-80070000D01*
X104565000Y-80110000D02*
X96435000Y-80110000D01*
X104561000Y-80150000D02*
X96439000Y-80150000D01*
X104557000Y-80190000D02*
X96443000Y-80190000D01*
X104552000Y-80230000D02*
X96448000Y-80230000D01*
X104548000Y-80270000D02*
X96452000Y-80270000D01*
X104542000Y-80310000D02*
X96458000Y-80310000D01*
X104537000Y-80350000D02*
X96463000Y-80350000D01*
X104530000Y-80390000D02*
X96470000Y-80390000D01*
X104524000Y-80430000D02*
X96476000Y-80430000D01*
X104517000Y-80471000D02*
X101540000Y-80471000D01*
X99460000Y-80471000D02*
X96483000Y-80471000D01*
X104510000Y-80511000D02*
X101540000Y-80511000D01*
X99460000Y-80511000D02*
X96490000Y-80511000D01*
X104502000Y-80551000D02*
X101540000Y-80551000D01*
X99460000Y-80551000D02*
X96498000Y-80551000D01*
X104494000Y-80591000D02*
X101540000Y-80591000D01*
X99460000Y-80591000D02*
X96506000Y-80591000D01*
X104485000Y-80631000D02*
X101540000Y-80631000D01*
X99460000Y-80631000D02*
X96515000Y-80631000D01*
X104476000Y-80671000D02*
X101540000Y-80671000D01*
X99460000Y-80671000D02*
X96524000Y-80671000D01*
X104467000Y-80711000D02*
X101540000Y-80711000D01*
X99460000Y-80711000D02*
X96533000Y-80711000D01*
X104457000Y-80751000D02*
X101540000Y-80751000D01*
X99460000Y-80751000D02*
X96543000Y-80751000D01*
X104447000Y-80791000D02*
X101540000Y-80791000D01*
X99460000Y-80791000D02*
X96553000Y-80791000D01*
X104436000Y-80831000D02*
X101540000Y-80831000D01*
X99460000Y-80831000D02*
X96564000Y-80831000D01*
X104425000Y-80871000D02*
X101540000Y-80871000D01*
X99460000Y-80871000D02*
X96575000Y-80871000D01*
X104414000Y-80911000D02*
X101540000Y-80911000D01*
X99460000Y-80911000D02*
X96586000Y-80911000D01*
X104402000Y-80951000D02*
X101540000Y-80951000D01*
X99460000Y-80951000D02*
X96598000Y-80951000D01*
X104389000Y-80991000D02*
X101540000Y-80991000D01*
X99460000Y-80991000D02*
X96611000Y-80991000D01*
X104377000Y-81031000D02*
X101540000Y-81031000D01*
X99460000Y-81031000D02*
X96623000Y-81031000D01*
X104363000Y-81071000D02*
X101540000Y-81071000D01*
X99460000Y-81071000D02*
X96637000Y-81071000D01*
X104350000Y-81111000D02*
X101540000Y-81111000D01*
X99460000Y-81111000D02*
X96650000Y-81111000D01*
X104335000Y-81151000D02*
X101540000Y-81151000D01*
X99460000Y-81151000D02*
X96665000Y-81151000D01*
X104321000Y-81191000D02*
X101540000Y-81191000D01*
X99460000Y-81191000D02*
X96679000Y-81191000D01*
X104305000Y-81231000D02*
X101540000Y-81231000D01*
X99460000Y-81231000D02*
X96695000Y-81231000D01*
X104290000Y-81271000D02*
X101540000Y-81271000D01*
X99460000Y-81271000D02*
X96710000Y-81271000D01*
X104274000Y-81311000D02*
X101540000Y-81311000D01*
X99460000Y-81311000D02*
X96726000Y-81311000D01*
X104257000Y-81351000D02*
X101540000Y-81351000D01*
X99460000Y-81351000D02*
X96743000Y-81351000D01*
X104240000Y-81391000D02*
X101540000Y-81391000D01*
X99460000Y-81391000D02*
X96760000Y-81391000D01*
X104222000Y-81431000D02*
X101540000Y-81431000D01*
X99460000Y-81431000D02*
X96778000Y-81431000D01*
X104204000Y-81471000D02*
X101540000Y-81471000D01*
X99460000Y-81471000D02*
X96796000Y-81471000D01*
X104186000Y-81511000D02*
X101540000Y-81511000D01*
X99460000Y-81511000D02*
X96814000Y-81511000D01*
X104166000Y-81551000D02*
X101540000Y-81551000D01*
X99460000Y-81551000D02*
X96834000Y-81551000D01*
X104147000Y-81591000D02*
X101540000Y-81591000D01*
X99460000Y-81591000D02*
X96853000Y-81591000D01*
X104127000Y-81631000D02*
X101540000Y-81631000D01*
X99460000Y-81631000D02*
X96873000Y-81631000D01*
X104106000Y-81671000D02*
X101540000Y-81671000D01*
X99460000Y-81671000D02*
X96894000Y-81671000D01*
X104084000Y-81711000D02*
X101540000Y-81711000D01*
X99460000Y-81711000D02*
X96916000Y-81711000D01*
X104062000Y-81751000D02*
X101540000Y-81751000D01*
X99460000Y-81751000D02*
X96938000Y-81751000D01*
X104040000Y-81791000D02*
X101540000Y-81791000D01*
X99460000Y-81791000D02*
X96960000Y-81791000D01*
X104017000Y-81831000D02*
X101540000Y-81831000D01*
X99460000Y-81831000D02*
X96983000Y-81831000D01*
X103993000Y-81871000D02*
X101540000Y-81871000D01*
X99460000Y-81871000D02*
X97007000Y-81871000D01*
X103969000Y-81911000D02*
X101540000Y-81911000D01*
X99460000Y-81911000D02*
X97031000Y-81911000D01*
X103944000Y-81951000D02*
X101540000Y-81951000D01*
X99460000Y-81951000D02*
X97056000Y-81951000D01*
X103918000Y-81991000D02*
X101540000Y-81991000D01*
X99460000Y-81991000D02*
X97082000Y-81991000D01*
X103892000Y-82031000D02*
X101540000Y-82031000D01*
X99460000Y-82031000D02*
X97108000Y-82031000D01*
X103865000Y-82071000D02*
X101540000Y-82071000D01*
X99460000Y-82071000D02*
X97135000Y-82071000D01*
X103838000Y-82111000D02*
X101540000Y-82111000D01*
X99460000Y-82111000D02*
X97162000Y-82111000D01*
X103809000Y-82151000D02*
X101540000Y-82151000D01*
X99460000Y-82151000D02*
X97191000Y-82151000D01*
X103780000Y-82191000D02*
X101540000Y-82191000D01*
X99460000Y-82191000D02*
X97220000Y-82191000D01*
X103750000Y-82231000D02*
X101540000Y-82231000D01*
X99460000Y-82231000D02*
X97250000Y-82231000D01*
X103720000Y-82271000D02*
X101540000Y-82271000D01*
X99460000Y-82271000D02*
X97280000Y-82271000D01*
X103689000Y-82311000D02*
X101540000Y-82311000D01*
X99460000Y-82311000D02*
X97311000Y-82311000D01*
X103656000Y-82351000D02*
X101540000Y-82351000D01*
X99460000Y-82351000D02*
X97344000Y-82351000D01*
X103624000Y-82391000D02*
X101540000Y-82391000D01*
X99460000Y-82391000D02*
X97376000Y-82391000D01*
X103590000Y-82431000D02*
X101540000Y-82431000D01*
X99460000Y-82431000D02*
X97410000Y-82431000D01*
X103555000Y-82471000D02*
X101540000Y-82471000D01*
X99460000Y-82471000D02*
X97445000Y-82471000D01*
X103519000Y-82511000D02*
X101540000Y-82511000D01*
X99460000Y-82511000D02*
X97481000Y-82511000D01*
X103483000Y-82551000D02*
X97517000Y-82551000D01*
X103445000Y-82591000D02*
X97555000Y-82591000D01*
X103407000Y-82631000D02*
X97593000Y-82631000D01*
X103367000Y-82671000D02*
X97633000Y-82671000D01*
X103326000Y-82711000D02*
X97674000Y-82711000D01*
X103284000Y-82751000D02*
X97716000Y-82751000D01*
X103241000Y-82791000D02*
X97759000Y-82791000D01*
X103197000Y-82831000D02*
X97803000Y-82831000D01*
X103151000Y-82871000D02*
X97849000Y-82871000D01*
X103104000Y-82911000D02*
X97896000Y-82911000D01*
X103056000Y-82951000D02*
X97944000Y-82951000D01*
X103005000Y-82991000D02*
X97995000Y-82991000D01*
X102954000Y-83031000D02*
X98046000Y-83031000D01*
X102900000Y-83071000D02*
X98100000Y-83071000D01*
X102845000Y-83111000D02*
X98155000Y-83111000D01*
X102787000Y-83151000D02*
X98213000Y-83151000D01*
X102728000Y-83191000D02*
X98272000Y-83191000D01*
X102666000Y-83231000D02*
X98334000Y-83231000D01*
X102602000Y-83271000D02*
X98398000Y-83271000D01*
X102534000Y-83311000D02*
X98466000Y-83311000D01*
X102464000Y-83351000D02*
X98536000Y-83351000D01*
X102390000Y-83391000D02*
X98610000Y-83391000D01*
X102313000Y-83431000D02*
X98687000Y-83431000D01*
X102231000Y-83471000D02*
X98769000Y-83471000D01*
X102145000Y-83511000D02*
X98855000Y-83511000D01*
X102052000Y-83551000D02*
X98948000Y-83551000D01*
X101953000Y-83591000D02*
X99047000Y-83591000D01*
X101846000Y-83631000D02*
X99154000Y-83631000D01*
X101729000Y-83671000D02*
X99271000Y-83671000D01*
X101598000Y-83711000D02*
X99402000Y-83711000D01*
X101448000Y-83751000D02*
X99552000Y-83751000D01*
X101268000Y-83791000D02*
X99732000Y-83791000D01*
X101033000Y-83831000D02*
X99967000Y-83831000D01*
X102815000Y-75340302D02*
X102815000Y-76140302D01*
X103215000Y-75740302D02*
X102415000Y-75740302D01*
X97270000Y-95750000D02*
G75*
G03X97270000Y-95750000I-3270000J0D01*
G01*
X90770000Y-95750000D02*
X97230000Y-95750000D01*
X90770000Y-95710000D02*
X97230000Y-95710000D01*
X90770000Y-95670000D02*
X97230000Y-95670000D01*
X90772000Y-95630000D02*
X97228000Y-95630000D01*
X90773000Y-95590000D02*
X97227000Y-95590000D01*
X90776000Y-95550000D02*
X97224000Y-95550000D01*
X90778000Y-95510000D02*
X92960000Y-95510000D01*
X95040000Y-95510000D02*
X97222000Y-95510000D01*
X90782000Y-95470000D02*
X92960000Y-95470000D01*
X95040000Y-95470000D02*
X97218000Y-95470000D01*
X90785000Y-95430000D02*
X92960000Y-95430000D01*
X95040000Y-95430000D02*
X97215000Y-95430000D01*
X90789000Y-95390000D02*
X92960000Y-95390000D01*
X95040000Y-95390000D02*
X97211000Y-95390000D01*
X90794000Y-95350000D02*
X92960000Y-95350000D01*
X95040000Y-95350000D02*
X97206000Y-95350000D01*
X90799000Y-95310000D02*
X92960000Y-95310000D01*
X95040000Y-95310000D02*
X97201000Y-95310000D01*
X90805000Y-95270000D02*
X92960000Y-95270000D01*
X95040000Y-95270000D02*
X97195000Y-95270000D01*
X90811000Y-95230000D02*
X92960000Y-95230000D01*
X95040000Y-95230000D02*
X97189000Y-95230000D01*
X90818000Y-95190000D02*
X92960000Y-95190000D01*
X95040000Y-95190000D02*
X97182000Y-95190000D01*
X90825000Y-95150000D02*
X92960000Y-95150000D01*
X95040000Y-95150000D02*
X97175000Y-95150000D01*
X90833000Y-95110000D02*
X92960000Y-95110000D01*
X95040000Y-95110000D02*
X97167000Y-95110000D01*
X90841000Y-95070000D02*
X92960000Y-95070000D01*
X95040000Y-95070000D02*
X97159000Y-95070000D01*
X90850000Y-95029000D02*
X92960000Y-95029000D01*
X95040000Y-95029000D02*
X97150000Y-95029000D01*
X90859000Y-94989000D02*
X92960000Y-94989000D01*
X95040000Y-94989000D02*
X97141000Y-94989000D01*
X90869000Y-94949000D02*
X92960000Y-94949000D01*
X95040000Y-94949000D02*
X97131000Y-94949000D01*
X90879000Y-94909000D02*
X92960000Y-94909000D01*
X95040000Y-94909000D02*
X97121000Y-94909000D01*
X90890000Y-94869000D02*
X92960000Y-94869000D01*
X95040000Y-94869000D02*
X97110000Y-94869000D01*
X90902000Y-94829000D02*
X92960000Y-94829000D01*
X95040000Y-94829000D02*
X97098000Y-94829000D01*
X90914000Y-94789000D02*
X92960000Y-94789000D01*
X95040000Y-94789000D02*
X97086000Y-94789000D01*
X90926000Y-94749000D02*
X92960000Y-94749000D01*
X95040000Y-94749000D02*
X97074000Y-94749000D01*
X90939000Y-94709000D02*
X92960000Y-94709000D01*
X95040000Y-94709000D02*
X97061000Y-94709000D01*
X90953000Y-94669000D02*
X92960000Y-94669000D01*
X95040000Y-94669000D02*
X97047000Y-94669000D01*
X90967000Y-94629000D02*
X92960000Y-94629000D01*
X95040000Y-94629000D02*
X97033000Y-94629000D01*
X90982000Y-94589000D02*
X92960000Y-94589000D01*
X95040000Y-94589000D02*
X97018000Y-94589000D01*
X90998000Y-94549000D02*
X92960000Y-94549000D01*
X95040000Y-94549000D02*
X97002000Y-94549000D01*
X91014000Y-94509000D02*
X92960000Y-94509000D01*
X95040000Y-94509000D02*
X96986000Y-94509000D01*
X91030000Y-94469000D02*
X92960000Y-94469000D01*
X95040000Y-94469000D02*
X96970000Y-94469000D01*
X91048000Y-94429000D02*
X92960000Y-94429000D01*
X95040000Y-94429000D02*
X96952000Y-94429000D01*
X91066000Y-94389000D02*
X92960000Y-94389000D01*
X95040000Y-94389000D02*
X96934000Y-94389000D01*
X91084000Y-94349000D02*
X92960000Y-94349000D01*
X95040000Y-94349000D02*
X96916000Y-94349000D01*
X91104000Y-94309000D02*
X92960000Y-94309000D01*
X95040000Y-94309000D02*
X96896000Y-94309000D01*
X91124000Y-94269000D02*
X92960000Y-94269000D01*
X95040000Y-94269000D02*
X96876000Y-94269000D01*
X91144000Y-94229000D02*
X92960000Y-94229000D01*
X95040000Y-94229000D02*
X96856000Y-94229000D01*
X91166000Y-94189000D02*
X92960000Y-94189000D01*
X95040000Y-94189000D02*
X96834000Y-94189000D01*
X91188000Y-94149000D02*
X92960000Y-94149000D01*
X95040000Y-94149000D02*
X96812000Y-94149000D01*
X91210000Y-94109000D02*
X92960000Y-94109000D01*
X95040000Y-94109000D02*
X96790000Y-94109000D01*
X91234000Y-94069000D02*
X92960000Y-94069000D01*
X95040000Y-94069000D02*
X96766000Y-94069000D01*
X91258000Y-94029000D02*
X92960000Y-94029000D01*
X95040000Y-94029000D02*
X96742000Y-94029000D01*
X91284000Y-93989000D02*
X92960000Y-93989000D01*
X95040000Y-93989000D02*
X96716000Y-93989000D01*
X91310000Y-93949000D02*
X92960000Y-93949000D01*
X95040000Y-93949000D02*
X96690000Y-93949000D01*
X91336000Y-93909000D02*
X92960000Y-93909000D01*
X95040000Y-93909000D02*
X96664000Y-93909000D01*
X91364000Y-93869000D02*
X92960000Y-93869000D01*
X95040000Y-93869000D02*
X96636000Y-93869000D01*
X91393000Y-93829000D02*
X92960000Y-93829000D01*
X95040000Y-93829000D02*
X96607000Y-93829000D01*
X91422000Y-93789000D02*
X92960000Y-93789000D01*
X95040000Y-93789000D02*
X96578000Y-93789000D01*
X91452000Y-93749000D02*
X92960000Y-93749000D01*
X95040000Y-93749000D02*
X96548000Y-93749000D01*
X91484000Y-93709000D02*
X92960000Y-93709000D01*
X95040000Y-93709000D02*
X96516000Y-93709000D01*
X91516000Y-93669000D02*
X92960000Y-93669000D01*
X95040000Y-93669000D02*
X96484000Y-93669000D01*
X91550000Y-93629000D02*
X92960000Y-93629000D01*
X95040000Y-93629000D02*
X96450000Y-93629000D01*
X91584000Y-93589000D02*
X92960000Y-93589000D01*
X95040000Y-93589000D02*
X96416000Y-93589000D01*
X91620000Y-93549000D02*
X92960000Y-93549000D01*
X95040000Y-93549000D02*
X96380000Y-93549000D01*
X91657000Y-93509000D02*
X92960000Y-93509000D01*
X95040000Y-93509000D02*
X96343000Y-93509000D01*
X91695000Y-93469000D02*
X92960000Y-93469000D01*
X95040000Y-93469000D02*
X96305000Y-93469000D01*
X91735000Y-93429000D02*
X96265000Y-93429000D01*
X91776000Y-93389000D02*
X96224000Y-93389000D01*
X91818000Y-93349000D02*
X96182000Y-93349000D01*
X91863000Y-93309000D02*
X96137000Y-93309000D01*
X91908000Y-93269000D02*
X96092000Y-93269000D01*
X91956000Y-93229000D02*
X96044000Y-93229000D01*
X92005000Y-93189000D02*
X95995000Y-93189000D01*
X92056000Y-93149000D02*
X95944000Y-93149000D01*
X92110000Y-93109000D02*
X95890000Y-93109000D01*
X92166000Y-93069000D02*
X95834000Y-93069000D01*
X92224000Y-93029000D02*
X95776000Y-93029000D01*
X92286000Y-92989000D02*
X95714000Y-92989000D01*
X92350000Y-92949000D02*
X95650000Y-92949000D01*
X92419000Y-92909000D02*
X95581000Y-92909000D01*
X92491000Y-92869000D02*
X95509000Y-92869000D01*
X92568000Y-92829000D02*
X95432000Y-92829000D01*
X92650000Y-92789000D02*
X95350000Y-92789000D01*
X92738000Y-92749000D02*
X95262000Y-92749000D01*
X92835000Y-92709000D02*
X95165000Y-92709000D01*
X92941000Y-92669000D02*
X95059000Y-92669000D01*
X93060000Y-92629000D02*
X94940000Y-92629000D01*
X93198000Y-92589000D02*
X94802000Y-92589000D01*
X93367000Y-92549000D02*
X94633000Y-92549000D01*
X93598000Y-92509000D02*
X94402000Y-92509000D01*
X92161000Y-99250241D02*
X92161000Y-98620241D01*
X91846000Y-98935241D02*
X92476000Y-98935241D01*
X102154000Y-85064759D02*
X101524000Y-85064759D01*
X101839000Y-84749759D02*
X101839000Y-85379759D01*
X100402000Y-91491000D02*
X99598000Y-91491000D01*
X100633000Y-91451000D02*
X99367000Y-91451000D01*
X100802000Y-91411000D02*
X99198000Y-91411000D01*
X100940000Y-91371000D02*
X99060000Y-91371000D01*
X101059000Y-91331000D02*
X98941000Y-91331000D01*
X101165000Y-91291000D02*
X98835000Y-91291000D01*
X101262000Y-91251000D02*
X98738000Y-91251000D01*
X101350000Y-91211000D02*
X98650000Y-91211000D01*
X101432000Y-91171000D02*
X98568000Y-91171000D01*
X101509000Y-91131000D02*
X98491000Y-91131000D01*
X101581000Y-91091000D02*
X98419000Y-91091000D01*
X101650000Y-91051000D02*
X98350000Y-91051000D01*
X101714000Y-91011000D02*
X98286000Y-91011000D01*
X101776000Y-90971000D02*
X98224000Y-90971000D01*
X101834000Y-90931000D02*
X98166000Y-90931000D01*
X101890000Y-90891000D02*
X98110000Y-90891000D01*
X101944000Y-90851000D02*
X98056000Y-90851000D01*
X101995000Y-90811000D02*
X98005000Y-90811000D01*
X102044000Y-90771000D02*
X97956000Y-90771000D01*
X102092000Y-90731000D02*
X97908000Y-90731000D01*
X102137000Y-90691000D02*
X97863000Y-90691000D01*
X102182000Y-90651000D02*
X97818000Y-90651000D01*
X102224000Y-90611000D02*
X97776000Y-90611000D01*
X102265000Y-90571000D02*
X97735000Y-90571000D01*
X98960000Y-90531000D02*
X97695000Y-90531000D01*
X102305000Y-90531000D02*
X101040000Y-90531000D01*
X98960000Y-90491000D02*
X97657000Y-90491000D01*
X102343000Y-90491000D02*
X101040000Y-90491000D01*
X98960000Y-90451000D02*
X97620000Y-90451000D01*
X102380000Y-90451000D02*
X101040000Y-90451000D01*
X98960000Y-90411000D02*
X97584000Y-90411000D01*
X102416000Y-90411000D02*
X101040000Y-90411000D01*
X98960000Y-90371000D02*
X97550000Y-90371000D01*
X102450000Y-90371000D02*
X101040000Y-90371000D01*
X98960000Y-90331000D02*
X97516000Y-90331000D01*
X102484000Y-90331000D02*
X101040000Y-90331000D01*
X98960000Y-90291000D02*
X97484000Y-90291000D01*
X102516000Y-90291000D02*
X101040000Y-90291000D01*
X98960000Y-90251000D02*
X97452000Y-90251000D01*
X102548000Y-90251000D02*
X101040000Y-90251000D01*
X98960000Y-90211000D02*
X97422000Y-90211000D01*
X102578000Y-90211000D02*
X101040000Y-90211000D01*
X98960000Y-90171000D02*
X97393000Y-90171000D01*
X102607000Y-90171000D02*
X101040000Y-90171000D01*
X98960000Y-90131000D02*
X97364000Y-90131000D01*
X102636000Y-90131000D02*
X101040000Y-90131000D01*
X98960000Y-90091000D02*
X97336000Y-90091000D01*
X102664000Y-90091000D02*
X101040000Y-90091000D01*
X98960000Y-90051000D02*
X97310000Y-90051000D01*
X102690000Y-90051000D02*
X101040000Y-90051000D01*
X98960000Y-90011000D02*
X97284000Y-90011000D01*
X102716000Y-90011000D02*
X101040000Y-90011000D01*
X98960000Y-89971000D02*
X97258000Y-89971000D01*
X102742000Y-89971000D02*
X101040000Y-89971000D01*
X98960000Y-89931000D02*
X97234000Y-89931000D01*
X102766000Y-89931000D02*
X101040000Y-89931000D01*
X98960000Y-89891000D02*
X97210000Y-89891000D01*
X102790000Y-89891000D02*
X101040000Y-89891000D01*
X98960000Y-89851000D02*
X97188000Y-89851000D01*
X102812000Y-89851000D02*
X101040000Y-89851000D01*
X98960000Y-89811000D02*
X97166000Y-89811000D01*
X102834000Y-89811000D02*
X101040000Y-89811000D01*
X98960000Y-89771000D02*
X97144000Y-89771000D01*
X102856000Y-89771000D02*
X101040000Y-89771000D01*
X98960000Y-89731000D02*
X97124000Y-89731000D01*
X102876000Y-89731000D02*
X101040000Y-89731000D01*
X98960000Y-89691000D02*
X97104000Y-89691000D01*
X102896000Y-89691000D02*
X101040000Y-89691000D01*
X98960000Y-89651000D02*
X97084000Y-89651000D01*
X102916000Y-89651000D02*
X101040000Y-89651000D01*
X98960000Y-89611000D02*
X97066000Y-89611000D01*
X102934000Y-89611000D02*
X101040000Y-89611000D01*
X98960000Y-89571000D02*
X97048000Y-89571000D01*
X102952000Y-89571000D02*
X101040000Y-89571000D01*
X98960000Y-89531000D02*
X97030000Y-89531000D01*
X102970000Y-89531000D02*
X101040000Y-89531000D01*
X98960000Y-89491000D02*
X97014000Y-89491000D01*
X102986000Y-89491000D02*
X101040000Y-89491000D01*
X98960000Y-89451000D02*
X96998000Y-89451000D01*
X103002000Y-89451000D02*
X101040000Y-89451000D01*
X98960000Y-89411000D02*
X96982000Y-89411000D01*
X103018000Y-89411000D02*
X101040000Y-89411000D01*
X98960000Y-89371000D02*
X96967000Y-89371000D01*
X103033000Y-89371000D02*
X101040000Y-89371000D01*
X98960000Y-89331000D02*
X96953000Y-89331000D01*
X103047000Y-89331000D02*
X101040000Y-89331000D01*
X98960000Y-89291000D02*
X96939000Y-89291000D01*
X103061000Y-89291000D02*
X101040000Y-89291000D01*
X98960000Y-89251000D02*
X96926000Y-89251000D01*
X103074000Y-89251000D02*
X101040000Y-89251000D01*
X98960000Y-89211000D02*
X96914000Y-89211000D01*
X103086000Y-89211000D02*
X101040000Y-89211000D01*
X98960000Y-89171000D02*
X96902000Y-89171000D01*
X103098000Y-89171000D02*
X101040000Y-89171000D01*
X98960000Y-89131000D02*
X96890000Y-89131000D01*
X103110000Y-89131000D02*
X101040000Y-89131000D01*
X98960000Y-89091000D02*
X96879000Y-89091000D01*
X103121000Y-89091000D02*
X101040000Y-89091000D01*
X98960000Y-89051000D02*
X96869000Y-89051000D01*
X103131000Y-89051000D02*
X101040000Y-89051000D01*
X98960000Y-89011000D02*
X96859000Y-89011000D01*
X103141000Y-89011000D02*
X101040000Y-89011000D01*
X98960000Y-88971000D02*
X96850000Y-88971000D01*
X103150000Y-88971000D02*
X101040000Y-88971000D01*
X98960000Y-88930000D02*
X96841000Y-88930000D01*
X103159000Y-88930000D02*
X101040000Y-88930000D01*
X98960000Y-88890000D02*
X96833000Y-88890000D01*
X103167000Y-88890000D02*
X101040000Y-88890000D01*
X98960000Y-88850000D02*
X96825000Y-88850000D01*
X103175000Y-88850000D02*
X101040000Y-88850000D01*
X98960000Y-88810000D02*
X96818000Y-88810000D01*
X103182000Y-88810000D02*
X101040000Y-88810000D01*
X98960000Y-88770000D02*
X96811000Y-88770000D01*
X103189000Y-88770000D02*
X101040000Y-88770000D01*
X98960000Y-88730000D02*
X96805000Y-88730000D01*
X103195000Y-88730000D02*
X101040000Y-88730000D01*
X98960000Y-88690000D02*
X96799000Y-88690000D01*
X103201000Y-88690000D02*
X101040000Y-88690000D01*
X98960000Y-88650000D02*
X96794000Y-88650000D01*
X103206000Y-88650000D02*
X101040000Y-88650000D01*
X98960000Y-88610000D02*
X96789000Y-88610000D01*
X103211000Y-88610000D02*
X101040000Y-88610000D01*
X98960000Y-88570000D02*
X96785000Y-88570000D01*
X103215000Y-88570000D02*
X101040000Y-88570000D01*
X98960000Y-88530000D02*
X96782000Y-88530000D01*
X103218000Y-88530000D02*
X101040000Y-88530000D01*
X98960000Y-88490000D02*
X96778000Y-88490000D01*
X103222000Y-88490000D02*
X101040000Y-88490000D01*
X103224000Y-88450000D02*
X96776000Y-88450000D01*
X103227000Y-88410000D02*
X96773000Y-88410000D01*
X103228000Y-88370000D02*
X96772000Y-88370000D01*
X103230000Y-88330000D02*
X96770000Y-88330000D01*
X103230000Y-88290000D02*
X96770000Y-88290000D01*
X103230000Y-88250000D02*
X96770000Y-88250000D01*
X103270000Y-88250000D02*
G75*
G03X103270000Y-88250000I-3270000J0D01*
G01*
X114260000Y-98285000D02*
X114260000Y-92715000D01*
X114260000Y-92715000D02*
X104500000Y-92715000D01*
X104500000Y-92715000D02*
X104500000Y-98285000D01*
X104500000Y-98285000D02*
X114260000Y-98285000D01*
X115560000Y-95500000D02*
X114260000Y-95500000D01*
X103200000Y-95500000D02*
X104500000Y-95500000D01*
X112712000Y-98285000D02*
X112712000Y-92715000D01*
X112592000Y-98285000D02*
X112592000Y-92715000D01*
X112832000Y-98285000D02*
X112832000Y-92715000D01*
X135800000Y-75150000D02*
X135800000Y-85850000D01*
X134900000Y-85850000D02*
X124700000Y-85850000D01*
X134900000Y-75150000D02*
X134900000Y-85850000D01*
X124700000Y-75150000D02*
X134900000Y-75150000D01*
X124700000Y-85850000D02*
X124700000Y-75150000D01*
X134000000Y-98500000D02*
X122000000Y-98500000D01*
X134000000Y-86500000D02*
X122000000Y-86500000D01*
X123600000Y-75500000D02*
X123600000Y-81500000D01*
X117400000Y-81500000D02*
X117400000Y-75500000D01*
X85670000Y-99330000D02*
X88330000Y-99330000D01*
X85670000Y-99270000D02*
X85670000Y-99330000D01*
X88330000Y-99270000D02*
X88330000Y-99330000D01*
X85670000Y-99270000D02*
X88330000Y-99270000D01*
X85670000Y-98000000D02*
X85670000Y-96670000D01*
X85670000Y-96670000D02*
X87000000Y-96670000D01*
D11*
X119786495Y-85915380D02*
X119786495Y-84915380D01*
X119786495Y-85391571D02*
X120357923Y-85391571D01*
X120357923Y-85915380D02*
X120357923Y-84915380D01*
X120786495Y-85010619D02*
X120834114Y-84963000D01*
X120929352Y-84915380D01*
X121167447Y-84915380D01*
X121262685Y-84963000D01*
X121310304Y-85010619D01*
X121357923Y-85105857D01*
X121357923Y-85201095D01*
X121310304Y-85343952D01*
X120738876Y-85915380D01*
X121357923Y-85915380D01*
X91770295Y-89903180D02*
X91770295Y-88903180D01*
X91770295Y-89379371D02*
X92341723Y-89379371D01*
X92341723Y-89903180D02*
X92341723Y-88903180D01*
X93341723Y-89903180D02*
X92770295Y-89903180D01*
X93056009Y-89903180D02*
X93056009Y-88903180D01*
X92960771Y-89046038D01*
X92865533Y-89141276D01*
X92770295Y-89188895D01*
X86666666Y-85622380D02*
X86666666Y-86336666D01*
X86619047Y-86479523D01*
X86523809Y-86574761D01*
X86380952Y-86622380D01*
X86285714Y-86622380D01*
X87666666Y-86622380D02*
X87095238Y-86622380D01*
X87380952Y-86622380D02*
X87380952Y-85622380D01*
X87285714Y-85765238D01*
X87190476Y-85860476D01*
X87095238Y-85908095D01*
X89677380Y-81208333D02*
X90391666Y-81208333D01*
X90534523Y-81255952D01*
X90629761Y-81351190D01*
X90677380Y-81494047D01*
X90677380Y-81589285D01*
X89677380Y-80827380D02*
X89677380Y-80208333D01*
X90058333Y-80541666D01*
X90058333Y-80398809D01*
X90105952Y-80303571D01*
X90153571Y-80255952D01*
X90248809Y-80208333D01*
X90486904Y-80208333D01*
X90582142Y-80255952D01*
X90629761Y-80303571D01*
X90677380Y-80398809D01*
X90677380Y-80684523D01*
X90629761Y-80779761D01*
X90582142Y-80827380D01*
X85842380Y-82476190D02*
X86842380Y-82142857D01*
X85842380Y-81809523D01*
X86842380Y-81333333D02*
X86794761Y-81428571D01*
X86747142Y-81476190D01*
X86651904Y-81523809D01*
X86366190Y-81523809D01*
X86270952Y-81476190D01*
X86223333Y-81428571D01*
X86175714Y-81333333D01*
X86175714Y-81190476D01*
X86223333Y-81095238D01*
X86270952Y-81047619D01*
X86366190Y-81000000D01*
X86651904Y-81000000D01*
X86747142Y-81047619D01*
X86794761Y-81095238D01*
X86842380Y-81190476D01*
X86842380Y-81333333D01*
X86842380Y-80571428D02*
X86175714Y-80571428D01*
X86366190Y-80571428D02*
X86270952Y-80523809D01*
X86223333Y-80476190D01*
X86175714Y-80380952D01*
X86175714Y-80285714D01*
X86175714Y-79952380D02*
X86842380Y-79952380D01*
X86270952Y-79952380D02*
X86223333Y-79904761D01*
X86175714Y-79809523D01*
X86175714Y-79666666D01*
X86223333Y-79571428D01*
X86318571Y-79523809D01*
X86842380Y-79523809D01*
X86794761Y-78666666D02*
X86842380Y-78761904D01*
X86842380Y-78952380D01*
X86794761Y-79047619D01*
X86699523Y-79095238D01*
X86318571Y-79095238D01*
X86223333Y-79047619D01*
X86175714Y-78952380D01*
X86175714Y-78761904D01*
X86223333Y-78666666D01*
X86318571Y-78619047D01*
X86413809Y-78619047D01*
X86509047Y-79095238D01*
X115428780Y-90093704D02*
X116238304Y-90093704D01*
X116333542Y-90046085D01*
X116381161Y-89998466D01*
X116428780Y-89903228D01*
X116428780Y-89712752D01*
X116381161Y-89617514D01*
X116333542Y-89569895D01*
X116238304Y-89522276D01*
X115428780Y-89522276D01*
X116428780Y-88522276D02*
X116428780Y-89093704D01*
X116428780Y-88807990D02*
X115428780Y-88807990D01*
X115571638Y-88903228D01*
X115666876Y-88998466D01*
X115714495Y-89093704D01*
X96750142Y-76468266D02*
X96797761Y-76515885D01*
X96845380Y-76658742D01*
X96845380Y-76753980D01*
X96797761Y-76896838D01*
X96702523Y-76992076D01*
X96607285Y-77039695D01*
X96416809Y-77087314D01*
X96273952Y-77087314D01*
X96083476Y-77039695D01*
X95988238Y-76992076D01*
X95893000Y-76896838D01*
X95845380Y-76753980D01*
X95845380Y-76658742D01*
X95893000Y-76515885D01*
X95940619Y-76468266D01*
X96845380Y-75515885D02*
X96845380Y-76087314D01*
X96845380Y-75801600D02*
X95845380Y-75801600D01*
X95988238Y-75896838D01*
X96083476Y-75992076D01*
X96131095Y-76087314D01*
X98680542Y-94121266D02*
X98728161Y-94168885D01*
X98775780Y-94311742D01*
X98775780Y-94406980D01*
X98728161Y-94549838D01*
X98632923Y-94645076D01*
X98537685Y-94692695D01*
X98347209Y-94740314D01*
X98204352Y-94740314D01*
X98013876Y-94692695D01*
X97918638Y-94645076D01*
X97823400Y-94549838D01*
X97775780Y-94406980D01*
X97775780Y-94311742D01*
X97823400Y-94168885D01*
X97871019Y-94121266D01*
X97871019Y-93740314D02*
X97823400Y-93692695D01*
X97775780Y-93597457D01*
X97775780Y-93359361D01*
X97823400Y-93264123D01*
X97871019Y-93216504D01*
X97966257Y-93168885D01*
X98061495Y-93168885D01*
X98204352Y-93216504D01*
X98775780Y-93787933D01*
X98775780Y-93168885D01*
X97029542Y-84977266D02*
X97077161Y-85024885D01*
X97124780Y-85167742D01*
X97124780Y-85262980D01*
X97077161Y-85405838D01*
X96981923Y-85501076D01*
X96886685Y-85548695D01*
X96696209Y-85596314D01*
X96553352Y-85596314D01*
X96362876Y-85548695D01*
X96267638Y-85501076D01*
X96172400Y-85405838D01*
X96124780Y-85262980D01*
X96124780Y-85167742D01*
X96172400Y-85024885D01*
X96220019Y-84977266D01*
X96124780Y-84643933D02*
X96124780Y-84024885D01*
X96505733Y-84358219D01*
X96505733Y-84215361D01*
X96553352Y-84120123D01*
X96600971Y-84072504D01*
X96696209Y-84024885D01*
X96934304Y-84024885D01*
X97029542Y-84072504D01*
X97077161Y-84120123D01*
X97124780Y-84215361D01*
X97124780Y-84501076D01*
X97077161Y-84596314D01*
X97029542Y-84643933D01*
X102665304Y-97988380D02*
X102665304Y-96988380D01*
X102903400Y-96988380D01*
X103046257Y-97036000D01*
X103141495Y-97131238D01*
X103189114Y-97226476D01*
X103236733Y-97416952D01*
X103236733Y-97559809D01*
X103189114Y-97750285D01*
X103141495Y-97845523D01*
X103046257Y-97940761D01*
X102903400Y-97988380D01*
X102665304Y-97988380D01*
X104189114Y-97988380D02*
X103617685Y-97988380D01*
X103903400Y-97988380D02*
X103903400Y-96988380D01*
X103808161Y-97131238D01*
X103712923Y-97226476D01*
X103617685Y-97274095D01*
X116738095Y-98152380D02*
X116738095Y-97152380D01*
X117309523Y-98152380D02*
X116880952Y-97580952D01*
X117309523Y-97152380D02*
X116738095Y-97723809D01*
X123251980Y-83543733D02*
X123966266Y-83543733D01*
X124109123Y-83591352D01*
X124204361Y-83686590D01*
X124251980Y-83829447D01*
X124251980Y-83924685D01*
X123585314Y-82638971D02*
X124251980Y-82638971D01*
X123204361Y-82877066D02*
X123918647Y-83115161D01*
X123918647Y-82496114D01*
X133062380Y-82476190D02*
X134062380Y-82142857D01*
X133062380Y-81809523D01*
X134062380Y-81333333D02*
X134014761Y-81428571D01*
X133967142Y-81476190D01*
X133871904Y-81523809D01*
X133586190Y-81523809D01*
X133490952Y-81476190D01*
X133443333Y-81428571D01*
X133395714Y-81333333D01*
X133395714Y-81190476D01*
X133443333Y-81095238D01*
X133490952Y-81047619D01*
X133586190Y-81000000D01*
X133871904Y-81000000D01*
X133967142Y-81047619D01*
X134014761Y-81095238D01*
X134062380Y-81190476D01*
X134062380Y-81333333D01*
X134062380Y-80571428D02*
X133395714Y-80571428D01*
X133586190Y-80571428D02*
X133490952Y-80523809D01*
X133443333Y-80476190D01*
X133395714Y-80380952D01*
X133395714Y-80285714D01*
X133395714Y-79952380D02*
X134062380Y-79952380D01*
X133490952Y-79952380D02*
X133443333Y-79904761D01*
X133395714Y-79809523D01*
X133395714Y-79666666D01*
X133443333Y-79571428D01*
X133538571Y-79523809D01*
X134062380Y-79523809D01*
X134014761Y-78666666D02*
X134062380Y-78761904D01*
X134062380Y-78952380D01*
X134014761Y-79047619D01*
X133919523Y-79095238D01*
X133538571Y-79095238D01*
X133443333Y-79047619D01*
X133395714Y-78952380D01*
X133395714Y-78761904D01*
X133443333Y-78666666D01*
X133538571Y-78619047D01*
X133633809Y-78619047D01*
X133729047Y-79095238D01*
X120127733Y-88387180D02*
X119651542Y-88387180D01*
X119651542Y-87387180D01*
X120984876Y-88387180D02*
X120413447Y-88387180D01*
X120699161Y-88387180D02*
X120699161Y-87387180D01*
X120603923Y-87530038D01*
X120508685Y-87625276D01*
X120413447Y-87672895D01*
X117978180Y-83300866D02*
X117978180Y-83777057D01*
X116978180Y-83777057D01*
X117073419Y-83015152D02*
X117025800Y-82967533D01*
X116978180Y-82872295D01*
X116978180Y-82634200D01*
X117025800Y-82538961D01*
X117073419Y-82491342D01*
X117168657Y-82443723D01*
X117263895Y-82443723D01*
X117406752Y-82491342D01*
X117978180Y-83062771D01*
X117978180Y-82443723D01*
X89506466Y-97470980D02*
X89506466Y-98185266D01*
X89458847Y-98328123D01*
X89363609Y-98423361D01*
X89220752Y-98470980D01*
X89125514Y-98470980D01*
X89935038Y-97566219D02*
X89982657Y-97518600D01*
X90077895Y-97470980D01*
X90315990Y-97470980D01*
X90411228Y-97518600D01*
X90458847Y-97566219D01*
X90506466Y-97661457D01*
X90506466Y-97756695D01*
X90458847Y-97899552D01*
X89887419Y-98470980D01*
X90506466Y-98470980D01*
M02*
