G04 #@! TF.GenerationSoftware,KiCad,Pcbnew,(5.1.5)-3*
G04 #@! TF.CreationDate,2020-10-26T22:42:23+01:00*
G04 #@! TF.ProjectId,Fernschreiber,4665726e-7363-4687-9265-696265722e6b,v02*
G04 #@! TF.SameCoordinates,Original*
G04 #@! TF.FileFunction,Soldermask,Bot*
G04 #@! TF.FilePolarity,Negative*
%FSLAX46Y46*%
G04 Gerber Fmt 4.6, Leading zero omitted, Abs format (unit mm)*
G04 Created by KiCad (PCBNEW (5.1.5)-3) date 2020-10-26 22:42:23*
%MOMM*%
%LPD*%
G04 APERTURE LIST*
%ADD10C,0.100000*%
G04 APERTURE END LIST*
D10*
G36*
X142091865Y-132954855D02*
G01*
X142692608Y-133203691D01*
X142692610Y-133203692D01*
X143233265Y-133564946D01*
X143693054Y-134024735D01*
X144054308Y-134565390D01*
X144054309Y-134565392D01*
X144303145Y-135166135D01*
X144430000Y-135803879D01*
X144430000Y-136454121D01*
X144303145Y-137091865D01*
X144119393Y-137535481D01*
X144054308Y-137692610D01*
X143693054Y-138233265D01*
X143233265Y-138693054D01*
X142692610Y-139054308D01*
X142692609Y-139054309D01*
X142692608Y-139054309D01*
X142091865Y-139303145D01*
X141454121Y-139430000D01*
X140803879Y-139430000D01*
X140166135Y-139303145D01*
X139565392Y-139054309D01*
X139565391Y-139054309D01*
X139565390Y-139054308D01*
X139024735Y-138693054D01*
X138564946Y-138233265D01*
X138203692Y-137692610D01*
X138138607Y-137535481D01*
X137954855Y-137091865D01*
X137828000Y-136454121D01*
X137828000Y-135803879D01*
X137954855Y-135166135D01*
X138203691Y-134565392D01*
X138203692Y-134565390D01*
X138564946Y-134024735D01*
X139024735Y-133564946D01*
X139565390Y-133203692D01*
X139565392Y-133203691D01*
X140166135Y-132954855D01*
X140803879Y-132828000D01*
X141454121Y-132828000D01*
X142091865Y-132954855D01*
G37*
G36*
X67091865Y-132954855D02*
G01*
X67692608Y-133203691D01*
X67692610Y-133203692D01*
X68233265Y-133564946D01*
X68693054Y-134024735D01*
X69054308Y-134565390D01*
X69054309Y-134565392D01*
X69303145Y-135166135D01*
X69430000Y-135803879D01*
X69430000Y-136454121D01*
X69303145Y-137091865D01*
X69119393Y-137535481D01*
X69054308Y-137692610D01*
X68693054Y-138233265D01*
X68233265Y-138693054D01*
X67692610Y-139054308D01*
X67692609Y-139054309D01*
X67692608Y-139054309D01*
X67091865Y-139303145D01*
X66454121Y-139430000D01*
X65803879Y-139430000D01*
X65166135Y-139303145D01*
X64565392Y-139054309D01*
X64565391Y-139054309D01*
X64565390Y-139054308D01*
X64024735Y-138693054D01*
X63564946Y-138233265D01*
X63203692Y-137692610D01*
X63138607Y-137535481D01*
X62954855Y-137091865D01*
X62828000Y-136454121D01*
X62828000Y-135803879D01*
X62954855Y-135166135D01*
X63203691Y-134565392D01*
X63203692Y-134565390D01*
X63564946Y-134024735D01*
X64024735Y-133564946D01*
X64565390Y-133203692D01*
X64565392Y-133203691D01*
X65166135Y-132954855D01*
X65803879Y-132828000D01*
X66454121Y-132828000D01*
X67091865Y-132954855D01*
G37*
G36*
X80385228Y-136174703D02*
G01*
X80540100Y-136238853D01*
X80679481Y-136331985D01*
X80798015Y-136450519D01*
X80891147Y-136589900D01*
X80955297Y-136744772D01*
X80988000Y-136909184D01*
X80988000Y-137076816D01*
X80955297Y-137241228D01*
X80891147Y-137396100D01*
X80798015Y-137535481D01*
X80679481Y-137654015D01*
X80540100Y-137747147D01*
X80385228Y-137811297D01*
X80220816Y-137844000D01*
X80053184Y-137844000D01*
X79888772Y-137811297D01*
X79733900Y-137747147D01*
X79594519Y-137654015D01*
X79475985Y-137535481D01*
X79382853Y-137396100D01*
X79318703Y-137241228D01*
X79286000Y-137076816D01*
X79286000Y-136909184D01*
X79318703Y-136744772D01*
X79382853Y-136589900D01*
X79475985Y-136450519D01*
X79594519Y-136331985D01*
X79733900Y-136238853D01*
X79888772Y-136174703D01*
X80053184Y-136142000D01*
X80220816Y-136142000D01*
X80385228Y-136174703D01*
G37*
G36*
X95304487Y-134765996D02*
G01*
X95541253Y-134864068D01*
X95541255Y-134864069D01*
X95754339Y-135006447D01*
X95935553Y-135187661D01*
X96077932Y-135400747D01*
X96176004Y-135637513D01*
X96226000Y-135888861D01*
X96226000Y-136145139D01*
X96176004Y-136396487D01*
X96152131Y-136454121D01*
X96077931Y-136633255D01*
X95935553Y-136846339D01*
X95754339Y-137027553D01*
X95541255Y-137169931D01*
X95541254Y-137169932D01*
X95541253Y-137169932D01*
X95304487Y-137268004D01*
X95053139Y-137318000D01*
X94796861Y-137318000D01*
X94545513Y-137268004D01*
X94308747Y-137169932D01*
X94308746Y-137169932D01*
X94308745Y-137169931D01*
X94095661Y-137027553D01*
X93914447Y-136846339D01*
X93772069Y-136633255D01*
X93697869Y-136454121D01*
X93673996Y-136396487D01*
X93624000Y-136145139D01*
X93624000Y-135888861D01*
X93673996Y-135637513D01*
X93772068Y-135400747D01*
X93914447Y-135187661D01*
X94095661Y-135006447D01*
X94308745Y-134864069D01*
X94308747Y-134864068D01*
X94545513Y-134765996D01*
X94796861Y-134716000D01*
X95053139Y-134716000D01*
X95304487Y-134765996D01*
G37*
G36*
X90304487Y-134765996D02*
G01*
X90541253Y-134864068D01*
X90541255Y-134864069D01*
X90754339Y-135006447D01*
X90935553Y-135187661D01*
X91077932Y-135400747D01*
X91176004Y-135637513D01*
X91226000Y-135888861D01*
X91226000Y-136145139D01*
X91176004Y-136396487D01*
X91152131Y-136454121D01*
X91077931Y-136633255D01*
X90935553Y-136846339D01*
X90754339Y-137027553D01*
X90541255Y-137169931D01*
X90541254Y-137169932D01*
X90541253Y-137169932D01*
X90304487Y-137268004D01*
X90053139Y-137318000D01*
X89796861Y-137318000D01*
X89545513Y-137268004D01*
X89308747Y-137169932D01*
X89308746Y-137169932D01*
X89308745Y-137169931D01*
X89095661Y-137027553D01*
X88914447Y-136846339D01*
X88772069Y-136633255D01*
X88697869Y-136454121D01*
X88673996Y-136396487D01*
X88624000Y-136145139D01*
X88624000Y-135888861D01*
X88673996Y-135637513D01*
X88772068Y-135400747D01*
X88914447Y-135187661D01*
X89095661Y-135006447D01*
X89308745Y-134864069D01*
X89308747Y-134864068D01*
X89545513Y-134765996D01*
X89796861Y-134716000D01*
X90053139Y-134716000D01*
X90304487Y-134765996D01*
G37*
G36*
X119180487Y-134765996D02*
G01*
X119417253Y-134864068D01*
X119417255Y-134864069D01*
X119630339Y-135006447D01*
X119811553Y-135187661D01*
X119953932Y-135400747D01*
X120052004Y-135637513D01*
X120102000Y-135888861D01*
X120102000Y-136145139D01*
X120052004Y-136396487D01*
X120028131Y-136454121D01*
X119953931Y-136633255D01*
X119811553Y-136846339D01*
X119630339Y-137027553D01*
X119417255Y-137169931D01*
X119417254Y-137169932D01*
X119417253Y-137169932D01*
X119180487Y-137268004D01*
X118929139Y-137318000D01*
X118672861Y-137318000D01*
X118421513Y-137268004D01*
X118184747Y-137169932D01*
X118184746Y-137169932D01*
X118184745Y-137169931D01*
X117971661Y-137027553D01*
X117790447Y-136846339D01*
X117648069Y-136633255D01*
X117573869Y-136454121D01*
X117549996Y-136396487D01*
X117500000Y-136145139D01*
X117500000Y-135888861D01*
X117549996Y-135637513D01*
X117648068Y-135400747D01*
X117790447Y-135187661D01*
X117971661Y-135006447D01*
X118184745Y-134864069D01*
X118184747Y-134864068D01*
X118421513Y-134765996D01*
X118672861Y-134716000D01*
X118929139Y-134716000D01*
X119180487Y-134765996D01*
G37*
G36*
X114180487Y-134765996D02*
G01*
X114417253Y-134864068D01*
X114417255Y-134864069D01*
X114630339Y-135006447D01*
X114811553Y-135187661D01*
X114953932Y-135400747D01*
X115052004Y-135637513D01*
X115102000Y-135888861D01*
X115102000Y-136145139D01*
X115052004Y-136396487D01*
X115028131Y-136454121D01*
X114953931Y-136633255D01*
X114811553Y-136846339D01*
X114630339Y-137027553D01*
X114417255Y-137169931D01*
X114417254Y-137169932D01*
X114417253Y-137169932D01*
X114180487Y-137268004D01*
X113929139Y-137318000D01*
X113672861Y-137318000D01*
X113421513Y-137268004D01*
X113184747Y-137169932D01*
X113184746Y-137169932D01*
X113184745Y-137169931D01*
X112971661Y-137027553D01*
X112790447Y-136846339D01*
X112648069Y-136633255D01*
X112573869Y-136454121D01*
X112549996Y-136396487D01*
X112500000Y-136145139D01*
X112500000Y-135888861D01*
X112549996Y-135637513D01*
X112648068Y-135400747D01*
X112790447Y-135187661D01*
X112971661Y-135006447D01*
X113184745Y-134864069D01*
X113184747Y-134864068D01*
X113421513Y-134765996D01*
X113672861Y-134716000D01*
X113929139Y-134716000D01*
X114180487Y-134765996D01*
G37*
G36*
X80988000Y-135344000D02*
G01*
X79286000Y-135344000D01*
X79286000Y-133642000D01*
X80988000Y-133642000D01*
X80988000Y-135344000D01*
G37*
G36*
X56681031Y-127115207D02*
G01*
X56879145Y-127175305D01*
X56879148Y-127175306D01*
X56945030Y-127210521D01*
X57061729Y-127272897D01*
X57221765Y-127404235D01*
X57353103Y-127564271D01*
X57353104Y-127564273D01*
X57450694Y-127746851D01*
X57450694Y-127746852D01*
X57450695Y-127746854D01*
X57510793Y-127944968D01*
X57510793Y-127944970D01*
X57524753Y-128086703D01*
X57526000Y-128099370D01*
X57526000Y-129202630D01*
X57510793Y-129357032D01*
X57483355Y-129447481D01*
X57450694Y-129555149D01*
X57398939Y-129651975D01*
X57353103Y-129737729D01*
X57221765Y-129897765D01*
X57061729Y-130029103D01*
X56975975Y-130074939D01*
X56879149Y-130126694D01*
X56879146Y-130126695D01*
X56681032Y-130186793D01*
X56475000Y-130207085D01*
X56268969Y-130186793D01*
X56070855Y-130126695D01*
X56070852Y-130126694D01*
X55974026Y-130074939D01*
X55888272Y-130029103D01*
X55728236Y-129897765D01*
X55596898Y-129737729D01*
X55574184Y-129695234D01*
X55499305Y-129555147D01*
X55439207Y-129357030D01*
X55424000Y-129202631D01*
X55424000Y-128099370D01*
X55439207Y-127944971D01*
X55439207Y-127944969D01*
X55499305Y-127746855D01*
X55499306Y-127746852D01*
X55534521Y-127680970D01*
X55596897Y-127564271D01*
X55728235Y-127404235D01*
X55888271Y-127272897D01*
X55974025Y-127227061D01*
X56070851Y-127175306D01*
X56070854Y-127175305D01*
X56268968Y-127115207D01*
X56475000Y-127094915D01*
X56681031Y-127115207D01*
G37*
G36*
X54181031Y-127115207D02*
G01*
X54379145Y-127175305D01*
X54379148Y-127175306D01*
X54445030Y-127210521D01*
X54561729Y-127272897D01*
X54721765Y-127404235D01*
X54853103Y-127564271D01*
X54853104Y-127564273D01*
X54950694Y-127746851D01*
X54950694Y-127746852D01*
X54950695Y-127746854D01*
X55010793Y-127944968D01*
X55010793Y-127944970D01*
X55024753Y-128086703D01*
X55026000Y-128099370D01*
X55026000Y-129202630D01*
X55010793Y-129357032D01*
X54983355Y-129447481D01*
X54950694Y-129555149D01*
X54898939Y-129651975D01*
X54853103Y-129737729D01*
X54721765Y-129897765D01*
X54561729Y-130029103D01*
X54475975Y-130074939D01*
X54379149Y-130126694D01*
X54379146Y-130126695D01*
X54181032Y-130186793D01*
X53975000Y-130207085D01*
X53768969Y-130186793D01*
X53570855Y-130126695D01*
X53570852Y-130126694D01*
X53474026Y-130074939D01*
X53388272Y-130029103D01*
X53228236Y-129897765D01*
X53096898Y-129737729D01*
X53074184Y-129695234D01*
X52999305Y-129555147D01*
X52939207Y-129357030D01*
X52924000Y-129202631D01*
X52924000Y-128099370D01*
X52939207Y-127944971D01*
X52939207Y-127944969D01*
X52999305Y-127746855D01*
X52999306Y-127746852D01*
X53034521Y-127680970D01*
X53096897Y-127564271D01*
X53228235Y-127404235D01*
X53388271Y-127272897D01*
X53474025Y-127227061D01*
X53570851Y-127175306D01*
X53570854Y-127175305D01*
X53768968Y-127115207D01*
X53975000Y-127094915D01*
X54181031Y-127115207D01*
G37*
G36*
X51681031Y-127115207D02*
G01*
X51879145Y-127175305D01*
X51879148Y-127175306D01*
X51945030Y-127210521D01*
X52061729Y-127272897D01*
X52221765Y-127404235D01*
X52353103Y-127564271D01*
X52353104Y-127564273D01*
X52450694Y-127746851D01*
X52450694Y-127746852D01*
X52450695Y-127746854D01*
X52510793Y-127944968D01*
X52510793Y-127944970D01*
X52524753Y-128086703D01*
X52526000Y-128099370D01*
X52526000Y-129202630D01*
X52510793Y-129357032D01*
X52483355Y-129447481D01*
X52450694Y-129555149D01*
X52398939Y-129651975D01*
X52353103Y-129737729D01*
X52221765Y-129897765D01*
X52061729Y-130029103D01*
X51975975Y-130074939D01*
X51879149Y-130126694D01*
X51879146Y-130126695D01*
X51681032Y-130186793D01*
X51475000Y-130207085D01*
X51268969Y-130186793D01*
X51070855Y-130126695D01*
X51070852Y-130126694D01*
X50974026Y-130074939D01*
X50888272Y-130029103D01*
X50728236Y-129897765D01*
X50596898Y-129737729D01*
X50574184Y-129695234D01*
X50499305Y-129555147D01*
X50439207Y-129357030D01*
X50424000Y-129202631D01*
X50424000Y-128099370D01*
X50439207Y-127944971D01*
X50439207Y-127944969D01*
X50499305Y-127746855D01*
X50499306Y-127746852D01*
X50534521Y-127680970D01*
X50596897Y-127564271D01*
X50728235Y-127404235D01*
X50888271Y-127272897D01*
X50974025Y-127227061D01*
X51070851Y-127175306D01*
X51070854Y-127175305D01*
X51268968Y-127115207D01*
X51475000Y-127094915D01*
X51681031Y-127115207D01*
G37*
G36*
X73527228Y-128086703D02*
G01*
X73682100Y-128150853D01*
X73821481Y-128243985D01*
X73940015Y-128362519D01*
X74033147Y-128501900D01*
X74097297Y-128656772D01*
X74130000Y-128821184D01*
X74130000Y-128988816D01*
X74097297Y-129153228D01*
X74033147Y-129308100D01*
X73940015Y-129447481D01*
X73821481Y-129566015D01*
X73682100Y-129659147D01*
X73527228Y-129723297D01*
X73362816Y-129756000D01*
X73195184Y-129756000D01*
X73030772Y-129723297D01*
X72875900Y-129659147D01*
X72736519Y-129566015D01*
X72617985Y-129447481D01*
X72524853Y-129308100D01*
X72460703Y-129153228D01*
X72428000Y-128988816D01*
X72428000Y-128821184D01*
X72460703Y-128656772D01*
X72524853Y-128501900D01*
X72617985Y-128362519D01*
X72736519Y-128243985D01*
X72875900Y-128150853D01*
X73030772Y-128086703D01*
X73195184Y-128054000D01*
X73362816Y-128054000D01*
X73527228Y-128086703D01*
G37*
G36*
X66510000Y-129756000D02*
G01*
X64808000Y-129756000D01*
X64808000Y-128054000D01*
X66510000Y-128054000D01*
X66510000Y-129756000D01*
G37*
G36*
X61734000Y-129552000D02*
G01*
X59932000Y-129552000D01*
X59932000Y-127750000D01*
X61734000Y-127750000D01*
X61734000Y-129552000D01*
G37*
G36*
X119355254Y-123366818D02*
G01*
X119728511Y-123521426D01*
X119728513Y-123521427D01*
X119788284Y-123561365D01*
X120064436Y-123745884D01*
X120350116Y-124031564D01*
X120574574Y-124367489D01*
X120729182Y-124740746D01*
X120808000Y-125136993D01*
X120808000Y-125541007D01*
X120729182Y-125937254D01*
X120620349Y-126200000D01*
X120574573Y-126310513D01*
X120350116Y-126646436D01*
X120064436Y-126932116D01*
X119728513Y-127156573D01*
X119728512Y-127156574D01*
X119728511Y-127156574D01*
X119355254Y-127311182D01*
X118959007Y-127390000D01*
X118554993Y-127390000D01*
X118158746Y-127311182D01*
X117785489Y-127156574D01*
X117785488Y-127156574D01*
X117785487Y-127156573D01*
X117449564Y-126932116D01*
X117163884Y-126646436D01*
X116939427Y-126310513D01*
X116893651Y-126200000D01*
X116784818Y-125937254D01*
X116706000Y-125541007D01*
X116706000Y-125136993D01*
X116784818Y-124740746D01*
X116939426Y-124367489D01*
X117163884Y-124031564D01*
X117449564Y-123745884D01*
X117725716Y-123561365D01*
X117785487Y-123521427D01*
X117785489Y-123521426D01*
X118158746Y-123366818D01*
X118554993Y-123288000D01*
X118959007Y-123288000D01*
X119355254Y-123366818D01*
G37*
G36*
X88113254Y-123366818D02*
G01*
X88486511Y-123521426D01*
X88486513Y-123521427D01*
X88546284Y-123561365D01*
X88822436Y-123745884D01*
X89108116Y-124031564D01*
X89332574Y-124367489D01*
X89487182Y-124740746D01*
X89566000Y-125136993D01*
X89566000Y-125541007D01*
X89487182Y-125937254D01*
X89378349Y-126200000D01*
X89332573Y-126310513D01*
X89108116Y-126646436D01*
X88822436Y-126932116D01*
X88486513Y-127156573D01*
X88486512Y-127156574D01*
X88486511Y-127156574D01*
X88113254Y-127311182D01*
X87717007Y-127390000D01*
X87312993Y-127390000D01*
X86916746Y-127311182D01*
X86543489Y-127156574D01*
X86543488Y-127156574D01*
X86543487Y-127156573D01*
X86207564Y-126932116D01*
X85921884Y-126646436D01*
X85697427Y-126310513D01*
X85651651Y-126200000D01*
X85542818Y-125937254D01*
X85464000Y-125541007D01*
X85464000Y-125136993D01*
X85542818Y-124740746D01*
X85697426Y-124367489D01*
X85921884Y-124031564D01*
X86207564Y-123745884D01*
X86483716Y-123561365D01*
X86543487Y-123521427D01*
X86543489Y-123521426D01*
X86916746Y-123366818D01*
X87312993Y-123288000D01*
X87717007Y-123288000D01*
X88113254Y-123366818D01*
G37*
G36*
X139136487Y-124087996D02*
G01*
X139373253Y-124186068D01*
X139373255Y-124186069D01*
X139586339Y-124328447D01*
X139767553Y-124509661D01*
X139909932Y-124722747D01*
X140008004Y-124959513D01*
X140058000Y-125210861D01*
X140058000Y-125467139D01*
X140008004Y-125718487D01*
X139917387Y-125937254D01*
X139909931Y-125955255D01*
X139767553Y-126168339D01*
X139586339Y-126349553D01*
X139373255Y-126491931D01*
X139373254Y-126491932D01*
X139373253Y-126491932D01*
X139136487Y-126590004D01*
X138885139Y-126640000D01*
X138628861Y-126640000D01*
X138377513Y-126590004D01*
X138140747Y-126491932D01*
X138140746Y-126491932D01*
X138140745Y-126491931D01*
X137927661Y-126349553D01*
X137746447Y-126168339D01*
X137604069Y-125955255D01*
X137596613Y-125937254D01*
X137505996Y-125718487D01*
X137456000Y-125467139D01*
X137456000Y-125210861D01*
X137505996Y-124959513D01*
X137604068Y-124722747D01*
X137746447Y-124509661D01*
X137927661Y-124328447D01*
X138140745Y-124186069D01*
X138140747Y-124186068D01*
X138377513Y-124087996D01*
X138628861Y-124038000D01*
X138885139Y-124038000D01*
X139136487Y-124087996D01*
G37*
G36*
X107894487Y-124087996D02*
G01*
X108131253Y-124186068D01*
X108131255Y-124186069D01*
X108344339Y-124328447D01*
X108525553Y-124509661D01*
X108667932Y-124722747D01*
X108766004Y-124959513D01*
X108816000Y-125210861D01*
X108816000Y-125467139D01*
X108766004Y-125718487D01*
X108675387Y-125937254D01*
X108667931Y-125955255D01*
X108525553Y-126168339D01*
X108344339Y-126349553D01*
X108131255Y-126491931D01*
X108131254Y-126491932D01*
X108131253Y-126491932D01*
X107894487Y-126590004D01*
X107643139Y-126640000D01*
X107386861Y-126640000D01*
X107135513Y-126590004D01*
X106898747Y-126491932D01*
X106898746Y-126491932D01*
X106898745Y-126491931D01*
X106685661Y-126349553D01*
X106504447Y-126168339D01*
X106362069Y-125955255D01*
X106354613Y-125937254D01*
X106263996Y-125718487D01*
X106214000Y-125467139D01*
X106214000Y-125210861D01*
X106263996Y-124959513D01*
X106362068Y-124722747D01*
X106504447Y-124509661D01*
X106685661Y-124328447D01*
X106898745Y-124186069D01*
X106898747Y-124186068D01*
X107135513Y-124087996D01*
X107386861Y-124038000D01*
X107643139Y-124038000D01*
X107894487Y-124087996D01*
G37*
G36*
X144488000Y-126200000D02*
G01*
X142786000Y-126200000D01*
X142786000Y-124498000D01*
X144488000Y-124498000D01*
X144488000Y-126200000D01*
G37*
G36*
X48772000Y-123796000D02*
G01*
X46670000Y-123796000D01*
X46670000Y-113694000D01*
X48772000Y-113694000D01*
X48772000Y-123796000D01*
G37*
G36*
X60772000Y-123796000D02*
G01*
X58670000Y-123796000D01*
X58670000Y-113694000D01*
X60772000Y-113694000D01*
X60772000Y-123796000D01*
G37*
G36*
X64012000Y-123796000D02*
G01*
X61910000Y-123796000D01*
X61910000Y-113694000D01*
X64012000Y-113694000D01*
X64012000Y-123796000D01*
G37*
G36*
X76012000Y-123796000D02*
G01*
X73910000Y-123796000D01*
X73910000Y-113694000D01*
X76012000Y-113694000D01*
X76012000Y-123796000D01*
G37*
G36*
X115855254Y-115766818D02*
G01*
X116228511Y-115921426D01*
X116228513Y-115921427D01*
X116564436Y-116145884D01*
X116850116Y-116431564D01*
X117074574Y-116767489D01*
X117229182Y-117140746D01*
X117308000Y-117536993D01*
X117308000Y-117941007D01*
X117229182Y-118337254D01*
X117128633Y-118580000D01*
X117074573Y-118710513D01*
X116850116Y-119046436D01*
X116564436Y-119332116D01*
X116228513Y-119556573D01*
X116228512Y-119556574D01*
X116228511Y-119556574D01*
X115855254Y-119711182D01*
X115459007Y-119790000D01*
X115054993Y-119790000D01*
X114658746Y-119711182D01*
X114285489Y-119556574D01*
X114285488Y-119556574D01*
X114285487Y-119556573D01*
X113949564Y-119332116D01*
X113663884Y-119046436D01*
X113439427Y-118710513D01*
X113385367Y-118580000D01*
X113284818Y-118337254D01*
X113206000Y-117941007D01*
X113206000Y-117536993D01*
X113284818Y-117140746D01*
X113439426Y-116767489D01*
X113663884Y-116431564D01*
X113949564Y-116145884D01*
X114285487Y-115921427D01*
X114285489Y-115921426D01*
X114658746Y-115766818D01*
X115054993Y-115688000D01*
X115459007Y-115688000D01*
X115855254Y-115766818D01*
G37*
G36*
X122855254Y-115766818D02*
G01*
X123228511Y-115921426D01*
X123228513Y-115921427D01*
X123564436Y-116145884D01*
X123850116Y-116431564D01*
X124074574Y-116767489D01*
X124229182Y-117140746D01*
X124308000Y-117536993D01*
X124308000Y-117941007D01*
X124229182Y-118337254D01*
X124128633Y-118580000D01*
X124074573Y-118710513D01*
X123850116Y-119046436D01*
X123564436Y-119332116D01*
X123228513Y-119556573D01*
X123228512Y-119556574D01*
X123228511Y-119556574D01*
X122855254Y-119711182D01*
X122459007Y-119790000D01*
X122054993Y-119790000D01*
X121658746Y-119711182D01*
X121285489Y-119556574D01*
X121285488Y-119556574D01*
X121285487Y-119556573D01*
X120949564Y-119332116D01*
X120663884Y-119046436D01*
X120439427Y-118710513D01*
X120385367Y-118580000D01*
X120284818Y-118337254D01*
X120206000Y-117941007D01*
X120206000Y-117536993D01*
X120284818Y-117140746D01*
X120439426Y-116767489D01*
X120663884Y-116431564D01*
X120949564Y-116145884D01*
X121285487Y-115921427D01*
X121285489Y-115921426D01*
X121658746Y-115766818D01*
X122054993Y-115688000D01*
X122459007Y-115688000D01*
X122855254Y-115766818D01*
G37*
G36*
X84613254Y-115766818D02*
G01*
X84986511Y-115921426D01*
X84986513Y-115921427D01*
X85322436Y-116145884D01*
X85608116Y-116431564D01*
X85832574Y-116767489D01*
X85987182Y-117140746D01*
X86066000Y-117536993D01*
X86066000Y-117941007D01*
X85987182Y-118337254D01*
X85886633Y-118580000D01*
X85832573Y-118710513D01*
X85608116Y-119046436D01*
X85322436Y-119332116D01*
X84986513Y-119556573D01*
X84986512Y-119556574D01*
X84986511Y-119556574D01*
X84613254Y-119711182D01*
X84217007Y-119790000D01*
X83812993Y-119790000D01*
X83416746Y-119711182D01*
X83043489Y-119556574D01*
X83043488Y-119556574D01*
X83043487Y-119556573D01*
X82707564Y-119332116D01*
X82421884Y-119046436D01*
X82197427Y-118710513D01*
X82143367Y-118580000D01*
X82042818Y-118337254D01*
X81964000Y-117941007D01*
X81964000Y-117536993D01*
X82042818Y-117140746D01*
X82197426Y-116767489D01*
X82421884Y-116431564D01*
X82707564Y-116145884D01*
X83043487Y-115921427D01*
X83043489Y-115921426D01*
X83416746Y-115766818D01*
X83812993Y-115688000D01*
X84217007Y-115688000D01*
X84613254Y-115766818D01*
G37*
G36*
X91613254Y-115766818D02*
G01*
X91986511Y-115921426D01*
X91986513Y-115921427D01*
X92322436Y-116145884D01*
X92608116Y-116431564D01*
X92832574Y-116767489D01*
X92987182Y-117140746D01*
X93066000Y-117536993D01*
X93066000Y-117941007D01*
X92987182Y-118337254D01*
X92886633Y-118580000D01*
X92832573Y-118710513D01*
X92608116Y-119046436D01*
X92322436Y-119332116D01*
X91986513Y-119556573D01*
X91986512Y-119556574D01*
X91986511Y-119556574D01*
X91613254Y-119711182D01*
X91217007Y-119790000D01*
X90812993Y-119790000D01*
X90416746Y-119711182D01*
X90043489Y-119556574D01*
X90043488Y-119556574D01*
X90043487Y-119556573D01*
X89707564Y-119332116D01*
X89421884Y-119046436D01*
X89197427Y-118710513D01*
X89143367Y-118580000D01*
X89042818Y-118337254D01*
X88964000Y-117941007D01*
X88964000Y-117536993D01*
X89042818Y-117140746D01*
X89197426Y-116767489D01*
X89421884Y-116431564D01*
X89707564Y-116145884D01*
X90043487Y-115921427D01*
X90043489Y-115921426D01*
X90416746Y-115766818D01*
X90812993Y-115688000D01*
X91217007Y-115688000D01*
X91613254Y-115766818D01*
G37*
G36*
X107894487Y-116487996D02*
G01*
X108131253Y-116586068D01*
X108131255Y-116586069D01*
X108344339Y-116728447D01*
X108525553Y-116909661D01*
X108631342Y-117067985D01*
X108667932Y-117122747D01*
X108766004Y-117359513D01*
X108816000Y-117610861D01*
X108816000Y-117867139D01*
X108766004Y-118118487D01*
X108675387Y-118337254D01*
X108667931Y-118355255D01*
X108525553Y-118568339D01*
X108344339Y-118749553D01*
X108131255Y-118891931D01*
X108131254Y-118891932D01*
X108131253Y-118891932D01*
X107894487Y-118990004D01*
X107643139Y-119040000D01*
X107386861Y-119040000D01*
X107135513Y-118990004D01*
X106898747Y-118891932D01*
X106898746Y-118891932D01*
X106898745Y-118891931D01*
X106685661Y-118749553D01*
X106504447Y-118568339D01*
X106362069Y-118355255D01*
X106354613Y-118337254D01*
X106263996Y-118118487D01*
X106214000Y-117867139D01*
X106214000Y-117610861D01*
X106263996Y-117359513D01*
X106362068Y-117122747D01*
X106398659Y-117067985D01*
X106504447Y-116909661D01*
X106685661Y-116728447D01*
X106898745Y-116586069D01*
X106898747Y-116586068D01*
X107135513Y-116487996D01*
X107386861Y-116438000D01*
X107643139Y-116438000D01*
X107894487Y-116487996D01*
G37*
G36*
X139136487Y-116487996D02*
G01*
X139373253Y-116586068D01*
X139373255Y-116586069D01*
X139586339Y-116728447D01*
X139767553Y-116909661D01*
X139873342Y-117067985D01*
X139909932Y-117122747D01*
X140008004Y-117359513D01*
X140058000Y-117610861D01*
X140058000Y-117867139D01*
X140008004Y-118118487D01*
X139917387Y-118337254D01*
X139909931Y-118355255D01*
X139767553Y-118568339D01*
X139586339Y-118749553D01*
X139373255Y-118891931D01*
X139373254Y-118891932D01*
X139373253Y-118891932D01*
X139136487Y-118990004D01*
X138885139Y-119040000D01*
X138628861Y-119040000D01*
X138377513Y-118990004D01*
X138140747Y-118891932D01*
X138140746Y-118891932D01*
X138140745Y-118891931D01*
X137927661Y-118749553D01*
X137746447Y-118568339D01*
X137604069Y-118355255D01*
X137596613Y-118337254D01*
X137505996Y-118118487D01*
X137456000Y-117867139D01*
X137456000Y-117610861D01*
X137505996Y-117359513D01*
X137604068Y-117122747D01*
X137640659Y-117067985D01*
X137746447Y-116909661D01*
X137927661Y-116728447D01*
X138140745Y-116586069D01*
X138140747Y-116586068D01*
X138377513Y-116487996D01*
X138628861Y-116438000D01*
X138885139Y-116438000D01*
X139136487Y-116487996D01*
G37*
G36*
X143885228Y-116910703D02*
G01*
X144040100Y-116974853D01*
X144179481Y-117067985D01*
X144298015Y-117186519D01*
X144391147Y-117325900D01*
X144455297Y-117480772D01*
X144488000Y-117645184D01*
X144488000Y-117812816D01*
X144455297Y-117977228D01*
X144391147Y-118132100D01*
X144298015Y-118271481D01*
X144179481Y-118390015D01*
X144040100Y-118483147D01*
X143885228Y-118547297D01*
X143720816Y-118580000D01*
X143553184Y-118580000D01*
X143388772Y-118547297D01*
X143233900Y-118483147D01*
X143094519Y-118390015D01*
X142975985Y-118271481D01*
X142882853Y-118132100D01*
X142818703Y-117977228D01*
X142786000Y-117812816D01*
X142786000Y-117645184D01*
X142818703Y-117480772D01*
X142882853Y-117325900D01*
X142975985Y-117186519D01*
X143094519Y-117067985D01*
X143233900Y-116974853D01*
X143388772Y-116910703D01*
X143553184Y-116878000D01*
X143720816Y-116878000D01*
X143885228Y-116910703D01*
G37*
G36*
X114929228Y-112338703D02*
G01*
X115084100Y-112402853D01*
X115223481Y-112495985D01*
X115342015Y-112614519D01*
X115435147Y-112753900D01*
X115499297Y-112908772D01*
X115532000Y-113073184D01*
X115532000Y-113240816D01*
X115499297Y-113405228D01*
X115435147Y-113560100D01*
X115342015Y-113699481D01*
X115223481Y-113818015D01*
X115084100Y-113911147D01*
X114929228Y-113975297D01*
X114764816Y-114008000D01*
X114597184Y-114008000D01*
X114432772Y-113975297D01*
X114277900Y-113911147D01*
X114138519Y-113818015D01*
X114019985Y-113699481D01*
X113926853Y-113560100D01*
X113862703Y-113405228D01*
X113830000Y-113240816D01*
X113830000Y-113073184D01*
X113862703Y-112908772D01*
X113926853Y-112753900D01*
X114019985Y-112614519D01*
X114138519Y-112495985D01*
X114277900Y-112402853D01*
X114432772Y-112338703D01*
X114597184Y-112306000D01*
X114764816Y-112306000D01*
X114929228Y-112338703D01*
G37*
G36*
X123152000Y-114008000D02*
G01*
X121450000Y-114008000D01*
X121450000Y-112306000D01*
X123152000Y-112306000D01*
X123152000Y-114008000D01*
G37*
G36*
X48772000Y-111096000D02*
G01*
X46670000Y-111096000D01*
X46670000Y-100994000D01*
X48772000Y-100994000D01*
X48772000Y-111096000D01*
G37*
G36*
X76012000Y-111096000D02*
G01*
X73910000Y-111096000D01*
X73910000Y-100994000D01*
X76012000Y-100994000D01*
X76012000Y-111096000D01*
G37*
G36*
X60772000Y-111096000D02*
G01*
X58670000Y-111096000D01*
X58670000Y-100994000D01*
X60772000Y-100994000D01*
X60772000Y-111096000D01*
G37*
G36*
X64012000Y-111096000D02*
G01*
X61910000Y-111096000D01*
X61910000Y-100994000D01*
X64012000Y-100994000D01*
X64012000Y-111096000D01*
G37*
G36*
X83730400Y-108978000D02*
G01*
X81928400Y-108978000D01*
X81928400Y-107176000D01*
X83730400Y-107176000D01*
X83730400Y-108978000D01*
G37*
G36*
X85523564Y-103256389D02*
G01*
X85714833Y-103335615D01*
X85714835Y-103335616D01*
X85886973Y-103450635D01*
X86033365Y-103597027D01*
X86128897Y-103740000D01*
X86148385Y-103769167D01*
X86227611Y-103960436D01*
X86268000Y-104163484D01*
X86268000Y-104370516D01*
X86227611Y-104573564D01*
X86148385Y-104764833D01*
X86148384Y-104764835D01*
X86033365Y-104936973D01*
X85886973Y-105083365D01*
X85714835Y-105198384D01*
X85714834Y-105198385D01*
X85714833Y-105198385D01*
X85523564Y-105277611D01*
X85320516Y-105318000D01*
X85113484Y-105318000D01*
X84910436Y-105277611D01*
X84719167Y-105198385D01*
X84719166Y-105198385D01*
X84719165Y-105198384D01*
X84547027Y-105083365D01*
X84400635Y-104936973D01*
X84285616Y-104764835D01*
X84285615Y-104764833D01*
X84206389Y-104573564D01*
X84166000Y-104370516D01*
X84166000Y-104163484D01*
X84206389Y-103960436D01*
X84285615Y-103769167D01*
X84305104Y-103740000D01*
X84400635Y-103597027D01*
X84547027Y-103450635D01*
X84719165Y-103335616D01*
X84719167Y-103335615D01*
X84910436Y-103256389D01*
X85113484Y-103216000D01*
X85320516Y-103216000D01*
X85523564Y-103256389D01*
G37*
G36*
X80443564Y-103256389D02*
G01*
X80634833Y-103335615D01*
X80634835Y-103335616D01*
X80806973Y-103450635D01*
X80953365Y-103597027D01*
X81048897Y-103740000D01*
X81068385Y-103769167D01*
X81147611Y-103960436D01*
X81188000Y-104163484D01*
X81188000Y-104370516D01*
X81147611Y-104573564D01*
X81068385Y-104764833D01*
X81068384Y-104764835D01*
X80953365Y-104936973D01*
X80806973Y-105083365D01*
X80634835Y-105198384D01*
X80634834Y-105198385D01*
X80634833Y-105198385D01*
X80443564Y-105277611D01*
X80240516Y-105318000D01*
X80033484Y-105318000D01*
X79830436Y-105277611D01*
X79639167Y-105198385D01*
X79639166Y-105198385D01*
X79639165Y-105198384D01*
X79467027Y-105083365D01*
X79320635Y-104936973D01*
X79205616Y-104764835D01*
X79205615Y-104764833D01*
X79126389Y-104573564D01*
X79086000Y-104370516D01*
X79086000Y-104163484D01*
X79126389Y-103960436D01*
X79205615Y-103769167D01*
X79225104Y-103740000D01*
X79320635Y-103597027D01*
X79467027Y-103450635D01*
X79639165Y-103335616D01*
X79639167Y-103335615D01*
X79830436Y-103256389D01*
X80033484Y-103216000D01*
X80240516Y-103216000D01*
X80443564Y-103256389D01*
G37*
G36*
X111489903Y-101286075D02*
G01*
X111717571Y-101380378D01*
X111922466Y-101517285D01*
X112096715Y-101691534D01*
X112096716Y-101691536D01*
X112233623Y-101896431D01*
X112327925Y-102124097D01*
X112376000Y-102365786D01*
X112376000Y-102612214D01*
X112327925Y-102853903D01*
X112244376Y-103055610D01*
X112233622Y-103081571D01*
X112096715Y-103286466D01*
X111922466Y-103460715D01*
X111717571Y-103597622D01*
X111717570Y-103597623D01*
X111717569Y-103597623D01*
X111489903Y-103691925D01*
X111248214Y-103740000D01*
X111001786Y-103740000D01*
X110760097Y-103691925D01*
X110532431Y-103597623D01*
X110532430Y-103597623D01*
X110532429Y-103597622D01*
X110327534Y-103460715D01*
X110153285Y-103286466D01*
X110016378Y-103081571D01*
X110005625Y-103055610D01*
X109922075Y-102853903D01*
X109874000Y-102612214D01*
X109874000Y-102365786D01*
X109922075Y-102124097D01*
X110016377Y-101896431D01*
X110153284Y-101691536D01*
X110153285Y-101691534D01*
X110327534Y-101517285D01*
X110532429Y-101380378D01*
X110760097Y-101286075D01*
X111001786Y-101238000D01*
X111248214Y-101238000D01*
X111489903Y-101286075D01*
G37*
G36*
X91169903Y-101286075D02*
G01*
X91397571Y-101380378D01*
X91602466Y-101517285D01*
X91776715Y-101691534D01*
X91776716Y-101691536D01*
X91913623Y-101896431D01*
X92007925Y-102124097D01*
X92056000Y-102365786D01*
X92056000Y-102612214D01*
X92007925Y-102853903D01*
X91924376Y-103055610D01*
X91913622Y-103081571D01*
X91776715Y-103286466D01*
X91602466Y-103460715D01*
X91397571Y-103597622D01*
X91397570Y-103597623D01*
X91397569Y-103597623D01*
X91169903Y-103691925D01*
X90928214Y-103740000D01*
X90681786Y-103740000D01*
X90440097Y-103691925D01*
X90212431Y-103597623D01*
X90212430Y-103597623D01*
X90212429Y-103597622D01*
X90007534Y-103460715D01*
X89833285Y-103286466D01*
X89696378Y-103081571D01*
X89685625Y-103055610D01*
X89602075Y-102853903D01*
X89554000Y-102612214D01*
X89554000Y-102365786D01*
X89602075Y-102124097D01*
X89696377Y-101896431D01*
X89833284Y-101691536D01*
X89833285Y-101691534D01*
X90007534Y-101517285D01*
X90212429Y-101380378D01*
X90440097Y-101286075D01*
X90681786Y-101238000D01*
X90928214Y-101238000D01*
X91169903Y-101286075D01*
G37*
G36*
X134842097Y-101455469D02*
G01*
X134945032Y-101465607D01*
X135115386Y-101517284D01*
X135143149Y-101525706D01*
X135239975Y-101577461D01*
X135325729Y-101623297D01*
X135485765Y-101754635D01*
X135617103Y-101914671D01*
X135662939Y-102000425D01*
X135714694Y-102097251D01*
X135714695Y-102097254D01*
X135774793Y-102295368D01*
X135795085Y-102501400D01*
X135774793Y-102707432D01*
X135761330Y-102751812D01*
X135714695Y-102905547D01*
X135709224Y-102915782D01*
X135617103Y-103088129D01*
X135485765Y-103248165D01*
X135325729Y-103379503D01*
X135306090Y-103390000D01*
X135143149Y-103477094D01*
X135143146Y-103477095D01*
X134945032Y-103537193D01*
X134842097Y-103547331D01*
X134790631Y-103552400D01*
X133687369Y-103552400D01*
X133635903Y-103547331D01*
X133532968Y-103537193D01*
X133334854Y-103477095D01*
X133334851Y-103477094D01*
X133171910Y-103390000D01*
X133152271Y-103379503D01*
X132992235Y-103248165D01*
X132860897Y-103088129D01*
X132768776Y-102915782D01*
X132763305Y-102905547D01*
X132716670Y-102751812D01*
X132703207Y-102707432D01*
X132682915Y-102501400D01*
X132703207Y-102295368D01*
X132763305Y-102097254D01*
X132763306Y-102097251D01*
X132815061Y-102000425D01*
X132860897Y-101914671D01*
X132992235Y-101754635D01*
X133152271Y-101623297D01*
X133238025Y-101577461D01*
X133334851Y-101525706D01*
X133362614Y-101517284D01*
X133532968Y-101465607D01*
X133635903Y-101455469D01*
X133687369Y-101450400D01*
X134790631Y-101450400D01*
X134842097Y-101455469D01*
G37*
G36*
X127494512Y-101592927D02*
G01*
X127643812Y-101622624D01*
X127807784Y-101690544D01*
X127955354Y-101789147D01*
X128080853Y-101914646D01*
X128179456Y-102062216D01*
X128247376Y-102226188D01*
X128282000Y-102400259D01*
X128282000Y-102577741D01*
X128247376Y-102751812D01*
X128179456Y-102915784D01*
X128080853Y-103063354D01*
X127955354Y-103188853D01*
X127807784Y-103287456D01*
X127643812Y-103355376D01*
X127494512Y-103385073D01*
X127469742Y-103390000D01*
X127292258Y-103390000D01*
X127267488Y-103385073D01*
X127118188Y-103355376D01*
X126954216Y-103287456D01*
X126806646Y-103188853D01*
X126681147Y-103063354D01*
X126582544Y-102915784D01*
X126514624Y-102751812D01*
X126480000Y-102577741D01*
X126480000Y-102400259D01*
X126514624Y-102226188D01*
X126582544Y-102062216D01*
X126681147Y-101914646D01*
X126806646Y-101789147D01*
X126954216Y-101690544D01*
X127118188Y-101622624D01*
X127267488Y-101592927D01*
X127292258Y-101588000D01*
X127469742Y-101588000D01*
X127494512Y-101592927D01*
G37*
G36*
X119342000Y-103340000D02*
G01*
X117640000Y-103340000D01*
X117640000Y-101638000D01*
X119342000Y-101638000D01*
X119342000Y-103340000D01*
G37*
G36*
X85523564Y-99446389D02*
G01*
X85688414Y-99514672D01*
X85714835Y-99525616D01*
X85886973Y-99640635D01*
X86033365Y-99787027D01*
X86112316Y-99905185D01*
X86148385Y-99959167D01*
X86227611Y-100150436D01*
X86268000Y-100353484D01*
X86268000Y-100560516D01*
X86227611Y-100763564D01*
X86209497Y-100807295D01*
X86148384Y-100954835D01*
X86033365Y-101126973D01*
X85886973Y-101273365D01*
X85714835Y-101388384D01*
X85714834Y-101388385D01*
X85714833Y-101388385D01*
X85523564Y-101467611D01*
X85320516Y-101508000D01*
X85113484Y-101508000D01*
X84910436Y-101467611D01*
X84719167Y-101388385D01*
X84719166Y-101388385D01*
X84719165Y-101388384D01*
X84547027Y-101273365D01*
X84400635Y-101126973D01*
X84285616Y-100954835D01*
X84224503Y-100807295D01*
X84206389Y-100763564D01*
X84166000Y-100560516D01*
X84166000Y-100353484D01*
X84206389Y-100150436D01*
X84285615Y-99959167D01*
X84321685Y-99905185D01*
X84400635Y-99787027D01*
X84547027Y-99640635D01*
X84719165Y-99525616D01*
X84745586Y-99514672D01*
X84910436Y-99446389D01*
X85113484Y-99406000D01*
X85320516Y-99406000D01*
X85523564Y-99446389D01*
G37*
G36*
X80443564Y-99446389D02*
G01*
X80608414Y-99514672D01*
X80634835Y-99525616D01*
X80806973Y-99640635D01*
X80953365Y-99787027D01*
X81032316Y-99905185D01*
X81068385Y-99959167D01*
X81147611Y-100150436D01*
X81188000Y-100353484D01*
X81188000Y-100560516D01*
X81147611Y-100763564D01*
X81129497Y-100807295D01*
X81068384Y-100954835D01*
X80953365Y-101126973D01*
X80806973Y-101273365D01*
X80634835Y-101388384D01*
X80634834Y-101388385D01*
X80634833Y-101388385D01*
X80443564Y-101467611D01*
X80240516Y-101508000D01*
X80033484Y-101508000D01*
X79830436Y-101467611D01*
X79639167Y-101388385D01*
X79639166Y-101388385D01*
X79639165Y-101388384D01*
X79467027Y-101273365D01*
X79320635Y-101126973D01*
X79205616Y-100954835D01*
X79144503Y-100807295D01*
X79126389Y-100763564D01*
X79086000Y-100560516D01*
X79086000Y-100353484D01*
X79126389Y-100150436D01*
X79205615Y-99959167D01*
X79241685Y-99905185D01*
X79320635Y-99787027D01*
X79467027Y-99640635D01*
X79639165Y-99525616D01*
X79665586Y-99514672D01*
X79830436Y-99446389D01*
X80033484Y-99406000D01*
X80240516Y-99406000D01*
X80443564Y-99446389D01*
G37*
G36*
X134842097Y-99055469D02*
G01*
X134945032Y-99065607D01*
X135143146Y-99125705D01*
X135143149Y-99125706D01*
X135227332Y-99170703D01*
X135325729Y-99223297D01*
X135485765Y-99354635D01*
X135617103Y-99514671D01*
X135622953Y-99525616D01*
X135714694Y-99697251D01*
X135714695Y-99697254D01*
X135774793Y-99895368D01*
X135795085Y-100101400D01*
X135774793Y-100307432D01*
X135749109Y-100392100D01*
X135714694Y-100505549D01*
X135700833Y-100531481D01*
X135617103Y-100688129D01*
X135485765Y-100848165D01*
X135325729Y-100979503D01*
X135239975Y-101025339D01*
X135143149Y-101077094D01*
X135143146Y-101077095D01*
X134945032Y-101137193D01*
X134842097Y-101147331D01*
X134790631Y-101152400D01*
X133687369Y-101152400D01*
X133635903Y-101147331D01*
X133532968Y-101137193D01*
X133334854Y-101077095D01*
X133334851Y-101077094D01*
X133238025Y-101025339D01*
X133152271Y-100979503D01*
X132992235Y-100848165D01*
X132860897Y-100688129D01*
X132777167Y-100531481D01*
X132763306Y-100505549D01*
X132728891Y-100392100D01*
X132703207Y-100307432D01*
X132682915Y-100101400D01*
X132703207Y-99895368D01*
X132763305Y-99697254D01*
X132763306Y-99697251D01*
X132855047Y-99525616D01*
X132860897Y-99514671D01*
X132992235Y-99354635D01*
X133152271Y-99223297D01*
X133250668Y-99170703D01*
X133334851Y-99125706D01*
X133334854Y-99125705D01*
X133532968Y-99065607D01*
X133635903Y-99055469D01*
X133687369Y-99050400D01*
X134790631Y-99050400D01*
X134842097Y-99055469D01*
G37*
G36*
X128282000Y-100850000D02*
G01*
X126480000Y-100850000D01*
X126480000Y-99048000D01*
X128282000Y-99048000D01*
X128282000Y-100850000D01*
G37*
G36*
X118739228Y-99170703D02*
G01*
X118894100Y-99234853D01*
X119033481Y-99327985D01*
X119152015Y-99446519D01*
X119245147Y-99585900D01*
X119309297Y-99740772D01*
X119342000Y-99905184D01*
X119342000Y-100072816D01*
X119309297Y-100237228D01*
X119245147Y-100392100D01*
X119152015Y-100531481D01*
X119033481Y-100650015D01*
X118894100Y-100743147D01*
X118739228Y-100807297D01*
X118574816Y-100840000D01*
X118407184Y-100840000D01*
X118242772Y-100807297D01*
X118087900Y-100743147D01*
X117948519Y-100650015D01*
X117829985Y-100531481D01*
X117736853Y-100392100D01*
X117672703Y-100237228D01*
X117640000Y-100072816D01*
X117640000Y-99905184D01*
X117672703Y-99740772D01*
X117736853Y-99585900D01*
X117829985Y-99446519D01*
X117948519Y-99327985D01*
X118087900Y-99234853D01*
X118242772Y-99170703D01*
X118407184Y-99138000D01*
X118574816Y-99138000D01*
X118739228Y-99170703D01*
G37*
G36*
X134842097Y-96655469D02*
G01*
X134945032Y-96665607D01*
X135143146Y-96725705D01*
X135143149Y-96725706D01*
X135226415Y-96770213D01*
X135325729Y-96823297D01*
X135485765Y-96954635D01*
X135617103Y-97114671D01*
X135633226Y-97144835D01*
X135714694Y-97297251D01*
X135714695Y-97297254D01*
X135774793Y-97495368D01*
X135795085Y-97701400D01*
X135774793Y-97907432D01*
X135743793Y-98009623D01*
X135714694Y-98105549D01*
X135689865Y-98152000D01*
X135617103Y-98288129D01*
X135485765Y-98448165D01*
X135325729Y-98579503D01*
X135239975Y-98625339D01*
X135143149Y-98677094D01*
X135143146Y-98677095D01*
X134945032Y-98737193D01*
X134842097Y-98747331D01*
X134790631Y-98752400D01*
X133687369Y-98752400D01*
X133635903Y-98747331D01*
X133532968Y-98737193D01*
X133334854Y-98677095D01*
X133334851Y-98677094D01*
X133238025Y-98625339D01*
X133152271Y-98579503D01*
X132992235Y-98448165D01*
X132860897Y-98288129D01*
X132788135Y-98152000D01*
X132763306Y-98105549D01*
X132734207Y-98009623D01*
X132703207Y-97907432D01*
X132682915Y-97701400D01*
X132703207Y-97495368D01*
X132763305Y-97297254D01*
X132763306Y-97297251D01*
X132844774Y-97144835D01*
X132860897Y-97114671D01*
X132992235Y-96954635D01*
X133152271Y-96823297D01*
X133251585Y-96770213D01*
X133334851Y-96725706D01*
X133334854Y-96725705D01*
X133532968Y-96665607D01*
X133635903Y-96655469D01*
X133687369Y-96650400D01*
X134790631Y-96650400D01*
X134842097Y-96655469D01*
G37*
G36*
X91169903Y-95698075D02*
G01*
X91285605Y-95746000D01*
X91397571Y-95792378D01*
X91602466Y-95929285D01*
X91776715Y-96103534D01*
X91807206Y-96149167D01*
X91913623Y-96308431D01*
X92007925Y-96536097D01*
X92054494Y-96770213D01*
X92056000Y-96777787D01*
X92056000Y-97024213D01*
X92007925Y-97265903D01*
X91913622Y-97493571D01*
X91776715Y-97698466D01*
X91602466Y-97872715D01*
X91397571Y-98009622D01*
X91397570Y-98009623D01*
X91397569Y-98009623D01*
X91169903Y-98103925D01*
X90928214Y-98152000D01*
X90681786Y-98152000D01*
X90440097Y-98103925D01*
X90212431Y-98009623D01*
X90212430Y-98009623D01*
X90212429Y-98009622D01*
X90007534Y-97872715D01*
X89833285Y-97698466D01*
X89696378Y-97493571D01*
X89602075Y-97265903D01*
X89554000Y-97024213D01*
X89554000Y-96777787D01*
X89555507Y-96770213D01*
X89602075Y-96536097D01*
X89696377Y-96308431D01*
X89802794Y-96149167D01*
X89833285Y-96103534D01*
X90007534Y-95929285D01*
X90212429Y-95792378D01*
X90324396Y-95746000D01*
X90440097Y-95698075D01*
X90681786Y-95650000D01*
X90928214Y-95650000D01*
X91169903Y-95698075D01*
G37*
G36*
X111489903Y-95698075D02*
G01*
X111605605Y-95746000D01*
X111717571Y-95792378D01*
X111922466Y-95929285D01*
X112096715Y-96103534D01*
X112127206Y-96149167D01*
X112233623Y-96308431D01*
X112327925Y-96536097D01*
X112374494Y-96770213D01*
X112376000Y-96777787D01*
X112376000Y-97024213D01*
X112327925Y-97265903D01*
X112233622Y-97493571D01*
X112096715Y-97698466D01*
X111922466Y-97872715D01*
X111717571Y-98009622D01*
X111717570Y-98009623D01*
X111717569Y-98009623D01*
X111489903Y-98103925D01*
X111248214Y-98152000D01*
X111001786Y-98152000D01*
X110760097Y-98103925D01*
X110532431Y-98009623D01*
X110532430Y-98009623D01*
X110532429Y-98009622D01*
X110327534Y-97872715D01*
X110153285Y-97698466D01*
X110016378Y-97493571D01*
X109922075Y-97265903D01*
X109874000Y-97024213D01*
X109874000Y-96777787D01*
X109875507Y-96770213D01*
X109922075Y-96536097D01*
X110016377Y-96308431D01*
X110122794Y-96149167D01*
X110153285Y-96103534D01*
X110327534Y-95929285D01*
X110532429Y-95792378D01*
X110644396Y-95746000D01*
X110760097Y-95698075D01*
X111001786Y-95650000D01*
X111248214Y-95650000D01*
X111489903Y-95698075D01*
G37*
G36*
X73389903Y-95444075D02*
G01*
X73617571Y-95538378D01*
X73822466Y-95675285D01*
X73996715Y-95849534D01*
X73996716Y-95849536D01*
X74133623Y-96054431D01*
X74227925Y-96282097D01*
X74276000Y-96523786D01*
X74276000Y-96770214D01*
X74265441Y-96823297D01*
X74227925Y-97011903D01*
X74133622Y-97239571D01*
X73996715Y-97444466D01*
X73822466Y-97618715D01*
X73617571Y-97755622D01*
X73617570Y-97755623D01*
X73617569Y-97755623D01*
X73389903Y-97849925D01*
X73148214Y-97898000D01*
X72901786Y-97898000D01*
X72660097Y-97849925D01*
X72432431Y-97755623D01*
X72432430Y-97755623D01*
X72432429Y-97755622D01*
X72227534Y-97618715D01*
X72053285Y-97444466D01*
X71916378Y-97239571D01*
X71822075Y-97011903D01*
X71784559Y-96823297D01*
X71774000Y-96770214D01*
X71774000Y-96523786D01*
X71822075Y-96282097D01*
X71916377Y-96054431D01*
X72053284Y-95849536D01*
X72053285Y-95849534D01*
X72227534Y-95675285D01*
X72432429Y-95538378D01*
X72660097Y-95444075D01*
X72901786Y-95396000D01*
X73148214Y-95396000D01*
X73389903Y-95444075D01*
G37*
G36*
X47989903Y-95444075D02*
G01*
X48217571Y-95538378D01*
X48422466Y-95675285D01*
X48596715Y-95849534D01*
X48596716Y-95849536D01*
X48733623Y-96054431D01*
X48827925Y-96282097D01*
X48876000Y-96523786D01*
X48876000Y-96770214D01*
X48865441Y-96823297D01*
X48827925Y-97011903D01*
X48733622Y-97239571D01*
X48596715Y-97444466D01*
X48422466Y-97618715D01*
X48217571Y-97755622D01*
X48217570Y-97755623D01*
X48217569Y-97755623D01*
X47989903Y-97849925D01*
X47748214Y-97898000D01*
X47501786Y-97898000D01*
X47260097Y-97849925D01*
X47032431Y-97755623D01*
X47032430Y-97755623D01*
X47032429Y-97755622D01*
X46827534Y-97618715D01*
X46653285Y-97444466D01*
X46516378Y-97239571D01*
X46422075Y-97011903D01*
X46384559Y-96823297D01*
X46374000Y-96770214D01*
X46374000Y-96523786D01*
X46422075Y-96282097D01*
X46516377Y-96054431D01*
X46653284Y-95849536D01*
X46653285Y-95849534D01*
X46827534Y-95675285D01*
X47032429Y-95538378D01*
X47260097Y-95444075D01*
X47501786Y-95396000D01*
X47748214Y-95396000D01*
X47989903Y-95444075D01*
G37*
G36*
X85523564Y-95636389D02*
G01*
X85714833Y-95715615D01*
X85714835Y-95715616D01*
X85886973Y-95830635D01*
X86033365Y-95977027D01*
X86117896Y-96103536D01*
X86148385Y-96149167D01*
X86227611Y-96340436D01*
X86268000Y-96543484D01*
X86268000Y-96750516D01*
X86227611Y-96953564D01*
X86160878Y-97114671D01*
X86148384Y-97144835D01*
X86033365Y-97316973D01*
X85886973Y-97463365D01*
X85714835Y-97578384D01*
X85714834Y-97578385D01*
X85714833Y-97578385D01*
X85523564Y-97657611D01*
X85320516Y-97698000D01*
X85113484Y-97698000D01*
X84910436Y-97657611D01*
X84719167Y-97578385D01*
X84719166Y-97578385D01*
X84719165Y-97578384D01*
X84547027Y-97463365D01*
X84400635Y-97316973D01*
X84285616Y-97144835D01*
X84273122Y-97114671D01*
X84206389Y-96953564D01*
X84166000Y-96750516D01*
X84166000Y-96543484D01*
X84206389Y-96340436D01*
X84285615Y-96149167D01*
X84316105Y-96103536D01*
X84400635Y-95977027D01*
X84547027Y-95830635D01*
X84719165Y-95715616D01*
X84719167Y-95715615D01*
X84910436Y-95636389D01*
X85113484Y-95596000D01*
X85320516Y-95596000D01*
X85523564Y-95636389D01*
G37*
G36*
X80443564Y-95636389D02*
G01*
X80634833Y-95715615D01*
X80634835Y-95715616D01*
X80806973Y-95830635D01*
X80953365Y-95977027D01*
X81037896Y-96103536D01*
X81068385Y-96149167D01*
X81147611Y-96340436D01*
X81188000Y-96543484D01*
X81188000Y-96750516D01*
X81147611Y-96953564D01*
X81080878Y-97114671D01*
X81068384Y-97144835D01*
X80953365Y-97316973D01*
X80806973Y-97463365D01*
X80634835Y-97578384D01*
X80634834Y-97578385D01*
X80634833Y-97578385D01*
X80443564Y-97657611D01*
X80240516Y-97698000D01*
X80033484Y-97698000D01*
X79830436Y-97657611D01*
X79639167Y-97578385D01*
X79639166Y-97578385D01*
X79639165Y-97578384D01*
X79467027Y-97463365D01*
X79320635Y-97316973D01*
X79205616Y-97144835D01*
X79193122Y-97114671D01*
X79126389Y-96953564D01*
X79086000Y-96750516D01*
X79086000Y-96543484D01*
X79126389Y-96340436D01*
X79205615Y-96149167D01*
X79236105Y-96103536D01*
X79320635Y-95977027D01*
X79467027Y-95830635D01*
X79639165Y-95715616D01*
X79639167Y-95715615D01*
X79830436Y-95636389D01*
X80033484Y-95596000D01*
X80240516Y-95596000D01*
X80443564Y-95636389D01*
G37*
G36*
X77558200Y-97548000D02*
G01*
X75756200Y-97548000D01*
X75756200Y-95746000D01*
X77558200Y-95746000D01*
X77558200Y-97548000D01*
G37*
G36*
X135342097Y-91751069D02*
G01*
X135445032Y-91761207D01*
X135643146Y-91821305D01*
X135643149Y-91821306D01*
X135708928Y-91856466D01*
X135825729Y-91918897D01*
X135985765Y-92050235D01*
X136117103Y-92210271D01*
X136140754Y-92254519D01*
X136214694Y-92392851D01*
X136214695Y-92392854D01*
X136274793Y-92590968D01*
X136295085Y-92797000D01*
X136274793Y-93003032D01*
X136215013Y-93200097D01*
X136214694Y-93201149D01*
X136162939Y-93297975D01*
X136117103Y-93383729D01*
X135985765Y-93543765D01*
X135825729Y-93675103D01*
X135739975Y-93720939D01*
X135643149Y-93772694D01*
X135643146Y-93772695D01*
X135445032Y-93832793D01*
X135342097Y-93842931D01*
X135290631Y-93848000D01*
X133187369Y-93848000D01*
X133135903Y-93842931D01*
X133032968Y-93832793D01*
X132834854Y-93772695D01*
X132834851Y-93772694D01*
X132738025Y-93720939D01*
X132652271Y-93675103D01*
X132492235Y-93543765D01*
X132360897Y-93383729D01*
X132315061Y-93297975D01*
X132263306Y-93201149D01*
X132262987Y-93200097D01*
X132203207Y-93003032D01*
X132182915Y-92797000D01*
X132203207Y-92590968D01*
X132263305Y-92392854D01*
X132263306Y-92392851D01*
X132337246Y-92254519D01*
X132360897Y-92210271D01*
X132492235Y-92050235D01*
X132652271Y-91918897D01*
X132769072Y-91856466D01*
X132834851Y-91821306D01*
X132834854Y-91821305D01*
X133032968Y-91761207D01*
X133135903Y-91751069D01*
X133187369Y-91746000D01*
X135290631Y-91746000D01*
X135342097Y-91751069D01*
G37*
G36*
X118739228Y-91978703D02*
G01*
X118894100Y-92042853D01*
X119033481Y-92135985D01*
X119152015Y-92254519D01*
X119245147Y-92393900D01*
X119309297Y-92548772D01*
X119342000Y-92713184D01*
X119342000Y-92880816D01*
X119309297Y-93045228D01*
X119245147Y-93200100D01*
X119152015Y-93339481D01*
X119033481Y-93458015D01*
X118894100Y-93551147D01*
X118739228Y-93615297D01*
X118574816Y-93648000D01*
X118407184Y-93648000D01*
X118242772Y-93615297D01*
X118087900Y-93551147D01*
X117948519Y-93458015D01*
X117829985Y-93339481D01*
X117736853Y-93200100D01*
X117672703Y-93045228D01*
X117640000Y-92880816D01*
X117640000Y-92713184D01*
X117672703Y-92548772D01*
X117736853Y-92393900D01*
X117829985Y-92254519D01*
X117948519Y-92135985D01*
X118087900Y-92042853D01*
X118242772Y-91978703D01*
X118407184Y-91946000D01*
X118574816Y-91946000D01*
X118739228Y-91978703D01*
G37*
G36*
X47992512Y-91178927D02*
G01*
X48141812Y-91208624D01*
X48305784Y-91276544D01*
X48453354Y-91375147D01*
X48578853Y-91500646D01*
X48677456Y-91648216D01*
X48745376Y-91812188D01*
X48766601Y-91918897D01*
X48778498Y-91978705D01*
X48780000Y-91986259D01*
X48780000Y-92163741D01*
X48745376Y-92337812D01*
X48677456Y-92501784D01*
X48578853Y-92649354D01*
X48453354Y-92774853D01*
X48305784Y-92873456D01*
X48141812Y-92941376D01*
X47992512Y-92971073D01*
X47967742Y-92976000D01*
X47790258Y-92976000D01*
X47765488Y-92971073D01*
X47616188Y-92941376D01*
X47452216Y-92873456D01*
X47304646Y-92774853D01*
X47179147Y-92649354D01*
X47080544Y-92501784D01*
X47012624Y-92337812D01*
X46978000Y-92163741D01*
X46978000Y-91986259D01*
X46979503Y-91978705D01*
X46991399Y-91918897D01*
X47012624Y-91812188D01*
X47080544Y-91648216D01*
X47179147Y-91500646D01*
X47304646Y-91375147D01*
X47452216Y-91276544D01*
X47616188Y-91208624D01*
X47765488Y-91178927D01*
X47790258Y-91174000D01*
X47967742Y-91174000D01*
X47992512Y-91178927D01*
G37*
G36*
X70224032Y-89832629D02*
G01*
X70341903Y-89856075D01*
X70569571Y-89950378D01*
X70774466Y-90087285D01*
X70948715Y-90261534D01*
X71065290Y-90436000D01*
X71085623Y-90466431D01*
X71179925Y-90694097D01*
X71228000Y-90935786D01*
X71228000Y-91182214D01*
X71198048Y-91332793D01*
X71179925Y-91423903D01*
X71085622Y-91651571D01*
X70948715Y-91856466D01*
X70774466Y-92030715D01*
X70569571Y-92167622D01*
X70569570Y-92167623D01*
X70569569Y-92167623D01*
X70341903Y-92261925D01*
X70100214Y-92310000D01*
X69853786Y-92310000D01*
X69612097Y-92261925D01*
X69384431Y-92167623D01*
X69384430Y-92167623D01*
X69384429Y-92167622D01*
X69179534Y-92030715D01*
X69005285Y-91856466D01*
X68868378Y-91651571D01*
X68774075Y-91423903D01*
X68755952Y-91332793D01*
X68726000Y-91182214D01*
X68726000Y-90935786D01*
X68774075Y-90694097D01*
X68868377Y-90466431D01*
X68888710Y-90436000D01*
X69005285Y-90261534D01*
X69179534Y-90087285D01*
X69384429Y-89950378D01*
X69612097Y-89856075D01*
X69729968Y-89832629D01*
X69853786Y-89808000D01*
X70100214Y-89808000D01*
X70224032Y-89832629D01*
G37*
G36*
X90544032Y-89832629D02*
G01*
X90661903Y-89856075D01*
X90889571Y-89950378D01*
X91094466Y-90087285D01*
X91268715Y-90261534D01*
X91385290Y-90436000D01*
X91405623Y-90466431D01*
X91499925Y-90694097D01*
X91548000Y-90935786D01*
X91548000Y-91182214D01*
X91518048Y-91332793D01*
X91499925Y-91423903D01*
X91405622Y-91651571D01*
X91268715Y-91856466D01*
X91094466Y-92030715D01*
X90889571Y-92167622D01*
X90889570Y-92167623D01*
X90889569Y-92167623D01*
X90661903Y-92261925D01*
X90420214Y-92310000D01*
X90173786Y-92310000D01*
X89932097Y-92261925D01*
X89704431Y-92167623D01*
X89704430Y-92167623D01*
X89704429Y-92167622D01*
X89499534Y-92030715D01*
X89325285Y-91856466D01*
X89188378Y-91651571D01*
X89094075Y-91423903D01*
X89075952Y-91332793D01*
X89046000Y-91182214D01*
X89046000Y-90935786D01*
X89094075Y-90694097D01*
X89188377Y-90466431D01*
X89208710Y-90436000D01*
X89325285Y-90261534D01*
X89499534Y-90087285D01*
X89704429Y-89950378D01*
X89932097Y-89856075D01*
X90049968Y-89832629D01*
X90173786Y-89808000D01*
X90420214Y-89808000D01*
X90544032Y-89832629D01*
G37*
G36*
X135342097Y-89251069D02*
G01*
X135445032Y-89261207D01*
X135643146Y-89321305D01*
X135643149Y-89321306D01*
X135739975Y-89373061D01*
X135825729Y-89418897D01*
X135985765Y-89550235D01*
X136117103Y-89710271D01*
X136162939Y-89796025D01*
X136214694Y-89892851D01*
X136214695Y-89892854D01*
X136274793Y-90090968D01*
X136295085Y-90297000D01*
X136274793Y-90503032D01*
X136267290Y-90527765D01*
X136214694Y-90701149D01*
X136185004Y-90756694D01*
X136117103Y-90883729D01*
X135985765Y-91043765D01*
X135825729Y-91175103D01*
X135763015Y-91208624D01*
X135643149Y-91272694D01*
X135643146Y-91272695D01*
X135445032Y-91332793D01*
X135342097Y-91342931D01*
X135290631Y-91348000D01*
X133187369Y-91348000D01*
X133135903Y-91342931D01*
X133032968Y-91332793D01*
X132834854Y-91272695D01*
X132834851Y-91272694D01*
X132714985Y-91208624D01*
X132652271Y-91175103D01*
X132492235Y-91043765D01*
X132360897Y-90883729D01*
X132292996Y-90756694D01*
X132263306Y-90701149D01*
X132210710Y-90527765D01*
X132203207Y-90503032D01*
X132182915Y-90297000D01*
X132203207Y-90090968D01*
X132263305Y-89892854D01*
X132263306Y-89892851D01*
X132315061Y-89796025D01*
X132360897Y-89710271D01*
X132492235Y-89550235D01*
X132652271Y-89418897D01*
X132738025Y-89373061D01*
X132834851Y-89321306D01*
X132834854Y-89321305D01*
X133032968Y-89261207D01*
X133135903Y-89251069D01*
X133187369Y-89246000D01*
X135290631Y-89246000D01*
X135342097Y-89251069D01*
G37*
G36*
X119342000Y-91148000D02*
G01*
X117640000Y-91148000D01*
X117640000Y-89446000D01*
X119342000Y-89446000D01*
X119342000Y-91148000D01*
G37*
G36*
X106799032Y-87745207D02*
G01*
X106969768Y-87797000D01*
X106997149Y-87805306D01*
X107093975Y-87857061D01*
X107179729Y-87902897D01*
X107339765Y-88034235D01*
X107471103Y-88194271D01*
X107474779Y-88201149D01*
X107568694Y-88376851D01*
X107568695Y-88376854D01*
X107628793Y-88574968D01*
X107644000Y-88729370D01*
X107644000Y-89832630D01*
X107628793Y-89987032D01*
X107568695Y-90185145D01*
X107568694Y-90185149D01*
X107527865Y-90261534D01*
X107471103Y-90367729D01*
X107339765Y-90527765D01*
X107179729Y-90659103D01*
X107063030Y-90721479D01*
X106997148Y-90756694D01*
X106997145Y-90756695D01*
X106799031Y-90816793D01*
X106593000Y-90837085D01*
X106386968Y-90816793D01*
X106188854Y-90756695D01*
X106188851Y-90756694D01*
X106084934Y-90701149D01*
X106006271Y-90659103D01*
X105846235Y-90527765D01*
X105714897Y-90367729D01*
X105643874Y-90234853D01*
X105617306Y-90185148D01*
X105594314Y-90109354D01*
X105557207Y-89987031D01*
X105542000Y-89832629D01*
X105542000Y-88729370D01*
X105547983Y-88668624D01*
X105557207Y-88574970D01*
X105617305Y-88376853D01*
X105711222Y-88201149D01*
X105714898Y-88194271D01*
X105846236Y-88034235D01*
X106006272Y-87902897D01*
X106092026Y-87857061D01*
X106188852Y-87805306D01*
X106216233Y-87797000D01*
X106386969Y-87745207D01*
X106593000Y-87724915D01*
X106799032Y-87745207D01*
G37*
G36*
X109299032Y-87745207D02*
G01*
X109469768Y-87797000D01*
X109497149Y-87805306D01*
X109593975Y-87857061D01*
X109679729Y-87902897D01*
X109839765Y-88034235D01*
X109971103Y-88194271D01*
X109974779Y-88201149D01*
X110068694Y-88376851D01*
X110068695Y-88376854D01*
X110128793Y-88574968D01*
X110144000Y-88729370D01*
X110144000Y-89832630D01*
X110128793Y-89987032D01*
X110068695Y-90185145D01*
X110068694Y-90185149D01*
X110027865Y-90261534D01*
X109971103Y-90367729D01*
X109839765Y-90527765D01*
X109679729Y-90659103D01*
X109563030Y-90721479D01*
X109497148Y-90756694D01*
X109497145Y-90756695D01*
X109299031Y-90816793D01*
X109093000Y-90837085D01*
X108886968Y-90816793D01*
X108688854Y-90756695D01*
X108688851Y-90756694D01*
X108584934Y-90701149D01*
X108506271Y-90659103D01*
X108346235Y-90527765D01*
X108214897Y-90367729D01*
X108143874Y-90234853D01*
X108117306Y-90185148D01*
X108094314Y-90109354D01*
X108057207Y-89987031D01*
X108042000Y-89832629D01*
X108042000Y-88729370D01*
X108047983Y-88668624D01*
X108057207Y-88574970D01*
X108117305Y-88376853D01*
X108211222Y-88201149D01*
X108214898Y-88194271D01*
X108346236Y-88034235D01*
X108506272Y-87902897D01*
X108592026Y-87857061D01*
X108688852Y-87805306D01*
X108716233Y-87797000D01*
X108886969Y-87745207D01*
X109093000Y-87724915D01*
X109299032Y-87745207D01*
G37*
G36*
X111799032Y-87745207D02*
G01*
X111969768Y-87797000D01*
X111997149Y-87805306D01*
X112093975Y-87857061D01*
X112179729Y-87902897D01*
X112339765Y-88034235D01*
X112471103Y-88194271D01*
X112474779Y-88201149D01*
X112568694Y-88376851D01*
X112568695Y-88376854D01*
X112628793Y-88574968D01*
X112644000Y-88729370D01*
X112644000Y-89832630D01*
X112628793Y-89987032D01*
X112568695Y-90185145D01*
X112568694Y-90185149D01*
X112527865Y-90261534D01*
X112471103Y-90367729D01*
X112339765Y-90527765D01*
X112179729Y-90659103D01*
X112063030Y-90721479D01*
X111997148Y-90756694D01*
X111997145Y-90756695D01*
X111799031Y-90816793D01*
X111593000Y-90837085D01*
X111386968Y-90816793D01*
X111188854Y-90756695D01*
X111188851Y-90756694D01*
X111084934Y-90701149D01*
X111006271Y-90659103D01*
X110846235Y-90527765D01*
X110714897Y-90367729D01*
X110643874Y-90234853D01*
X110617306Y-90185148D01*
X110594314Y-90109354D01*
X110557207Y-89987031D01*
X110542000Y-89832629D01*
X110542000Y-88729370D01*
X110547983Y-88668624D01*
X110557207Y-88574970D01*
X110617305Y-88376853D01*
X110711222Y-88201149D01*
X110714898Y-88194271D01*
X110846236Y-88034235D01*
X111006272Y-87902897D01*
X111092026Y-87857061D01*
X111188852Y-87805306D01*
X111216233Y-87797000D01*
X111386969Y-87745207D01*
X111593000Y-87724915D01*
X111799032Y-87745207D01*
G37*
G36*
X47992512Y-88638927D02*
G01*
X48141812Y-88668624D01*
X48305784Y-88736544D01*
X48453354Y-88835147D01*
X48578853Y-88960646D01*
X48677456Y-89108216D01*
X48745376Y-89272188D01*
X48774557Y-89418897D01*
X48779949Y-89446000D01*
X48780000Y-89446259D01*
X48780000Y-89623741D01*
X48745376Y-89797812D01*
X48677456Y-89961784D01*
X48578853Y-90109354D01*
X48453354Y-90234853D01*
X48305784Y-90333456D01*
X48141812Y-90401376D01*
X47992512Y-90431073D01*
X47967742Y-90436000D01*
X47790258Y-90436000D01*
X47765488Y-90431073D01*
X47616188Y-90401376D01*
X47452216Y-90333456D01*
X47304646Y-90234853D01*
X47179147Y-90109354D01*
X47080544Y-89961784D01*
X47012624Y-89797812D01*
X46978000Y-89623741D01*
X46978000Y-89446259D01*
X46978052Y-89446000D01*
X46983443Y-89418897D01*
X47012624Y-89272188D01*
X47080544Y-89108216D01*
X47179147Y-88960646D01*
X47304646Y-88835147D01*
X47452216Y-88736544D01*
X47616188Y-88668624D01*
X47765488Y-88638927D01*
X47790258Y-88634000D01*
X47967742Y-88634000D01*
X47992512Y-88638927D01*
G37*
G36*
X135342097Y-86751069D02*
G01*
X135445032Y-86761207D01*
X135643146Y-86821305D01*
X135643149Y-86821306D01*
X135666190Y-86833622D01*
X135825729Y-86918897D01*
X135985765Y-87050235D01*
X136117103Y-87210271D01*
X136142513Y-87257811D01*
X136214694Y-87392851D01*
X136214695Y-87392854D01*
X136274793Y-87590968D01*
X136295085Y-87797000D01*
X136274793Y-88003032D01*
X136216780Y-88194272D01*
X136214694Y-88201149D01*
X136162939Y-88297975D01*
X136117103Y-88383729D01*
X135985765Y-88543765D01*
X135825729Y-88675103D01*
X135739975Y-88720939D01*
X135643149Y-88772694D01*
X135643146Y-88772695D01*
X135445032Y-88832793D01*
X135342097Y-88842931D01*
X135290631Y-88848000D01*
X133187369Y-88848000D01*
X133135903Y-88842931D01*
X133032968Y-88832793D01*
X132834854Y-88772695D01*
X132834851Y-88772694D01*
X132738025Y-88720939D01*
X132652271Y-88675103D01*
X132492235Y-88543765D01*
X132360897Y-88383729D01*
X132315061Y-88297975D01*
X132263306Y-88201149D01*
X132261220Y-88194272D01*
X132203207Y-88003032D01*
X132182915Y-87797000D01*
X132203207Y-87590968D01*
X132263305Y-87392854D01*
X132263306Y-87392851D01*
X132335487Y-87257811D01*
X132360897Y-87210271D01*
X132492235Y-87050235D01*
X132652271Y-86918897D01*
X132811810Y-86833622D01*
X132834851Y-86821306D01*
X132834854Y-86821305D01*
X133032968Y-86761207D01*
X133135903Y-86751069D01*
X133187369Y-86746000D01*
X135290631Y-86746000D01*
X135342097Y-86751069D01*
G37*
G36*
X47992512Y-86098927D02*
G01*
X48141812Y-86128624D01*
X48305784Y-86196544D01*
X48453354Y-86295147D01*
X48578853Y-86420646D01*
X48677456Y-86568216D01*
X48745376Y-86732188D01*
X48780000Y-86906259D01*
X48780000Y-87083741D01*
X48745376Y-87257812D01*
X48677456Y-87421784D01*
X48578853Y-87569354D01*
X48453354Y-87694853D01*
X48305784Y-87793456D01*
X48141812Y-87861376D01*
X47992512Y-87891073D01*
X47967742Y-87896000D01*
X47790258Y-87896000D01*
X47765488Y-87891073D01*
X47616188Y-87861376D01*
X47452216Y-87793456D01*
X47304646Y-87694853D01*
X47179147Y-87569354D01*
X47080544Y-87421784D01*
X47012624Y-87257812D01*
X46978000Y-87083741D01*
X46978000Y-86906259D01*
X47012624Y-86732188D01*
X47080544Y-86568216D01*
X47179147Y-86420646D01*
X47304646Y-86295147D01*
X47452216Y-86196544D01*
X47616188Y-86128624D01*
X47765488Y-86098927D01*
X47790258Y-86094000D01*
X47967742Y-86094000D01*
X47992512Y-86098927D01*
G37*
G36*
X103303564Y-85476389D02*
G01*
X103494833Y-85555615D01*
X103494835Y-85555616D01*
X103666973Y-85670635D01*
X103813365Y-85817027D01*
X103928385Y-85989167D01*
X104007611Y-86180436D01*
X104048000Y-86383484D01*
X104048000Y-86590516D01*
X104007611Y-86793564D01*
X103951957Y-86927925D01*
X103928384Y-86984835D01*
X103813365Y-87156973D01*
X103666973Y-87303365D01*
X103494835Y-87418384D01*
X103494834Y-87418385D01*
X103494833Y-87418385D01*
X103303564Y-87497611D01*
X103100516Y-87538000D01*
X102893484Y-87538000D01*
X102690436Y-87497611D01*
X102499167Y-87418385D01*
X102499166Y-87418385D01*
X102499165Y-87418384D01*
X102327027Y-87303365D01*
X102180635Y-87156973D01*
X102065616Y-86984835D01*
X102042043Y-86927925D01*
X101986389Y-86793564D01*
X101946000Y-86590516D01*
X101946000Y-86383484D01*
X101986389Y-86180436D01*
X102065615Y-85989167D01*
X102180635Y-85817027D01*
X102327027Y-85670635D01*
X102499165Y-85555616D01*
X102499167Y-85555615D01*
X102690436Y-85476389D01*
X102893484Y-85436000D01*
X103100516Y-85436000D01*
X103303564Y-85476389D01*
G37*
G36*
X99493564Y-85476389D02*
G01*
X99684833Y-85555615D01*
X99684835Y-85555616D01*
X99856973Y-85670635D01*
X100003365Y-85817027D01*
X100118385Y-85989167D01*
X100197611Y-86180436D01*
X100238000Y-86383484D01*
X100238000Y-86590516D01*
X100197611Y-86793564D01*
X100141957Y-86927925D01*
X100118384Y-86984835D01*
X100003365Y-87156973D01*
X99856973Y-87303365D01*
X99684835Y-87418384D01*
X99684834Y-87418385D01*
X99684833Y-87418385D01*
X99493564Y-87497611D01*
X99290516Y-87538000D01*
X99083484Y-87538000D01*
X98880436Y-87497611D01*
X98689167Y-87418385D01*
X98689166Y-87418385D01*
X98689165Y-87418384D01*
X98517027Y-87303365D01*
X98370635Y-87156973D01*
X98255616Y-86984835D01*
X98232043Y-86927925D01*
X98176389Y-86793564D01*
X98136000Y-86590516D01*
X98136000Y-86383484D01*
X98176389Y-86180436D01*
X98255615Y-85989167D01*
X98370635Y-85817027D01*
X98517027Y-85670635D01*
X98689165Y-85555616D01*
X98689167Y-85555615D01*
X98880436Y-85476389D01*
X99083484Y-85436000D01*
X99290516Y-85436000D01*
X99493564Y-85476389D01*
G37*
G36*
X95683564Y-85476389D02*
G01*
X95874833Y-85555615D01*
X95874835Y-85555616D01*
X96046973Y-85670635D01*
X96193365Y-85817027D01*
X96308385Y-85989167D01*
X96387611Y-86180436D01*
X96428000Y-86383484D01*
X96428000Y-86590516D01*
X96387611Y-86793564D01*
X96331957Y-86927925D01*
X96308384Y-86984835D01*
X96193365Y-87156973D01*
X96046973Y-87303365D01*
X95874835Y-87418384D01*
X95874834Y-87418385D01*
X95874833Y-87418385D01*
X95683564Y-87497611D01*
X95480516Y-87538000D01*
X95273484Y-87538000D01*
X95070436Y-87497611D01*
X94879167Y-87418385D01*
X94879166Y-87418385D01*
X94879165Y-87418384D01*
X94707027Y-87303365D01*
X94560635Y-87156973D01*
X94445616Y-86984835D01*
X94422043Y-86927925D01*
X94366389Y-86793564D01*
X94326000Y-86590516D01*
X94326000Y-86383484D01*
X94366389Y-86180436D01*
X94445615Y-85989167D01*
X94560635Y-85817027D01*
X94707027Y-85670635D01*
X94879165Y-85555616D01*
X94879167Y-85555615D01*
X95070436Y-85476389D01*
X95273484Y-85436000D01*
X95480516Y-85436000D01*
X95683564Y-85476389D01*
G37*
G36*
X90661903Y-84522075D02*
G01*
X90714210Y-84543741D01*
X90889571Y-84616378D01*
X91094466Y-84753285D01*
X91268715Y-84927534D01*
X91336749Y-85029354D01*
X91405623Y-85132431D01*
X91499925Y-85360097D01*
X91548000Y-85601786D01*
X91548000Y-85848214D01*
X91499925Y-86089903D01*
X91462426Y-86180435D01*
X91405622Y-86317571D01*
X91268715Y-86522466D01*
X91094466Y-86696715D01*
X90889571Y-86833622D01*
X90889570Y-86833623D01*
X90889569Y-86833623D01*
X90661903Y-86927925D01*
X90420214Y-86976000D01*
X90173786Y-86976000D01*
X89932097Y-86927925D01*
X89704431Y-86833623D01*
X89704430Y-86833623D01*
X89704429Y-86833622D01*
X89499534Y-86696715D01*
X89325285Y-86522466D01*
X89188378Y-86317571D01*
X89131575Y-86180435D01*
X89094075Y-86089903D01*
X89046000Y-85848214D01*
X89046000Y-85601786D01*
X89094075Y-85360097D01*
X89188377Y-85132431D01*
X89257251Y-85029354D01*
X89325285Y-84927534D01*
X89499534Y-84753285D01*
X89704429Y-84616378D01*
X89879791Y-84543741D01*
X89932097Y-84522075D01*
X90173786Y-84474000D01*
X90420214Y-84474000D01*
X90661903Y-84522075D01*
G37*
G36*
X70341903Y-84522075D02*
G01*
X70394210Y-84543741D01*
X70569571Y-84616378D01*
X70774466Y-84753285D01*
X70948715Y-84927534D01*
X71016749Y-85029354D01*
X71085623Y-85132431D01*
X71179925Y-85360097D01*
X71228000Y-85601786D01*
X71228000Y-85848214D01*
X71179925Y-86089903D01*
X71142426Y-86180435D01*
X71085622Y-86317571D01*
X70948715Y-86522466D01*
X70774466Y-86696715D01*
X70569571Y-86833622D01*
X70569570Y-86833623D01*
X70569569Y-86833623D01*
X70341903Y-86927925D01*
X70100214Y-86976000D01*
X69853786Y-86976000D01*
X69612097Y-86927925D01*
X69384431Y-86833623D01*
X69384430Y-86833623D01*
X69384429Y-86833622D01*
X69179534Y-86696715D01*
X69005285Y-86522466D01*
X68868378Y-86317571D01*
X68811575Y-86180435D01*
X68774075Y-86089903D01*
X68726000Y-85848214D01*
X68726000Y-85601786D01*
X68774075Y-85360097D01*
X68868377Y-85132431D01*
X68937251Y-85029354D01*
X69005285Y-84927534D01*
X69179534Y-84753285D01*
X69384429Y-84616378D01*
X69559791Y-84543741D01*
X69612097Y-84522075D01*
X69853786Y-84474000D01*
X70100214Y-84474000D01*
X70341903Y-84522075D01*
G37*
G36*
X47992512Y-83558927D02*
G01*
X48141812Y-83588624D01*
X48305784Y-83656544D01*
X48453354Y-83755147D01*
X48578853Y-83880646D01*
X48677456Y-84028216D01*
X48745376Y-84192188D01*
X48780000Y-84366259D01*
X48780000Y-84543741D01*
X48745376Y-84717812D01*
X48677456Y-84881784D01*
X48578853Y-85029354D01*
X48453354Y-85154853D01*
X48305784Y-85253456D01*
X48141812Y-85321376D01*
X47992512Y-85351073D01*
X47967742Y-85356000D01*
X47790258Y-85356000D01*
X47765488Y-85351073D01*
X47616188Y-85321376D01*
X47452216Y-85253456D01*
X47304646Y-85154853D01*
X47179147Y-85029354D01*
X47080544Y-84881784D01*
X47012624Y-84717812D01*
X46978000Y-84543741D01*
X46978000Y-84366259D01*
X47012624Y-84192188D01*
X47080544Y-84028216D01*
X47179147Y-83880646D01*
X47304646Y-83755147D01*
X47452216Y-83656544D01*
X47616188Y-83588624D01*
X47765488Y-83558927D01*
X47790258Y-83554000D01*
X47967742Y-83554000D01*
X47992512Y-83558927D01*
G37*
G36*
X118834000Y-84798000D02*
G01*
X117132000Y-84798000D01*
X117132000Y-83096000D01*
X118834000Y-83096000D01*
X118834000Y-84798000D01*
G37*
G36*
X125851228Y-83128703D02*
G01*
X126006100Y-83192853D01*
X126145481Y-83285985D01*
X126264015Y-83404519D01*
X126357147Y-83543900D01*
X126421297Y-83698772D01*
X126454000Y-83863184D01*
X126454000Y-84030816D01*
X126421297Y-84195228D01*
X126357147Y-84350100D01*
X126264015Y-84489481D01*
X126145481Y-84608015D01*
X126006100Y-84701147D01*
X125851228Y-84765297D01*
X125686816Y-84798000D01*
X125519184Y-84798000D01*
X125354772Y-84765297D01*
X125199900Y-84701147D01*
X125060519Y-84608015D01*
X124941985Y-84489481D01*
X124848853Y-84350100D01*
X124784703Y-84195228D01*
X124752000Y-84030816D01*
X124752000Y-83863184D01*
X124784703Y-83698772D01*
X124848853Y-83543900D01*
X124941985Y-83404519D01*
X125060519Y-83285985D01*
X125199900Y-83192853D01*
X125354772Y-83128703D01*
X125519184Y-83096000D01*
X125686816Y-83096000D01*
X125851228Y-83128703D01*
G37*
G36*
X48780000Y-82816000D02*
G01*
X46978000Y-82816000D01*
X46978000Y-81014000D01*
X48780000Y-81014000D01*
X48780000Y-82816000D01*
G37*
G36*
X95683564Y-80396389D02*
G01*
X95874833Y-80475615D01*
X95874835Y-80475616D01*
X96046973Y-80590635D01*
X96193365Y-80737027D01*
X96308385Y-80909167D01*
X96387611Y-81100436D01*
X96428000Y-81303484D01*
X96428000Y-81510516D01*
X96387611Y-81713564D01*
X96308385Y-81904833D01*
X96308384Y-81904835D01*
X96193365Y-82076973D01*
X96046973Y-82223365D01*
X95874835Y-82338384D01*
X95874834Y-82338385D01*
X95874833Y-82338385D01*
X95683564Y-82417611D01*
X95480516Y-82458000D01*
X95273484Y-82458000D01*
X95070436Y-82417611D01*
X94879167Y-82338385D01*
X94879166Y-82338385D01*
X94879165Y-82338384D01*
X94707027Y-82223365D01*
X94560635Y-82076973D01*
X94445616Y-81904835D01*
X94445615Y-81904833D01*
X94366389Y-81713564D01*
X94326000Y-81510516D01*
X94326000Y-81303484D01*
X94366389Y-81100436D01*
X94445615Y-80909167D01*
X94560635Y-80737027D01*
X94707027Y-80590635D01*
X94879165Y-80475616D01*
X94879167Y-80475615D01*
X95070436Y-80396389D01*
X95273484Y-80356000D01*
X95480516Y-80356000D01*
X95683564Y-80396389D01*
G37*
G36*
X99493564Y-80396389D02*
G01*
X99684833Y-80475615D01*
X99684835Y-80475616D01*
X99856973Y-80590635D01*
X100003365Y-80737027D01*
X100118385Y-80909167D01*
X100197611Y-81100436D01*
X100238000Y-81303484D01*
X100238000Y-81510516D01*
X100197611Y-81713564D01*
X100118385Y-81904833D01*
X100118384Y-81904835D01*
X100003365Y-82076973D01*
X99856973Y-82223365D01*
X99684835Y-82338384D01*
X99684834Y-82338385D01*
X99684833Y-82338385D01*
X99493564Y-82417611D01*
X99290516Y-82458000D01*
X99083484Y-82458000D01*
X98880436Y-82417611D01*
X98689167Y-82338385D01*
X98689166Y-82338385D01*
X98689165Y-82338384D01*
X98517027Y-82223365D01*
X98370635Y-82076973D01*
X98255616Y-81904835D01*
X98255615Y-81904833D01*
X98176389Y-81713564D01*
X98136000Y-81510516D01*
X98136000Y-81303484D01*
X98176389Y-81100436D01*
X98255615Y-80909167D01*
X98370635Y-80737027D01*
X98517027Y-80590635D01*
X98689165Y-80475616D01*
X98689167Y-80475615D01*
X98880436Y-80396389D01*
X99083484Y-80356000D01*
X99290516Y-80356000D01*
X99493564Y-80396389D01*
G37*
G36*
X103303564Y-80396389D02*
G01*
X103494833Y-80475615D01*
X103494835Y-80475616D01*
X103666973Y-80590635D01*
X103813365Y-80737027D01*
X103928385Y-80909167D01*
X104007611Y-81100436D01*
X104048000Y-81303484D01*
X104048000Y-81510516D01*
X104007611Y-81713564D01*
X103928385Y-81904833D01*
X103928384Y-81904835D01*
X103813365Y-82076973D01*
X103666973Y-82223365D01*
X103494835Y-82338384D01*
X103494834Y-82338385D01*
X103494833Y-82338385D01*
X103303564Y-82417611D01*
X103100516Y-82458000D01*
X102893484Y-82458000D01*
X102690436Y-82417611D01*
X102499167Y-82338385D01*
X102499166Y-82338385D01*
X102499165Y-82338384D01*
X102327027Y-82223365D01*
X102180635Y-82076973D01*
X102065616Y-81904835D01*
X102065615Y-81904833D01*
X101986389Y-81713564D01*
X101946000Y-81510516D01*
X101946000Y-81303484D01*
X101986389Y-81100436D01*
X102065615Y-80909167D01*
X102180635Y-80737027D01*
X102327027Y-80590635D01*
X102499165Y-80475616D01*
X102499167Y-80475615D01*
X102690436Y-80396389D01*
X102893484Y-80356000D01*
X103100516Y-80356000D01*
X103303564Y-80396389D01*
G37*
G36*
X140816087Y-79003996D02*
G01*
X141052853Y-79102068D01*
X141052855Y-79102069D01*
X141265939Y-79244447D01*
X141447153Y-79425661D01*
X141589532Y-79638747D01*
X141687604Y-79875513D01*
X141737600Y-80126861D01*
X141737600Y-80383139D01*
X141687604Y-80634487D01*
X141645130Y-80737027D01*
X141589531Y-80871255D01*
X141447153Y-81084339D01*
X141265939Y-81265553D01*
X141052855Y-81407931D01*
X141052854Y-81407932D01*
X141052853Y-81407932D01*
X140816087Y-81506004D01*
X140564739Y-81556000D01*
X140308461Y-81556000D01*
X140057113Y-81506004D01*
X139820347Y-81407932D01*
X139820346Y-81407932D01*
X139820345Y-81407931D01*
X139607261Y-81265553D01*
X139426047Y-81084339D01*
X139283669Y-80871255D01*
X139228070Y-80737027D01*
X139185596Y-80634487D01*
X139135600Y-80383139D01*
X139135600Y-80126861D01*
X139185596Y-79875513D01*
X139283668Y-79638747D01*
X139426047Y-79425661D01*
X139607261Y-79244447D01*
X139820345Y-79102069D01*
X139820347Y-79102068D01*
X140057113Y-79003996D01*
X140308461Y-78954000D01*
X140564739Y-78954000D01*
X140816087Y-79003996D01*
G37*
G36*
X120866000Y-78448000D02*
G01*
X119164000Y-78448000D01*
X119164000Y-76746000D01*
X120866000Y-76746000D01*
X120866000Y-78448000D01*
G37*
G36*
X130772000Y-78448000D02*
G01*
X129070000Y-78448000D01*
X129070000Y-76746000D01*
X130772000Y-76746000D01*
X130772000Y-78448000D01*
G37*
G36*
X90611564Y-76332389D02*
G01*
X90793939Y-76407931D01*
X90802835Y-76411616D01*
X90974973Y-76526635D01*
X91121365Y-76673027D01*
X91236385Y-76845167D01*
X91315611Y-77036436D01*
X91356000Y-77239484D01*
X91356000Y-77446516D01*
X91315611Y-77649564D01*
X91236385Y-77840833D01*
X91236384Y-77840835D01*
X91121365Y-78012973D01*
X90974973Y-78159365D01*
X90802835Y-78274384D01*
X90802834Y-78274385D01*
X90802833Y-78274385D01*
X90611564Y-78353611D01*
X90408516Y-78394000D01*
X90201484Y-78394000D01*
X89998436Y-78353611D01*
X89807167Y-78274385D01*
X89807166Y-78274385D01*
X89807165Y-78274384D01*
X89635027Y-78159365D01*
X89488635Y-78012973D01*
X89373616Y-77840835D01*
X89373615Y-77840833D01*
X89294389Y-77649564D01*
X89254000Y-77446516D01*
X89254000Y-77239484D01*
X89294389Y-77036436D01*
X89373615Y-76845167D01*
X89488635Y-76673027D01*
X89635027Y-76526635D01*
X89807165Y-76411616D01*
X89816061Y-76407931D01*
X89998436Y-76332389D01*
X90201484Y-76292000D01*
X90408516Y-76292000D01*
X90611564Y-76332389D01*
G37*
G36*
X88071564Y-76332389D02*
G01*
X88253939Y-76407931D01*
X88262835Y-76411616D01*
X88434973Y-76526635D01*
X88581365Y-76673027D01*
X88696385Y-76845167D01*
X88775611Y-77036436D01*
X88816000Y-77239484D01*
X88816000Y-77446516D01*
X88775611Y-77649564D01*
X88696385Y-77840833D01*
X88696384Y-77840835D01*
X88581365Y-78012973D01*
X88434973Y-78159365D01*
X88262835Y-78274384D01*
X88262834Y-78274385D01*
X88262833Y-78274385D01*
X88071564Y-78353611D01*
X87868516Y-78394000D01*
X87661484Y-78394000D01*
X87458436Y-78353611D01*
X87267167Y-78274385D01*
X87267166Y-78274385D01*
X87267165Y-78274384D01*
X87095027Y-78159365D01*
X86948635Y-78012973D01*
X86833616Y-77840835D01*
X86833615Y-77840833D01*
X86754389Y-77649564D01*
X86714000Y-77446516D01*
X86714000Y-77239484D01*
X86754389Y-77036436D01*
X86833615Y-76845167D01*
X86948635Y-76673027D01*
X87095027Y-76526635D01*
X87267165Y-76411616D01*
X87276061Y-76407931D01*
X87458436Y-76332389D01*
X87661484Y-76292000D01*
X87868516Y-76292000D01*
X88071564Y-76332389D01*
G37*
G36*
X85531564Y-76332389D02*
G01*
X85713939Y-76407931D01*
X85722835Y-76411616D01*
X85894973Y-76526635D01*
X86041365Y-76673027D01*
X86156385Y-76845167D01*
X86235611Y-77036436D01*
X86276000Y-77239484D01*
X86276000Y-77446516D01*
X86235611Y-77649564D01*
X86156385Y-77840833D01*
X86156384Y-77840835D01*
X86041365Y-78012973D01*
X85894973Y-78159365D01*
X85722835Y-78274384D01*
X85722834Y-78274385D01*
X85722833Y-78274385D01*
X85531564Y-78353611D01*
X85328516Y-78394000D01*
X85121484Y-78394000D01*
X84918436Y-78353611D01*
X84727167Y-78274385D01*
X84727166Y-78274385D01*
X84727165Y-78274384D01*
X84555027Y-78159365D01*
X84408635Y-78012973D01*
X84293616Y-77840835D01*
X84293615Y-77840833D01*
X84214389Y-77649564D01*
X84174000Y-77446516D01*
X84174000Y-77239484D01*
X84214389Y-77036436D01*
X84293615Y-76845167D01*
X84408635Y-76673027D01*
X84555027Y-76526635D01*
X84727165Y-76411616D01*
X84736061Y-76407931D01*
X84918436Y-76332389D01*
X85121484Y-76292000D01*
X85328516Y-76292000D01*
X85531564Y-76332389D01*
G37*
G36*
X82991564Y-76332389D02*
G01*
X83173939Y-76407931D01*
X83182835Y-76411616D01*
X83354973Y-76526635D01*
X83501365Y-76673027D01*
X83616385Y-76845167D01*
X83695611Y-77036436D01*
X83736000Y-77239484D01*
X83736000Y-77446516D01*
X83695611Y-77649564D01*
X83616385Y-77840833D01*
X83616384Y-77840835D01*
X83501365Y-78012973D01*
X83354973Y-78159365D01*
X83182835Y-78274384D01*
X83182834Y-78274385D01*
X83182833Y-78274385D01*
X82991564Y-78353611D01*
X82788516Y-78394000D01*
X82581484Y-78394000D01*
X82378436Y-78353611D01*
X82187167Y-78274385D01*
X82187166Y-78274385D01*
X82187165Y-78274384D01*
X82015027Y-78159365D01*
X81868635Y-78012973D01*
X81753616Y-77840835D01*
X81753615Y-77840833D01*
X81674389Y-77649564D01*
X81634000Y-77446516D01*
X81634000Y-77239484D01*
X81674389Y-77036436D01*
X81753615Y-76845167D01*
X81868635Y-76673027D01*
X82015027Y-76526635D01*
X82187165Y-76411616D01*
X82196061Y-76407931D01*
X82378436Y-76332389D01*
X82581484Y-76292000D01*
X82788516Y-76292000D01*
X82991564Y-76332389D01*
G37*
G36*
X80451564Y-76332389D02*
G01*
X80633939Y-76407931D01*
X80642835Y-76411616D01*
X80814973Y-76526635D01*
X80961365Y-76673027D01*
X81076385Y-76845167D01*
X81155611Y-77036436D01*
X81196000Y-77239484D01*
X81196000Y-77446516D01*
X81155611Y-77649564D01*
X81076385Y-77840833D01*
X81076384Y-77840835D01*
X80961365Y-78012973D01*
X80814973Y-78159365D01*
X80642835Y-78274384D01*
X80642834Y-78274385D01*
X80642833Y-78274385D01*
X80451564Y-78353611D01*
X80248516Y-78394000D01*
X80041484Y-78394000D01*
X79838436Y-78353611D01*
X79647167Y-78274385D01*
X79647166Y-78274385D01*
X79647165Y-78274384D01*
X79475027Y-78159365D01*
X79328635Y-78012973D01*
X79213616Y-77840835D01*
X79213615Y-77840833D01*
X79134389Y-77649564D01*
X79094000Y-77446516D01*
X79094000Y-77239484D01*
X79134389Y-77036436D01*
X79213615Y-76845167D01*
X79328635Y-76673027D01*
X79475027Y-76526635D01*
X79647165Y-76411616D01*
X79656061Y-76407931D01*
X79838436Y-76332389D01*
X80041484Y-76292000D01*
X80248516Y-76292000D01*
X80451564Y-76332389D01*
G37*
G36*
X77911564Y-76332389D02*
G01*
X78093939Y-76407931D01*
X78102835Y-76411616D01*
X78274973Y-76526635D01*
X78421365Y-76673027D01*
X78536385Y-76845167D01*
X78615611Y-77036436D01*
X78656000Y-77239484D01*
X78656000Y-77446516D01*
X78615611Y-77649564D01*
X78536385Y-77840833D01*
X78536384Y-77840835D01*
X78421365Y-78012973D01*
X78274973Y-78159365D01*
X78102835Y-78274384D01*
X78102834Y-78274385D01*
X78102833Y-78274385D01*
X77911564Y-78353611D01*
X77708516Y-78394000D01*
X77501484Y-78394000D01*
X77298436Y-78353611D01*
X77107167Y-78274385D01*
X77107166Y-78274385D01*
X77107165Y-78274384D01*
X76935027Y-78159365D01*
X76788635Y-78012973D01*
X76673616Y-77840835D01*
X76673615Y-77840833D01*
X76594389Y-77649564D01*
X76554000Y-77446516D01*
X76554000Y-77239484D01*
X76594389Y-77036436D01*
X76673615Y-76845167D01*
X76788635Y-76673027D01*
X76935027Y-76526635D01*
X77107165Y-76411616D01*
X77116061Y-76407931D01*
X77298436Y-76332389D01*
X77501484Y-76292000D01*
X77708516Y-76292000D01*
X77911564Y-76332389D01*
G37*
G36*
X75371564Y-76332389D02*
G01*
X75553939Y-76407931D01*
X75562835Y-76411616D01*
X75734973Y-76526635D01*
X75881365Y-76673027D01*
X75996385Y-76845167D01*
X76075611Y-77036436D01*
X76116000Y-77239484D01*
X76116000Y-77446516D01*
X76075611Y-77649564D01*
X75996385Y-77840833D01*
X75996384Y-77840835D01*
X75881365Y-78012973D01*
X75734973Y-78159365D01*
X75562835Y-78274384D01*
X75562834Y-78274385D01*
X75562833Y-78274385D01*
X75371564Y-78353611D01*
X75168516Y-78394000D01*
X74961484Y-78394000D01*
X74758436Y-78353611D01*
X74567167Y-78274385D01*
X74567166Y-78274385D01*
X74567165Y-78274384D01*
X74395027Y-78159365D01*
X74248635Y-78012973D01*
X74133616Y-77840835D01*
X74133615Y-77840833D01*
X74054389Y-77649564D01*
X74014000Y-77446516D01*
X74014000Y-77239484D01*
X74054389Y-77036436D01*
X74133615Y-76845167D01*
X74248635Y-76673027D01*
X74395027Y-76526635D01*
X74567165Y-76411616D01*
X74576061Y-76407931D01*
X74758436Y-76332389D01*
X74961484Y-76292000D01*
X75168516Y-76292000D01*
X75371564Y-76332389D01*
G37*
G36*
X70291564Y-76332389D02*
G01*
X70473939Y-76407931D01*
X70482835Y-76411616D01*
X70654973Y-76526635D01*
X70801365Y-76673027D01*
X70916385Y-76845167D01*
X70995611Y-77036436D01*
X71036000Y-77239484D01*
X71036000Y-77446516D01*
X70995611Y-77649564D01*
X70916385Y-77840833D01*
X70916384Y-77840835D01*
X70801365Y-78012973D01*
X70654973Y-78159365D01*
X70482835Y-78274384D01*
X70482834Y-78274385D01*
X70482833Y-78274385D01*
X70291564Y-78353611D01*
X70088516Y-78394000D01*
X69881484Y-78394000D01*
X69678436Y-78353611D01*
X69487167Y-78274385D01*
X69487166Y-78274385D01*
X69487165Y-78274384D01*
X69315027Y-78159365D01*
X69168635Y-78012973D01*
X69053616Y-77840835D01*
X69053615Y-77840833D01*
X68974389Y-77649564D01*
X68934000Y-77446516D01*
X68934000Y-77239484D01*
X68974389Y-77036436D01*
X69053615Y-76845167D01*
X69168635Y-76673027D01*
X69315027Y-76526635D01*
X69487165Y-76411616D01*
X69496061Y-76407931D01*
X69678436Y-76332389D01*
X69881484Y-76292000D01*
X70088516Y-76292000D01*
X70291564Y-76332389D01*
G37*
G36*
X67751564Y-76332389D02*
G01*
X67933939Y-76407931D01*
X67942835Y-76411616D01*
X68114973Y-76526635D01*
X68261365Y-76673027D01*
X68376385Y-76845167D01*
X68455611Y-77036436D01*
X68496000Y-77239484D01*
X68496000Y-77446516D01*
X68455611Y-77649564D01*
X68376385Y-77840833D01*
X68376384Y-77840835D01*
X68261365Y-78012973D01*
X68114973Y-78159365D01*
X67942835Y-78274384D01*
X67942834Y-78274385D01*
X67942833Y-78274385D01*
X67751564Y-78353611D01*
X67548516Y-78394000D01*
X67341484Y-78394000D01*
X67138436Y-78353611D01*
X66947167Y-78274385D01*
X66947166Y-78274385D01*
X66947165Y-78274384D01*
X66775027Y-78159365D01*
X66628635Y-78012973D01*
X66513616Y-77840835D01*
X66513615Y-77840833D01*
X66434389Y-77649564D01*
X66394000Y-77446516D01*
X66394000Y-77239484D01*
X66434389Y-77036436D01*
X66513615Y-76845167D01*
X66628635Y-76673027D01*
X66775027Y-76526635D01*
X66947165Y-76411616D01*
X66956061Y-76407931D01*
X67138436Y-76332389D01*
X67341484Y-76292000D01*
X67548516Y-76292000D01*
X67751564Y-76332389D01*
G37*
G36*
X65211564Y-76332389D02*
G01*
X65393939Y-76407931D01*
X65402835Y-76411616D01*
X65574973Y-76526635D01*
X65721365Y-76673027D01*
X65836385Y-76845167D01*
X65915611Y-77036436D01*
X65956000Y-77239484D01*
X65956000Y-77446516D01*
X65915611Y-77649564D01*
X65836385Y-77840833D01*
X65836384Y-77840835D01*
X65721365Y-78012973D01*
X65574973Y-78159365D01*
X65402835Y-78274384D01*
X65402834Y-78274385D01*
X65402833Y-78274385D01*
X65211564Y-78353611D01*
X65008516Y-78394000D01*
X64801484Y-78394000D01*
X64598436Y-78353611D01*
X64407167Y-78274385D01*
X64407166Y-78274385D01*
X64407165Y-78274384D01*
X64235027Y-78159365D01*
X64088635Y-78012973D01*
X63973616Y-77840835D01*
X63973615Y-77840833D01*
X63894389Y-77649564D01*
X63854000Y-77446516D01*
X63854000Y-77239484D01*
X63894389Y-77036436D01*
X63973615Y-76845167D01*
X64088635Y-76673027D01*
X64235027Y-76526635D01*
X64407165Y-76411616D01*
X64416061Y-76407931D01*
X64598436Y-76332389D01*
X64801484Y-76292000D01*
X65008516Y-76292000D01*
X65211564Y-76332389D01*
G37*
G36*
X62671564Y-76332389D02*
G01*
X62853939Y-76407931D01*
X62862835Y-76411616D01*
X63034973Y-76526635D01*
X63181365Y-76673027D01*
X63296385Y-76845167D01*
X63375611Y-77036436D01*
X63416000Y-77239484D01*
X63416000Y-77446516D01*
X63375611Y-77649564D01*
X63296385Y-77840833D01*
X63296384Y-77840835D01*
X63181365Y-78012973D01*
X63034973Y-78159365D01*
X62862835Y-78274384D01*
X62862834Y-78274385D01*
X62862833Y-78274385D01*
X62671564Y-78353611D01*
X62468516Y-78394000D01*
X62261484Y-78394000D01*
X62058436Y-78353611D01*
X61867167Y-78274385D01*
X61867166Y-78274385D01*
X61867165Y-78274384D01*
X61695027Y-78159365D01*
X61548635Y-78012973D01*
X61433616Y-77840835D01*
X61433615Y-77840833D01*
X61354389Y-77649564D01*
X61314000Y-77446516D01*
X61314000Y-77239484D01*
X61354389Y-77036436D01*
X61433615Y-76845167D01*
X61548635Y-76673027D01*
X61695027Y-76526635D01*
X61867165Y-76411616D01*
X61876061Y-76407931D01*
X62058436Y-76332389D01*
X62261484Y-76292000D01*
X62468516Y-76292000D01*
X62671564Y-76332389D01*
G37*
G36*
X60131564Y-76332389D02*
G01*
X60313939Y-76407931D01*
X60322835Y-76411616D01*
X60494973Y-76526635D01*
X60641365Y-76673027D01*
X60756385Y-76845167D01*
X60835611Y-77036436D01*
X60876000Y-77239484D01*
X60876000Y-77446516D01*
X60835611Y-77649564D01*
X60756385Y-77840833D01*
X60756384Y-77840835D01*
X60641365Y-78012973D01*
X60494973Y-78159365D01*
X60322835Y-78274384D01*
X60322834Y-78274385D01*
X60322833Y-78274385D01*
X60131564Y-78353611D01*
X59928516Y-78394000D01*
X59721484Y-78394000D01*
X59518436Y-78353611D01*
X59327167Y-78274385D01*
X59327166Y-78274385D01*
X59327165Y-78274384D01*
X59155027Y-78159365D01*
X59008635Y-78012973D01*
X58893616Y-77840835D01*
X58893615Y-77840833D01*
X58814389Y-77649564D01*
X58774000Y-77446516D01*
X58774000Y-77239484D01*
X58814389Y-77036436D01*
X58893615Y-76845167D01*
X59008635Y-76673027D01*
X59155027Y-76526635D01*
X59327165Y-76411616D01*
X59336061Y-76407931D01*
X59518436Y-76332389D01*
X59721484Y-76292000D01*
X59928516Y-76292000D01*
X60131564Y-76332389D01*
G37*
G36*
X57591564Y-76332389D02*
G01*
X57773939Y-76407931D01*
X57782835Y-76411616D01*
X57954973Y-76526635D01*
X58101365Y-76673027D01*
X58216385Y-76845167D01*
X58295611Y-77036436D01*
X58336000Y-77239484D01*
X58336000Y-77446516D01*
X58295611Y-77649564D01*
X58216385Y-77840833D01*
X58216384Y-77840835D01*
X58101365Y-78012973D01*
X57954973Y-78159365D01*
X57782835Y-78274384D01*
X57782834Y-78274385D01*
X57782833Y-78274385D01*
X57591564Y-78353611D01*
X57388516Y-78394000D01*
X57181484Y-78394000D01*
X56978436Y-78353611D01*
X56787167Y-78274385D01*
X56787166Y-78274385D01*
X56787165Y-78274384D01*
X56615027Y-78159365D01*
X56468635Y-78012973D01*
X56353616Y-77840835D01*
X56353615Y-77840833D01*
X56274389Y-77649564D01*
X56234000Y-77446516D01*
X56234000Y-77239484D01*
X56274389Y-77036436D01*
X56353615Y-76845167D01*
X56468635Y-76673027D01*
X56615027Y-76526635D01*
X56787165Y-76411616D01*
X56796061Y-76407931D01*
X56978436Y-76332389D01*
X57181484Y-76292000D01*
X57388516Y-76292000D01*
X57591564Y-76332389D01*
G37*
G36*
X55051564Y-76332389D02*
G01*
X55233939Y-76407931D01*
X55242835Y-76411616D01*
X55414973Y-76526635D01*
X55561365Y-76673027D01*
X55676385Y-76845167D01*
X55755611Y-77036436D01*
X55796000Y-77239484D01*
X55796000Y-77446516D01*
X55755611Y-77649564D01*
X55676385Y-77840833D01*
X55676384Y-77840835D01*
X55561365Y-78012973D01*
X55414973Y-78159365D01*
X55242835Y-78274384D01*
X55242834Y-78274385D01*
X55242833Y-78274385D01*
X55051564Y-78353611D01*
X54848516Y-78394000D01*
X54641484Y-78394000D01*
X54438436Y-78353611D01*
X54247167Y-78274385D01*
X54247166Y-78274385D01*
X54247165Y-78274384D01*
X54075027Y-78159365D01*
X53928635Y-78012973D01*
X53813616Y-77840835D01*
X53813615Y-77840833D01*
X53734389Y-77649564D01*
X53694000Y-77446516D01*
X53694000Y-77239484D01*
X53734389Y-77036436D01*
X53813615Y-76845167D01*
X53928635Y-76673027D01*
X54075027Y-76526635D01*
X54247165Y-76411616D01*
X54256061Y-76407931D01*
X54438436Y-76332389D01*
X54641484Y-76292000D01*
X54848516Y-76292000D01*
X55051564Y-76332389D01*
G37*
G36*
X72831564Y-76332389D02*
G01*
X73013939Y-76407931D01*
X73022835Y-76411616D01*
X73194973Y-76526635D01*
X73341365Y-76673027D01*
X73456385Y-76845167D01*
X73535611Y-77036436D01*
X73576000Y-77239484D01*
X73576000Y-77446516D01*
X73535611Y-77649564D01*
X73456385Y-77840833D01*
X73456384Y-77840835D01*
X73341365Y-78012973D01*
X73194973Y-78159365D01*
X73022835Y-78274384D01*
X73022834Y-78274385D01*
X73022833Y-78274385D01*
X72831564Y-78353611D01*
X72628516Y-78394000D01*
X72421484Y-78394000D01*
X72218436Y-78353611D01*
X72027167Y-78274385D01*
X72027166Y-78274385D01*
X72027165Y-78274384D01*
X71855027Y-78159365D01*
X71708635Y-78012973D01*
X71593616Y-77840835D01*
X71593615Y-77840833D01*
X71514389Y-77649564D01*
X71474000Y-77446516D01*
X71474000Y-77239484D01*
X71514389Y-77036436D01*
X71593615Y-76845167D01*
X71708635Y-76673027D01*
X71855027Y-76526635D01*
X72027165Y-76411616D01*
X72036061Y-76407931D01*
X72218436Y-76332389D01*
X72421484Y-76292000D01*
X72628516Y-76292000D01*
X72831564Y-76332389D01*
G37*
G36*
X103898000Y-77228000D02*
G01*
X102096000Y-77228000D01*
X102096000Y-75426000D01*
X103898000Y-75426000D01*
X103898000Y-77228000D01*
G37*
G36*
X140816087Y-74003996D02*
G01*
X141052853Y-74102068D01*
X141052855Y-74102069D01*
X141265939Y-74244447D01*
X141447153Y-74425661D01*
X141589532Y-74638747D01*
X141687604Y-74875513D01*
X141737600Y-75126861D01*
X141737600Y-75383139D01*
X141687604Y-75634487D01*
X141597860Y-75851147D01*
X141589531Y-75871255D01*
X141447153Y-76084339D01*
X141265939Y-76265553D01*
X141052855Y-76407931D01*
X141052854Y-76407932D01*
X141052853Y-76407932D01*
X140816087Y-76506004D01*
X140564739Y-76556000D01*
X140308461Y-76556000D01*
X140057113Y-76506004D01*
X139820347Y-76407932D01*
X139820346Y-76407932D01*
X139820345Y-76407931D01*
X139607261Y-76265553D01*
X139426047Y-76084339D01*
X139283669Y-75871255D01*
X139275340Y-75851147D01*
X139185596Y-75634487D01*
X139135600Y-75383139D01*
X139135600Y-75126861D01*
X139185596Y-74875513D01*
X139283668Y-74638747D01*
X139426047Y-74425661D01*
X139607261Y-74244447D01*
X139820345Y-74102069D01*
X139820347Y-74102068D01*
X140057113Y-74003996D01*
X140308461Y-73954000D01*
X140564739Y-73954000D01*
X140816087Y-74003996D01*
G37*
G36*
X130169228Y-74278703D02*
G01*
X130324100Y-74342853D01*
X130463481Y-74435985D01*
X130582015Y-74554519D01*
X130675147Y-74693900D01*
X130739297Y-74848772D01*
X130772000Y-75013184D01*
X130772000Y-75180816D01*
X130739297Y-75345228D01*
X130675147Y-75500100D01*
X130582015Y-75639481D01*
X130463481Y-75758015D01*
X130324100Y-75851147D01*
X130169228Y-75915297D01*
X130004816Y-75948000D01*
X129837184Y-75948000D01*
X129672772Y-75915297D01*
X129517900Y-75851147D01*
X129378519Y-75758015D01*
X129259985Y-75639481D01*
X129166853Y-75500100D01*
X129102703Y-75345228D01*
X129070000Y-75180816D01*
X129070000Y-75013184D01*
X129102703Y-74848772D01*
X129166853Y-74693900D01*
X129259985Y-74554519D01*
X129378519Y-74435985D01*
X129517900Y-74342853D01*
X129672772Y-74278703D01*
X129837184Y-74246000D01*
X130004816Y-74246000D01*
X130169228Y-74278703D01*
G37*
G36*
X120263228Y-74278703D02*
G01*
X120418100Y-74342853D01*
X120557481Y-74435985D01*
X120676015Y-74554519D01*
X120769147Y-74693900D01*
X120833297Y-74848772D01*
X120866000Y-75013184D01*
X120866000Y-75180816D01*
X120833297Y-75345228D01*
X120769147Y-75500100D01*
X120676015Y-75639481D01*
X120557481Y-75758015D01*
X120418100Y-75851147D01*
X120263228Y-75915297D01*
X120098816Y-75948000D01*
X119931184Y-75948000D01*
X119766772Y-75915297D01*
X119611900Y-75851147D01*
X119472519Y-75758015D01*
X119353985Y-75639481D01*
X119260853Y-75500100D01*
X119196703Y-75345228D01*
X119164000Y-75180816D01*
X119164000Y-75013184D01*
X119196703Y-74848772D01*
X119260853Y-74693900D01*
X119353985Y-74554519D01*
X119472519Y-74435985D01*
X119611900Y-74342853D01*
X119766772Y-74278703D01*
X119931184Y-74246000D01*
X120098816Y-74246000D01*
X120263228Y-74278703D01*
G37*
G36*
X103110512Y-69842927D02*
G01*
X103259812Y-69872624D01*
X103423784Y-69940544D01*
X103571354Y-70039147D01*
X103696853Y-70164646D01*
X103795456Y-70312216D01*
X103863376Y-70476188D01*
X103898000Y-70650259D01*
X103898000Y-70827741D01*
X103863376Y-71001812D01*
X103795456Y-71165784D01*
X103696853Y-71313354D01*
X103571354Y-71438853D01*
X103423784Y-71537456D01*
X103259812Y-71605376D01*
X103110512Y-71635073D01*
X103085742Y-71640000D01*
X102908258Y-71640000D01*
X102883488Y-71635073D01*
X102734188Y-71605376D01*
X102570216Y-71537456D01*
X102422646Y-71438853D01*
X102297147Y-71313354D01*
X102198544Y-71165784D01*
X102130624Y-71001812D01*
X102096000Y-70827741D01*
X102096000Y-70650259D01*
X102130624Y-70476188D01*
X102198544Y-70312216D01*
X102297147Y-70164646D01*
X102422646Y-70039147D01*
X102570216Y-69940544D01*
X102734188Y-69872624D01*
X102883488Y-69842927D01*
X102908258Y-69838000D01*
X103085742Y-69838000D01*
X103110512Y-69842927D01*
G37*
G36*
X103898000Y-69100000D02*
G01*
X102096000Y-69100000D01*
X102096000Y-67298000D01*
X103898000Y-67298000D01*
X103898000Y-69100000D01*
G37*
G36*
X70291564Y-50932389D02*
G01*
X70482833Y-51011615D01*
X70482835Y-51011616D01*
X70654973Y-51126635D01*
X70801365Y-51273027D01*
X70916385Y-51445167D01*
X70995611Y-51636436D01*
X71036000Y-51839484D01*
X71036000Y-52046516D01*
X70995611Y-52249564D01*
X70916385Y-52440833D01*
X70916384Y-52440835D01*
X70801365Y-52612973D01*
X70654973Y-52759365D01*
X70482835Y-52874384D01*
X70482834Y-52874385D01*
X70482833Y-52874385D01*
X70291564Y-52953611D01*
X70088516Y-52994000D01*
X69881484Y-52994000D01*
X69678436Y-52953611D01*
X69487167Y-52874385D01*
X69487166Y-52874385D01*
X69487165Y-52874384D01*
X69315027Y-52759365D01*
X69168635Y-52612973D01*
X69053616Y-52440835D01*
X69053615Y-52440833D01*
X68974389Y-52249564D01*
X68934000Y-52046516D01*
X68934000Y-51839484D01*
X68974389Y-51636436D01*
X69053615Y-51445167D01*
X69168635Y-51273027D01*
X69315027Y-51126635D01*
X69487165Y-51011616D01*
X69487167Y-51011615D01*
X69678436Y-50932389D01*
X69881484Y-50892000D01*
X70088516Y-50892000D01*
X70291564Y-50932389D01*
G37*
G36*
X90611564Y-50932389D02*
G01*
X90802833Y-51011615D01*
X90802835Y-51011616D01*
X90974973Y-51126635D01*
X91121365Y-51273027D01*
X91236385Y-51445167D01*
X91315611Y-51636436D01*
X91356000Y-51839484D01*
X91356000Y-52046516D01*
X91315611Y-52249564D01*
X91236385Y-52440833D01*
X91236384Y-52440835D01*
X91121365Y-52612973D01*
X90974973Y-52759365D01*
X90802835Y-52874384D01*
X90802834Y-52874385D01*
X90802833Y-52874385D01*
X90611564Y-52953611D01*
X90408516Y-52994000D01*
X90201484Y-52994000D01*
X89998436Y-52953611D01*
X89807167Y-52874385D01*
X89807166Y-52874385D01*
X89807165Y-52874384D01*
X89635027Y-52759365D01*
X89488635Y-52612973D01*
X89373616Y-52440835D01*
X89373615Y-52440833D01*
X89294389Y-52249564D01*
X89254000Y-52046516D01*
X89254000Y-51839484D01*
X89294389Y-51636436D01*
X89373615Y-51445167D01*
X89488635Y-51273027D01*
X89635027Y-51126635D01*
X89807165Y-51011616D01*
X89807167Y-51011615D01*
X89998436Y-50932389D01*
X90201484Y-50892000D01*
X90408516Y-50892000D01*
X90611564Y-50932389D01*
G37*
G36*
X88071564Y-50932389D02*
G01*
X88262833Y-51011615D01*
X88262835Y-51011616D01*
X88434973Y-51126635D01*
X88581365Y-51273027D01*
X88696385Y-51445167D01*
X88775611Y-51636436D01*
X88816000Y-51839484D01*
X88816000Y-52046516D01*
X88775611Y-52249564D01*
X88696385Y-52440833D01*
X88696384Y-52440835D01*
X88581365Y-52612973D01*
X88434973Y-52759365D01*
X88262835Y-52874384D01*
X88262834Y-52874385D01*
X88262833Y-52874385D01*
X88071564Y-52953611D01*
X87868516Y-52994000D01*
X87661484Y-52994000D01*
X87458436Y-52953611D01*
X87267167Y-52874385D01*
X87267166Y-52874385D01*
X87267165Y-52874384D01*
X87095027Y-52759365D01*
X86948635Y-52612973D01*
X86833616Y-52440835D01*
X86833615Y-52440833D01*
X86754389Y-52249564D01*
X86714000Y-52046516D01*
X86714000Y-51839484D01*
X86754389Y-51636436D01*
X86833615Y-51445167D01*
X86948635Y-51273027D01*
X87095027Y-51126635D01*
X87267165Y-51011616D01*
X87267167Y-51011615D01*
X87458436Y-50932389D01*
X87661484Y-50892000D01*
X87868516Y-50892000D01*
X88071564Y-50932389D01*
G37*
G36*
X85531564Y-50932389D02*
G01*
X85722833Y-51011615D01*
X85722835Y-51011616D01*
X85894973Y-51126635D01*
X86041365Y-51273027D01*
X86156385Y-51445167D01*
X86235611Y-51636436D01*
X86276000Y-51839484D01*
X86276000Y-52046516D01*
X86235611Y-52249564D01*
X86156385Y-52440833D01*
X86156384Y-52440835D01*
X86041365Y-52612973D01*
X85894973Y-52759365D01*
X85722835Y-52874384D01*
X85722834Y-52874385D01*
X85722833Y-52874385D01*
X85531564Y-52953611D01*
X85328516Y-52994000D01*
X85121484Y-52994000D01*
X84918436Y-52953611D01*
X84727167Y-52874385D01*
X84727166Y-52874385D01*
X84727165Y-52874384D01*
X84555027Y-52759365D01*
X84408635Y-52612973D01*
X84293616Y-52440835D01*
X84293615Y-52440833D01*
X84214389Y-52249564D01*
X84174000Y-52046516D01*
X84174000Y-51839484D01*
X84214389Y-51636436D01*
X84293615Y-51445167D01*
X84408635Y-51273027D01*
X84555027Y-51126635D01*
X84727165Y-51011616D01*
X84727167Y-51011615D01*
X84918436Y-50932389D01*
X85121484Y-50892000D01*
X85328516Y-50892000D01*
X85531564Y-50932389D01*
G37*
G36*
X82991564Y-50932389D02*
G01*
X83182833Y-51011615D01*
X83182835Y-51011616D01*
X83354973Y-51126635D01*
X83501365Y-51273027D01*
X83616385Y-51445167D01*
X83695611Y-51636436D01*
X83736000Y-51839484D01*
X83736000Y-52046516D01*
X83695611Y-52249564D01*
X83616385Y-52440833D01*
X83616384Y-52440835D01*
X83501365Y-52612973D01*
X83354973Y-52759365D01*
X83182835Y-52874384D01*
X83182834Y-52874385D01*
X83182833Y-52874385D01*
X82991564Y-52953611D01*
X82788516Y-52994000D01*
X82581484Y-52994000D01*
X82378436Y-52953611D01*
X82187167Y-52874385D01*
X82187166Y-52874385D01*
X82187165Y-52874384D01*
X82015027Y-52759365D01*
X81868635Y-52612973D01*
X81753616Y-52440835D01*
X81753615Y-52440833D01*
X81674389Y-52249564D01*
X81634000Y-52046516D01*
X81634000Y-51839484D01*
X81674389Y-51636436D01*
X81753615Y-51445167D01*
X81868635Y-51273027D01*
X82015027Y-51126635D01*
X82187165Y-51011616D01*
X82187167Y-51011615D01*
X82378436Y-50932389D01*
X82581484Y-50892000D01*
X82788516Y-50892000D01*
X82991564Y-50932389D01*
G37*
G36*
X80451564Y-50932389D02*
G01*
X80642833Y-51011615D01*
X80642835Y-51011616D01*
X80814973Y-51126635D01*
X80961365Y-51273027D01*
X81076385Y-51445167D01*
X81155611Y-51636436D01*
X81196000Y-51839484D01*
X81196000Y-52046516D01*
X81155611Y-52249564D01*
X81076385Y-52440833D01*
X81076384Y-52440835D01*
X80961365Y-52612973D01*
X80814973Y-52759365D01*
X80642835Y-52874384D01*
X80642834Y-52874385D01*
X80642833Y-52874385D01*
X80451564Y-52953611D01*
X80248516Y-52994000D01*
X80041484Y-52994000D01*
X79838436Y-52953611D01*
X79647167Y-52874385D01*
X79647166Y-52874385D01*
X79647165Y-52874384D01*
X79475027Y-52759365D01*
X79328635Y-52612973D01*
X79213616Y-52440835D01*
X79213615Y-52440833D01*
X79134389Y-52249564D01*
X79094000Y-52046516D01*
X79094000Y-51839484D01*
X79134389Y-51636436D01*
X79213615Y-51445167D01*
X79328635Y-51273027D01*
X79475027Y-51126635D01*
X79647165Y-51011616D01*
X79647167Y-51011615D01*
X79838436Y-50932389D01*
X80041484Y-50892000D01*
X80248516Y-50892000D01*
X80451564Y-50932389D01*
G37*
G36*
X77911564Y-50932389D02*
G01*
X78102833Y-51011615D01*
X78102835Y-51011616D01*
X78274973Y-51126635D01*
X78421365Y-51273027D01*
X78536385Y-51445167D01*
X78615611Y-51636436D01*
X78656000Y-51839484D01*
X78656000Y-52046516D01*
X78615611Y-52249564D01*
X78536385Y-52440833D01*
X78536384Y-52440835D01*
X78421365Y-52612973D01*
X78274973Y-52759365D01*
X78102835Y-52874384D01*
X78102834Y-52874385D01*
X78102833Y-52874385D01*
X77911564Y-52953611D01*
X77708516Y-52994000D01*
X77501484Y-52994000D01*
X77298436Y-52953611D01*
X77107167Y-52874385D01*
X77107166Y-52874385D01*
X77107165Y-52874384D01*
X76935027Y-52759365D01*
X76788635Y-52612973D01*
X76673616Y-52440835D01*
X76673615Y-52440833D01*
X76594389Y-52249564D01*
X76554000Y-52046516D01*
X76554000Y-51839484D01*
X76594389Y-51636436D01*
X76673615Y-51445167D01*
X76788635Y-51273027D01*
X76935027Y-51126635D01*
X77107165Y-51011616D01*
X77107167Y-51011615D01*
X77298436Y-50932389D01*
X77501484Y-50892000D01*
X77708516Y-50892000D01*
X77911564Y-50932389D01*
G37*
G36*
X75371564Y-50932389D02*
G01*
X75562833Y-51011615D01*
X75562835Y-51011616D01*
X75734973Y-51126635D01*
X75881365Y-51273027D01*
X75996385Y-51445167D01*
X76075611Y-51636436D01*
X76116000Y-51839484D01*
X76116000Y-52046516D01*
X76075611Y-52249564D01*
X75996385Y-52440833D01*
X75996384Y-52440835D01*
X75881365Y-52612973D01*
X75734973Y-52759365D01*
X75562835Y-52874384D01*
X75562834Y-52874385D01*
X75562833Y-52874385D01*
X75371564Y-52953611D01*
X75168516Y-52994000D01*
X74961484Y-52994000D01*
X74758436Y-52953611D01*
X74567167Y-52874385D01*
X74567166Y-52874385D01*
X74567165Y-52874384D01*
X74395027Y-52759365D01*
X74248635Y-52612973D01*
X74133616Y-52440835D01*
X74133615Y-52440833D01*
X74054389Y-52249564D01*
X74014000Y-52046516D01*
X74014000Y-51839484D01*
X74054389Y-51636436D01*
X74133615Y-51445167D01*
X74248635Y-51273027D01*
X74395027Y-51126635D01*
X74567165Y-51011616D01*
X74567167Y-51011615D01*
X74758436Y-50932389D01*
X74961484Y-50892000D01*
X75168516Y-50892000D01*
X75371564Y-50932389D01*
G37*
G36*
X67751564Y-50932389D02*
G01*
X67942833Y-51011615D01*
X67942835Y-51011616D01*
X68114973Y-51126635D01*
X68261365Y-51273027D01*
X68376385Y-51445167D01*
X68455611Y-51636436D01*
X68496000Y-51839484D01*
X68496000Y-52046516D01*
X68455611Y-52249564D01*
X68376385Y-52440833D01*
X68376384Y-52440835D01*
X68261365Y-52612973D01*
X68114973Y-52759365D01*
X67942835Y-52874384D01*
X67942834Y-52874385D01*
X67942833Y-52874385D01*
X67751564Y-52953611D01*
X67548516Y-52994000D01*
X67341484Y-52994000D01*
X67138436Y-52953611D01*
X66947167Y-52874385D01*
X66947166Y-52874385D01*
X66947165Y-52874384D01*
X66775027Y-52759365D01*
X66628635Y-52612973D01*
X66513616Y-52440835D01*
X66513615Y-52440833D01*
X66434389Y-52249564D01*
X66394000Y-52046516D01*
X66394000Y-51839484D01*
X66434389Y-51636436D01*
X66513615Y-51445167D01*
X66628635Y-51273027D01*
X66775027Y-51126635D01*
X66947165Y-51011616D01*
X66947167Y-51011615D01*
X67138436Y-50932389D01*
X67341484Y-50892000D01*
X67548516Y-50892000D01*
X67751564Y-50932389D01*
G37*
G36*
X65211564Y-50932389D02*
G01*
X65402833Y-51011615D01*
X65402835Y-51011616D01*
X65574973Y-51126635D01*
X65721365Y-51273027D01*
X65836385Y-51445167D01*
X65915611Y-51636436D01*
X65956000Y-51839484D01*
X65956000Y-52046516D01*
X65915611Y-52249564D01*
X65836385Y-52440833D01*
X65836384Y-52440835D01*
X65721365Y-52612973D01*
X65574973Y-52759365D01*
X65402835Y-52874384D01*
X65402834Y-52874385D01*
X65402833Y-52874385D01*
X65211564Y-52953611D01*
X65008516Y-52994000D01*
X64801484Y-52994000D01*
X64598436Y-52953611D01*
X64407167Y-52874385D01*
X64407166Y-52874385D01*
X64407165Y-52874384D01*
X64235027Y-52759365D01*
X64088635Y-52612973D01*
X63973616Y-52440835D01*
X63973615Y-52440833D01*
X63894389Y-52249564D01*
X63854000Y-52046516D01*
X63854000Y-51839484D01*
X63894389Y-51636436D01*
X63973615Y-51445167D01*
X64088635Y-51273027D01*
X64235027Y-51126635D01*
X64407165Y-51011616D01*
X64407167Y-51011615D01*
X64598436Y-50932389D01*
X64801484Y-50892000D01*
X65008516Y-50892000D01*
X65211564Y-50932389D01*
G37*
G36*
X62671564Y-50932389D02*
G01*
X62862833Y-51011615D01*
X62862835Y-51011616D01*
X63034973Y-51126635D01*
X63181365Y-51273027D01*
X63296385Y-51445167D01*
X63375611Y-51636436D01*
X63416000Y-51839484D01*
X63416000Y-52046516D01*
X63375611Y-52249564D01*
X63296385Y-52440833D01*
X63296384Y-52440835D01*
X63181365Y-52612973D01*
X63034973Y-52759365D01*
X62862835Y-52874384D01*
X62862834Y-52874385D01*
X62862833Y-52874385D01*
X62671564Y-52953611D01*
X62468516Y-52994000D01*
X62261484Y-52994000D01*
X62058436Y-52953611D01*
X61867167Y-52874385D01*
X61867166Y-52874385D01*
X61867165Y-52874384D01*
X61695027Y-52759365D01*
X61548635Y-52612973D01*
X61433616Y-52440835D01*
X61433615Y-52440833D01*
X61354389Y-52249564D01*
X61314000Y-52046516D01*
X61314000Y-51839484D01*
X61354389Y-51636436D01*
X61433615Y-51445167D01*
X61548635Y-51273027D01*
X61695027Y-51126635D01*
X61867165Y-51011616D01*
X61867167Y-51011615D01*
X62058436Y-50932389D01*
X62261484Y-50892000D01*
X62468516Y-50892000D01*
X62671564Y-50932389D01*
G37*
G36*
X60131564Y-50932389D02*
G01*
X60322833Y-51011615D01*
X60322835Y-51011616D01*
X60494973Y-51126635D01*
X60641365Y-51273027D01*
X60756385Y-51445167D01*
X60835611Y-51636436D01*
X60876000Y-51839484D01*
X60876000Y-52046516D01*
X60835611Y-52249564D01*
X60756385Y-52440833D01*
X60756384Y-52440835D01*
X60641365Y-52612973D01*
X60494973Y-52759365D01*
X60322835Y-52874384D01*
X60322834Y-52874385D01*
X60322833Y-52874385D01*
X60131564Y-52953611D01*
X59928516Y-52994000D01*
X59721484Y-52994000D01*
X59518436Y-52953611D01*
X59327167Y-52874385D01*
X59327166Y-52874385D01*
X59327165Y-52874384D01*
X59155027Y-52759365D01*
X59008635Y-52612973D01*
X58893616Y-52440835D01*
X58893615Y-52440833D01*
X58814389Y-52249564D01*
X58774000Y-52046516D01*
X58774000Y-51839484D01*
X58814389Y-51636436D01*
X58893615Y-51445167D01*
X59008635Y-51273027D01*
X59155027Y-51126635D01*
X59327165Y-51011616D01*
X59327167Y-51011615D01*
X59518436Y-50932389D01*
X59721484Y-50892000D01*
X59928516Y-50892000D01*
X60131564Y-50932389D01*
G37*
G36*
X57591564Y-50932389D02*
G01*
X57782833Y-51011615D01*
X57782835Y-51011616D01*
X57954973Y-51126635D01*
X58101365Y-51273027D01*
X58216385Y-51445167D01*
X58295611Y-51636436D01*
X58336000Y-51839484D01*
X58336000Y-52046516D01*
X58295611Y-52249564D01*
X58216385Y-52440833D01*
X58216384Y-52440835D01*
X58101365Y-52612973D01*
X57954973Y-52759365D01*
X57782835Y-52874384D01*
X57782834Y-52874385D01*
X57782833Y-52874385D01*
X57591564Y-52953611D01*
X57388516Y-52994000D01*
X57181484Y-52994000D01*
X56978436Y-52953611D01*
X56787167Y-52874385D01*
X56787166Y-52874385D01*
X56787165Y-52874384D01*
X56615027Y-52759365D01*
X56468635Y-52612973D01*
X56353616Y-52440835D01*
X56353615Y-52440833D01*
X56274389Y-52249564D01*
X56234000Y-52046516D01*
X56234000Y-51839484D01*
X56274389Y-51636436D01*
X56353615Y-51445167D01*
X56468635Y-51273027D01*
X56615027Y-51126635D01*
X56787165Y-51011616D01*
X56787167Y-51011615D01*
X56978436Y-50932389D01*
X57181484Y-50892000D01*
X57388516Y-50892000D01*
X57591564Y-50932389D01*
G37*
G36*
X55051564Y-50932389D02*
G01*
X55242833Y-51011615D01*
X55242835Y-51011616D01*
X55414973Y-51126635D01*
X55561365Y-51273027D01*
X55676385Y-51445167D01*
X55755611Y-51636436D01*
X55796000Y-51839484D01*
X55796000Y-52046516D01*
X55755611Y-52249564D01*
X55676385Y-52440833D01*
X55676384Y-52440835D01*
X55561365Y-52612973D01*
X55414973Y-52759365D01*
X55242835Y-52874384D01*
X55242834Y-52874385D01*
X55242833Y-52874385D01*
X55051564Y-52953611D01*
X54848516Y-52994000D01*
X54641484Y-52994000D01*
X54438436Y-52953611D01*
X54247167Y-52874385D01*
X54247166Y-52874385D01*
X54247165Y-52874384D01*
X54075027Y-52759365D01*
X53928635Y-52612973D01*
X53813616Y-52440835D01*
X53813615Y-52440833D01*
X53734389Y-52249564D01*
X53694000Y-52046516D01*
X53694000Y-51839484D01*
X53734389Y-51636436D01*
X53813615Y-51445167D01*
X53928635Y-51273027D01*
X54075027Y-51126635D01*
X54247165Y-51011616D01*
X54247167Y-51011615D01*
X54438436Y-50932389D01*
X54641484Y-50892000D01*
X54848516Y-50892000D01*
X55051564Y-50932389D01*
G37*
G36*
X72831564Y-50932389D02*
G01*
X73022833Y-51011615D01*
X73022835Y-51011616D01*
X73194973Y-51126635D01*
X73341365Y-51273027D01*
X73456385Y-51445167D01*
X73535611Y-51636436D01*
X73576000Y-51839484D01*
X73576000Y-52046516D01*
X73535611Y-52249564D01*
X73456385Y-52440833D01*
X73456384Y-52440835D01*
X73341365Y-52612973D01*
X73194973Y-52759365D01*
X73022835Y-52874384D01*
X73022834Y-52874385D01*
X73022833Y-52874385D01*
X72831564Y-52953611D01*
X72628516Y-52994000D01*
X72421484Y-52994000D01*
X72218436Y-52953611D01*
X72027167Y-52874385D01*
X72027166Y-52874385D01*
X72027165Y-52874384D01*
X71855027Y-52759365D01*
X71708635Y-52612973D01*
X71593616Y-52440835D01*
X71593615Y-52440833D01*
X71514389Y-52249564D01*
X71474000Y-52046516D01*
X71474000Y-51839484D01*
X71514389Y-51636436D01*
X71593615Y-51445167D01*
X71708635Y-51273027D01*
X71855027Y-51126635D01*
X72027165Y-51011616D01*
X72027167Y-51011615D01*
X72218436Y-50932389D01*
X72421484Y-50892000D01*
X72628516Y-50892000D01*
X72831564Y-50932389D01*
G37*
G36*
X142091865Y-42954855D02*
G01*
X142692608Y-43203691D01*
X142692610Y-43203692D01*
X143233265Y-43564946D01*
X143693054Y-44024735D01*
X143933874Y-44385148D01*
X144054309Y-44565392D01*
X144303145Y-45166135D01*
X144430000Y-45803879D01*
X144430000Y-46454121D01*
X144303145Y-47091865D01*
X144054309Y-47692608D01*
X144054308Y-47692610D01*
X143693054Y-48233265D01*
X143233265Y-48693054D01*
X142692610Y-49054308D01*
X142692609Y-49054309D01*
X142692608Y-49054309D01*
X142091865Y-49303145D01*
X141454121Y-49430000D01*
X140803879Y-49430000D01*
X140166135Y-49303145D01*
X139565392Y-49054309D01*
X139565391Y-49054309D01*
X139565390Y-49054308D01*
X139024735Y-48693054D01*
X138564946Y-48233265D01*
X138203692Y-47692610D01*
X138203691Y-47692608D01*
X137954855Y-47091865D01*
X137828000Y-46454121D01*
X137828000Y-45803879D01*
X137954855Y-45166135D01*
X138203691Y-44565392D01*
X138324126Y-44385148D01*
X138564946Y-44024735D01*
X139024735Y-43564946D01*
X139565390Y-43203692D01*
X139565392Y-43203691D01*
X140166135Y-42954855D01*
X140803879Y-42828000D01*
X141454121Y-42828000D01*
X142091865Y-42954855D01*
G37*
G36*
X52091865Y-42954855D02*
G01*
X52692608Y-43203691D01*
X52692610Y-43203692D01*
X53233265Y-43564946D01*
X53693054Y-44024735D01*
X53933874Y-44385148D01*
X54054309Y-44565392D01*
X54303145Y-45166135D01*
X54430000Y-45803879D01*
X54430000Y-46454121D01*
X54303145Y-47091865D01*
X54054309Y-47692608D01*
X54054308Y-47692610D01*
X53693054Y-48233265D01*
X53233265Y-48693054D01*
X52692610Y-49054308D01*
X52692609Y-49054309D01*
X52692608Y-49054309D01*
X52091865Y-49303145D01*
X51454121Y-49430000D01*
X50803879Y-49430000D01*
X50166135Y-49303145D01*
X49565392Y-49054309D01*
X49565391Y-49054309D01*
X49565390Y-49054308D01*
X49024735Y-48693054D01*
X48564946Y-48233265D01*
X48203692Y-47692610D01*
X48203691Y-47692608D01*
X47954855Y-47091865D01*
X47828000Y-46454121D01*
X47828000Y-45803879D01*
X47954855Y-45166135D01*
X48203691Y-44565392D01*
X48324126Y-44385148D01*
X48564946Y-44024735D01*
X49024735Y-43564946D01*
X49565390Y-43203692D01*
X49565392Y-43203691D01*
X50166135Y-42954855D01*
X50803879Y-42828000D01*
X51454121Y-42828000D01*
X52091865Y-42954855D01*
G37*
G36*
X97776512Y-44188927D02*
G01*
X97925812Y-44218624D01*
X98089784Y-44286544D01*
X98237354Y-44385147D01*
X98362853Y-44510646D01*
X98461456Y-44658216D01*
X98529376Y-44822188D01*
X98564000Y-44996259D01*
X98564000Y-45173741D01*
X98529376Y-45347812D01*
X98461456Y-45511784D01*
X98362853Y-45659354D01*
X98237354Y-45784853D01*
X98089784Y-45883456D01*
X97925812Y-45951376D01*
X97776512Y-45981073D01*
X97751742Y-45986000D01*
X97574258Y-45986000D01*
X97549488Y-45981073D01*
X97400188Y-45951376D01*
X97236216Y-45883456D01*
X97088646Y-45784853D01*
X96963147Y-45659354D01*
X96864544Y-45511784D01*
X96796624Y-45347812D01*
X96762000Y-45173741D01*
X96762000Y-44996259D01*
X96796624Y-44822188D01*
X96864544Y-44658216D01*
X96963147Y-44510646D01*
X97088646Y-44385147D01*
X97236216Y-44286544D01*
X97400188Y-44218624D01*
X97549488Y-44188927D01*
X97574258Y-44184000D01*
X97751742Y-44184000D01*
X97776512Y-44188927D01*
G37*
G36*
X95236512Y-44188927D02*
G01*
X95385812Y-44218624D01*
X95549784Y-44286544D01*
X95697354Y-44385147D01*
X95822853Y-44510646D01*
X95921456Y-44658216D01*
X95989376Y-44822188D01*
X96024000Y-44996259D01*
X96024000Y-45173741D01*
X95989376Y-45347812D01*
X95921456Y-45511784D01*
X95822853Y-45659354D01*
X95697354Y-45784853D01*
X95549784Y-45883456D01*
X95385812Y-45951376D01*
X95236512Y-45981073D01*
X95211742Y-45986000D01*
X95034258Y-45986000D01*
X95009488Y-45981073D01*
X94860188Y-45951376D01*
X94696216Y-45883456D01*
X94548646Y-45784853D01*
X94423147Y-45659354D01*
X94324544Y-45511784D01*
X94256624Y-45347812D01*
X94222000Y-45173741D01*
X94222000Y-44996259D01*
X94256624Y-44822188D01*
X94324544Y-44658216D01*
X94423147Y-44510646D01*
X94548646Y-44385147D01*
X94696216Y-44286544D01*
X94860188Y-44218624D01*
X95009488Y-44188927D01*
X95034258Y-44184000D01*
X95211742Y-44184000D01*
X95236512Y-44188927D01*
G37*
G36*
X92696512Y-44188927D02*
G01*
X92845812Y-44218624D01*
X93009784Y-44286544D01*
X93157354Y-44385147D01*
X93282853Y-44510646D01*
X93381456Y-44658216D01*
X93449376Y-44822188D01*
X93484000Y-44996259D01*
X93484000Y-45173741D01*
X93449376Y-45347812D01*
X93381456Y-45511784D01*
X93282853Y-45659354D01*
X93157354Y-45784853D01*
X93009784Y-45883456D01*
X92845812Y-45951376D01*
X92696512Y-45981073D01*
X92671742Y-45986000D01*
X92494258Y-45986000D01*
X92469488Y-45981073D01*
X92320188Y-45951376D01*
X92156216Y-45883456D01*
X92008646Y-45784853D01*
X91883147Y-45659354D01*
X91784544Y-45511784D01*
X91716624Y-45347812D01*
X91682000Y-45173741D01*
X91682000Y-44996259D01*
X91716624Y-44822188D01*
X91784544Y-44658216D01*
X91883147Y-44510646D01*
X92008646Y-44385147D01*
X92156216Y-44286544D01*
X92320188Y-44218624D01*
X92469488Y-44188927D01*
X92494258Y-44184000D01*
X92671742Y-44184000D01*
X92696512Y-44188927D01*
G37*
G36*
X90944000Y-45986000D02*
G01*
X89142000Y-45986000D01*
X89142000Y-44184000D01*
X90944000Y-44184000D01*
X90944000Y-45986000D01*
G37*
G36*
X70090512Y-44188927D02*
G01*
X70239812Y-44218624D01*
X70403784Y-44286544D01*
X70551354Y-44385147D01*
X70676853Y-44510646D01*
X70775456Y-44658216D01*
X70843376Y-44822188D01*
X70878000Y-44996259D01*
X70878000Y-45173741D01*
X70843376Y-45347812D01*
X70775456Y-45511784D01*
X70676853Y-45659354D01*
X70551354Y-45784853D01*
X70403784Y-45883456D01*
X70239812Y-45951376D01*
X70090512Y-45981073D01*
X70065742Y-45986000D01*
X69888258Y-45986000D01*
X69863488Y-45981073D01*
X69714188Y-45951376D01*
X69550216Y-45883456D01*
X69402646Y-45784853D01*
X69277147Y-45659354D01*
X69178544Y-45511784D01*
X69110624Y-45347812D01*
X69076000Y-45173741D01*
X69076000Y-44996259D01*
X69110624Y-44822188D01*
X69178544Y-44658216D01*
X69277147Y-44510646D01*
X69402646Y-44385147D01*
X69550216Y-44286544D01*
X69714188Y-44218624D01*
X69863488Y-44188927D01*
X69888258Y-44184000D01*
X70065742Y-44184000D01*
X70090512Y-44188927D01*
G37*
G36*
X67550512Y-44188927D02*
G01*
X67699812Y-44218624D01*
X67863784Y-44286544D01*
X68011354Y-44385147D01*
X68136853Y-44510646D01*
X68235456Y-44658216D01*
X68303376Y-44822188D01*
X68338000Y-44996259D01*
X68338000Y-45173741D01*
X68303376Y-45347812D01*
X68235456Y-45511784D01*
X68136853Y-45659354D01*
X68011354Y-45784853D01*
X67863784Y-45883456D01*
X67699812Y-45951376D01*
X67550512Y-45981073D01*
X67525742Y-45986000D01*
X67348258Y-45986000D01*
X67323488Y-45981073D01*
X67174188Y-45951376D01*
X67010216Y-45883456D01*
X66862646Y-45784853D01*
X66737147Y-45659354D01*
X66638544Y-45511784D01*
X66570624Y-45347812D01*
X66536000Y-45173741D01*
X66536000Y-44996259D01*
X66570624Y-44822188D01*
X66638544Y-44658216D01*
X66737147Y-44510646D01*
X66862646Y-44385147D01*
X67010216Y-44286544D01*
X67174188Y-44218624D01*
X67323488Y-44188927D01*
X67348258Y-44184000D01*
X67525742Y-44184000D01*
X67550512Y-44188927D01*
G37*
G36*
X65010512Y-44188927D02*
G01*
X65159812Y-44218624D01*
X65323784Y-44286544D01*
X65471354Y-44385147D01*
X65596853Y-44510646D01*
X65695456Y-44658216D01*
X65763376Y-44822188D01*
X65798000Y-44996259D01*
X65798000Y-45173741D01*
X65763376Y-45347812D01*
X65695456Y-45511784D01*
X65596853Y-45659354D01*
X65471354Y-45784853D01*
X65323784Y-45883456D01*
X65159812Y-45951376D01*
X65010512Y-45981073D01*
X64985742Y-45986000D01*
X64808258Y-45986000D01*
X64783488Y-45981073D01*
X64634188Y-45951376D01*
X64470216Y-45883456D01*
X64322646Y-45784853D01*
X64197147Y-45659354D01*
X64098544Y-45511784D01*
X64030624Y-45347812D01*
X63996000Y-45173741D01*
X63996000Y-44996259D01*
X64030624Y-44822188D01*
X64098544Y-44658216D01*
X64197147Y-44510646D01*
X64322646Y-44385147D01*
X64470216Y-44286544D01*
X64634188Y-44218624D01*
X64783488Y-44188927D01*
X64808258Y-44184000D01*
X64985742Y-44184000D01*
X65010512Y-44188927D01*
G37*
G36*
X60718000Y-45986000D02*
G01*
X58916000Y-45986000D01*
X58916000Y-44184000D01*
X60718000Y-44184000D01*
X60718000Y-45986000D01*
G37*
G36*
X62470512Y-44188927D02*
G01*
X62619812Y-44218624D01*
X62783784Y-44286544D01*
X62931354Y-44385147D01*
X63056853Y-44510646D01*
X63155456Y-44658216D01*
X63223376Y-44822188D01*
X63258000Y-44996259D01*
X63258000Y-45173741D01*
X63223376Y-45347812D01*
X63155456Y-45511784D01*
X63056853Y-45659354D01*
X62931354Y-45784853D01*
X62783784Y-45883456D01*
X62619812Y-45951376D01*
X62470512Y-45981073D01*
X62445742Y-45986000D01*
X62268258Y-45986000D01*
X62243488Y-45981073D01*
X62094188Y-45951376D01*
X61930216Y-45883456D01*
X61782646Y-45784853D01*
X61657147Y-45659354D01*
X61558544Y-45511784D01*
X61490624Y-45347812D01*
X61456000Y-45173741D01*
X61456000Y-44996259D01*
X61490624Y-44822188D01*
X61558544Y-44658216D01*
X61657147Y-44510646D01*
X61782646Y-44385147D01*
X61930216Y-44286544D01*
X62094188Y-44218624D01*
X62243488Y-44188927D01*
X62268258Y-44184000D01*
X62445742Y-44184000D01*
X62470512Y-44188927D01*
G37*
M02*
