G04 #@! TF.GenerationSoftware,KiCad,Pcbnew,(5.1.5)-3*
G04 #@! TF.CreationDate,2020-10-26T22:42:23+01:00*
G04 #@! TF.ProjectId,Fernschreiber,4665726e-7363-4687-9265-696265722e6b,v02*
G04 #@! TF.SameCoordinates,Original*
G04 #@! TF.FileFunction,Copper,L1,Top*
G04 #@! TF.FilePolarity,Positive*
%FSLAX46Y46*%
G04 Gerber Fmt 4.6, Leading zero omitted, Abs format (unit mm)*
G04 Created by KiCad (PCBNEW (5.1.5)-3) date 2020-10-26 22:42:23*
%MOMM*%
%LPD*%
G04 APERTURE LIST*
%ADD10C,2.500000*%
%ADD11C,2.000000*%
%ADD12C,6.500000*%
%ADD13O,4.000000X2.000000*%
%ADD14O,3.000000X2.000000*%
%ADD15R,1.600000X1.600000*%
%ADD16C,1.600000*%
%ADD17O,1.600000X1.600000*%
%ADD18R,1.700000X1.700000*%
%ADD19O,1.700000X1.700000*%
%ADD20C,4.000000*%
%ADD21C,2.400000*%
%ADD22O,2.400000X2.400000*%
%ADD23R,2.000000X10.000000*%
%ADD24O,2.000000X3.000000*%
%ADD25C,0.889000*%
%ADD26C,1.270000*%
%ADD27C,2.032000*%
%ADD28C,0.500000*%
G04 APERTURE END LIST*
D10*
X140436600Y-80255000D03*
X140436600Y-75255000D03*
X113801000Y-136017000D03*
X118801000Y-136017000D03*
X94925000Y-136017000D03*
X89925000Y-136017000D03*
D11*
X90305000Y-77343000D03*
X87765000Y-77343000D03*
X85225000Y-77343000D03*
X82685000Y-77343000D03*
X80145000Y-77343000D03*
X77605000Y-77343000D03*
X75065000Y-77343000D03*
X72525000Y-77343000D03*
X69985000Y-77343000D03*
X67445000Y-77343000D03*
X64905000Y-77343000D03*
X62365000Y-77343000D03*
X59825000Y-77343000D03*
X57285000Y-77343000D03*
X54745000Y-77343000D03*
X90305000Y-51943000D03*
X87765000Y-51943000D03*
X85225000Y-51943000D03*
X82685000Y-51943000D03*
X80145000Y-51943000D03*
X77605000Y-51943000D03*
X75065000Y-51943000D03*
X72525000Y-51943000D03*
X69985000Y-51943000D03*
X67445000Y-51943000D03*
X64905000Y-51943000D03*
X62365000Y-51943000D03*
X59825000Y-51943000D03*
X57285000Y-51943000D03*
X54745000Y-51943000D03*
D12*
X66129000Y-136129000D03*
X51129000Y-46129000D03*
X141129000Y-136129000D03*
X141129000Y-46129000D03*
D13*
X134239000Y-92797000D03*
X134239000Y-90297000D03*
X134239000Y-87797000D03*
D14*
X134239000Y-102501400D03*
X134239000Y-100101400D03*
X134239000Y-97701400D03*
D15*
X118491000Y-102489000D03*
D16*
X118491000Y-99989000D03*
X129921000Y-75097000D03*
D15*
X129921000Y-77597000D03*
X80137000Y-134493000D03*
D16*
X80137000Y-136993000D03*
X118491000Y-92797000D03*
D15*
X118491000Y-90297000D03*
X120015000Y-77597000D03*
D16*
X120015000Y-75097000D03*
D15*
X143637000Y-125349000D03*
D17*
X143637000Y-117729000D03*
X125603000Y-83947000D03*
D15*
X117983000Y-83947000D03*
D17*
X73279000Y-128905000D03*
D15*
X65659000Y-128905000D03*
X122301000Y-113157000D03*
D17*
X114681000Y-113157000D03*
D18*
X102997000Y-76327000D03*
X127381000Y-99949000D03*
D19*
X127381000Y-102489000D03*
D18*
X60833000Y-128651000D03*
X76657200Y-96647000D03*
D19*
X102997000Y-70739000D03*
D18*
X102997000Y-68199000D03*
X82829400Y-108077000D03*
D19*
X47879000Y-92075000D03*
X47879000Y-89535000D03*
X47879000Y-86995000D03*
X47879000Y-84455000D03*
D18*
X47879000Y-81915000D03*
X59817000Y-45085000D03*
D19*
X62357000Y-45085000D03*
X64897000Y-45085000D03*
X67437000Y-45085000D03*
X69977000Y-45085000D03*
D18*
X90043000Y-45085000D03*
D19*
X92583000Y-45085000D03*
X95123000Y-45085000D03*
X97663000Y-45085000D03*
D20*
X91015000Y-117739000D03*
X84015000Y-117739000D03*
X87515000Y-125339000D03*
D10*
X107515000Y-125339000D03*
X107515000Y-117739000D03*
X138757000Y-117739000D03*
X138757000Y-125339000D03*
D20*
X118757000Y-125339000D03*
X115257000Y-117739000D03*
X122257000Y-117739000D03*
D21*
X69977000Y-91059000D03*
D22*
X90297000Y-91059000D03*
X90805000Y-102489000D03*
D21*
X111125000Y-102489000D03*
D22*
X90297000Y-85725000D03*
D21*
X69977000Y-85725000D03*
D11*
X59721000Y-102045000D03*
X47721000Y-102045000D03*
D23*
X59721000Y-106045000D03*
X47721000Y-106045000D03*
D11*
X59721000Y-110045000D03*
X47721000Y-110045000D03*
X62961000Y-110045000D03*
X74961000Y-110045000D03*
D23*
X62961000Y-106045000D03*
X74961000Y-106045000D03*
D11*
X62961000Y-102045000D03*
X74961000Y-102045000D03*
X62961000Y-122745000D03*
X74961000Y-122745000D03*
D23*
X62961000Y-118745000D03*
X74961000Y-118745000D03*
D11*
X62961000Y-114745000D03*
X74961000Y-114745000D03*
X59721000Y-114745000D03*
X47721000Y-114745000D03*
D23*
X59721000Y-118745000D03*
X47721000Y-118745000D03*
D11*
X59721000Y-122745000D03*
X47721000Y-122745000D03*
D21*
X47625000Y-96647000D03*
D22*
X73025000Y-96647000D03*
D21*
X111125000Y-96901000D03*
D22*
X90805000Y-96901000D03*
D11*
X102997000Y-81407000D03*
X99187000Y-81407000D03*
X95377000Y-81407000D03*
X102997000Y-86487000D03*
X99187000Y-86487000D03*
X95377000Y-86487000D03*
X85217000Y-104267000D03*
X85217000Y-100457000D03*
X85217000Y-96647000D03*
X80137000Y-104267000D03*
X80137000Y-100457000D03*
X80137000Y-96647000D03*
D24*
X51475000Y-128651000D03*
X53975000Y-128651000D03*
X56475000Y-128651000D03*
X111593000Y-89281000D03*
X109093000Y-89281000D03*
X106593000Y-89281000D03*
D25*
X57277000Y-51935000D02*
X57285000Y-51943000D01*
X54745000Y-77343000D02*
X54745000Y-79113000D01*
X51943000Y-81915000D02*
X47879000Y-81915000D01*
X54745000Y-79113000D02*
X51943000Y-81915000D01*
X90043000Y-43346000D02*
X90043000Y-45085000D01*
X90043000Y-43322140D02*
X90043000Y-43346000D01*
X89519860Y-42799000D02*
X90043000Y-43322140D01*
X107515000Y-125339000D02*
X114183000Y-125339000D01*
X114183000Y-125339000D02*
X117475000Y-122047000D01*
X135465000Y-122047000D02*
X138757000Y-125339000D01*
X117475000Y-122047000D02*
X135465000Y-122047000D01*
X143627000Y-125339000D02*
X143637000Y-125349000D01*
X138757000Y-125339000D02*
X143627000Y-125339000D01*
X134125000Y-100711000D02*
X134239000Y-100825000D01*
X57285000Y-51943000D02*
X57285000Y-77343000D01*
X111125000Y-96901000D02*
X111125000Y-95203944D01*
X116031944Y-90297000D02*
X118491000Y-90297000D01*
X111125000Y-95203944D02*
X116031944Y-90297000D01*
X118491000Y-90297000D02*
X134239000Y-90297000D01*
X60364000Y-42799000D02*
X89519860Y-42799000D01*
X59817000Y-43346000D02*
X60364000Y-42799000D01*
X59817000Y-45085000D02*
X59817000Y-43346000D01*
X59817000Y-45085000D02*
X59817000Y-46824000D01*
X52451000Y-75049000D02*
X54745000Y-77343000D01*
X59817000Y-46824000D02*
X56730000Y-49911000D01*
X53721000Y-49911000D02*
X52451000Y-51181000D01*
X52451000Y-51181000D02*
X52451000Y-75049000D01*
X56730000Y-49911000D02*
X53721000Y-49911000D01*
D26*
X134239000Y-92797000D02*
X134239000Y-97701400D01*
X129921000Y-77597000D02*
X120015000Y-77597000D01*
X137509000Y-92797000D02*
X134239000Y-92797000D01*
X137778600Y-77597000D02*
X140436600Y-80255000D01*
X129921000Y-77597000D02*
X137778600Y-77597000D01*
X140436600Y-89869400D02*
X137509000Y-92797000D01*
X140436600Y-80255000D02*
X140436600Y-89869400D01*
D25*
X111125000Y-102489000D02*
X118491000Y-102489000D01*
X120180000Y-102489000D02*
X127381000Y-102489000D01*
X118491000Y-102489000D02*
X120180000Y-102489000D01*
X127393400Y-102501400D02*
X127381000Y-102489000D01*
X134239000Y-102501400D02*
X127393400Y-102501400D01*
X107515000Y-117739000D02*
X110553000Y-120777000D01*
X135719000Y-120777000D02*
X138757000Y-117739000D01*
X110553000Y-120777000D02*
X135719000Y-120777000D01*
X143627000Y-117739000D02*
X143637000Y-117729000D01*
X138757000Y-117739000D02*
X143627000Y-117739000D01*
X109093000Y-86892000D02*
X109093000Y-89281000D01*
X110617000Y-83947000D02*
X109093000Y-85471000D01*
X117983000Y-83947000D02*
X110617000Y-83947000D01*
X109093000Y-85471000D02*
X109093000Y-86892000D01*
X100203000Y-84201000D02*
X102997000Y-81407000D01*
X92837000Y-84201000D02*
X100203000Y-84201000D01*
X92837000Y-90216056D02*
X92837000Y-84201000D01*
X90297000Y-91059000D02*
X91994056Y-91059000D01*
X91994056Y-91059000D02*
X92837000Y-90216056D01*
X102997000Y-81407000D02*
X102997000Y-76327000D01*
X101981000Y-89281000D02*
X106593000Y-89281000D01*
X99187000Y-86487000D02*
X101981000Y-89281000D01*
X101981000Y-91313000D02*
X90805000Y-102489000D01*
X101981000Y-89281000D02*
X101981000Y-91313000D01*
X49610000Y-118745000D02*
X53975000Y-123110000D01*
X47721000Y-118745000D02*
X49610000Y-118745000D01*
X53975000Y-123110000D02*
X53975000Y-128651000D01*
D27*
X59721000Y-106045000D02*
X62961000Y-106045000D01*
X74961000Y-114745000D02*
X74961000Y-110045000D01*
X62961000Y-118745000D02*
X59721000Y-118745000D01*
D25*
X81826000Y-134493000D02*
X83350000Y-132969000D01*
X80137000Y-134493000D02*
X81826000Y-134493000D01*
X91877000Y-132969000D02*
X94925000Y-136017000D01*
X83350000Y-132969000D02*
X91877000Y-132969000D01*
X122301000Y-117695000D02*
X122257000Y-117739000D01*
X122301000Y-113157000D02*
X122301000Y-117695000D01*
X120612000Y-113157000D02*
X118326000Y-110871000D01*
X122301000Y-113157000D02*
X120612000Y-113157000D01*
X86659501Y-115094499D02*
X89121501Y-115094499D01*
X84015000Y-117739000D02*
X86659501Y-115094499D01*
X93345000Y-110871000D02*
X118326000Y-110871000D01*
X89121501Y-115094499D02*
X93345000Y-110871000D01*
X49135213Y-110045000D02*
X49199213Y-110109000D01*
X47721000Y-110045000D02*
X49135213Y-110045000D01*
X49199213Y-110109000D02*
X53975000Y-110109000D01*
X53975000Y-110109000D02*
X57023000Y-113157000D01*
X57023000Y-113157000D02*
X57023000Y-124079000D01*
X57023000Y-124079000D02*
X59055000Y-126111000D01*
X91015000Y-120567427D02*
X89789427Y-121793000D01*
X91015000Y-117739000D02*
X91015000Y-120567427D01*
X89789427Y-121793000D02*
X81661000Y-121793000D01*
X81661000Y-121793000D02*
X77343000Y-126111000D01*
X114681000Y-117163000D02*
X115257000Y-117739000D01*
X114681000Y-113157000D02*
X114681000Y-117163000D01*
X93014999Y-115739001D02*
X91015000Y-117739000D01*
X94797001Y-113956999D02*
X93014999Y-115739001D01*
X113881001Y-113956999D02*
X94797001Y-113956999D01*
X114681000Y-113157000D02*
X113881001Y-113956999D01*
X65659000Y-128905000D02*
X65659000Y-127216000D01*
X77343000Y-126111000D02*
X65659000Y-126111000D01*
X65659000Y-127216000D02*
X65659000Y-126111000D01*
X65659000Y-126111000D02*
X59055000Y-126111000D01*
X47625000Y-101949000D02*
X47721000Y-102045000D01*
X47625000Y-96647000D02*
X47625000Y-101949000D01*
X113801000Y-136017000D02*
X107823000Y-136017000D01*
X97145000Y-125339000D02*
X87515000Y-125339000D01*
X107823000Y-136017000D02*
X97145000Y-125339000D01*
X118757000Y-135973000D02*
X118801000Y-136017000D01*
X118757000Y-125339000D02*
X118757000Y-135973000D01*
X82169000Y-88265000D02*
X90805000Y-96901000D01*
X67945000Y-88265000D02*
X82169000Y-88265000D01*
X67445000Y-77343000D02*
X67445000Y-87765000D01*
X67445000Y-87765000D02*
X67945000Y-88265000D01*
X90805000Y-96901000D02*
X87249000Y-100457000D01*
X87249000Y-100457000D02*
X85217000Y-100457000D01*
X85217000Y-100457000D02*
X83802787Y-100457000D01*
X82829400Y-101430387D02*
X82829400Y-108077000D01*
X83802787Y-100457000D02*
X82829400Y-101430387D01*
X69985000Y-85717000D02*
X69977000Y-85725000D01*
X69985000Y-77343000D02*
X69985000Y-85717000D01*
X56515000Y-127675000D02*
X56475000Y-127635000D01*
X56475000Y-128651000D02*
X60833000Y-128651000D01*
X67437000Y-45085000D02*
X67437000Y-46863000D01*
X67437000Y-46863000D02*
X66929000Y-47371000D01*
X66929000Y-47371000D02*
X61595000Y-47371000D01*
X59825000Y-49141000D02*
X59825000Y-51943000D01*
X61595000Y-47371000D02*
X59825000Y-49141000D01*
X64897000Y-51935000D02*
X64905000Y-51943000D01*
X69723000Y-48641000D02*
X69977000Y-48387000D01*
X65151000Y-48641000D02*
X69723000Y-48641000D01*
X69977000Y-48387000D02*
X69977000Y-45085000D01*
X64905000Y-51943000D02*
X64905000Y-48887000D01*
X64905000Y-48887000D02*
X65151000Y-48641000D01*
X97663000Y-45085000D02*
X97663000Y-55245000D01*
X85225000Y-67683000D02*
X85225000Y-77343000D01*
X97663000Y-55245000D02*
X85225000Y-67683000D01*
X95123000Y-45085000D02*
X95123000Y-54229000D01*
X82685000Y-66667000D02*
X82685000Y-77343000D01*
X95123000Y-54229000D02*
X82685000Y-66667000D01*
X68279944Y-91059000D02*
X64905000Y-87684056D01*
X64905000Y-78757213D02*
X64905000Y-77343000D01*
X64905000Y-87684056D02*
X64905000Y-78757213D01*
X69977000Y-91059000D02*
X68279944Y-91059000D01*
X73025000Y-96647000D02*
X76657200Y-96647000D01*
X76657200Y-96647000D02*
X80137000Y-96647000D01*
D28*
G36*
X52280500Y-123811885D02*
G01*
X52280501Y-126597819D01*
X52144061Y-126525289D01*
X51814045Y-126425999D01*
X51753962Y-126415275D01*
X51479000Y-126582505D01*
X51479000Y-128647000D01*
X51499000Y-128647000D01*
X51499000Y-128655000D01*
X51479000Y-128655000D01*
X51479000Y-130719495D01*
X51753962Y-130886725D01*
X51814045Y-130876001D01*
X52144061Y-130776711D01*
X52321208Y-130682542D01*
X52376313Y-130749688D01*
X52718920Y-131030858D01*
X53109797Y-131239786D01*
X53533924Y-131368444D01*
X53975000Y-131411886D01*
X54416077Y-131368444D01*
X54840204Y-131239786D01*
X55225001Y-131034108D01*
X55609797Y-131239786D01*
X56033924Y-131368444D01*
X56475000Y-131411886D01*
X56916077Y-131368444D01*
X57340204Y-131239786D01*
X57731081Y-131030858D01*
X58073688Y-130749688D01*
X58354858Y-130407081D01*
X58387774Y-130345500D01*
X59059009Y-130345500D01*
X59094840Y-130389160D01*
X59285177Y-130545366D01*
X59502331Y-130661437D01*
X59737957Y-130732913D01*
X59983000Y-130757048D01*
X61683000Y-130757048D01*
X61928043Y-130732913D01*
X62163669Y-130661437D01*
X62380823Y-130545366D01*
X62571160Y-130389160D01*
X62727366Y-130198823D01*
X62843437Y-129981669D01*
X62914913Y-129746043D01*
X62939048Y-129501000D01*
X62939048Y-127805500D01*
X63643606Y-127805500D01*
X63627087Y-127859957D01*
X63602952Y-128105000D01*
X63602952Y-129705000D01*
X63627087Y-129950043D01*
X63698563Y-130185669D01*
X63814634Y-130402823D01*
X63970840Y-130593160D01*
X64161177Y-130749366D01*
X64378331Y-130865437D01*
X64613957Y-130936913D01*
X64859000Y-130961048D01*
X66459000Y-130961048D01*
X66704043Y-130936913D01*
X66939669Y-130865437D01*
X67156823Y-130749366D01*
X67347160Y-130593160D01*
X67503366Y-130402823D01*
X67619437Y-130185669D01*
X67690913Y-129950043D01*
X67715048Y-129705000D01*
X67715048Y-129152675D01*
X71740812Y-129152675D01*
X71763118Y-129264817D01*
X71862442Y-129553637D01*
X72016204Y-129817530D01*
X72218494Y-130046355D01*
X72461539Y-130231319D01*
X72735998Y-130365313D01*
X73031325Y-130443188D01*
X73275000Y-130273495D01*
X73275000Y-128909000D01*
X73283000Y-128909000D01*
X73283000Y-130273495D01*
X73526675Y-130443188D01*
X73822002Y-130365313D01*
X74096461Y-130231319D01*
X74339506Y-130046355D01*
X74541796Y-129817530D01*
X74695558Y-129553637D01*
X74794882Y-129264817D01*
X74817188Y-129152675D01*
X74647494Y-128909000D01*
X73283000Y-128909000D01*
X73275000Y-128909000D01*
X71910506Y-128909000D01*
X71740812Y-129152675D01*
X67715048Y-129152675D01*
X67715048Y-128105000D01*
X67690913Y-127859957D01*
X67674394Y-127805500D01*
X72181493Y-127805500D01*
X72016204Y-127992470D01*
X71862442Y-128256363D01*
X71763118Y-128545183D01*
X71740812Y-128657325D01*
X71910506Y-128901000D01*
X73275000Y-128901000D01*
X73275000Y-128881000D01*
X73283000Y-128881000D01*
X73283000Y-128901000D01*
X74647494Y-128901000D01*
X74817188Y-128657325D01*
X74794882Y-128545183D01*
X74695558Y-128256363D01*
X74541796Y-127992470D01*
X74376507Y-127805500D01*
X77259772Y-127805500D01*
X77343000Y-127813697D01*
X77426228Y-127805500D01*
X77426235Y-127805500D01*
X77675180Y-127780981D01*
X77994594Y-127684088D01*
X78288968Y-127526742D01*
X78546989Y-127314989D01*
X78600051Y-127250333D01*
X82362885Y-123487500D01*
X84843391Y-123487500D01*
X84634888Y-123799548D01*
X84389896Y-124391010D01*
X84265000Y-125018903D01*
X84265000Y-125659097D01*
X84389896Y-126286990D01*
X84634888Y-126878452D01*
X84990560Y-127410754D01*
X85443246Y-127863440D01*
X85975548Y-128219112D01*
X86567010Y-128464104D01*
X87194903Y-128589000D01*
X87835097Y-128589000D01*
X88462990Y-128464104D01*
X89054452Y-128219112D01*
X89586754Y-127863440D01*
X90039440Y-127410754D01*
X90291512Y-127033500D01*
X96443116Y-127033500D01*
X106565954Y-137156339D01*
X106619011Y-137220989D01*
X106877032Y-137432742D01*
X107171406Y-137590088D01*
X107490820Y-137686981D01*
X107739765Y-137711500D01*
X107739774Y-137711500D01*
X107822999Y-137719697D01*
X107906224Y-137711500D01*
X111959967Y-137711500D01*
X112207343Y-137958876D01*
X112616806Y-138232471D01*
X113071777Y-138420926D01*
X113554772Y-138517000D01*
X114047228Y-138517000D01*
X114530223Y-138420926D01*
X114985194Y-138232471D01*
X115394657Y-137958876D01*
X115742876Y-137610657D01*
X116016471Y-137201194D01*
X116204926Y-136746223D01*
X116301000Y-136263228D01*
X116397074Y-136746223D01*
X116585529Y-137201194D01*
X116859124Y-137610657D01*
X117207343Y-137958876D01*
X117616806Y-138232471D01*
X118071777Y-138420926D01*
X118554772Y-138517000D01*
X119047228Y-138517000D01*
X119530223Y-138420926D01*
X119985194Y-138232471D01*
X120394657Y-137958876D01*
X120742876Y-137610657D01*
X121016471Y-137201194D01*
X121204926Y-136746223D01*
X121301000Y-136263228D01*
X121301000Y-135974883D01*
X137104558Y-135974883D01*
X137151821Y-136762974D01*
X137351923Y-137526702D01*
X137697177Y-138236716D01*
X137868421Y-138493004D01*
X138412373Y-138839970D01*
X141123343Y-136129000D01*
X138412373Y-133418030D01*
X137868421Y-133764996D01*
X137469878Y-134446527D01*
X137211953Y-135192715D01*
X137104558Y-135974883D01*
X121301000Y-135974883D01*
X121301000Y-135770772D01*
X121204926Y-135287777D01*
X121016471Y-134832806D01*
X120742876Y-134423343D01*
X120451500Y-134131967D01*
X120451500Y-133412373D01*
X138418030Y-133412373D01*
X141129000Y-136123343D01*
X143839970Y-133412373D01*
X143493004Y-132868421D01*
X142811473Y-132469878D01*
X142065285Y-132211953D01*
X141283117Y-132104558D01*
X140495026Y-132151821D01*
X139731298Y-132351923D01*
X139021284Y-132697177D01*
X138764996Y-132868421D01*
X138418030Y-133412373D01*
X120451500Y-133412373D01*
X120451500Y-128115512D01*
X120828754Y-127863440D01*
X121281440Y-127410754D01*
X121637112Y-126878452D01*
X121882104Y-126286990D01*
X122007000Y-125659097D01*
X122007000Y-125018903D01*
X121882104Y-124391010D01*
X121637112Y-123799548D01*
X121598326Y-123741500D01*
X134763116Y-123741500D01*
X136257000Y-125235385D01*
X136257000Y-125585228D01*
X136353074Y-126068223D01*
X136541529Y-126523194D01*
X136815124Y-126932657D01*
X137163343Y-127280876D01*
X137572806Y-127554471D01*
X138027777Y-127742926D01*
X138510772Y-127839000D01*
X139003228Y-127839000D01*
X139486223Y-127742926D01*
X139941194Y-127554471D01*
X140350657Y-127280876D01*
X140598033Y-127033500D01*
X141945836Y-127033500D01*
X141948840Y-127037160D01*
X142139177Y-127193366D01*
X142356331Y-127309437D01*
X142591957Y-127380913D01*
X142837000Y-127405048D01*
X144354001Y-127405048D01*
X144354001Y-133742302D01*
X143845627Y-133418030D01*
X141134657Y-136129000D01*
X143845627Y-138839970D01*
X144354001Y-138515698D01*
X144354001Y-139854000D01*
X142633798Y-139854000D01*
X143236716Y-139560823D01*
X143493004Y-139389579D01*
X143839970Y-138845627D01*
X141129000Y-136134657D01*
X138418030Y-138845627D01*
X138764996Y-139389579D01*
X139446527Y-139788122D01*
X139637115Y-139854000D01*
X67633798Y-139854000D01*
X68236716Y-139560823D01*
X68493004Y-139389579D01*
X68839970Y-138845627D01*
X66129000Y-136134657D01*
X63418030Y-138845627D01*
X63764996Y-139389579D01*
X64446527Y-139788122D01*
X64637115Y-139854000D01*
X46904000Y-139854000D01*
X46904000Y-135974883D01*
X62104558Y-135974883D01*
X62151821Y-136762974D01*
X62351923Y-137526702D01*
X62697177Y-138236716D01*
X62868421Y-138493004D01*
X63412373Y-138839970D01*
X66123343Y-136129000D01*
X66134657Y-136129000D01*
X68845627Y-138839970D01*
X69389579Y-138493004D01*
X69696103Y-137968830D01*
X79166827Y-137968830D01*
X79220039Y-138261894D01*
X79485207Y-138416402D01*
X79775423Y-138516211D01*
X80079534Y-138557483D01*
X80385854Y-138538633D01*
X80682611Y-138460385D01*
X80958399Y-138325746D01*
X81053961Y-138261894D01*
X81107173Y-137968830D01*
X80137000Y-136998657D01*
X79166827Y-137968830D01*
X69696103Y-137968830D01*
X69788122Y-137811473D01*
X70046047Y-137065285D01*
X70153442Y-136283117D01*
X70106179Y-135495026D01*
X69906077Y-134731298D01*
X69560823Y-134021284D01*
X69389579Y-133764996D01*
X69276709Y-133693000D01*
X78080952Y-133693000D01*
X78080952Y-135293000D01*
X78105087Y-135538043D01*
X78176563Y-135773669D01*
X78292634Y-135990823D01*
X78448840Y-136181160D01*
X78639177Y-136337366D01*
X78703158Y-136371564D01*
X78613789Y-136631423D01*
X78572517Y-136935534D01*
X78591367Y-137241854D01*
X78669615Y-137538611D01*
X78804254Y-137814399D01*
X78868106Y-137909961D01*
X79161170Y-137963173D01*
X80131343Y-136993000D01*
X80117201Y-136978858D01*
X80122858Y-136973201D01*
X80137000Y-136987343D01*
X80151142Y-136973201D01*
X80156799Y-136978858D01*
X80142657Y-136993000D01*
X81112830Y-137963173D01*
X81405894Y-137909961D01*
X81560402Y-137644793D01*
X81660211Y-137354577D01*
X81665911Y-137312570D01*
X88635087Y-137312570D01*
X88742254Y-137651714D01*
X89083897Y-137851046D01*
X89457863Y-137979897D01*
X89849782Y-138033314D01*
X90244590Y-138009246D01*
X90627117Y-137908617D01*
X90982662Y-137735294D01*
X91107746Y-137651714D01*
X91214913Y-137312570D01*
X89925000Y-136022657D01*
X88635087Y-137312570D01*
X81665911Y-137312570D01*
X81701483Y-137050466D01*
X81682633Y-136744146D01*
X81604385Y-136447389D01*
X81568087Y-136373037D01*
X81634823Y-136337366D01*
X81809435Y-136194065D01*
X81826000Y-136195697D01*
X81909228Y-136187500D01*
X81909235Y-136187500D01*
X82158180Y-136162981D01*
X82477594Y-136066088D01*
X82771968Y-135908742D01*
X83029989Y-135696989D01*
X83083050Y-135632334D01*
X84051885Y-134663500D01*
X88565840Y-134663500D01*
X88629428Y-134727088D01*
X88290286Y-134834254D01*
X88090954Y-135175897D01*
X87962103Y-135549863D01*
X87908686Y-135941782D01*
X87932754Y-136336590D01*
X88033383Y-136719117D01*
X88206706Y-137074662D01*
X88290286Y-137199746D01*
X88629430Y-137306913D01*
X89919343Y-136017000D01*
X89905201Y-136002858D01*
X89910858Y-135997201D01*
X89925000Y-136011343D01*
X89939142Y-135997201D01*
X89944799Y-136002858D01*
X89930657Y-136017000D01*
X91220570Y-137306913D01*
X91559714Y-137199746D01*
X91759046Y-136858103D01*
X91887897Y-136484137D01*
X91941314Y-136092218D01*
X91917246Y-135697410D01*
X91816617Y-135314883D01*
X91807218Y-135295602D01*
X92425000Y-135913385D01*
X92425000Y-136263228D01*
X92521074Y-136746223D01*
X92709529Y-137201194D01*
X92983124Y-137610657D01*
X93331343Y-137958876D01*
X93740806Y-138232471D01*
X94195777Y-138420926D01*
X94678772Y-138517000D01*
X95171228Y-138517000D01*
X95654223Y-138420926D01*
X96109194Y-138232471D01*
X96518657Y-137958876D01*
X96866876Y-137610657D01*
X97140471Y-137201194D01*
X97328926Y-136746223D01*
X97425000Y-136263228D01*
X97425000Y-135770772D01*
X97328926Y-135287777D01*
X97140471Y-134832806D01*
X96866876Y-134423343D01*
X96518657Y-134075124D01*
X96109194Y-133801529D01*
X95654223Y-133613074D01*
X95171228Y-133517000D01*
X94821385Y-133517000D01*
X93134051Y-131829667D01*
X93080989Y-131765011D01*
X92822968Y-131553258D01*
X92528594Y-131395912D01*
X92209180Y-131299019D01*
X91960235Y-131274500D01*
X91960228Y-131274500D01*
X91877000Y-131266303D01*
X91793772Y-131274500D01*
X83433224Y-131274500D01*
X83349999Y-131266303D01*
X83266774Y-131274500D01*
X83266765Y-131274500D01*
X83017820Y-131299019D01*
X82698406Y-131395912D01*
X82404032Y-131553258D01*
X82146011Y-131765011D01*
X82092953Y-131829662D01*
X81396480Y-132526135D01*
X81182043Y-132461087D01*
X80937000Y-132436952D01*
X79337000Y-132436952D01*
X79091957Y-132461087D01*
X78856331Y-132532563D01*
X78639177Y-132648634D01*
X78448840Y-132804840D01*
X78292634Y-132995177D01*
X78176563Y-133212331D01*
X78105087Y-133447957D01*
X78080952Y-133693000D01*
X69276709Y-133693000D01*
X68845627Y-133418030D01*
X66134657Y-136129000D01*
X66123343Y-136129000D01*
X63412373Y-133418030D01*
X62868421Y-133764996D01*
X62469878Y-134446527D01*
X62211953Y-135192715D01*
X62104558Y-135974883D01*
X46904000Y-135974883D01*
X46904000Y-133412373D01*
X63418030Y-133412373D01*
X66129000Y-136123343D01*
X68839970Y-133412373D01*
X68493004Y-132868421D01*
X67811473Y-132469878D01*
X67065285Y-132211953D01*
X66283117Y-132104558D01*
X65495026Y-132151821D01*
X64731298Y-132351923D01*
X64021284Y-132697177D01*
X63764996Y-132868421D01*
X63418030Y-133412373D01*
X46904000Y-133412373D01*
X46904000Y-128655000D01*
X49717000Y-128655000D01*
X49717000Y-129155000D01*
X49751560Y-129497892D01*
X49852351Y-129827453D01*
X50015499Y-130131018D01*
X50234735Y-130396922D01*
X50501634Y-130614946D01*
X50805939Y-130776711D01*
X51135955Y-130876001D01*
X51196038Y-130886725D01*
X51471000Y-130719495D01*
X51471000Y-128655000D01*
X49717000Y-128655000D01*
X46904000Y-128655000D01*
X46904000Y-128147000D01*
X49717000Y-128147000D01*
X49717000Y-128647000D01*
X51471000Y-128647000D01*
X51471000Y-126582505D01*
X51196038Y-126415275D01*
X51135955Y-126425999D01*
X50805939Y-126525289D01*
X50501634Y-126687054D01*
X50234735Y-126905078D01*
X50015499Y-127170982D01*
X49852351Y-127474547D01*
X49751560Y-127804108D01*
X49717000Y-128147000D01*
X46904000Y-128147000D01*
X46904000Y-125001048D01*
X48721000Y-125001048D01*
X48966043Y-124976913D01*
X49201669Y-124905437D01*
X49418823Y-124789366D01*
X49609160Y-124633160D01*
X49765366Y-124442823D01*
X49881437Y-124225669D01*
X49952913Y-123990043D01*
X49977048Y-123745000D01*
X49977048Y-121508432D01*
X52280500Y-123811885D01*
G37*
X52280500Y-123811885D02*
X52280501Y-126597819D01*
X52144061Y-126525289D01*
X51814045Y-126425999D01*
X51753962Y-126415275D01*
X51479000Y-126582505D01*
X51479000Y-128647000D01*
X51499000Y-128647000D01*
X51499000Y-128655000D01*
X51479000Y-128655000D01*
X51479000Y-130719495D01*
X51753962Y-130886725D01*
X51814045Y-130876001D01*
X52144061Y-130776711D01*
X52321208Y-130682542D01*
X52376313Y-130749688D01*
X52718920Y-131030858D01*
X53109797Y-131239786D01*
X53533924Y-131368444D01*
X53975000Y-131411886D01*
X54416077Y-131368444D01*
X54840204Y-131239786D01*
X55225001Y-131034108D01*
X55609797Y-131239786D01*
X56033924Y-131368444D01*
X56475000Y-131411886D01*
X56916077Y-131368444D01*
X57340204Y-131239786D01*
X57731081Y-131030858D01*
X58073688Y-130749688D01*
X58354858Y-130407081D01*
X58387774Y-130345500D01*
X59059009Y-130345500D01*
X59094840Y-130389160D01*
X59285177Y-130545366D01*
X59502331Y-130661437D01*
X59737957Y-130732913D01*
X59983000Y-130757048D01*
X61683000Y-130757048D01*
X61928043Y-130732913D01*
X62163669Y-130661437D01*
X62380823Y-130545366D01*
X62571160Y-130389160D01*
X62727366Y-130198823D01*
X62843437Y-129981669D01*
X62914913Y-129746043D01*
X62939048Y-129501000D01*
X62939048Y-127805500D01*
X63643606Y-127805500D01*
X63627087Y-127859957D01*
X63602952Y-128105000D01*
X63602952Y-129705000D01*
X63627087Y-129950043D01*
X63698563Y-130185669D01*
X63814634Y-130402823D01*
X63970840Y-130593160D01*
X64161177Y-130749366D01*
X64378331Y-130865437D01*
X64613957Y-130936913D01*
X64859000Y-130961048D01*
X66459000Y-130961048D01*
X66704043Y-130936913D01*
X66939669Y-130865437D01*
X67156823Y-130749366D01*
X67347160Y-130593160D01*
X67503366Y-130402823D01*
X67619437Y-130185669D01*
X67690913Y-129950043D01*
X67715048Y-129705000D01*
X67715048Y-129152675D01*
X71740812Y-129152675D01*
X71763118Y-129264817D01*
X71862442Y-129553637D01*
X72016204Y-129817530D01*
X72218494Y-130046355D01*
X72461539Y-130231319D01*
X72735998Y-130365313D01*
X73031325Y-130443188D01*
X73275000Y-130273495D01*
X73275000Y-128909000D01*
X73283000Y-128909000D01*
X73283000Y-130273495D01*
X73526675Y-130443188D01*
X73822002Y-130365313D01*
X74096461Y-130231319D01*
X74339506Y-130046355D01*
X74541796Y-129817530D01*
X74695558Y-129553637D01*
X74794882Y-129264817D01*
X74817188Y-129152675D01*
X74647494Y-128909000D01*
X73283000Y-128909000D01*
X73275000Y-128909000D01*
X71910506Y-128909000D01*
X71740812Y-129152675D01*
X67715048Y-129152675D01*
X67715048Y-128105000D01*
X67690913Y-127859957D01*
X67674394Y-127805500D01*
X72181493Y-127805500D01*
X72016204Y-127992470D01*
X71862442Y-128256363D01*
X71763118Y-128545183D01*
X71740812Y-128657325D01*
X71910506Y-128901000D01*
X73275000Y-128901000D01*
X73275000Y-128881000D01*
X73283000Y-128881000D01*
X73283000Y-128901000D01*
X74647494Y-128901000D01*
X74817188Y-128657325D01*
X74794882Y-128545183D01*
X74695558Y-128256363D01*
X74541796Y-127992470D01*
X74376507Y-127805500D01*
X77259772Y-127805500D01*
X77343000Y-127813697D01*
X77426228Y-127805500D01*
X77426235Y-127805500D01*
X77675180Y-127780981D01*
X77994594Y-127684088D01*
X78288968Y-127526742D01*
X78546989Y-127314989D01*
X78600051Y-127250333D01*
X82362885Y-123487500D01*
X84843391Y-123487500D01*
X84634888Y-123799548D01*
X84389896Y-124391010D01*
X84265000Y-125018903D01*
X84265000Y-125659097D01*
X84389896Y-126286990D01*
X84634888Y-126878452D01*
X84990560Y-127410754D01*
X85443246Y-127863440D01*
X85975548Y-128219112D01*
X86567010Y-128464104D01*
X87194903Y-128589000D01*
X87835097Y-128589000D01*
X88462990Y-128464104D01*
X89054452Y-128219112D01*
X89586754Y-127863440D01*
X90039440Y-127410754D01*
X90291512Y-127033500D01*
X96443116Y-127033500D01*
X106565954Y-137156339D01*
X106619011Y-137220989D01*
X106877032Y-137432742D01*
X107171406Y-137590088D01*
X107490820Y-137686981D01*
X107739765Y-137711500D01*
X107739774Y-137711500D01*
X107822999Y-137719697D01*
X107906224Y-137711500D01*
X111959967Y-137711500D01*
X112207343Y-137958876D01*
X112616806Y-138232471D01*
X113071777Y-138420926D01*
X113554772Y-138517000D01*
X114047228Y-138517000D01*
X114530223Y-138420926D01*
X114985194Y-138232471D01*
X115394657Y-137958876D01*
X115742876Y-137610657D01*
X116016471Y-137201194D01*
X116204926Y-136746223D01*
X116301000Y-136263228D01*
X116397074Y-136746223D01*
X116585529Y-137201194D01*
X116859124Y-137610657D01*
X117207343Y-137958876D01*
X117616806Y-138232471D01*
X118071777Y-138420926D01*
X118554772Y-138517000D01*
X119047228Y-138517000D01*
X119530223Y-138420926D01*
X119985194Y-138232471D01*
X120394657Y-137958876D01*
X120742876Y-137610657D01*
X121016471Y-137201194D01*
X121204926Y-136746223D01*
X121301000Y-136263228D01*
X121301000Y-135974883D01*
X137104558Y-135974883D01*
X137151821Y-136762974D01*
X137351923Y-137526702D01*
X137697177Y-138236716D01*
X137868421Y-138493004D01*
X138412373Y-138839970D01*
X141123343Y-136129000D01*
X138412373Y-133418030D01*
X137868421Y-133764996D01*
X137469878Y-134446527D01*
X137211953Y-135192715D01*
X137104558Y-135974883D01*
X121301000Y-135974883D01*
X121301000Y-135770772D01*
X121204926Y-135287777D01*
X121016471Y-134832806D01*
X120742876Y-134423343D01*
X120451500Y-134131967D01*
X120451500Y-133412373D01*
X138418030Y-133412373D01*
X141129000Y-136123343D01*
X143839970Y-133412373D01*
X143493004Y-132868421D01*
X142811473Y-132469878D01*
X142065285Y-132211953D01*
X141283117Y-132104558D01*
X140495026Y-132151821D01*
X139731298Y-132351923D01*
X139021284Y-132697177D01*
X138764996Y-132868421D01*
X138418030Y-133412373D01*
X120451500Y-133412373D01*
X120451500Y-128115512D01*
X120828754Y-127863440D01*
X121281440Y-127410754D01*
X121637112Y-126878452D01*
X121882104Y-126286990D01*
X122007000Y-125659097D01*
X122007000Y-125018903D01*
X121882104Y-124391010D01*
X121637112Y-123799548D01*
X121598326Y-123741500D01*
X134763116Y-123741500D01*
X136257000Y-125235385D01*
X136257000Y-125585228D01*
X136353074Y-126068223D01*
X136541529Y-126523194D01*
X136815124Y-126932657D01*
X137163343Y-127280876D01*
X137572806Y-127554471D01*
X138027777Y-127742926D01*
X138510772Y-127839000D01*
X139003228Y-127839000D01*
X139486223Y-127742926D01*
X139941194Y-127554471D01*
X140350657Y-127280876D01*
X140598033Y-127033500D01*
X141945836Y-127033500D01*
X141948840Y-127037160D01*
X142139177Y-127193366D01*
X142356331Y-127309437D01*
X142591957Y-127380913D01*
X142837000Y-127405048D01*
X144354001Y-127405048D01*
X144354001Y-133742302D01*
X143845627Y-133418030D01*
X141134657Y-136129000D01*
X143845627Y-138839970D01*
X144354001Y-138515698D01*
X144354001Y-139854000D01*
X142633798Y-139854000D01*
X143236716Y-139560823D01*
X143493004Y-139389579D01*
X143839970Y-138845627D01*
X141129000Y-136134657D01*
X138418030Y-138845627D01*
X138764996Y-139389579D01*
X139446527Y-139788122D01*
X139637115Y-139854000D01*
X67633798Y-139854000D01*
X68236716Y-139560823D01*
X68493004Y-139389579D01*
X68839970Y-138845627D01*
X66129000Y-136134657D01*
X63418030Y-138845627D01*
X63764996Y-139389579D01*
X64446527Y-139788122D01*
X64637115Y-139854000D01*
X46904000Y-139854000D01*
X46904000Y-135974883D01*
X62104558Y-135974883D01*
X62151821Y-136762974D01*
X62351923Y-137526702D01*
X62697177Y-138236716D01*
X62868421Y-138493004D01*
X63412373Y-138839970D01*
X66123343Y-136129000D01*
X66134657Y-136129000D01*
X68845627Y-138839970D01*
X69389579Y-138493004D01*
X69696103Y-137968830D01*
X79166827Y-137968830D01*
X79220039Y-138261894D01*
X79485207Y-138416402D01*
X79775423Y-138516211D01*
X80079534Y-138557483D01*
X80385854Y-138538633D01*
X80682611Y-138460385D01*
X80958399Y-138325746D01*
X81053961Y-138261894D01*
X81107173Y-137968830D01*
X80137000Y-136998657D01*
X79166827Y-137968830D01*
X69696103Y-137968830D01*
X69788122Y-137811473D01*
X70046047Y-137065285D01*
X70153442Y-136283117D01*
X70106179Y-135495026D01*
X69906077Y-134731298D01*
X69560823Y-134021284D01*
X69389579Y-133764996D01*
X69276709Y-133693000D01*
X78080952Y-133693000D01*
X78080952Y-135293000D01*
X78105087Y-135538043D01*
X78176563Y-135773669D01*
X78292634Y-135990823D01*
X78448840Y-136181160D01*
X78639177Y-136337366D01*
X78703158Y-136371564D01*
X78613789Y-136631423D01*
X78572517Y-136935534D01*
X78591367Y-137241854D01*
X78669615Y-137538611D01*
X78804254Y-137814399D01*
X78868106Y-137909961D01*
X79161170Y-137963173D01*
X80131343Y-136993000D01*
X80117201Y-136978858D01*
X80122858Y-136973201D01*
X80137000Y-136987343D01*
X80151142Y-136973201D01*
X80156799Y-136978858D01*
X80142657Y-136993000D01*
X81112830Y-137963173D01*
X81405894Y-137909961D01*
X81560402Y-137644793D01*
X81660211Y-137354577D01*
X81665911Y-137312570D01*
X88635087Y-137312570D01*
X88742254Y-137651714D01*
X89083897Y-137851046D01*
X89457863Y-137979897D01*
X89849782Y-138033314D01*
X90244590Y-138009246D01*
X90627117Y-137908617D01*
X90982662Y-137735294D01*
X91107746Y-137651714D01*
X91214913Y-137312570D01*
X89925000Y-136022657D01*
X88635087Y-137312570D01*
X81665911Y-137312570D01*
X81701483Y-137050466D01*
X81682633Y-136744146D01*
X81604385Y-136447389D01*
X81568087Y-136373037D01*
X81634823Y-136337366D01*
X81809435Y-136194065D01*
X81826000Y-136195697D01*
X81909228Y-136187500D01*
X81909235Y-136187500D01*
X82158180Y-136162981D01*
X82477594Y-136066088D01*
X82771968Y-135908742D01*
X83029989Y-135696989D01*
X83083050Y-135632334D01*
X84051885Y-134663500D01*
X88565840Y-134663500D01*
X88629428Y-134727088D01*
X88290286Y-134834254D01*
X88090954Y-135175897D01*
X87962103Y-135549863D01*
X87908686Y-135941782D01*
X87932754Y-136336590D01*
X88033383Y-136719117D01*
X88206706Y-137074662D01*
X88290286Y-137199746D01*
X88629430Y-137306913D01*
X89919343Y-136017000D01*
X89905201Y-136002858D01*
X89910858Y-135997201D01*
X89925000Y-136011343D01*
X89939142Y-135997201D01*
X89944799Y-136002858D01*
X89930657Y-136017000D01*
X91220570Y-137306913D01*
X91559714Y-137199746D01*
X91759046Y-136858103D01*
X91887897Y-136484137D01*
X91941314Y-136092218D01*
X91917246Y-135697410D01*
X91816617Y-135314883D01*
X91807218Y-135295602D01*
X92425000Y-135913385D01*
X92425000Y-136263228D01*
X92521074Y-136746223D01*
X92709529Y-137201194D01*
X92983124Y-137610657D01*
X93331343Y-137958876D01*
X93740806Y-138232471D01*
X94195777Y-138420926D01*
X94678772Y-138517000D01*
X95171228Y-138517000D01*
X95654223Y-138420926D01*
X96109194Y-138232471D01*
X96518657Y-137958876D01*
X96866876Y-137610657D01*
X97140471Y-137201194D01*
X97328926Y-136746223D01*
X97425000Y-136263228D01*
X97425000Y-135770772D01*
X97328926Y-135287777D01*
X97140471Y-134832806D01*
X96866876Y-134423343D01*
X96518657Y-134075124D01*
X96109194Y-133801529D01*
X95654223Y-133613074D01*
X95171228Y-133517000D01*
X94821385Y-133517000D01*
X93134051Y-131829667D01*
X93080989Y-131765011D01*
X92822968Y-131553258D01*
X92528594Y-131395912D01*
X92209180Y-131299019D01*
X91960235Y-131274500D01*
X91960228Y-131274500D01*
X91877000Y-131266303D01*
X91793772Y-131274500D01*
X83433224Y-131274500D01*
X83349999Y-131266303D01*
X83266774Y-131274500D01*
X83266765Y-131274500D01*
X83017820Y-131299019D01*
X82698406Y-131395912D01*
X82404032Y-131553258D01*
X82146011Y-131765011D01*
X82092953Y-131829662D01*
X81396480Y-132526135D01*
X81182043Y-132461087D01*
X80937000Y-132436952D01*
X79337000Y-132436952D01*
X79091957Y-132461087D01*
X78856331Y-132532563D01*
X78639177Y-132648634D01*
X78448840Y-132804840D01*
X78292634Y-132995177D01*
X78176563Y-133212331D01*
X78105087Y-133447957D01*
X78080952Y-133693000D01*
X69276709Y-133693000D01*
X68845627Y-133418030D01*
X66134657Y-136129000D01*
X66123343Y-136129000D01*
X63412373Y-133418030D01*
X62868421Y-133764996D01*
X62469878Y-134446527D01*
X62211953Y-135192715D01*
X62104558Y-135974883D01*
X46904000Y-135974883D01*
X46904000Y-133412373D01*
X63418030Y-133412373D01*
X66129000Y-136123343D01*
X68839970Y-133412373D01*
X68493004Y-132868421D01*
X67811473Y-132469878D01*
X67065285Y-132211953D01*
X66283117Y-132104558D01*
X65495026Y-132151821D01*
X64731298Y-132351923D01*
X64021284Y-132697177D01*
X63764996Y-132868421D01*
X63418030Y-133412373D01*
X46904000Y-133412373D01*
X46904000Y-128655000D01*
X49717000Y-128655000D01*
X49717000Y-129155000D01*
X49751560Y-129497892D01*
X49852351Y-129827453D01*
X50015499Y-130131018D01*
X50234735Y-130396922D01*
X50501634Y-130614946D01*
X50805939Y-130776711D01*
X51135955Y-130876001D01*
X51196038Y-130886725D01*
X51471000Y-130719495D01*
X51471000Y-128655000D01*
X49717000Y-128655000D01*
X46904000Y-128655000D01*
X46904000Y-128147000D01*
X49717000Y-128147000D01*
X49717000Y-128647000D01*
X51471000Y-128647000D01*
X51471000Y-126582505D01*
X51196038Y-126415275D01*
X51135955Y-126425999D01*
X50805939Y-126525289D01*
X50501634Y-126687054D01*
X50234735Y-126905078D01*
X50015499Y-127170982D01*
X49852351Y-127474547D01*
X49751560Y-127804108D01*
X49717000Y-128147000D01*
X46904000Y-128147000D01*
X46904000Y-125001048D01*
X48721000Y-125001048D01*
X48966043Y-124976913D01*
X49201669Y-124905437D01*
X49418823Y-124789366D01*
X49609160Y-124633160D01*
X49765366Y-124442823D01*
X49881437Y-124225669D01*
X49952913Y-123990043D01*
X49977048Y-123745000D01*
X49977048Y-121508432D01*
X52280500Y-123811885D01*
G36*
X139021284Y-42697177D02*
G01*
X138764996Y-42868421D01*
X138418030Y-43412373D01*
X141129000Y-46123343D01*
X143839970Y-43412373D01*
X143493004Y-42868421D01*
X142811473Y-42469878D01*
X142620885Y-42404000D01*
X144354000Y-42404000D01*
X144354000Y-43742302D01*
X143845627Y-43418030D01*
X141134657Y-46129000D01*
X143845627Y-48839970D01*
X144354000Y-48515698D01*
X144354001Y-115807087D01*
X144234963Y-115757780D01*
X143838907Y-115679000D01*
X143435093Y-115679000D01*
X143039037Y-115757780D01*
X142665961Y-115912314D01*
X142468130Y-116044500D01*
X140598033Y-116044500D01*
X140350657Y-115797124D01*
X139941194Y-115523529D01*
X139486223Y-115335074D01*
X139003228Y-115239000D01*
X138510772Y-115239000D01*
X138027777Y-115335074D01*
X137572806Y-115523529D01*
X137163343Y-115797124D01*
X136815124Y-116145343D01*
X136541529Y-116554806D01*
X136353074Y-117009777D01*
X136257000Y-117492772D01*
X136257000Y-117842615D01*
X135017116Y-119082500D01*
X125218278Y-119082500D01*
X125382104Y-118686990D01*
X125507000Y-118059097D01*
X125507000Y-117418903D01*
X125382104Y-116791010D01*
X125137112Y-116199548D01*
X124781440Y-115667246D01*
X124328754Y-115214560D01*
X123995500Y-114991887D01*
X123995500Y-114837435D01*
X124145366Y-114654823D01*
X124261437Y-114437669D01*
X124332913Y-114202043D01*
X124357048Y-113957000D01*
X124357048Y-112357000D01*
X124332913Y-112111957D01*
X124261437Y-111876331D01*
X124145366Y-111659177D01*
X123989160Y-111468840D01*
X123798823Y-111312634D01*
X123581669Y-111196563D01*
X123346043Y-111125087D01*
X123101000Y-111100952D01*
X121501000Y-111100952D01*
X121255957Y-111125087D01*
X121041520Y-111190135D01*
X119583051Y-109731667D01*
X119529989Y-109667011D01*
X119271968Y-109455258D01*
X118977594Y-109297912D01*
X118658180Y-109201019D01*
X118409235Y-109176500D01*
X118409228Y-109176500D01*
X118326000Y-109168303D01*
X118242772Y-109176500D01*
X93428228Y-109176500D01*
X93345000Y-109168303D01*
X93261772Y-109176500D01*
X93261765Y-109176500D01*
X93043987Y-109197949D01*
X93012819Y-109201019D01*
X92693405Y-109297912D01*
X92590867Y-109352720D01*
X92399032Y-109455258D01*
X92141011Y-109667011D01*
X92087954Y-109731661D01*
X88419617Y-113399999D01*
X86742728Y-113399999D01*
X86659500Y-113391802D01*
X86576272Y-113399999D01*
X86576266Y-113399999D01*
X86361715Y-113421130D01*
X86327320Y-113424518D01*
X86230427Y-113453910D01*
X86007907Y-113521411D01*
X85713533Y-113678757D01*
X85713531Y-113678758D01*
X85713532Y-113678758D01*
X85555327Y-113808594D01*
X85455512Y-113890510D01*
X85402455Y-113955160D01*
X84780099Y-114577517D01*
X84335097Y-114489000D01*
X83694903Y-114489000D01*
X83067010Y-114613896D01*
X82475548Y-114858888D01*
X81943246Y-115214560D01*
X81490560Y-115667246D01*
X81134888Y-116199548D01*
X80889896Y-116791010D01*
X80765000Y-117418903D01*
X80765000Y-118059097D01*
X80889896Y-118686990D01*
X81134888Y-119278452D01*
X81490560Y-119810754D01*
X81778306Y-120098500D01*
X81744227Y-120098500D01*
X81660999Y-120090303D01*
X81577771Y-120098500D01*
X81577765Y-120098500D01*
X81363214Y-120119631D01*
X81328819Y-120123019D01*
X81263195Y-120142926D01*
X81009406Y-120219912D01*
X80715032Y-120377258D01*
X80457011Y-120589011D01*
X80403954Y-120653661D01*
X77206607Y-123851009D01*
X77217048Y-123745000D01*
X77217048Y-114957365D01*
X77227000Y-114856320D01*
X77227000Y-109933680D01*
X77217048Y-109832635D01*
X77217048Y-101045000D01*
X77192913Y-100799957D01*
X77121437Y-100564331D01*
X77029135Y-100391645D01*
X78371704Y-100391645D01*
X78392873Y-100737293D01*
X78481068Y-101072169D01*
X78632900Y-101383405D01*
X78705520Y-101492088D01*
X79019063Y-101569280D01*
X80131343Y-100457000D01*
X79019063Y-99344720D01*
X78705520Y-99421912D01*
X78531089Y-99721069D01*
X78418373Y-100048508D01*
X78371704Y-100391645D01*
X77029135Y-100391645D01*
X77005366Y-100347177D01*
X76849160Y-100156840D01*
X76658823Y-100000634D01*
X76441669Y-99884563D01*
X76206043Y-99813087D01*
X75961000Y-99788952D01*
X73961000Y-99788952D01*
X73715957Y-99813087D01*
X73480331Y-99884563D01*
X73263177Y-100000634D01*
X73072840Y-100156840D01*
X72916634Y-100347177D01*
X72800563Y-100564331D01*
X72729087Y-100799957D01*
X72704952Y-101045000D01*
X72704952Y-109832645D01*
X72695001Y-109933680D01*
X72695000Y-114856319D01*
X72704952Y-114957364D01*
X72704952Y-123745000D01*
X72729087Y-123990043D01*
X72800563Y-124225669D01*
X72902564Y-124416500D01*
X65742235Y-124416500D01*
X65659000Y-124408302D01*
X65575765Y-124416500D01*
X65019436Y-124416500D01*
X65121437Y-124225669D01*
X65192913Y-123990043D01*
X65217048Y-123745000D01*
X65217048Y-118957365D01*
X65237964Y-118745000D01*
X65217048Y-118532635D01*
X65217048Y-113745000D01*
X65192913Y-113499957D01*
X65121437Y-113264331D01*
X65005366Y-113047177D01*
X64849160Y-112856840D01*
X64658823Y-112700634D01*
X64441669Y-112584563D01*
X64206043Y-112513087D01*
X63961000Y-112488952D01*
X61961000Y-112488952D01*
X61715957Y-112513087D01*
X61480331Y-112584563D01*
X61341000Y-112659037D01*
X61201669Y-112584563D01*
X60966043Y-112513087D01*
X60721000Y-112488952D01*
X58721000Y-112488952D01*
X58593980Y-112501463D01*
X58473569Y-112276189D01*
X58475957Y-112276913D01*
X58721000Y-112301048D01*
X60721000Y-112301048D01*
X60966043Y-112276913D01*
X61201669Y-112205437D01*
X61341000Y-112130963D01*
X61480331Y-112205437D01*
X61715957Y-112276913D01*
X61961000Y-112301048D01*
X63961000Y-112301048D01*
X64206043Y-112276913D01*
X64441669Y-112205437D01*
X64658823Y-112089366D01*
X64849160Y-111933160D01*
X65005366Y-111742823D01*
X65121437Y-111525669D01*
X65192913Y-111290043D01*
X65217048Y-111045000D01*
X65217048Y-106257365D01*
X65237964Y-106045000D01*
X65217048Y-105832635D01*
X65217048Y-101045000D01*
X65192913Y-100799957D01*
X65121437Y-100564331D01*
X65005366Y-100347177D01*
X64849160Y-100156840D01*
X64658823Y-100000634D01*
X64441669Y-99884563D01*
X64206043Y-99813087D01*
X63961000Y-99788952D01*
X61961000Y-99788952D01*
X61715957Y-99813087D01*
X61480331Y-99884563D01*
X61341000Y-99959037D01*
X61201669Y-99884563D01*
X60966043Y-99813087D01*
X60721000Y-99788952D01*
X58721000Y-99788952D01*
X58475957Y-99813087D01*
X58240331Y-99884563D01*
X58023177Y-100000634D01*
X57832840Y-100156840D01*
X57676634Y-100347177D01*
X57560563Y-100564331D01*
X57489087Y-100799957D01*
X57464952Y-101045000D01*
X57464952Y-105832635D01*
X57444036Y-106045000D01*
X57464952Y-106257365D01*
X57464952Y-111045000D01*
X57482167Y-111219782D01*
X55232051Y-108969667D01*
X55178989Y-108905011D01*
X54920968Y-108693258D01*
X54626594Y-108535912D01*
X54307180Y-108439019D01*
X54058235Y-108414500D01*
X54058228Y-108414500D01*
X53975000Y-108406303D01*
X53891772Y-108414500D01*
X49977048Y-108414500D01*
X49977048Y-101045000D01*
X49952913Y-100799957D01*
X49881437Y-100564331D01*
X49765366Y-100347177D01*
X49609160Y-100156840D01*
X49418823Y-100000634D01*
X49319500Y-99947545D01*
X49319500Y-98417324D01*
X49528040Y-98208784D01*
X49796162Y-97807510D01*
X49980848Y-97361639D01*
X50075000Y-96888304D01*
X50075000Y-96405696D01*
X70575000Y-96405696D01*
X70575000Y-96888304D01*
X70669152Y-97361639D01*
X70853838Y-97807510D01*
X71121960Y-98208784D01*
X71463216Y-98550040D01*
X71864490Y-98818162D01*
X72310361Y-99002848D01*
X72783696Y-99097000D01*
X73266304Y-99097000D01*
X73739639Y-99002848D01*
X74185510Y-98818162D01*
X74586784Y-98550040D01*
X74795324Y-98341500D01*
X74883209Y-98341500D01*
X74919040Y-98385160D01*
X75109377Y-98541366D01*
X75326531Y-98657437D01*
X75562157Y-98728913D01*
X75807200Y-98753048D01*
X77507200Y-98753048D01*
X77752243Y-98728913D01*
X77987869Y-98657437D01*
X78205023Y-98541366D01*
X78395360Y-98385160D01*
X78431191Y-98341500D01*
X78649519Y-98341500D01*
X78702708Y-98394689D01*
X79071225Y-98640924D01*
X79480699Y-98810534D01*
X79496134Y-98813604D01*
X79210595Y-98952900D01*
X79101912Y-99025520D01*
X79024720Y-99339063D01*
X80137000Y-100451343D01*
X81249280Y-99339063D01*
X81172088Y-99025520D01*
X80872931Y-98851089D01*
X80769102Y-98815347D01*
X80793301Y-98810534D01*
X81202775Y-98640924D01*
X81571292Y-98394689D01*
X81884689Y-98081292D01*
X82130924Y-97712775D01*
X82300534Y-97303301D01*
X82387000Y-96868606D01*
X82387000Y-96425394D01*
X82300534Y-95990699D01*
X82130924Y-95581225D01*
X81884689Y-95212708D01*
X81571292Y-94899311D01*
X81202775Y-94653076D01*
X80793301Y-94483466D01*
X80358606Y-94397000D01*
X79915394Y-94397000D01*
X79480699Y-94483466D01*
X79071225Y-94653076D01*
X78702708Y-94899311D01*
X78649519Y-94952500D01*
X78431191Y-94952500D01*
X78395360Y-94908840D01*
X78205023Y-94752634D01*
X77987869Y-94636563D01*
X77752243Y-94565087D01*
X77507200Y-94540952D01*
X75807200Y-94540952D01*
X75562157Y-94565087D01*
X75326531Y-94636563D01*
X75109377Y-94752634D01*
X74919040Y-94908840D01*
X74883209Y-94952500D01*
X74795324Y-94952500D01*
X74586784Y-94743960D01*
X74185510Y-94475838D01*
X73739639Y-94291152D01*
X73266304Y-94197000D01*
X72783696Y-94197000D01*
X72310361Y-94291152D01*
X71864490Y-94475838D01*
X71463216Y-94743960D01*
X71121960Y-95085216D01*
X70853838Y-95486490D01*
X70669152Y-95932361D01*
X70575000Y-96405696D01*
X50075000Y-96405696D01*
X49980848Y-95932361D01*
X49796162Y-95486490D01*
X49528040Y-95085216D01*
X49186784Y-94743960D01*
X48785510Y-94475838D01*
X48339639Y-94291152D01*
X47866304Y-94197000D01*
X47383696Y-94197000D01*
X46910361Y-94291152D01*
X46904000Y-94293787D01*
X46904000Y-93944166D01*
X47266453Y-94094298D01*
X47672168Y-94175000D01*
X48085832Y-94175000D01*
X48491547Y-94094298D01*
X48873723Y-93935996D01*
X49217672Y-93706177D01*
X49510177Y-93413672D01*
X49739996Y-93069723D01*
X49898298Y-92687547D01*
X49979000Y-92281832D01*
X49979000Y-91868168D01*
X49898298Y-91462453D01*
X49739996Y-91080277D01*
X49556062Y-90805000D01*
X49739996Y-90529723D01*
X49898298Y-90147547D01*
X49979000Y-89741832D01*
X49979000Y-89328168D01*
X49898298Y-88922453D01*
X49739996Y-88540277D01*
X49556062Y-88265000D01*
X49739996Y-87989723D01*
X49898298Y-87607547D01*
X49979000Y-87201832D01*
X49979000Y-86788168D01*
X49898298Y-86382453D01*
X49739996Y-86000277D01*
X49510177Y-85656328D01*
X49217672Y-85363823D01*
X49206057Y-85356062D01*
X49340965Y-85124569D01*
X49443500Y-84826488D01*
X49466572Y-84710497D01*
X49297494Y-84459000D01*
X47883000Y-84459000D01*
X47883000Y-84479000D01*
X47875000Y-84479000D01*
X47875000Y-84459000D01*
X47855000Y-84459000D01*
X47855000Y-84451000D01*
X47875000Y-84451000D01*
X47875000Y-84431000D01*
X47883000Y-84431000D01*
X47883000Y-84451000D01*
X49297494Y-84451000D01*
X49466572Y-84199503D01*
X49443500Y-84083512D01*
X49361254Y-83844413D01*
X49426823Y-83809366D01*
X49617160Y-83653160D01*
X49652991Y-83609500D01*
X51859772Y-83609500D01*
X51943000Y-83617697D01*
X52026228Y-83609500D01*
X52026235Y-83609500D01*
X52275180Y-83584981D01*
X52594594Y-83488088D01*
X52888968Y-83330742D01*
X53146989Y-83118989D01*
X53200051Y-83054333D01*
X55884339Y-80370046D01*
X55948989Y-80316989D01*
X56008054Y-80245019D01*
X56160741Y-80058969D01*
X56160742Y-80058968D01*
X56318088Y-79764594D01*
X56414981Y-79445180D01*
X56439500Y-79196235D01*
X56439500Y-79196226D01*
X56447697Y-79113001D01*
X56439500Y-79029776D01*
X56439500Y-78885024D01*
X56549069Y-78948911D01*
X56876508Y-79061627D01*
X57219645Y-79108296D01*
X57565293Y-79087127D01*
X57900169Y-78998932D01*
X58168197Y-78868178D01*
X58390708Y-79090689D01*
X58759225Y-79336924D01*
X59168699Y-79506534D01*
X59603394Y-79593000D01*
X60046606Y-79593000D01*
X60481301Y-79506534D01*
X60890775Y-79336924D01*
X61095000Y-79200465D01*
X61299225Y-79336924D01*
X61708699Y-79506534D01*
X62143394Y-79593000D01*
X62586606Y-79593000D01*
X63021301Y-79506534D01*
X63210501Y-79428165D01*
X63210500Y-87600828D01*
X63202303Y-87684056D01*
X63210500Y-87767284D01*
X63210500Y-87767290D01*
X63235019Y-88016235D01*
X63331912Y-88335649D01*
X63489258Y-88630023D01*
X63701011Y-88888045D01*
X63765667Y-88941107D01*
X67022898Y-92198339D01*
X67075955Y-92262989D01*
X67333976Y-92474742D01*
X67525811Y-92577280D01*
X67628349Y-92632088D01*
X67947763Y-92728981D01*
X67978931Y-92732051D01*
X68196709Y-92753500D01*
X68196716Y-92753500D01*
X68207764Y-92754588D01*
X68415216Y-92962040D01*
X68816490Y-93230162D01*
X69262361Y-93414848D01*
X69735696Y-93509000D01*
X70218304Y-93509000D01*
X70691639Y-93414848D01*
X71137510Y-93230162D01*
X71538784Y-92962040D01*
X71880040Y-92620784D01*
X72148162Y-92219510D01*
X72332848Y-91773639D01*
X72427000Y-91300304D01*
X72427000Y-90817696D01*
X72332848Y-90344361D01*
X72173433Y-89959500D01*
X81467116Y-89959500D01*
X86074365Y-94566750D01*
X85873301Y-94483466D01*
X85438606Y-94397000D01*
X84995394Y-94397000D01*
X84560699Y-94483466D01*
X84151225Y-94653076D01*
X83782708Y-94899311D01*
X83469311Y-95212708D01*
X83223076Y-95581225D01*
X83053466Y-95990699D01*
X82967000Y-96425394D01*
X82967000Y-96868606D01*
X83053466Y-97303301D01*
X83223076Y-97712775D01*
X83469311Y-98081292D01*
X83782708Y-98394689D01*
X84018141Y-98552000D01*
X83782708Y-98709311D01*
X83730607Y-98761412D01*
X83719558Y-98762500D01*
X83719552Y-98762500D01*
X83505001Y-98783631D01*
X83470606Y-98787019D01*
X83393088Y-98810534D01*
X83151193Y-98883912D01*
X82856819Y-99041258D01*
X82598798Y-99253011D01*
X82545736Y-99317667D01*
X81840595Y-100022808D01*
X81792932Y-99841831D01*
X81641100Y-99530595D01*
X81568480Y-99421912D01*
X81254937Y-99344720D01*
X80142657Y-100457000D01*
X80156799Y-100471142D01*
X80151142Y-100476799D01*
X80137000Y-100462657D01*
X79024720Y-101574937D01*
X79101912Y-101888480D01*
X79401069Y-102062911D01*
X79504898Y-102098653D01*
X79480699Y-102103466D01*
X79071225Y-102273076D01*
X78702708Y-102519311D01*
X78389311Y-102832708D01*
X78143076Y-103201225D01*
X77973466Y-103610699D01*
X77887000Y-104045394D01*
X77887000Y-104488606D01*
X77973466Y-104923301D01*
X78143076Y-105332775D01*
X78389311Y-105701292D01*
X78702708Y-106014689D01*
X79071225Y-106260924D01*
X79480699Y-106430534D01*
X79915394Y-106517000D01*
X80358606Y-106517000D01*
X80793301Y-106430534D01*
X81134901Y-106289038D01*
X81134901Y-106303008D01*
X81091240Y-106338840D01*
X80935034Y-106529177D01*
X80818963Y-106746331D01*
X80747487Y-106981957D01*
X80723352Y-107227000D01*
X80723352Y-108927000D01*
X80747487Y-109172043D01*
X80818963Y-109407669D01*
X80935034Y-109624823D01*
X81091240Y-109815160D01*
X81281577Y-109971366D01*
X81498731Y-110087437D01*
X81734357Y-110158913D01*
X81979400Y-110183048D01*
X83679400Y-110183048D01*
X83924443Y-110158913D01*
X84160069Y-110087437D01*
X84377223Y-109971366D01*
X84567560Y-109815160D01*
X84723766Y-109624823D01*
X84839837Y-109407669D01*
X84911313Y-109172043D01*
X84935448Y-108927000D01*
X84935448Y-107227000D01*
X84911313Y-106981957D01*
X84839837Y-106746331D01*
X84723766Y-106529177D01*
X84567560Y-106338840D01*
X84523900Y-106303009D01*
X84523900Y-105887655D01*
X84808508Y-105985627D01*
X85151645Y-106032296D01*
X85497293Y-106011127D01*
X85832169Y-105922932D01*
X86143405Y-105771100D01*
X86252088Y-105698480D01*
X86329280Y-105384937D01*
X85217000Y-104272657D01*
X85202858Y-104286799D01*
X85197201Y-104281142D01*
X85211343Y-104267000D01*
X85222657Y-104267000D01*
X86334937Y-105379280D01*
X86648480Y-105302088D01*
X86822911Y-105002931D01*
X86935627Y-104675492D01*
X86982296Y-104332355D01*
X86961127Y-103986707D01*
X86872932Y-103651831D01*
X86721100Y-103340595D01*
X86648480Y-103231912D01*
X86334937Y-103154720D01*
X85222657Y-104267000D01*
X85211343Y-104267000D01*
X85197201Y-104252858D01*
X85202858Y-104247201D01*
X85217000Y-104261343D01*
X86329280Y-103149063D01*
X86252088Y-102835520D01*
X85952931Y-102661089D01*
X85849102Y-102625347D01*
X85873301Y-102620534D01*
X86282775Y-102450924D01*
X86651292Y-102204689D01*
X86704481Y-102151500D01*
X87165772Y-102151500D01*
X87249000Y-102159697D01*
X87332228Y-102151500D01*
X87332235Y-102151500D01*
X87581180Y-102126981D01*
X87900594Y-102030088D01*
X88194968Y-101872742D01*
X88452989Y-101660989D01*
X88506051Y-101596333D01*
X88534803Y-101567581D01*
X88449152Y-101774361D01*
X88355000Y-102247696D01*
X88355000Y-102730304D01*
X88449152Y-103203639D01*
X88633838Y-103649510D01*
X88901960Y-104050784D01*
X89243216Y-104392040D01*
X89644490Y-104660162D01*
X90090361Y-104844848D01*
X90563696Y-104939000D01*
X91046304Y-104939000D01*
X91519639Y-104844848D01*
X91965510Y-104660162D01*
X92366784Y-104392040D01*
X92708040Y-104050784D01*
X92976162Y-103649510D01*
X93160848Y-103203639D01*
X93255000Y-102730304D01*
X93255000Y-102435384D01*
X93442688Y-102247696D01*
X108675000Y-102247696D01*
X108675000Y-102730304D01*
X108769152Y-103203639D01*
X108953838Y-103649510D01*
X109221960Y-104050784D01*
X109563216Y-104392040D01*
X109964490Y-104660162D01*
X110410361Y-104844848D01*
X110883696Y-104939000D01*
X111366304Y-104939000D01*
X111839639Y-104844848D01*
X112285510Y-104660162D01*
X112686784Y-104392040D01*
X112895324Y-104183500D01*
X116810565Y-104183500D01*
X116993177Y-104333366D01*
X117210331Y-104449437D01*
X117445957Y-104520913D01*
X117691000Y-104545048D01*
X119291000Y-104545048D01*
X119536043Y-104520913D01*
X119771669Y-104449437D01*
X119988823Y-104333366D01*
X120171435Y-104183500D01*
X126137098Y-104183500D01*
X126386277Y-104349996D01*
X126768453Y-104508298D01*
X127174168Y-104589000D01*
X127587832Y-104589000D01*
X127993547Y-104508298D01*
X128375723Y-104349996D01*
X128606344Y-104195900D01*
X132257059Y-104195900D01*
X132482919Y-104381258D01*
X132873796Y-104590186D01*
X133297923Y-104718844D01*
X133628472Y-104751400D01*
X134849528Y-104751400D01*
X135180077Y-104718844D01*
X135604204Y-104590186D01*
X135995081Y-104381258D01*
X136337688Y-104100088D01*
X136618858Y-103757481D01*
X136827786Y-103366604D01*
X136956444Y-102942477D01*
X136999886Y-102501400D01*
X136956444Y-102060323D01*
X136827786Y-101636196D01*
X136618858Y-101245319D01*
X136337688Y-100902712D01*
X136307554Y-100877982D01*
X136364711Y-100770461D01*
X136464001Y-100440445D01*
X136474725Y-100380362D01*
X136307495Y-100105400D01*
X134243000Y-100105400D01*
X134243000Y-100125400D01*
X134235000Y-100125400D01*
X134235000Y-100105400D01*
X132170505Y-100105400D01*
X132003275Y-100380362D01*
X132013999Y-100440445D01*
X132113289Y-100770461D01*
X132132660Y-100806900D01*
X128991890Y-100806900D01*
X128992668Y-100799000D01*
X128989000Y-100142500D01*
X128799500Y-99953000D01*
X127385000Y-99953000D01*
X127385000Y-99973000D01*
X127377000Y-99973000D01*
X127377000Y-99953000D01*
X125962500Y-99953000D01*
X125773000Y-100142500D01*
X125769357Y-100794500D01*
X120171435Y-100794500D01*
X119988823Y-100644634D01*
X119924842Y-100610436D01*
X120014211Y-100350577D01*
X120055483Y-100046466D01*
X120036633Y-99740146D01*
X119958385Y-99443389D01*
X119823746Y-99167601D01*
X119777909Y-99099000D01*
X125769332Y-99099000D01*
X125773000Y-99755500D01*
X125962500Y-99945000D01*
X127377000Y-99945000D01*
X127377000Y-98530500D01*
X127385000Y-98530500D01*
X127385000Y-99945000D01*
X128799500Y-99945000D01*
X128989000Y-99755500D01*
X128992668Y-99099000D01*
X128978033Y-98950406D01*
X128934689Y-98807522D01*
X128864304Y-98675840D01*
X128769581Y-98560419D01*
X128654160Y-98465696D01*
X128522478Y-98395311D01*
X128379594Y-98351967D01*
X128231000Y-98337332D01*
X127574500Y-98341000D01*
X127385000Y-98530500D01*
X127377000Y-98530500D01*
X127187500Y-98341000D01*
X126531000Y-98337332D01*
X126382406Y-98351967D01*
X126239522Y-98395311D01*
X126107840Y-98465696D01*
X125992419Y-98560419D01*
X125897696Y-98675840D01*
X125827311Y-98807522D01*
X125783967Y-98950406D01*
X125769332Y-99099000D01*
X119777909Y-99099000D01*
X119759894Y-99072039D01*
X119466830Y-99018827D01*
X118496657Y-99989000D01*
X118510799Y-100003142D01*
X118505142Y-100008799D01*
X118491000Y-99994657D01*
X118476858Y-100008799D01*
X118471201Y-100003142D01*
X118485343Y-99989000D01*
X117515170Y-99018827D01*
X117222106Y-99072039D01*
X117067598Y-99337207D01*
X116967789Y-99627423D01*
X116926517Y-99931534D01*
X116945367Y-100237854D01*
X117023615Y-100534611D01*
X117059913Y-100608963D01*
X116993177Y-100644634D01*
X116810565Y-100794500D01*
X112895324Y-100794500D01*
X112686784Y-100585960D01*
X112285510Y-100317838D01*
X111839639Y-100133152D01*
X111366304Y-100039000D01*
X110883696Y-100039000D01*
X110410361Y-100133152D01*
X109964490Y-100317838D01*
X109563216Y-100585960D01*
X109221960Y-100927216D01*
X108953838Y-101328490D01*
X108769152Y-101774361D01*
X108675000Y-102247696D01*
X93442688Y-102247696D01*
X99030688Y-96659696D01*
X108675000Y-96659696D01*
X108675000Y-97142304D01*
X108769152Y-97615639D01*
X108953838Y-98061510D01*
X109221960Y-98462784D01*
X109563216Y-98804040D01*
X109964490Y-99072162D01*
X110410361Y-99256848D01*
X110883696Y-99351000D01*
X111366304Y-99351000D01*
X111839639Y-99256848D01*
X112285510Y-99072162D01*
X112373798Y-99013170D01*
X117520827Y-99013170D01*
X118491000Y-99983343D01*
X119461173Y-99013170D01*
X119407961Y-98720106D01*
X119142793Y-98565598D01*
X118852577Y-98465789D01*
X118548466Y-98424517D01*
X118242146Y-98443367D01*
X117945389Y-98521615D01*
X117669601Y-98656254D01*
X117574039Y-98720106D01*
X117520827Y-99013170D01*
X112373798Y-99013170D01*
X112686784Y-98804040D01*
X113028040Y-98462784D01*
X113296162Y-98061510D01*
X113480848Y-97615639D01*
X113575000Y-97142304D01*
X113575000Y-96659696D01*
X113480848Y-96186361D01*
X113296162Y-95740490D01*
X113171463Y-95553865D01*
X114952498Y-93772830D01*
X117520827Y-93772830D01*
X117574039Y-94065894D01*
X117839207Y-94220402D01*
X118129423Y-94320211D01*
X118433534Y-94361483D01*
X118739854Y-94342633D01*
X119036611Y-94264385D01*
X119312399Y-94129746D01*
X119407961Y-94065894D01*
X119461173Y-93772830D01*
X118491000Y-92802657D01*
X117520827Y-93772830D01*
X114952498Y-93772830D01*
X116733829Y-91991500D01*
X116810565Y-91991500D01*
X116993177Y-92141366D01*
X117057158Y-92175564D01*
X116967789Y-92435423D01*
X116926517Y-92739534D01*
X116945367Y-93045854D01*
X117023615Y-93342611D01*
X117158254Y-93618399D01*
X117222106Y-93713961D01*
X117515170Y-93767173D01*
X118485343Y-92797000D01*
X118471201Y-92782858D01*
X118476858Y-92777201D01*
X118491000Y-92791343D01*
X118505142Y-92777201D01*
X118510799Y-92782858D01*
X118496657Y-92797000D01*
X119466830Y-93767173D01*
X119759894Y-93713961D01*
X119914402Y-93448793D01*
X120014211Y-93158577D01*
X120055483Y-92854466D01*
X120036633Y-92548146D01*
X119958385Y-92251389D01*
X119922087Y-92177037D01*
X119988823Y-92141366D01*
X120171435Y-91991500D01*
X131132103Y-91991500D01*
X131021556Y-92355923D01*
X130978114Y-92797000D01*
X131021556Y-93238077D01*
X131150214Y-93662204D01*
X131359142Y-94053081D01*
X131640312Y-94395688D01*
X131982919Y-94676858D01*
X132354000Y-94875205D01*
X132354001Y-95927342D01*
X132140312Y-96102712D01*
X131859142Y-96445319D01*
X131650214Y-96836196D01*
X131521556Y-97260323D01*
X131478114Y-97701400D01*
X131521556Y-98142477D01*
X131650214Y-98566604D01*
X131859142Y-98957481D01*
X132140312Y-99300088D01*
X132170446Y-99324818D01*
X132113289Y-99432339D01*
X132013999Y-99762355D01*
X132003275Y-99822438D01*
X132170505Y-100097400D01*
X134235000Y-100097400D01*
X134235000Y-100077400D01*
X134243000Y-100077400D01*
X134243000Y-100097400D01*
X136307495Y-100097400D01*
X136474725Y-99822438D01*
X136464001Y-99762355D01*
X136364711Y-99432339D01*
X136307554Y-99324818D01*
X136337688Y-99300088D01*
X136618858Y-98957481D01*
X136827786Y-98566604D01*
X136956444Y-98142477D01*
X136999886Y-97701400D01*
X136956444Y-97260323D01*
X136827786Y-96836196D01*
X136618858Y-96445319D01*
X136337688Y-96102712D01*
X136124000Y-95927343D01*
X136124000Y-94875205D01*
X136485461Y-94682000D01*
X137416411Y-94682000D01*
X137509000Y-94691119D01*
X137601589Y-94682000D01*
X137601597Y-94682000D01*
X137878524Y-94654725D01*
X138233848Y-94546939D01*
X138561317Y-94371903D01*
X138848345Y-94136345D01*
X138907374Y-94064418D01*
X141704023Y-91267770D01*
X141775945Y-91208745D01*
X141925164Y-91026922D01*
X142011503Y-90921717D01*
X142097398Y-90761018D01*
X142186539Y-90594248D01*
X142294325Y-90238924D01*
X142321600Y-89961997D01*
X142330720Y-89869400D01*
X142321600Y-89776803D01*
X142321600Y-81905533D01*
X142378476Y-81848657D01*
X142652071Y-81439194D01*
X142840526Y-80984223D01*
X142936600Y-80501228D01*
X142936600Y-80008772D01*
X142840526Y-79525777D01*
X142652071Y-79070806D01*
X142378476Y-78661343D01*
X142030257Y-78313124D01*
X141620794Y-78039529D01*
X141165823Y-77851074D01*
X140682828Y-77755000D01*
X140602393Y-77755000D01*
X140080411Y-77233019D01*
X140361382Y-77271314D01*
X140756190Y-77247246D01*
X141138717Y-77146617D01*
X141494262Y-76973294D01*
X141619346Y-76889714D01*
X141726513Y-76550570D01*
X140436600Y-75260657D01*
X140422458Y-75274799D01*
X140416801Y-75269142D01*
X140430943Y-75255000D01*
X140442257Y-75255000D01*
X141732170Y-76544913D01*
X142071314Y-76437746D01*
X142270646Y-76096103D01*
X142399497Y-75722137D01*
X142452914Y-75330218D01*
X142428846Y-74935410D01*
X142328217Y-74552883D01*
X142154894Y-74197338D01*
X142071314Y-74072254D01*
X141732170Y-73965087D01*
X140442257Y-75255000D01*
X140430943Y-75255000D01*
X139141030Y-73965087D01*
X138801886Y-74072254D01*
X138602554Y-74413897D01*
X138473703Y-74787863D01*
X138420286Y-75179782D01*
X138444354Y-75574590D01*
X138518090Y-75854887D01*
X138503448Y-75847061D01*
X138148124Y-75739275D01*
X137871197Y-75712000D01*
X137871189Y-75712000D01*
X137778600Y-75702881D01*
X137686011Y-75712000D01*
X131357056Y-75712000D01*
X131444211Y-75458577D01*
X131485483Y-75154466D01*
X131466633Y-74848146D01*
X131388385Y-74551389D01*
X131253746Y-74275601D01*
X131189894Y-74180039D01*
X130896830Y-74126827D01*
X129926657Y-75097000D01*
X129940799Y-75111142D01*
X129935142Y-75116799D01*
X129921000Y-75102657D01*
X129906858Y-75116799D01*
X129901201Y-75111142D01*
X129915343Y-75097000D01*
X128945170Y-74126827D01*
X128652106Y-74180039D01*
X128497598Y-74445207D01*
X128397789Y-74735423D01*
X128356517Y-75039534D01*
X128375367Y-75345854D01*
X128453615Y-75642611D01*
X128487491Y-75712000D01*
X121451056Y-75712000D01*
X121538211Y-75458577D01*
X121579483Y-75154466D01*
X121560633Y-74848146D01*
X121482385Y-74551389D01*
X121347746Y-74275601D01*
X121283894Y-74180039D01*
X120990830Y-74126827D01*
X120020657Y-75097000D01*
X120034799Y-75111142D01*
X120029142Y-75116799D01*
X120015000Y-75102657D01*
X120000858Y-75116799D01*
X119995201Y-75111142D01*
X120009343Y-75097000D01*
X119039170Y-74126827D01*
X118746106Y-74180039D01*
X118591598Y-74445207D01*
X118491789Y-74735423D01*
X118450517Y-75039534D01*
X118469367Y-75345854D01*
X118547615Y-75642611D01*
X118583913Y-75716963D01*
X118517177Y-75752634D01*
X118326840Y-75908840D01*
X118170634Y-76099177D01*
X118054563Y-76316331D01*
X117983087Y-76551957D01*
X117958952Y-76797000D01*
X117958952Y-78397000D01*
X117983087Y-78642043D01*
X118054563Y-78877669D01*
X118170634Y-79094823D01*
X118326840Y-79285160D01*
X118517177Y-79441366D01*
X118734331Y-79557437D01*
X118969957Y-79628913D01*
X119215000Y-79653048D01*
X120815000Y-79653048D01*
X121060043Y-79628913D01*
X121295669Y-79557437D01*
X121436802Y-79482000D01*
X128499198Y-79482000D01*
X128640331Y-79557437D01*
X128875957Y-79628913D01*
X129121000Y-79653048D01*
X130721000Y-79653048D01*
X130966043Y-79628913D01*
X131201669Y-79557437D01*
X131342802Y-79482000D01*
X136997808Y-79482000D01*
X137936600Y-80420793D01*
X137936600Y-80501228D01*
X138032674Y-80984223D01*
X138221129Y-81439194D01*
X138494724Y-81848657D01*
X138551600Y-81905533D01*
X138551601Y-89088606D01*
X137485838Y-90154369D01*
X137456444Y-89855923D01*
X137327786Y-89431796D01*
X137118858Y-89040919D01*
X136837688Y-88698312D01*
X136770542Y-88643207D01*
X136864711Y-88466061D01*
X136964001Y-88136045D01*
X136974725Y-88075962D01*
X136807495Y-87801000D01*
X134243000Y-87801000D01*
X134243000Y-87821000D01*
X134235000Y-87821000D01*
X134235000Y-87801000D01*
X131670505Y-87801000D01*
X131503275Y-88075962D01*
X131513999Y-88136045D01*
X131613289Y-88466061D01*
X131685818Y-88602500D01*
X120171435Y-88602500D01*
X119988823Y-88452634D01*
X119771669Y-88336563D01*
X119536043Y-88265087D01*
X119291000Y-88240952D01*
X117691000Y-88240952D01*
X117445957Y-88265087D01*
X117210331Y-88336563D01*
X116993177Y-88452634D01*
X116810565Y-88602500D01*
X116115172Y-88602500D01*
X116031944Y-88594303D01*
X115948716Y-88602500D01*
X115948709Y-88602500D01*
X115730931Y-88623949D01*
X115699763Y-88627019D01*
X115622245Y-88650534D01*
X115380350Y-88723912D01*
X115085976Y-88881258D01*
X114991238Y-88959008D01*
X114921390Y-89016331D01*
X114827955Y-89093011D01*
X114774898Y-89157661D01*
X109985662Y-93946898D01*
X109921012Y-93999955D01*
X109867955Y-94064605D01*
X109867952Y-94064608D01*
X109709259Y-94257976D01*
X109551913Y-94552350D01*
X109455019Y-94871764D01*
X109444653Y-94977019D01*
X109430500Y-95120709D01*
X109430500Y-95120716D01*
X109429412Y-95131764D01*
X109221960Y-95339216D01*
X108953838Y-95740490D01*
X108769152Y-96186361D01*
X108675000Y-96659696D01*
X99030688Y-96659696D01*
X103120339Y-92570046D01*
X103184989Y-92516989D01*
X103396742Y-92258968D01*
X103554088Y-91964594D01*
X103650981Y-91645180D01*
X103675500Y-91396235D01*
X103675500Y-91396228D01*
X103683697Y-91313000D01*
X103675500Y-91229772D01*
X103675500Y-90975500D01*
X104680226Y-90975500D01*
X104713142Y-91037081D01*
X104994312Y-91379688D01*
X105336919Y-91660858D01*
X105727796Y-91869786D01*
X106151923Y-91998444D01*
X106593000Y-92041886D01*
X107034076Y-91998444D01*
X107458203Y-91869786D01*
X107843000Y-91664108D01*
X108227796Y-91869786D01*
X108651923Y-91998444D01*
X109093000Y-92041886D01*
X109534076Y-91998444D01*
X109958203Y-91869786D01*
X110349081Y-91660858D01*
X110691688Y-91379688D01*
X110746793Y-91312542D01*
X110923939Y-91406711D01*
X111253955Y-91506001D01*
X111314038Y-91516725D01*
X111589000Y-91349495D01*
X111589000Y-89285000D01*
X111597000Y-89285000D01*
X111597000Y-91349495D01*
X111871962Y-91516725D01*
X111932045Y-91506001D01*
X112262061Y-91406711D01*
X112566366Y-91244946D01*
X112833265Y-91026922D01*
X113052501Y-90761018D01*
X113215649Y-90457453D01*
X113316440Y-90127892D01*
X113351000Y-89785000D01*
X113351000Y-89285000D01*
X111597000Y-89285000D01*
X111589000Y-89285000D01*
X111569000Y-89285000D01*
X111569000Y-89277000D01*
X111589000Y-89277000D01*
X111589000Y-87212505D01*
X111597000Y-87212505D01*
X111597000Y-89277000D01*
X113351000Y-89277000D01*
X113351000Y-88777000D01*
X113316440Y-88434108D01*
X113215649Y-88104547D01*
X113052501Y-87800982D01*
X112833265Y-87535078D01*
X112812406Y-87518038D01*
X131503275Y-87518038D01*
X131670505Y-87793000D01*
X134235000Y-87793000D01*
X134235000Y-86039000D01*
X134243000Y-86039000D01*
X134243000Y-87793000D01*
X136807495Y-87793000D01*
X136974725Y-87518038D01*
X136964001Y-87457955D01*
X136864711Y-87127939D01*
X136702946Y-86823634D01*
X136484922Y-86556735D01*
X136219018Y-86337499D01*
X135915453Y-86174351D01*
X135585892Y-86073560D01*
X135243000Y-86039000D01*
X134243000Y-86039000D01*
X134235000Y-86039000D01*
X133235000Y-86039000D01*
X132892108Y-86073560D01*
X132562547Y-86174351D01*
X132258982Y-86337499D01*
X131993078Y-86556735D01*
X131775054Y-86823634D01*
X131613289Y-87127939D01*
X131513999Y-87457955D01*
X131503275Y-87518038D01*
X112812406Y-87518038D01*
X112566366Y-87317054D01*
X112262061Y-87155289D01*
X111932045Y-87055999D01*
X111871962Y-87045275D01*
X111597000Y-87212505D01*
X111589000Y-87212505D01*
X111314038Y-87045275D01*
X111253955Y-87055999D01*
X110923939Y-87155289D01*
X110787500Y-87227818D01*
X110787500Y-86172884D01*
X111318885Y-85641500D01*
X116302565Y-85641500D01*
X116485177Y-85791366D01*
X116702331Y-85907437D01*
X116937957Y-85978913D01*
X117183000Y-86003048D01*
X118783000Y-86003048D01*
X119028043Y-85978913D01*
X119263669Y-85907437D01*
X119480823Y-85791366D01*
X119671160Y-85635160D01*
X119827366Y-85444823D01*
X119943437Y-85227669D01*
X120014913Y-84992043D01*
X120039048Y-84747000D01*
X120039048Y-84194675D01*
X124064812Y-84194675D01*
X124087118Y-84306817D01*
X124186442Y-84595637D01*
X124340204Y-84859530D01*
X124542494Y-85088355D01*
X124785539Y-85273319D01*
X125059998Y-85407313D01*
X125355325Y-85485188D01*
X125599000Y-85315495D01*
X125599000Y-83951000D01*
X125607000Y-83951000D01*
X125607000Y-85315495D01*
X125850675Y-85485188D01*
X126146002Y-85407313D01*
X126420461Y-85273319D01*
X126663506Y-85088355D01*
X126865796Y-84859530D01*
X127019558Y-84595637D01*
X127118882Y-84306817D01*
X127141188Y-84194675D01*
X126971494Y-83951000D01*
X125607000Y-83951000D01*
X125599000Y-83951000D01*
X124234506Y-83951000D01*
X124064812Y-84194675D01*
X120039048Y-84194675D01*
X120039048Y-83699325D01*
X124064812Y-83699325D01*
X124234506Y-83943000D01*
X125599000Y-83943000D01*
X125599000Y-82578505D01*
X125607000Y-82578505D01*
X125607000Y-83943000D01*
X126971494Y-83943000D01*
X127141188Y-83699325D01*
X127118882Y-83587183D01*
X127019558Y-83298363D01*
X126865796Y-83034470D01*
X126663506Y-82805645D01*
X126420461Y-82620681D01*
X126146002Y-82486687D01*
X125850675Y-82408812D01*
X125607000Y-82578505D01*
X125599000Y-82578505D01*
X125355325Y-82408812D01*
X125059998Y-82486687D01*
X124785539Y-82620681D01*
X124542494Y-82805645D01*
X124340204Y-83034470D01*
X124186442Y-83298363D01*
X124087118Y-83587183D01*
X124064812Y-83699325D01*
X120039048Y-83699325D01*
X120039048Y-83147000D01*
X120014913Y-82901957D01*
X119943437Y-82666331D01*
X119827366Y-82449177D01*
X119671160Y-82258840D01*
X119480823Y-82102634D01*
X119263669Y-81986563D01*
X119028043Y-81915087D01*
X118783000Y-81890952D01*
X117183000Y-81890952D01*
X116937957Y-81915087D01*
X116702331Y-81986563D01*
X116485177Y-82102634D01*
X116302565Y-82252500D01*
X110700224Y-82252500D01*
X110616999Y-82244303D01*
X110533774Y-82252500D01*
X110533765Y-82252500D01*
X110284820Y-82277019D01*
X109965406Y-82373912D01*
X109671032Y-82531258D01*
X109671030Y-82531259D01*
X109671031Y-82531259D01*
X109506446Y-82666331D01*
X109413011Y-82743011D01*
X109359953Y-82807662D01*
X107953666Y-84213950D01*
X107889011Y-84267011D01*
X107677258Y-84525033D01*
X107519912Y-84819407D01*
X107492765Y-84908899D01*
X107423019Y-85138820D01*
X107419631Y-85173215D01*
X107398500Y-85387766D01*
X107398500Y-85387772D01*
X107390303Y-85471000D01*
X107398500Y-85554228D01*
X107398500Y-86674103D01*
X107034077Y-86563556D01*
X106593000Y-86520114D01*
X106151924Y-86563556D01*
X105727797Y-86692214D01*
X105336920Y-86901142D01*
X105183688Y-87026896D01*
X105247000Y-86708606D01*
X105247000Y-86265394D01*
X105160534Y-85830699D01*
X104990924Y-85421225D01*
X104744689Y-85052708D01*
X104431292Y-84739311D01*
X104062775Y-84493076D01*
X103653301Y-84323466D01*
X103218606Y-84237000D01*
X102775394Y-84237000D01*
X102510742Y-84289642D01*
X103143385Y-83657000D01*
X103218606Y-83657000D01*
X103653301Y-83570534D01*
X104062775Y-83400924D01*
X104431292Y-83154689D01*
X104744689Y-82841292D01*
X104990924Y-82472775D01*
X105160534Y-82063301D01*
X105247000Y-81628606D01*
X105247000Y-81185394D01*
X105160534Y-80750699D01*
X104990924Y-80341225D01*
X104744689Y-79972708D01*
X104691500Y-79919519D01*
X104691500Y-78100991D01*
X104735160Y-78065160D01*
X104891366Y-77874823D01*
X105007437Y-77657669D01*
X105078913Y-77422043D01*
X105103048Y-77177000D01*
X105103048Y-75477000D01*
X105078913Y-75231957D01*
X105007437Y-74996331D01*
X104891366Y-74779177D01*
X104735160Y-74588840D01*
X104544823Y-74432634D01*
X104327669Y-74316563D01*
X104092043Y-74245087D01*
X103847000Y-74220952D01*
X102147000Y-74220952D01*
X101901957Y-74245087D01*
X101666331Y-74316563D01*
X101449177Y-74432634D01*
X101258840Y-74588840D01*
X101102634Y-74779177D01*
X100986563Y-74996331D01*
X100915087Y-75231957D01*
X100890952Y-75477000D01*
X100890952Y-77177000D01*
X100915087Y-77422043D01*
X100986563Y-77657669D01*
X101102634Y-77874823D01*
X101258840Y-78065160D01*
X101302501Y-78100991D01*
X101302500Y-79919519D01*
X101249311Y-79972708D01*
X101003076Y-80341225D01*
X100833466Y-80750699D01*
X100830396Y-80766134D01*
X100691100Y-80480595D01*
X100618480Y-80371912D01*
X100304937Y-80294720D01*
X99192657Y-81407000D01*
X99206799Y-81421142D01*
X99201142Y-81426799D01*
X99187000Y-81412657D01*
X99172858Y-81426799D01*
X99167201Y-81421142D01*
X99181343Y-81407000D01*
X98069063Y-80294720D01*
X97755520Y-80371912D01*
X97581089Y-80671069D01*
X97545347Y-80774898D01*
X97540534Y-80750699D01*
X97370924Y-80341225D01*
X97336071Y-80289063D01*
X98074720Y-80289063D01*
X99187000Y-81401343D01*
X100299280Y-80289063D01*
X100222088Y-79975520D01*
X99922931Y-79801089D01*
X99595492Y-79688373D01*
X99252355Y-79641704D01*
X98906707Y-79662873D01*
X98571831Y-79751068D01*
X98260595Y-79902900D01*
X98151912Y-79975520D01*
X98074720Y-80289063D01*
X97336071Y-80289063D01*
X97124689Y-79972708D01*
X96811292Y-79659311D01*
X96442775Y-79413076D01*
X96033301Y-79243466D01*
X95598606Y-79157000D01*
X95155394Y-79157000D01*
X94720699Y-79243466D01*
X94311225Y-79413076D01*
X93942708Y-79659311D01*
X93629311Y-79972708D01*
X93383076Y-80341225D01*
X93213466Y-80750699D01*
X93127000Y-81185394D01*
X93127000Y-81628606D01*
X93213466Y-82063301D01*
X93383076Y-82472775D01*
X93405610Y-82506500D01*
X92920235Y-82506500D01*
X92837000Y-82498302D01*
X92753765Y-82506500D01*
X92504820Y-82531019D01*
X92185406Y-82627912D01*
X91891032Y-82785258D01*
X91633011Y-82997011D01*
X91421258Y-83255032D01*
X91263912Y-83549406D01*
X91167019Y-83868820D01*
X91156444Y-83976193D01*
X90978449Y-83889410D01*
X90607249Y-83791736D01*
X90301000Y-83956504D01*
X90301000Y-85721000D01*
X90321000Y-85721000D01*
X90321000Y-85729000D01*
X90301000Y-85729000D01*
X90301000Y-87493496D01*
X90607249Y-87658264D01*
X90978449Y-87560590D01*
X91142500Y-87480605D01*
X91142500Y-88757357D01*
X91011639Y-88703152D01*
X90538304Y-88609000D01*
X90055696Y-88609000D01*
X89582361Y-88703152D01*
X89136490Y-88887838D01*
X88735216Y-89155960D01*
X88393960Y-89497216D01*
X88125838Y-89898490D01*
X87941152Y-90344361D01*
X87847000Y-90817696D01*
X87847000Y-91300304D01*
X87908160Y-91607775D01*
X83426051Y-87125667D01*
X83372989Y-87061011D01*
X83114968Y-86849258D01*
X82820594Y-86691912D01*
X82501180Y-86595019D01*
X82252235Y-86570500D01*
X82252228Y-86570500D01*
X82169000Y-86562303D01*
X82085772Y-86570500D01*
X72278644Y-86570500D01*
X72332848Y-86439639D01*
X72413286Y-86035249D01*
X88363736Y-86035249D01*
X88392169Y-86178195D01*
X88517184Y-86541101D01*
X88710596Y-86872645D01*
X88964973Y-87160085D01*
X89270539Y-87392376D01*
X89615551Y-87560590D01*
X89986751Y-87658264D01*
X90293000Y-87493496D01*
X90293000Y-85729000D01*
X88528505Y-85729000D01*
X88363736Y-86035249D01*
X72413286Y-86035249D01*
X72427000Y-85966304D01*
X72427000Y-85483696D01*
X72413287Y-85414751D01*
X88363736Y-85414751D01*
X88528505Y-85721000D01*
X90293000Y-85721000D01*
X90293000Y-83956504D01*
X89986751Y-83791736D01*
X89615551Y-83889410D01*
X89270539Y-84057624D01*
X88964973Y-84289915D01*
X88710596Y-84577355D01*
X88517184Y-84908899D01*
X88392169Y-85271805D01*
X88363736Y-85414751D01*
X72413287Y-85414751D01*
X72332848Y-85010361D01*
X72148162Y-84564490D01*
X71880040Y-84163216D01*
X71679500Y-83962676D01*
X71679500Y-79428165D01*
X71868699Y-79506534D01*
X72303394Y-79593000D01*
X72746606Y-79593000D01*
X73181301Y-79506534D01*
X73590775Y-79336924D01*
X73795000Y-79200465D01*
X73999225Y-79336924D01*
X74408699Y-79506534D01*
X74843394Y-79593000D01*
X75286606Y-79593000D01*
X75721301Y-79506534D01*
X76130775Y-79336924D01*
X76335000Y-79200465D01*
X76539225Y-79336924D01*
X76948699Y-79506534D01*
X77383394Y-79593000D01*
X77826606Y-79593000D01*
X78261301Y-79506534D01*
X78670775Y-79336924D01*
X78875000Y-79200465D01*
X79079225Y-79336924D01*
X79488699Y-79506534D01*
X79923394Y-79593000D01*
X80366606Y-79593000D01*
X80801301Y-79506534D01*
X81210775Y-79336924D01*
X81415000Y-79200465D01*
X81619225Y-79336924D01*
X82028699Y-79506534D01*
X82463394Y-79593000D01*
X82906606Y-79593000D01*
X83341301Y-79506534D01*
X83750775Y-79336924D01*
X83955000Y-79200465D01*
X84159225Y-79336924D01*
X84568699Y-79506534D01*
X85003394Y-79593000D01*
X85446606Y-79593000D01*
X85881301Y-79506534D01*
X86290775Y-79336924D01*
X86495000Y-79200465D01*
X86699225Y-79336924D01*
X87108699Y-79506534D01*
X87543394Y-79593000D01*
X87986606Y-79593000D01*
X88421301Y-79506534D01*
X88830775Y-79336924D01*
X89035000Y-79200465D01*
X89239225Y-79336924D01*
X89648699Y-79506534D01*
X90083394Y-79593000D01*
X90526606Y-79593000D01*
X90961301Y-79506534D01*
X91370775Y-79336924D01*
X91739292Y-79090689D01*
X92052689Y-78777292D01*
X92298924Y-78408775D01*
X92468534Y-77999301D01*
X92555000Y-77564606D01*
X92555000Y-77121394D01*
X92468534Y-76686699D01*
X92298924Y-76277225D01*
X92052689Y-75908708D01*
X91739292Y-75595311D01*
X91370775Y-75349076D01*
X90961301Y-75179466D01*
X90526606Y-75093000D01*
X90083394Y-75093000D01*
X89648699Y-75179466D01*
X89239225Y-75349076D01*
X89035000Y-75485535D01*
X88830775Y-75349076D01*
X88421301Y-75179466D01*
X87986606Y-75093000D01*
X87543394Y-75093000D01*
X87108699Y-75179466D01*
X86919500Y-75257835D01*
X86919500Y-74121170D01*
X119044827Y-74121170D01*
X120015000Y-75091343D01*
X120985173Y-74121170D01*
X128950827Y-74121170D01*
X129921000Y-75091343D01*
X130891173Y-74121170D01*
X130861806Y-73959430D01*
X139146687Y-73959430D01*
X140436600Y-75249343D01*
X141726513Y-73959430D01*
X141619346Y-73620286D01*
X141277703Y-73420954D01*
X140903737Y-73292103D01*
X140511818Y-73238686D01*
X140117010Y-73262754D01*
X139734483Y-73363383D01*
X139378938Y-73536706D01*
X139253854Y-73620286D01*
X139146687Y-73959430D01*
X130861806Y-73959430D01*
X130837961Y-73828106D01*
X130572793Y-73673598D01*
X130282577Y-73573789D01*
X129978466Y-73532517D01*
X129672146Y-73551367D01*
X129375389Y-73629615D01*
X129099601Y-73764254D01*
X129004039Y-73828106D01*
X128950827Y-74121170D01*
X120985173Y-74121170D01*
X120931961Y-73828106D01*
X120666793Y-73673598D01*
X120376577Y-73573789D01*
X120072466Y-73532517D01*
X119766146Y-73551367D01*
X119469389Y-73629615D01*
X119193601Y-73764254D01*
X119098039Y-73828106D01*
X119044827Y-74121170D01*
X86919500Y-74121170D01*
X86919500Y-70532168D01*
X100897000Y-70532168D01*
X100897000Y-70945832D01*
X100977702Y-71351547D01*
X101136004Y-71733723D01*
X101365823Y-72077672D01*
X101658328Y-72370177D01*
X102002277Y-72599996D01*
X102384453Y-72758298D01*
X102790168Y-72839000D01*
X103203832Y-72839000D01*
X103609547Y-72758298D01*
X103991723Y-72599996D01*
X104335672Y-72370177D01*
X104628177Y-72077672D01*
X104857996Y-71733723D01*
X105016298Y-71351547D01*
X105097000Y-70945832D01*
X105097000Y-70532168D01*
X105016298Y-70126453D01*
X104857996Y-69744277D01*
X104628177Y-69400328D01*
X104554794Y-69326945D01*
X104594033Y-69197594D01*
X104608668Y-69049000D01*
X104605000Y-68392500D01*
X104415500Y-68203000D01*
X103001000Y-68203000D01*
X103001000Y-68223000D01*
X102993000Y-68223000D01*
X102993000Y-68203000D01*
X101578500Y-68203000D01*
X101389000Y-68392500D01*
X101385332Y-69049000D01*
X101399967Y-69197594D01*
X101439206Y-69326945D01*
X101365823Y-69400328D01*
X101136004Y-69744277D01*
X100977702Y-70126453D01*
X100897000Y-70532168D01*
X86919500Y-70532168D01*
X86919500Y-68384884D01*
X87955384Y-67349000D01*
X101385332Y-67349000D01*
X101389000Y-68005500D01*
X101578500Y-68195000D01*
X102993000Y-68195000D01*
X102993000Y-66780500D01*
X103001000Y-66780500D01*
X103001000Y-68195000D01*
X104415500Y-68195000D01*
X104605000Y-68005500D01*
X104608668Y-67349000D01*
X104594033Y-67200406D01*
X104550689Y-67057522D01*
X104480304Y-66925840D01*
X104385581Y-66810419D01*
X104270160Y-66715696D01*
X104138478Y-66645311D01*
X103995594Y-66601967D01*
X103847000Y-66587332D01*
X103190500Y-66591000D01*
X103001000Y-66780500D01*
X102993000Y-66780500D01*
X102803500Y-66591000D01*
X102147000Y-66587332D01*
X101998406Y-66601967D01*
X101855522Y-66645311D01*
X101723840Y-66715696D01*
X101608419Y-66810419D01*
X101513696Y-66925840D01*
X101443311Y-67057522D01*
X101399967Y-67200406D01*
X101385332Y-67349000D01*
X87955384Y-67349000D01*
X98802339Y-56502046D01*
X98866989Y-56448989D01*
X99078742Y-56190968D01*
X99236088Y-55896594D01*
X99332981Y-55577180D01*
X99357500Y-55328235D01*
X99357500Y-55328226D01*
X99365697Y-55245001D01*
X99357500Y-55161776D01*
X99357500Y-48845627D01*
X138418030Y-48845627D01*
X138764996Y-49389579D01*
X139446527Y-49788122D01*
X140192715Y-50046047D01*
X140974883Y-50153442D01*
X141762974Y-50106179D01*
X142526702Y-49906077D01*
X143236716Y-49560823D01*
X143493004Y-49389579D01*
X143839970Y-48845627D01*
X141129000Y-46134657D01*
X138418030Y-48845627D01*
X99357500Y-48845627D01*
X99357500Y-46328902D01*
X99523996Y-46079723D01*
X99567422Y-45974883D01*
X137104558Y-45974883D01*
X137151821Y-46762974D01*
X137351923Y-47526702D01*
X137697177Y-48236716D01*
X137868421Y-48493004D01*
X138412373Y-48839970D01*
X141123343Y-46129000D01*
X138412373Y-43418030D01*
X137868421Y-43764996D01*
X137469878Y-44446527D01*
X137211953Y-45192715D01*
X137104558Y-45974883D01*
X99567422Y-45974883D01*
X99682298Y-45697547D01*
X99763000Y-45291832D01*
X99763000Y-44878168D01*
X99682298Y-44472453D01*
X99523996Y-44090277D01*
X99294177Y-43746328D01*
X99001672Y-43453823D01*
X98657723Y-43224004D01*
X98275547Y-43065702D01*
X97869832Y-42985000D01*
X97456168Y-42985000D01*
X97050453Y-43065702D01*
X96668277Y-43224004D01*
X96393000Y-43407938D01*
X96117723Y-43224004D01*
X95735547Y-43065702D01*
X95329832Y-42985000D01*
X94916168Y-42985000D01*
X94510453Y-43065702D01*
X94128277Y-43224004D01*
X93784328Y-43453823D01*
X93491823Y-43746328D01*
X93484062Y-43757943D01*
X93252569Y-43623035D01*
X92954488Y-43520500D01*
X92838497Y-43497428D01*
X92587000Y-43666506D01*
X92587000Y-45081000D01*
X92607000Y-45081000D01*
X92607000Y-45089000D01*
X92587000Y-45089000D01*
X92587000Y-46503494D01*
X92838497Y-46672572D01*
X92954488Y-46649500D01*
X93252569Y-46546965D01*
X93428500Y-46444437D01*
X93428501Y-53527114D01*
X81545667Y-65409949D01*
X81481011Y-65463011D01*
X81269258Y-65721033D01*
X81111912Y-66015407D01*
X81015019Y-66334821D01*
X80990500Y-66583766D01*
X80990500Y-66583772D01*
X80982303Y-66667000D01*
X80990500Y-66750228D01*
X80990501Y-75257835D01*
X80801301Y-75179466D01*
X80366606Y-75093000D01*
X79923394Y-75093000D01*
X79488699Y-75179466D01*
X79079225Y-75349076D01*
X78875000Y-75485535D01*
X78670775Y-75349076D01*
X78261301Y-75179466D01*
X77826606Y-75093000D01*
X77383394Y-75093000D01*
X76948699Y-75179466D01*
X76539225Y-75349076D01*
X76335000Y-75485535D01*
X76130775Y-75349076D01*
X75721301Y-75179466D01*
X75286606Y-75093000D01*
X74843394Y-75093000D01*
X74408699Y-75179466D01*
X73999225Y-75349076D01*
X73795000Y-75485535D01*
X73590775Y-75349076D01*
X73181301Y-75179466D01*
X72746606Y-75093000D01*
X72303394Y-75093000D01*
X71868699Y-75179466D01*
X71459225Y-75349076D01*
X71255000Y-75485535D01*
X71050775Y-75349076D01*
X70641301Y-75179466D01*
X70206606Y-75093000D01*
X69763394Y-75093000D01*
X69328699Y-75179466D01*
X68919225Y-75349076D01*
X68715000Y-75485535D01*
X68510775Y-75349076D01*
X68101301Y-75179466D01*
X67666606Y-75093000D01*
X67223394Y-75093000D01*
X66788699Y-75179466D01*
X66379225Y-75349076D01*
X66175000Y-75485535D01*
X65970775Y-75349076D01*
X65561301Y-75179466D01*
X65126606Y-75093000D01*
X64683394Y-75093000D01*
X64248699Y-75179466D01*
X63839225Y-75349076D01*
X63635000Y-75485535D01*
X63430775Y-75349076D01*
X63021301Y-75179466D01*
X62586606Y-75093000D01*
X62143394Y-75093000D01*
X61708699Y-75179466D01*
X61299225Y-75349076D01*
X61095000Y-75485535D01*
X60890775Y-75349076D01*
X60481301Y-75179466D01*
X60046606Y-75093000D01*
X59603394Y-75093000D01*
X59168699Y-75179466D01*
X58759225Y-75349076D01*
X58390708Y-75595311D01*
X58164954Y-75821065D01*
X58020931Y-75737089D01*
X57693492Y-75624373D01*
X57350355Y-75577704D01*
X57004707Y-75598873D01*
X56669831Y-75687068D01*
X56401803Y-75817822D01*
X56179292Y-75595311D01*
X55810775Y-75349076D01*
X55401301Y-75179466D01*
X54966606Y-75093000D01*
X54891385Y-75093000D01*
X54145500Y-74347116D01*
X54145500Y-54117832D01*
X54523394Y-54193000D01*
X54966606Y-54193000D01*
X55401301Y-54106534D01*
X55810775Y-53936924D01*
X56179292Y-53690689D01*
X56405046Y-53464935D01*
X56549069Y-53548911D01*
X56876508Y-53661627D01*
X57219645Y-53708296D01*
X57565293Y-53687127D01*
X57900169Y-53598932D01*
X58168197Y-53468178D01*
X58390708Y-53690689D01*
X58759225Y-53936924D01*
X59168699Y-54106534D01*
X59603394Y-54193000D01*
X60046606Y-54193000D01*
X60481301Y-54106534D01*
X60890775Y-53936924D01*
X61095000Y-53800465D01*
X61299225Y-53936924D01*
X61708699Y-54106534D01*
X62143394Y-54193000D01*
X62586606Y-54193000D01*
X63021301Y-54106534D01*
X63430775Y-53936924D01*
X63635000Y-53800465D01*
X63839225Y-53936924D01*
X64248699Y-54106534D01*
X64683394Y-54193000D01*
X65126606Y-54193000D01*
X65561301Y-54106534D01*
X65970775Y-53936924D01*
X66175000Y-53800465D01*
X66379225Y-53936924D01*
X66788699Y-54106534D01*
X67223394Y-54193000D01*
X67666606Y-54193000D01*
X68101301Y-54106534D01*
X68510775Y-53936924D01*
X68715000Y-53800465D01*
X68919225Y-53936924D01*
X69328699Y-54106534D01*
X69763394Y-54193000D01*
X70206606Y-54193000D01*
X70641301Y-54106534D01*
X71050775Y-53936924D01*
X71255000Y-53800465D01*
X71459225Y-53936924D01*
X71868699Y-54106534D01*
X72303394Y-54193000D01*
X72746606Y-54193000D01*
X73181301Y-54106534D01*
X73590775Y-53936924D01*
X73795000Y-53800465D01*
X73999225Y-53936924D01*
X74408699Y-54106534D01*
X74843394Y-54193000D01*
X75286606Y-54193000D01*
X75721301Y-54106534D01*
X76130775Y-53936924D01*
X76335000Y-53800465D01*
X76539225Y-53936924D01*
X76948699Y-54106534D01*
X77383394Y-54193000D01*
X77826606Y-54193000D01*
X78261301Y-54106534D01*
X78670775Y-53936924D01*
X78875000Y-53800465D01*
X79079225Y-53936924D01*
X79488699Y-54106534D01*
X79923394Y-54193000D01*
X80366606Y-54193000D01*
X80801301Y-54106534D01*
X81210775Y-53936924D01*
X81415000Y-53800465D01*
X81619225Y-53936924D01*
X82028699Y-54106534D01*
X82463394Y-54193000D01*
X82906606Y-54193000D01*
X83341301Y-54106534D01*
X83750775Y-53936924D01*
X83955000Y-53800465D01*
X84159225Y-53936924D01*
X84568699Y-54106534D01*
X85003394Y-54193000D01*
X85446606Y-54193000D01*
X85881301Y-54106534D01*
X86290775Y-53936924D01*
X86495000Y-53800465D01*
X86699225Y-53936924D01*
X87108699Y-54106534D01*
X87543394Y-54193000D01*
X87986606Y-54193000D01*
X88421301Y-54106534D01*
X88830775Y-53936924D01*
X89035000Y-53800465D01*
X89239225Y-53936924D01*
X89648699Y-54106534D01*
X90083394Y-54193000D01*
X90526606Y-54193000D01*
X90961301Y-54106534D01*
X91370775Y-53936924D01*
X91739292Y-53690689D01*
X92052689Y-53377292D01*
X92298924Y-53008775D01*
X92468534Y-52599301D01*
X92555000Y-52164606D01*
X92555000Y-51721394D01*
X92468534Y-51286699D01*
X92298924Y-50877225D01*
X92052689Y-50508708D01*
X91739292Y-50195311D01*
X91370775Y-49949076D01*
X90961301Y-49779466D01*
X90526606Y-49693000D01*
X90083394Y-49693000D01*
X89648699Y-49779466D01*
X89239225Y-49949076D01*
X89035000Y-50085535D01*
X88830775Y-49949076D01*
X88421301Y-49779466D01*
X87986606Y-49693000D01*
X87543394Y-49693000D01*
X87108699Y-49779466D01*
X86699225Y-49949076D01*
X86495000Y-50085535D01*
X86290775Y-49949076D01*
X85881301Y-49779466D01*
X85446606Y-49693000D01*
X85003394Y-49693000D01*
X84568699Y-49779466D01*
X84159225Y-49949076D01*
X83955000Y-50085535D01*
X83750775Y-49949076D01*
X83341301Y-49779466D01*
X82906606Y-49693000D01*
X82463394Y-49693000D01*
X82028699Y-49779466D01*
X81619225Y-49949076D01*
X81415000Y-50085535D01*
X81210775Y-49949076D01*
X80801301Y-49779466D01*
X80366606Y-49693000D01*
X79923394Y-49693000D01*
X79488699Y-49779466D01*
X79079225Y-49949076D01*
X78875000Y-50085535D01*
X78670775Y-49949076D01*
X78261301Y-49779466D01*
X77826606Y-49693000D01*
X77383394Y-49693000D01*
X76948699Y-49779466D01*
X76539225Y-49949076D01*
X76335000Y-50085535D01*
X76130775Y-49949076D01*
X75721301Y-49779466D01*
X75286606Y-49693000D01*
X74843394Y-49693000D01*
X74408699Y-49779466D01*
X73999225Y-49949076D01*
X73795000Y-50085535D01*
X73590775Y-49949076D01*
X73181301Y-49779466D01*
X72746606Y-49693000D01*
X72303394Y-49693000D01*
X71868699Y-49779466D01*
X71459225Y-49949076D01*
X71255000Y-50085535D01*
X71050775Y-49949076D01*
X70884222Y-49880087D01*
X70926989Y-49844989D01*
X70980051Y-49780333D01*
X71116334Y-49644050D01*
X71180989Y-49590989D01*
X71392742Y-49332968D01*
X71550088Y-49038594D01*
X71646981Y-48719180D01*
X71671500Y-48470235D01*
X71671500Y-48470226D01*
X71679697Y-48387001D01*
X71671500Y-48303776D01*
X71671500Y-46328902D01*
X71837996Y-46079723D01*
X71996298Y-45697547D01*
X72077000Y-45291832D01*
X72077000Y-44878168D01*
X72000485Y-44493500D01*
X87936952Y-44493500D01*
X87936952Y-45935000D01*
X87961087Y-46180043D01*
X88032563Y-46415669D01*
X88148634Y-46632823D01*
X88304840Y-46823160D01*
X88495177Y-46979366D01*
X88712331Y-47095437D01*
X88947957Y-47166913D01*
X89193000Y-47191048D01*
X90893000Y-47191048D01*
X91138043Y-47166913D01*
X91373669Y-47095437D01*
X91590823Y-46979366D01*
X91781160Y-46823160D01*
X91937366Y-46632823D01*
X91972413Y-46567254D01*
X92211512Y-46649500D01*
X92327503Y-46672572D01*
X92579000Y-46503494D01*
X92579000Y-45089000D01*
X92559000Y-45089000D01*
X92559000Y-45081000D01*
X92579000Y-45081000D01*
X92579000Y-43666506D01*
X92327503Y-43497428D01*
X92211512Y-43520500D01*
X91972413Y-43602746D01*
X91937366Y-43537177D01*
X91781160Y-43346840D01*
X91745225Y-43317349D01*
X91737500Y-43238912D01*
X91737500Y-43238905D01*
X91712981Y-42989960D01*
X91711477Y-42985000D01*
X91690429Y-42915618D01*
X91616088Y-42670546D01*
X91473616Y-42404000D01*
X139624202Y-42404000D01*
X139021284Y-42697177D01*
G37*
X139021284Y-42697177D02*
X138764996Y-42868421D01*
X138418030Y-43412373D01*
X141129000Y-46123343D01*
X143839970Y-43412373D01*
X143493004Y-42868421D01*
X142811473Y-42469878D01*
X142620885Y-42404000D01*
X144354000Y-42404000D01*
X144354000Y-43742302D01*
X143845627Y-43418030D01*
X141134657Y-46129000D01*
X143845627Y-48839970D01*
X144354000Y-48515698D01*
X144354001Y-115807087D01*
X144234963Y-115757780D01*
X143838907Y-115679000D01*
X143435093Y-115679000D01*
X143039037Y-115757780D01*
X142665961Y-115912314D01*
X142468130Y-116044500D01*
X140598033Y-116044500D01*
X140350657Y-115797124D01*
X139941194Y-115523529D01*
X139486223Y-115335074D01*
X139003228Y-115239000D01*
X138510772Y-115239000D01*
X138027777Y-115335074D01*
X137572806Y-115523529D01*
X137163343Y-115797124D01*
X136815124Y-116145343D01*
X136541529Y-116554806D01*
X136353074Y-117009777D01*
X136257000Y-117492772D01*
X136257000Y-117842615D01*
X135017116Y-119082500D01*
X125218278Y-119082500D01*
X125382104Y-118686990D01*
X125507000Y-118059097D01*
X125507000Y-117418903D01*
X125382104Y-116791010D01*
X125137112Y-116199548D01*
X124781440Y-115667246D01*
X124328754Y-115214560D01*
X123995500Y-114991887D01*
X123995500Y-114837435D01*
X124145366Y-114654823D01*
X124261437Y-114437669D01*
X124332913Y-114202043D01*
X124357048Y-113957000D01*
X124357048Y-112357000D01*
X124332913Y-112111957D01*
X124261437Y-111876331D01*
X124145366Y-111659177D01*
X123989160Y-111468840D01*
X123798823Y-111312634D01*
X123581669Y-111196563D01*
X123346043Y-111125087D01*
X123101000Y-111100952D01*
X121501000Y-111100952D01*
X121255957Y-111125087D01*
X121041520Y-111190135D01*
X119583051Y-109731667D01*
X119529989Y-109667011D01*
X119271968Y-109455258D01*
X118977594Y-109297912D01*
X118658180Y-109201019D01*
X118409235Y-109176500D01*
X118409228Y-109176500D01*
X118326000Y-109168303D01*
X118242772Y-109176500D01*
X93428228Y-109176500D01*
X93345000Y-109168303D01*
X93261772Y-109176500D01*
X93261765Y-109176500D01*
X93043987Y-109197949D01*
X93012819Y-109201019D01*
X92693405Y-109297912D01*
X92590867Y-109352720D01*
X92399032Y-109455258D01*
X92141011Y-109667011D01*
X92087954Y-109731661D01*
X88419617Y-113399999D01*
X86742728Y-113399999D01*
X86659500Y-113391802D01*
X86576272Y-113399999D01*
X86576266Y-113399999D01*
X86361715Y-113421130D01*
X86327320Y-113424518D01*
X86230427Y-113453910D01*
X86007907Y-113521411D01*
X85713533Y-113678757D01*
X85713531Y-113678758D01*
X85713532Y-113678758D01*
X85555327Y-113808594D01*
X85455512Y-113890510D01*
X85402455Y-113955160D01*
X84780099Y-114577517D01*
X84335097Y-114489000D01*
X83694903Y-114489000D01*
X83067010Y-114613896D01*
X82475548Y-114858888D01*
X81943246Y-115214560D01*
X81490560Y-115667246D01*
X81134888Y-116199548D01*
X80889896Y-116791010D01*
X80765000Y-117418903D01*
X80765000Y-118059097D01*
X80889896Y-118686990D01*
X81134888Y-119278452D01*
X81490560Y-119810754D01*
X81778306Y-120098500D01*
X81744227Y-120098500D01*
X81660999Y-120090303D01*
X81577771Y-120098500D01*
X81577765Y-120098500D01*
X81363214Y-120119631D01*
X81328819Y-120123019D01*
X81263195Y-120142926D01*
X81009406Y-120219912D01*
X80715032Y-120377258D01*
X80457011Y-120589011D01*
X80403954Y-120653661D01*
X77206607Y-123851009D01*
X77217048Y-123745000D01*
X77217048Y-114957365D01*
X77227000Y-114856320D01*
X77227000Y-109933680D01*
X77217048Y-109832635D01*
X77217048Y-101045000D01*
X77192913Y-100799957D01*
X77121437Y-100564331D01*
X77029135Y-100391645D01*
X78371704Y-100391645D01*
X78392873Y-100737293D01*
X78481068Y-101072169D01*
X78632900Y-101383405D01*
X78705520Y-101492088D01*
X79019063Y-101569280D01*
X80131343Y-100457000D01*
X79019063Y-99344720D01*
X78705520Y-99421912D01*
X78531089Y-99721069D01*
X78418373Y-100048508D01*
X78371704Y-100391645D01*
X77029135Y-100391645D01*
X77005366Y-100347177D01*
X76849160Y-100156840D01*
X76658823Y-100000634D01*
X76441669Y-99884563D01*
X76206043Y-99813087D01*
X75961000Y-99788952D01*
X73961000Y-99788952D01*
X73715957Y-99813087D01*
X73480331Y-99884563D01*
X73263177Y-100000634D01*
X73072840Y-100156840D01*
X72916634Y-100347177D01*
X72800563Y-100564331D01*
X72729087Y-100799957D01*
X72704952Y-101045000D01*
X72704952Y-109832645D01*
X72695001Y-109933680D01*
X72695000Y-114856319D01*
X72704952Y-114957364D01*
X72704952Y-123745000D01*
X72729087Y-123990043D01*
X72800563Y-124225669D01*
X72902564Y-124416500D01*
X65742235Y-124416500D01*
X65659000Y-124408302D01*
X65575765Y-124416500D01*
X65019436Y-124416500D01*
X65121437Y-124225669D01*
X65192913Y-123990043D01*
X65217048Y-123745000D01*
X65217048Y-118957365D01*
X65237964Y-118745000D01*
X65217048Y-118532635D01*
X65217048Y-113745000D01*
X65192913Y-113499957D01*
X65121437Y-113264331D01*
X65005366Y-113047177D01*
X64849160Y-112856840D01*
X64658823Y-112700634D01*
X64441669Y-112584563D01*
X64206043Y-112513087D01*
X63961000Y-112488952D01*
X61961000Y-112488952D01*
X61715957Y-112513087D01*
X61480331Y-112584563D01*
X61341000Y-112659037D01*
X61201669Y-112584563D01*
X60966043Y-112513087D01*
X60721000Y-112488952D01*
X58721000Y-112488952D01*
X58593980Y-112501463D01*
X58473569Y-112276189D01*
X58475957Y-112276913D01*
X58721000Y-112301048D01*
X60721000Y-112301048D01*
X60966043Y-112276913D01*
X61201669Y-112205437D01*
X61341000Y-112130963D01*
X61480331Y-112205437D01*
X61715957Y-112276913D01*
X61961000Y-112301048D01*
X63961000Y-112301048D01*
X64206043Y-112276913D01*
X64441669Y-112205437D01*
X64658823Y-112089366D01*
X64849160Y-111933160D01*
X65005366Y-111742823D01*
X65121437Y-111525669D01*
X65192913Y-111290043D01*
X65217048Y-111045000D01*
X65217048Y-106257365D01*
X65237964Y-106045000D01*
X65217048Y-105832635D01*
X65217048Y-101045000D01*
X65192913Y-100799957D01*
X65121437Y-100564331D01*
X65005366Y-100347177D01*
X64849160Y-100156840D01*
X64658823Y-100000634D01*
X64441669Y-99884563D01*
X64206043Y-99813087D01*
X63961000Y-99788952D01*
X61961000Y-99788952D01*
X61715957Y-99813087D01*
X61480331Y-99884563D01*
X61341000Y-99959037D01*
X61201669Y-99884563D01*
X60966043Y-99813087D01*
X60721000Y-99788952D01*
X58721000Y-99788952D01*
X58475957Y-99813087D01*
X58240331Y-99884563D01*
X58023177Y-100000634D01*
X57832840Y-100156840D01*
X57676634Y-100347177D01*
X57560563Y-100564331D01*
X57489087Y-100799957D01*
X57464952Y-101045000D01*
X57464952Y-105832635D01*
X57444036Y-106045000D01*
X57464952Y-106257365D01*
X57464952Y-111045000D01*
X57482167Y-111219782D01*
X55232051Y-108969667D01*
X55178989Y-108905011D01*
X54920968Y-108693258D01*
X54626594Y-108535912D01*
X54307180Y-108439019D01*
X54058235Y-108414500D01*
X54058228Y-108414500D01*
X53975000Y-108406303D01*
X53891772Y-108414500D01*
X49977048Y-108414500D01*
X49977048Y-101045000D01*
X49952913Y-100799957D01*
X49881437Y-100564331D01*
X49765366Y-100347177D01*
X49609160Y-100156840D01*
X49418823Y-100000634D01*
X49319500Y-99947545D01*
X49319500Y-98417324D01*
X49528040Y-98208784D01*
X49796162Y-97807510D01*
X49980848Y-97361639D01*
X50075000Y-96888304D01*
X50075000Y-96405696D01*
X70575000Y-96405696D01*
X70575000Y-96888304D01*
X70669152Y-97361639D01*
X70853838Y-97807510D01*
X71121960Y-98208784D01*
X71463216Y-98550040D01*
X71864490Y-98818162D01*
X72310361Y-99002848D01*
X72783696Y-99097000D01*
X73266304Y-99097000D01*
X73739639Y-99002848D01*
X74185510Y-98818162D01*
X74586784Y-98550040D01*
X74795324Y-98341500D01*
X74883209Y-98341500D01*
X74919040Y-98385160D01*
X75109377Y-98541366D01*
X75326531Y-98657437D01*
X75562157Y-98728913D01*
X75807200Y-98753048D01*
X77507200Y-98753048D01*
X77752243Y-98728913D01*
X77987869Y-98657437D01*
X78205023Y-98541366D01*
X78395360Y-98385160D01*
X78431191Y-98341500D01*
X78649519Y-98341500D01*
X78702708Y-98394689D01*
X79071225Y-98640924D01*
X79480699Y-98810534D01*
X79496134Y-98813604D01*
X79210595Y-98952900D01*
X79101912Y-99025520D01*
X79024720Y-99339063D01*
X80137000Y-100451343D01*
X81249280Y-99339063D01*
X81172088Y-99025520D01*
X80872931Y-98851089D01*
X80769102Y-98815347D01*
X80793301Y-98810534D01*
X81202775Y-98640924D01*
X81571292Y-98394689D01*
X81884689Y-98081292D01*
X82130924Y-97712775D01*
X82300534Y-97303301D01*
X82387000Y-96868606D01*
X82387000Y-96425394D01*
X82300534Y-95990699D01*
X82130924Y-95581225D01*
X81884689Y-95212708D01*
X81571292Y-94899311D01*
X81202775Y-94653076D01*
X80793301Y-94483466D01*
X80358606Y-94397000D01*
X79915394Y-94397000D01*
X79480699Y-94483466D01*
X79071225Y-94653076D01*
X78702708Y-94899311D01*
X78649519Y-94952500D01*
X78431191Y-94952500D01*
X78395360Y-94908840D01*
X78205023Y-94752634D01*
X77987869Y-94636563D01*
X77752243Y-94565087D01*
X77507200Y-94540952D01*
X75807200Y-94540952D01*
X75562157Y-94565087D01*
X75326531Y-94636563D01*
X75109377Y-94752634D01*
X74919040Y-94908840D01*
X74883209Y-94952500D01*
X74795324Y-94952500D01*
X74586784Y-94743960D01*
X74185510Y-94475838D01*
X73739639Y-94291152D01*
X73266304Y-94197000D01*
X72783696Y-94197000D01*
X72310361Y-94291152D01*
X71864490Y-94475838D01*
X71463216Y-94743960D01*
X71121960Y-95085216D01*
X70853838Y-95486490D01*
X70669152Y-95932361D01*
X70575000Y-96405696D01*
X50075000Y-96405696D01*
X49980848Y-95932361D01*
X49796162Y-95486490D01*
X49528040Y-95085216D01*
X49186784Y-94743960D01*
X48785510Y-94475838D01*
X48339639Y-94291152D01*
X47866304Y-94197000D01*
X47383696Y-94197000D01*
X46910361Y-94291152D01*
X46904000Y-94293787D01*
X46904000Y-93944166D01*
X47266453Y-94094298D01*
X47672168Y-94175000D01*
X48085832Y-94175000D01*
X48491547Y-94094298D01*
X48873723Y-93935996D01*
X49217672Y-93706177D01*
X49510177Y-93413672D01*
X49739996Y-93069723D01*
X49898298Y-92687547D01*
X49979000Y-92281832D01*
X49979000Y-91868168D01*
X49898298Y-91462453D01*
X49739996Y-91080277D01*
X49556062Y-90805000D01*
X49739996Y-90529723D01*
X49898298Y-90147547D01*
X49979000Y-89741832D01*
X49979000Y-89328168D01*
X49898298Y-88922453D01*
X49739996Y-88540277D01*
X49556062Y-88265000D01*
X49739996Y-87989723D01*
X49898298Y-87607547D01*
X49979000Y-87201832D01*
X49979000Y-86788168D01*
X49898298Y-86382453D01*
X49739996Y-86000277D01*
X49510177Y-85656328D01*
X49217672Y-85363823D01*
X49206057Y-85356062D01*
X49340965Y-85124569D01*
X49443500Y-84826488D01*
X49466572Y-84710497D01*
X49297494Y-84459000D01*
X47883000Y-84459000D01*
X47883000Y-84479000D01*
X47875000Y-84479000D01*
X47875000Y-84459000D01*
X47855000Y-84459000D01*
X47855000Y-84451000D01*
X47875000Y-84451000D01*
X47875000Y-84431000D01*
X47883000Y-84431000D01*
X47883000Y-84451000D01*
X49297494Y-84451000D01*
X49466572Y-84199503D01*
X49443500Y-84083512D01*
X49361254Y-83844413D01*
X49426823Y-83809366D01*
X49617160Y-83653160D01*
X49652991Y-83609500D01*
X51859772Y-83609500D01*
X51943000Y-83617697D01*
X52026228Y-83609500D01*
X52026235Y-83609500D01*
X52275180Y-83584981D01*
X52594594Y-83488088D01*
X52888968Y-83330742D01*
X53146989Y-83118989D01*
X53200051Y-83054333D01*
X55884339Y-80370046D01*
X55948989Y-80316989D01*
X56008054Y-80245019D01*
X56160741Y-80058969D01*
X56160742Y-80058968D01*
X56318088Y-79764594D01*
X56414981Y-79445180D01*
X56439500Y-79196235D01*
X56439500Y-79196226D01*
X56447697Y-79113001D01*
X56439500Y-79029776D01*
X56439500Y-78885024D01*
X56549069Y-78948911D01*
X56876508Y-79061627D01*
X57219645Y-79108296D01*
X57565293Y-79087127D01*
X57900169Y-78998932D01*
X58168197Y-78868178D01*
X58390708Y-79090689D01*
X58759225Y-79336924D01*
X59168699Y-79506534D01*
X59603394Y-79593000D01*
X60046606Y-79593000D01*
X60481301Y-79506534D01*
X60890775Y-79336924D01*
X61095000Y-79200465D01*
X61299225Y-79336924D01*
X61708699Y-79506534D01*
X62143394Y-79593000D01*
X62586606Y-79593000D01*
X63021301Y-79506534D01*
X63210501Y-79428165D01*
X63210500Y-87600828D01*
X63202303Y-87684056D01*
X63210500Y-87767284D01*
X63210500Y-87767290D01*
X63235019Y-88016235D01*
X63331912Y-88335649D01*
X63489258Y-88630023D01*
X63701011Y-88888045D01*
X63765667Y-88941107D01*
X67022898Y-92198339D01*
X67075955Y-92262989D01*
X67333976Y-92474742D01*
X67525811Y-92577280D01*
X67628349Y-92632088D01*
X67947763Y-92728981D01*
X67978931Y-92732051D01*
X68196709Y-92753500D01*
X68196716Y-92753500D01*
X68207764Y-92754588D01*
X68415216Y-92962040D01*
X68816490Y-93230162D01*
X69262361Y-93414848D01*
X69735696Y-93509000D01*
X70218304Y-93509000D01*
X70691639Y-93414848D01*
X71137510Y-93230162D01*
X71538784Y-92962040D01*
X71880040Y-92620784D01*
X72148162Y-92219510D01*
X72332848Y-91773639D01*
X72427000Y-91300304D01*
X72427000Y-90817696D01*
X72332848Y-90344361D01*
X72173433Y-89959500D01*
X81467116Y-89959500D01*
X86074365Y-94566750D01*
X85873301Y-94483466D01*
X85438606Y-94397000D01*
X84995394Y-94397000D01*
X84560699Y-94483466D01*
X84151225Y-94653076D01*
X83782708Y-94899311D01*
X83469311Y-95212708D01*
X83223076Y-95581225D01*
X83053466Y-95990699D01*
X82967000Y-96425394D01*
X82967000Y-96868606D01*
X83053466Y-97303301D01*
X83223076Y-97712775D01*
X83469311Y-98081292D01*
X83782708Y-98394689D01*
X84018141Y-98552000D01*
X83782708Y-98709311D01*
X83730607Y-98761412D01*
X83719558Y-98762500D01*
X83719552Y-98762500D01*
X83505001Y-98783631D01*
X83470606Y-98787019D01*
X83393088Y-98810534D01*
X83151193Y-98883912D01*
X82856819Y-99041258D01*
X82598798Y-99253011D01*
X82545736Y-99317667D01*
X81840595Y-100022808D01*
X81792932Y-99841831D01*
X81641100Y-99530595D01*
X81568480Y-99421912D01*
X81254937Y-99344720D01*
X80142657Y-100457000D01*
X80156799Y-100471142D01*
X80151142Y-100476799D01*
X80137000Y-100462657D01*
X79024720Y-101574937D01*
X79101912Y-101888480D01*
X79401069Y-102062911D01*
X79504898Y-102098653D01*
X79480699Y-102103466D01*
X79071225Y-102273076D01*
X78702708Y-102519311D01*
X78389311Y-102832708D01*
X78143076Y-103201225D01*
X77973466Y-103610699D01*
X77887000Y-104045394D01*
X77887000Y-104488606D01*
X77973466Y-104923301D01*
X78143076Y-105332775D01*
X78389311Y-105701292D01*
X78702708Y-106014689D01*
X79071225Y-106260924D01*
X79480699Y-106430534D01*
X79915394Y-106517000D01*
X80358606Y-106517000D01*
X80793301Y-106430534D01*
X81134901Y-106289038D01*
X81134901Y-106303008D01*
X81091240Y-106338840D01*
X80935034Y-106529177D01*
X80818963Y-106746331D01*
X80747487Y-106981957D01*
X80723352Y-107227000D01*
X80723352Y-108927000D01*
X80747487Y-109172043D01*
X80818963Y-109407669D01*
X80935034Y-109624823D01*
X81091240Y-109815160D01*
X81281577Y-109971366D01*
X81498731Y-110087437D01*
X81734357Y-110158913D01*
X81979400Y-110183048D01*
X83679400Y-110183048D01*
X83924443Y-110158913D01*
X84160069Y-110087437D01*
X84377223Y-109971366D01*
X84567560Y-109815160D01*
X84723766Y-109624823D01*
X84839837Y-109407669D01*
X84911313Y-109172043D01*
X84935448Y-108927000D01*
X84935448Y-107227000D01*
X84911313Y-106981957D01*
X84839837Y-106746331D01*
X84723766Y-106529177D01*
X84567560Y-106338840D01*
X84523900Y-106303009D01*
X84523900Y-105887655D01*
X84808508Y-105985627D01*
X85151645Y-106032296D01*
X85497293Y-106011127D01*
X85832169Y-105922932D01*
X86143405Y-105771100D01*
X86252088Y-105698480D01*
X86329280Y-105384937D01*
X85217000Y-104272657D01*
X85202858Y-104286799D01*
X85197201Y-104281142D01*
X85211343Y-104267000D01*
X85222657Y-104267000D01*
X86334937Y-105379280D01*
X86648480Y-105302088D01*
X86822911Y-105002931D01*
X86935627Y-104675492D01*
X86982296Y-104332355D01*
X86961127Y-103986707D01*
X86872932Y-103651831D01*
X86721100Y-103340595D01*
X86648480Y-103231912D01*
X86334937Y-103154720D01*
X85222657Y-104267000D01*
X85211343Y-104267000D01*
X85197201Y-104252858D01*
X85202858Y-104247201D01*
X85217000Y-104261343D01*
X86329280Y-103149063D01*
X86252088Y-102835520D01*
X85952931Y-102661089D01*
X85849102Y-102625347D01*
X85873301Y-102620534D01*
X86282775Y-102450924D01*
X86651292Y-102204689D01*
X86704481Y-102151500D01*
X87165772Y-102151500D01*
X87249000Y-102159697D01*
X87332228Y-102151500D01*
X87332235Y-102151500D01*
X87581180Y-102126981D01*
X87900594Y-102030088D01*
X88194968Y-101872742D01*
X88452989Y-101660989D01*
X88506051Y-101596333D01*
X88534803Y-101567581D01*
X88449152Y-101774361D01*
X88355000Y-102247696D01*
X88355000Y-102730304D01*
X88449152Y-103203639D01*
X88633838Y-103649510D01*
X88901960Y-104050784D01*
X89243216Y-104392040D01*
X89644490Y-104660162D01*
X90090361Y-104844848D01*
X90563696Y-104939000D01*
X91046304Y-104939000D01*
X91519639Y-104844848D01*
X91965510Y-104660162D01*
X92366784Y-104392040D01*
X92708040Y-104050784D01*
X92976162Y-103649510D01*
X93160848Y-103203639D01*
X93255000Y-102730304D01*
X93255000Y-102435384D01*
X93442688Y-102247696D01*
X108675000Y-102247696D01*
X108675000Y-102730304D01*
X108769152Y-103203639D01*
X108953838Y-103649510D01*
X109221960Y-104050784D01*
X109563216Y-104392040D01*
X109964490Y-104660162D01*
X110410361Y-104844848D01*
X110883696Y-104939000D01*
X111366304Y-104939000D01*
X111839639Y-104844848D01*
X112285510Y-104660162D01*
X112686784Y-104392040D01*
X112895324Y-104183500D01*
X116810565Y-104183500D01*
X116993177Y-104333366D01*
X117210331Y-104449437D01*
X117445957Y-104520913D01*
X117691000Y-104545048D01*
X119291000Y-104545048D01*
X119536043Y-104520913D01*
X119771669Y-104449437D01*
X119988823Y-104333366D01*
X120171435Y-104183500D01*
X126137098Y-104183500D01*
X126386277Y-104349996D01*
X126768453Y-104508298D01*
X127174168Y-104589000D01*
X127587832Y-104589000D01*
X127993547Y-104508298D01*
X128375723Y-104349996D01*
X128606344Y-104195900D01*
X132257059Y-104195900D01*
X132482919Y-104381258D01*
X132873796Y-104590186D01*
X133297923Y-104718844D01*
X133628472Y-104751400D01*
X134849528Y-104751400D01*
X135180077Y-104718844D01*
X135604204Y-104590186D01*
X135995081Y-104381258D01*
X136337688Y-104100088D01*
X136618858Y-103757481D01*
X136827786Y-103366604D01*
X136956444Y-102942477D01*
X136999886Y-102501400D01*
X136956444Y-102060323D01*
X136827786Y-101636196D01*
X136618858Y-101245319D01*
X136337688Y-100902712D01*
X136307554Y-100877982D01*
X136364711Y-100770461D01*
X136464001Y-100440445D01*
X136474725Y-100380362D01*
X136307495Y-100105400D01*
X134243000Y-100105400D01*
X134243000Y-100125400D01*
X134235000Y-100125400D01*
X134235000Y-100105400D01*
X132170505Y-100105400D01*
X132003275Y-100380362D01*
X132013999Y-100440445D01*
X132113289Y-100770461D01*
X132132660Y-100806900D01*
X128991890Y-100806900D01*
X128992668Y-100799000D01*
X128989000Y-100142500D01*
X128799500Y-99953000D01*
X127385000Y-99953000D01*
X127385000Y-99973000D01*
X127377000Y-99973000D01*
X127377000Y-99953000D01*
X125962500Y-99953000D01*
X125773000Y-100142500D01*
X125769357Y-100794500D01*
X120171435Y-100794500D01*
X119988823Y-100644634D01*
X119924842Y-100610436D01*
X120014211Y-100350577D01*
X120055483Y-100046466D01*
X120036633Y-99740146D01*
X119958385Y-99443389D01*
X119823746Y-99167601D01*
X119777909Y-99099000D01*
X125769332Y-99099000D01*
X125773000Y-99755500D01*
X125962500Y-99945000D01*
X127377000Y-99945000D01*
X127377000Y-98530500D01*
X127385000Y-98530500D01*
X127385000Y-99945000D01*
X128799500Y-99945000D01*
X128989000Y-99755500D01*
X128992668Y-99099000D01*
X128978033Y-98950406D01*
X128934689Y-98807522D01*
X128864304Y-98675840D01*
X128769581Y-98560419D01*
X128654160Y-98465696D01*
X128522478Y-98395311D01*
X128379594Y-98351967D01*
X128231000Y-98337332D01*
X127574500Y-98341000D01*
X127385000Y-98530500D01*
X127377000Y-98530500D01*
X127187500Y-98341000D01*
X126531000Y-98337332D01*
X126382406Y-98351967D01*
X126239522Y-98395311D01*
X126107840Y-98465696D01*
X125992419Y-98560419D01*
X125897696Y-98675840D01*
X125827311Y-98807522D01*
X125783967Y-98950406D01*
X125769332Y-99099000D01*
X119777909Y-99099000D01*
X119759894Y-99072039D01*
X119466830Y-99018827D01*
X118496657Y-99989000D01*
X118510799Y-100003142D01*
X118505142Y-100008799D01*
X118491000Y-99994657D01*
X118476858Y-100008799D01*
X118471201Y-100003142D01*
X118485343Y-99989000D01*
X117515170Y-99018827D01*
X117222106Y-99072039D01*
X117067598Y-99337207D01*
X116967789Y-99627423D01*
X116926517Y-99931534D01*
X116945367Y-100237854D01*
X117023615Y-100534611D01*
X117059913Y-100608963D01*
X116993177Y-100644634D01*
X116810565Y-100794500D01*
X112895324Y-100794500D01*
X112686784Y-100585960D01*
X112285510Y-100317838D01*
X111839639Y-100133152D01*
X111366304Y-100039000D01*
X110883696Y-100039000D01*
X110410361Y-100133152D01*
X109964490Y-100317838D01*
X109563216Y-100585960D01*
X109221960Y-100927216D01*
X108953838Y-101328490D01*
X108769152Y-101774361D01*
X108675000Y-102247696D01*
X93442688Y-102247696D01*
X99030688Y-96659696D01*
X108675000Y-96659696D01*
X108675000Y-97142304D01*
X108769152Y-97615639D01*
X108953838Y-98061510D01*
X109221960Y-98462784D01*
X109563216Y-98804040D01*
X109964490Y-99072162D01*
X110410361Y-99256848D01*
X110883696Y-99351000D01*
X111366304Y-99351000D01*
X111839639Y-99256848D01*
X112285510Y-99072162D01*
X112373798Y-99013170D01*
X117520827Y-99013170D01*
X118491000Y-99983343D01*
X119461173Y-99013170D01*
X119407961Y-98720106D01*
X119142793Y-98565598D01*
X118852577Y-98465789D01*
X118548466Y-98424517D01*
X118242146Y-98443367D01*
X117945389Y-98521615D01*
X117669601Y-98656254D01*
X117574039Y-98720106D01*
X117520827Y-99013170D01*
X112373798Y-99013170D01*
X112686784Y-98804040D01*
X113028040Y-98462784D01*
X113296162Y-98061510D01*
X113480848Y-97615639D01*
X113575000Y-97142304D01*
X113575000Y-96659696D01*
X113480848Y-96186361D01*
X113296162Y-95740490D01*
X113171463Y-95553865D01*
X114952498Y-93772830D01*
X117520827Y-93772830D01*
X117574039Y-94065894D01*
X117839207Y-94220402D01*
X118129423Y-94320211D01*
X118433534Y-94361483D01*
X118739854Y-94342633D01*
X119036611Y-94264385D01*
X119312399Y-94129746D01*
X119407961Y-94065894D01*
X119461173Y-93772830D01*
X118491000Y-92802657D01*
X117520827Y-93772830D01*
X114952498Y-93772830D01*
X116733829Y-91991500D01*
X116810565Y-91991500D01*
X116993177Y-92141366D01*
X117057158Y-92175564D01*
X116967789Y-92435423D01*
X116926517Y-92739534D01*
X116945367Y-93045854D01*
X117023615Y-93342611D01*
X117158254Y-93618399D01*
X117222106Y-93713961D01*
X117515170Y-93767173D01*
X118485343Y-92797000D01*
X118471201Y-92782858D01*
X118476858Y-92777201D01*
X118491000Y-92791343D01*
X118505142Y-92777201D01*
X118510799Y-92782858D01*
X118496657Y-92797000D01*
X119466830Y-93767173D01*
X119759894Y-93713961D01*
X119914402Y-93448793D01*
X120014211Y-93158577D01*
X120055483Y-92854466D01*
X120036633Y-92548146D01*
X119958385Y-92251389D01*
X119922087Y-92177037D01*
X119988823Y-92141366D01*
X120171435Y-91991500D01*
X131132103Y-91991500D01*
X131021556Y-92355923D01*
X130978114Y-92797000D01*
X131021556Y-93238077D01*
X131150214Y-93662204D01*
X131359142Y-94053081D01*
X131640312Y-94395688D01*
X131982919Y-94676858D01*
X132354000Y-94875205D01*
X132354001Y-95927342D01*
X132140312Y-96102712D01*
X131859142Y-96445319D01*
X131650214Y-96836196D01*
X131521556Y-97260323D01*
X131478114Y-97701400D01*
X131521556Y-98142477D01*
X131650214Y-98566604D01*
X131859142Y-98957481D01*
X132140312Y-99300088D01*
X132170446Y-99324818D01*
X132113289Y-99432339D01*
X132013999Y-99762355D01*
X132003275Y-99822438D01*
X132170505Y-100097400D01*
X134235000Y-100097400D01*
X134235000Y-100077400D01*
X134243000Y-100077400D01*
X134243000Y-100097400D01*
X136307495Y-100097400D01*
X136474725Y-99822438D01*
X136464001Y-99762355D01*
X136364711Y-99432339D01*
X136307554Y-99324818D01*
X136337688Y-99300088D01*
X136618858Y-98957481D01*
X136827786Y-98566604D01*
X136956444Y-98142477D01*
X136999886Y-97701400D01*
X136956444Y-97260323D01*
X136827786Y-96836196D01*
X136618858Y-96445319D01*
X136337688Y-96102712D01*
X136124000Y-95927343D01*
X136124000Y-94875205D01*
X136485461Y-94682000D01*
X137416411Y-94682000D01*
X137509000Y-94691119D01*
X137601589Y-94682000D01*
X137601597Y-94682000D01*
X137878524Y-94654725D01*
X138233848Y-94546939D01*
X138561317Y-94371903D01*
X138848345Y-94136345D01*
X138907374Y-94064418D01*
X141704023Y-91267770D01*
X141775945Y-91208745D01*
X141925164Y-91026922D01*
X142011503Y-90921717D01*
X142097398Y-90761018D01*
X142186539Y-90594248D01*
X142294325Y-90238924D01*
X142321600Y-89961997D01*
X142330720Y-89869400D01*
X142321600Y-89776803D01*
X142321600Y-81905533D01*
X142378476Y-81848657D01*
X142652071Y-81439194D01*
X142840526Y-80984223D01*
X142936600Y-80501228D01*
X142936600Y-80008772D01*
X142840526Y-79525777D01*
X142652071Y-79070806D01*
X142378476Y-78661343D01*
X142030257Y-78313124D01*
X141620794Y-78039529D01*
X141165823Y-77851074D01*
X140682828Y-77755000D01*
X140602393Y-77755000D01*
X140080411Y-77233019D01*
X140361382Y-77271314D01*
X140756190Y-77247246D01*
X141138717Y-77146617D01*
X141494262Y-76973294D01*
X141619346Y-76889714D01*
X141726513Y-76550570D01*
X140436600Y-75260657D01*
X140422458Y-75274799D01*
X140416801Y-75269142D01*
X140430943Y-75255000D01*
X140442257Y-75255000D01*
X141732170Y-76544913D01*
X142071314Y-76437746D01*
X142270646Y-76096103D01*
X142399497Y-75722137D01*
X142452914Y-75330218D01*
X142428846Y-74935410D01*
X142328217Y-74552883D01*
X142154894Y-74197338D01*
X142071314Y-74072254D01*
X141732170Y-73965087D01*
X140442257Y-75255000D01*
X140430943Y-75255000D01*
X139141030Y-73965087D01*
X138801886Y-74072254D01*
X138602554Y-74413897D01*
X138473703Y-74787863D01*
X138420286Y-75179782D01*
X138444354Y-75574590D01*
X138518090Y-75854887D01*
X138503448Y-75847061D01*
X138148124Y-75739275D01*
X137871197Y-75712000D01*
X137871189Y-75712000D01*
X137778600Y-75702881D01*
X137686011Y-75712000D01*
X131357056Y-75712000D01*
X131444211Y-75458577D01*
X131485483Y-75154466D01*
X131466633Y-74848146D01*
X131388385Y-74551389D01*
X131253746Y-74275601D01*
X131189894Y-74180039D01*
X130896830Y-74126827D01*
X129926657Y-75097000D01*
X129940799Y-75111142D01*
X129935142Y-75116799D01*
X129921000Y-75102657D01*
X129906858Y-75116799D01*
X129901201Y-75111142D01*
X129915343Y-75097000D01*
X128945170Y-74126827D01*
X128652106Y-74180039D01*
X128497598Y-74445207D01*
X128397789Y-74735423D01*
X128356517Y-75039534D01*
X128375367Y-75345854D01*
X128453615Y-75642611D01*
X128487491Y-75712000D01*
X121451056Y-75712000D01*
X121538211Y-75458577D01*
X121579483Y-75154466D01*
X121560633Y-74848146D01*
X121482385Y-74551389D01*
X121347746Y-74275601D01*
X121283894Y-74180039D01*
X120990830Y-74126827D01*
X120020657Y-75097000D01*
X120034799Y-75111142D01*
X120029142Y-75116799D01*
X120015000Y-75102657D01*
X120000858Y-75116799D01*
X119995201Y-75111142D01*
X120009343Y-75097000D01*
X119039170Y-74126827D01*
X118746106Y-74180039D01*
X118591598Y-74445207D01*
X118491789Y-74735423D01*
X118450517Y-75039534D01*
X118469367Y-75345854D01*
X118547615Y-75642611D01*
X118583913Y-75716963D01*
X118517177Y-75752634D01*
X118326840Y-75908840D01*
X118170634Y-76099177D01*
X118054563Y-76316331D01*
X117983087Y-76551957D01*
X117958952Y-76797000D01*
X117958952Y-78397000D01*
X117983087Y-78642043D01*
X118054563Y-78877669D01*
X118170634Y-79094823D01*
X118326840Y-79285160D01*
X118517177Y-79441366D01*
X118734331Y-79557437D01*
X118969957Y-79628913D01*
X119215000Y-79653048D01*
X120815000Y-79653048D01*
X121060043Y-79628913D01*
X121295669Y-79557437D01*
X121436802Y-79482000D01*
X128499198Y-79482000D01*
X128640331Y-79557437D01*
X128875957Y-79628913D01*
X129121000Y-79653048D01*
X130721000Y-79653048D01*
X130966043Y-79628913D01*
X131201669Y-79557437D01*
X131342802Y-79482000D01*
X136997808Y-79482000D01*
X137936600Y-80420793D01*
X137936600Y-80501228D01*
X138032674Y-80984223D01*
X138221129Y-81439194D01*
X138494724Y-81848657D01*
X138551600Y-81905533D01*
X138551601Y-89088606D01*
X137485838Y-90154369D01*
X137456444Y-89855923D01*
X137327786Y-89431796D01*
X137118858Y-89040919D01*
X136837688Y-88698312D01*
X136770542Y-88643207D01*
X136864711Y-88466061D01*
X136964001Y-88136045D01*
X136974725Y-88075962D01*
X136807495Y-87801000D01*
X134243000Y-87801000D01*
X134243000Y-87821000D01*
X134235000Y-87821000D01*
X134235000Y-87801000D01*
X131670505Y-87801000D01*
X131503275Y-88075962D01*
X131513999Y-88136045D01*
X131613289Y-88466061D01*
X131685818Y-88602500D01*
X120171435Y-88602500D01*
X119988823Y-88452634D01*
X119771669Y-88336563D01*
X119536043Y-88265087D01*
X119291000Y-88240952D01*
X117691000Y-88240952D01*
X117445957Y-88265087D01*
X117210331Y-88336563D01*
X116993177Y-88452634D01*
X116810565Y-88602500D01*
X116115172Y-88602500D01*
X116031944Y-88594303D01*
X115948716Y-88602500D01*
X115948709Y-88602500D01*
X115730931Y-88623949D01*
X115699763Y-88627019D01*
X115622245Y-88650534D01*
X115380350Y-88723912D01*
X115085976Y-88881258D01*
X114991238Y-88959008D01*
X114921390Y-89016331D01*
X114827955Y-89093011D01*
X114774898Y-89157661D01*
X109985662Y-93946898D01*
X109921012Y-93999955D01*
X109867955Y-94064605D01*
X109867952Y-94064608D01*
X109709259Y-94257976D01*
X109551913Y-94552350D01*
X109455019Y-94871764D01*
X109444653Y-94977019D01*
X109430500Y-95120709D01*
X109430500Y-95120716D01*
X109429412Y-95131764D01*
X109221960Y-95339216D01*
X108953838Y-95740490D01*
X108769152Y-96186361D01*
X108675000Y-96659696D01*
X99030688Y-96659696D01*
X103120339Y-92570046D01*
X103184989Y-92516989D01*
X103396742Y-92258968D01*
X103554088Y-91964594D01*
X103650981Y-91645180D01*
X103675500Y-91396235D01*
X103675500Y-91396228D01*
X103683697Y-91313000D01*
X103675500Y-91229772D01*
X103675500Y-90975500D01*
X104680226Y-90975500D01*
X104713142Y-91037081D01*
X104994312Y-91379688D01*
X105336919Y-91660858D01*
X105727796Y-91869786D01*
X106151923Y-91998444D01*
X106593000Y-92041886D01*
X107034076Y-91998444D01*
X107458203Y-91869786D01*
X107843000Y-91664108D01*
X108227796Y-91869786D01*
X108651923Y-91998444D01*
X109093000Y-92041886D01*
X109534076Y-91998444D01*
X109958203Y-91869786D01*
X110349081Y-91660858D01*
X110691688Y-91379688D01*
X110746793Y-91312542D01*
X110923939Y-91406711D01*
X111253955Y-91506001D01*
X111314038Y-91516725D01*
X111589000Y-91349495D01*
X111589000Y-89285000D01*
X111597000Y-89285000D01*
X111597000Y-91349495D01*
X111871962Y-91516725D01*
X111932045Y-91506001D01*
X112262061Y-91406711D01*
X112566366Y-91244946D01*
X112833265Y-91026922D01*
X113052501Y-90761018D01*
X113215649Y-90457453D01*
X113316440Y-90127892D01*
X113351000Y-89785000D01*
X113351000Y-89285000D01*
X111597000Y-89285000D01*
X111589000Y-89285000D01*
X111569000Y-89285000D01*
X111569000Y-89277000D01*
X111589000Y-89277000D01*
X111589000Y-87212505D01*
X111597000Y-87212505D01*
X111597000Y-89277000D01*
X113351000Y-89277000D01*
X113351000Y-88777000D01*
X113316440Y-88434108D01*
X113215649Y-88104547D01*
X113052501Y-87800982D01*
X112833265Y-87535078D01*
X112812406Y-87518038D01*
X131503275Y-87518038D01*
X131670505Y-87793000D01*
X134235000Y-87793000D01*
X134235000Y-86039000D01*
X134243000Y-86039000D01*
X134243000Y-87793000D01*
X136807495Y-87793000D01*
X136974725Y-87518038D01*
X136964001Y-87457955D01*
X136864711Y-87127939D01*
X136702946Y-86823634D01*
X136484922Y-86556735D01*
X136219018Y-86337499D01*
X135915453Y-86174351D01*
X135585892Y-86073560D01*
X135243000Y-86039000D01*
X134243000Y-86039000D01*
X134235000Y-86039000D01*
X133235000Y-86039000D01*
X132892108Y-86073560D01*
X132562547Y-86174351D01*
X132258982Y-86337499D01*
X131993078Y-86556735D01*
X131775054Y-86823634D01*
X131613289Y-87127939D01*
X131513999Y-87457955D01*
X131503275Y-87518038D01*
X112812406Y-87518038D01*
X112566366Y-87317054D01*
X112262061Y-87155289D01*
X111932045Y-87055999D01*
X111871962Y-87045275D01*
X111597000Y-87212505D01*
X111589000Y-87212505D01*
X111314038Y-87045275D01*
X111253955Y-87055999D01*
X110923939Y-87155289D01*
X110787500Y-87227818D01*
X110787500Y-86172884D01*
X111318885Y-85641500D01*
X116302565Y-85641500D01*
X116485177Y-85791366D01*
X116702331Y-85907437D01*
X116937957Y-85978913D01*
X117183000Y-86003048D01*
X118783000Y-86003048D01*
X119028043Y-85978913D01*
X119263669Y-85907437D01*
X119480823Y-85791366D01*
X119671160Y-85635160D01*
X119827366Y-85444823D01*
X119943437Y-85227669D01*
X120014913Y-84992043D01*
X120039048Y-84747000D01*
X120039048Y-84194675D01*
X124064812Y-84194675D01*
X124087118Y-84306817D01*
X124186442Y-84595637D01*
X124340204Y-84859530D01*
X124542494Y-85088355D01*
X124785539Y-85273319D01*
X125059998Y-85407313D01*
X125355325Y-85485188D01*
X125599000Y-85315495D01*
X125599000Y-83951000D01*
X125607000Y-83951000D01*
X125607000Y-85315495D01*
X125850675Y-85485188D01*
X126146002Y-85407313D01*
X126420461Y-85273319D01*
X126663506Y-85088355D01*
X126865796Y-84859530D01*
X127019558Y-84595637D01*
X127118882Y-84306817D01*
X127141188Y-84194675D01*
X126971494Y-83951000D01*
X125607000Y-83951000D01*
X125599000Y-83951000D01*
X124234506Y-83951000D01*
X124064812Y-84194675D01*
X120039048Y-84194675D01*
X120039048Y-83699325D01*
X124064812Y-83699325D01*
X124234506Y-83943000D01*
X125599000Y-83943000D01*
X125599000Y-82578505D01*
X125607000Y-82578505D01*
X125607000Y-83943000D01*
X126971494Y-83943000D01*
X127141188Y-83699325D01*
X127118882Y-83587183D01*
X127019558Y-83298363D01*
X126865796Y-83034470D01*
X126663506Y-82805645D01*
X126420461Y-82620681D01*
X126146002Y-82486687D01*
X125850675Y-82408812D01*
X125607000Y-82578505D01*
X125599000Y-82578505D01*
X125355325Y-82408812D01*
X125059998Y-82486687D01*
X124785539Y-82620681D01*
X124542494Y-82805645D01*
X124340204Y-83034470D01*
X124186442Y-83298363D01*
X124087118Y-83587183D01*
X124064812Y-83699325D01*
X120039048Y-83699325D01*
X120039048Y-83147000D01*
X120014913Y-82901957D01*
X119943437Y-82666331D01*
X119827366Y-82449177D01*
X119671160Y-82258840D01*
X119480823Y-82102634D01*
X119263669Y-81986563D01*
X119028043Y-81915087D01*
X118783000Y-81890952D01*
X117183000Y-81890952D01*
X116937957Y-81915087D01*
X116702331Y-81986563D01*
X116485177Y-82102634D01*
X116302565Y-82252500D01*
X110700224Y-82252500D01*
X110616999Y-82244303D01*
X110533774Y-82252500D01*
X110533765Y-82252500D01*
X110284820Y-82277019D01*
X109965406Y-82373912D01*
X109671032Y-82531258D01*
X109671030Y-82531259D01*
X109671031Y-82531259D01*
X109506446Y-82666331D01*
X109413011Y-82743011D01*
X109359953Y-82807662D01*
X107953666Y-84213950D01*
X107889011Y-84267011D01*
X107677258Y-84525033D01*
X107519912Y-84819407D01*
X107492765Y-84908899D01*
X107423019Y-85138820D01*
X107419631Y-85173215D01*
X107398500Y-85387766D01*
X107398500Y-85387772D01*
X107390303Y-85471000D01*
X107398500Y-85554228D01*
X107398500Y-86674103D01*
X107034077Y-86563556D01*
X106593000Y-86520114D01*
X106151924Y-86563556D01*
X105727797Y-86692214D01*
X105336920Y-86901142D01*
X105183688Y-87026896D01*
X105247000Y-86708606D01*
X105247000Y-86265394D01*
X105160534Y-85830699D01*
X104990924Y-85421225D01*
X104744689Y-85052708D01*
X104431292Y-84739311D01*
X104062775Y-84493076D01*
X103653301Y-84323466D01*
X103218606Y-84237000D01*
X102775394Y-84237000D01*
X102510742Y-84289642D01*
X103143385Y-83657000D01*
X103218606Y-83657000D01*
X103653301Y-83570534D01*
X104062775Y-83400924D01*
X104431292Y-83154689D01*
X104744689Y-82841292D01*
X104990924Y-82472775D01*
X105160534Y-82063301D01*
X105247000Y-81628606D01*
X105247000Y-81185394D01*
X105160534Y-80750699D01*
X104990924Y-80341225D01*
X104744689Y-79972708D01*
X104691500Y-79919519D01*
X104691500Y-78100991D01*
X104735160Y-78065160D01*
X104891366Y-77874823D01*
X105007437Y-77657669D01*
X105078913Y-77422043D01*
X105103048Y-77177000D01*
X105103048Y-75477000D01*
X105078913Y-75231957D01*
X105007437Y-74996331D01*
X104891366Y-74779177D01*
X104735160Y-74588840D01*
X104544823Y-74432634D01*
X104327669Y-74316563D01*
X104092043Y-74245087D01*
X103847000Y-74220952D01*
X102147000Y-74220952D01*
X101901957Y-74245087D01*
X101666331Y-74316563D01*
X101449177Y-74432634D01*
X101258840Y-74588840D01*
X101102634Y-74779177D01*
X100986563Y-74996331D01*
X100915087Y-75231957D01*
X100890952Y-75477000D01*
X100890952Y-77177000D01*
X100915087Y-77422043D01*
X100986563Y-77657669D01*
X101102634Y-77874823D01*
X101258840Y-78065160D01*
X101302501Y-78100991D01*
X101302500Y-79919519D01*
X101249311Y-79972708D01*
X101003076Y-80341225D01*
X100833466Y-80750699D01*
X100830396Y-80766134D01*
X100691100Y-80480595D01*
X100618480Y-80371912D01*
X100304937Y-80294720D01*
X99192657Y-81407000D01*
X99206799Y-81421142D01*
X99201142Y-81426799D01*
X99187000Y-81412657D01*
X99172858Y-81426799D01*
X99167201Y-81421142D01*
X99181343Y-81407000D01*
X98069063Y-80294720D01*
X97755520Y-80371912D01*
X97581089Y-80671069D01*
X97545347Y-80774898D01*
X97540534Y-80750699D01*
X97370924Y-80341225D01*
X97336071Y-80289063D01*
X98074720Y-80289063D01*
X99187000Y-81401343D01*
X100299280Y-80289063D01*
X100222088Y-79975520D01*
X99922931Y-79801089D01*
X99595492Y-79688373D01*
X99252355Y-79641704D01*
X98906707Y-79662873D01*
X98571831Y-79751068D01*
X98260595Y-79902900D01*
X98151912Y-79975520D01*
X98074720Y-80289063D01*
X97336071Y-80289063D01*
X97124689Y-79972708D01*
X96811292Y-79659311D01*
X96442775Y-79413076D01*
X96033301Y-79243466D01*
X95598606Y-79157000D01*
X95155394Y-79157000D01*
X94720699Y-79243466D01*
X94311225Y-79413076D01*
X93942708Y-79659311D01*
X93629311Y-79972708D01*
X93383076Y-80341225D01*
X93213466Y-80750699D01*
X93127000Y-81185394D01*
X93127000Y-81628606D01*
X93213466Y-82063301D01*
X93383076Y-82472775D01*
X93405610Y-82506500D01*
X92920235Y-82506500D01*
X92837000Y-82498302D01*
X92753765Y-82506500D01*
X92504820Y-82531019D01*
X92185406Y-82627912D01*
X91891032Y-82785258D01*
X91633011Y-82997011D01*
X91421258Y-83255032D01*
X91263912Y-83549406D01*
X91167019Y-83868820D01*
X91156444Y-83976193D01*
X90978449Y-83889410D01*
X90607249Y-83791736D01*
X90301000Y-83956504D01*
X90301000Y-85721000D01*
X90321000Y-85721000D01*
X90321000Y-85729000D01*
X90301000Y-85729000D01*
X90301000Y-87493496D01*
X90607249Y-87658264D01*
X90978449Y-87560590D01*
X91142500Y-87480605D01*
X91142500Y-88757357D01*
X91011639Y-88703152D01*
X90538304Y-88609000D01*
X90055696Y-88609000D01*
X89582361Y-88703152D01*
X89136490Y-88887838D01*
X88735216Y-89155960D01*
X88393960Y-89497216D01*
X88125838Y-89898490D01*
X87941152Y-90344361D01*
X87847000Y-90817696D01*
X87847000Y-91300304D01*
X87908160Y-91607775D01*
X83426051Y-87125667D01*
X83372989Y-87061011D01*
X83114968Y-86849258D01*
X82820594Y-86691912D01*
X82501180Y-86595019D01*
X82252235Y-86570500D01*
X82252228Y-86570500D01*
X82169000Y-86562303D01*
X82085772Y-86570500D01*
X72278644Y-86570500D01*
X72332848Y-86439639D01*
X72413286Y-86035249D01*
X88363736Y-86035249D01*
X88392169Y-86178195D01*
X88517184Y-86541101D01*
X88710596Y-86872645D01*
X88964973Y-87160085D01*
X89270539Y-87392376D01*
X89615551Y-87560590D01*
X89986751Y-87658264D01*
X90293000Y-87493496D01*
X90293000Y-85729000D01*
X88528505Y-85729000D01*
X88363736Y-86035249D01*
X72413286Y-86035249D01*
X72427000Y-85966304D01*
X72427000Y-85483696D01*
X72413287Y-85414751D01*
X88363736Y-85414751D01*
X88528505Y-85721000D01*
X90293000Y-85721000D01*
X90293000Y-83956504D01*
X89986751Y-83791736D01*
X89615551Y-83889410D01*
X89270539Y-84057624D01*
X88964973Y-84289915D01*
X88710596Y-84577355D01*
X88517184Y-84908899D01*
X88392169Y-85271805D01*
X88363736Y-85414751D01*
X72413287Y-85414751D01*
X72332848Y-85010361D01*
X72148162Y-84564490D01*
X71880040Y-84163216D01*
X71679500Y-83962676D01*
X71679500Y-79428165D01*
X71868699Y-79506534D01*
X72303394Y-79593000D01*
X72746606Y-79593000D01*
X73181301Y-79506534D01*
X73590775Y-79336924D01*
X73795000Y-79200465D01*
X73999225Y-79336924D01*
X74408699Y-79506534D01*
X74843394Y-79593000D01*
X75286606Y-79593000D01*
X75721301Y-79506534D01*
X76130775Y-79336924D01*
X76335000Y-79200465D01*
X76539225Y-79336924D01*
X76948699Y-79506534D01*
X77383394Y-79593000D01*
X77826606Y-79593000D01*
X78261301Y-79506534D01*
X78670775Y-79336924D01*
X78875000Y-79200465D01*
X79079225Y-79336924D01*
X79488699Y-79506534D01*
X79923394Y-79593000D01*
X80366606Y-79593000D01*
X80801301Y-79506534D01*
X81210775Y-79336924D01*
X81415000Y-79200465D01*
X81619225Y-79336924D01*
X82028699Y-79506534D01*
X82463394Y-79593000D01*
X82906606Y-79593000D01*
X83341301Y-79506534D01*
X83750775Y-79336924D01*
X83955000Y-79200465D01*
X84159225Y-79336924D01*
X84568699Y-79506534D01*
X85003394Y-79593000D01*
X85446606Y-79593000D01*
X85881301Y-79506534D01*
X86290775Y-79336924D01*
X86495000Y-79200465D01*
X86699225Y-79336924D01*
X87108699Y-79506534D01*
X87543394Y-79593000D01*
X87986606Y-79593000D01*
X88421301Y-79506534D01*
X88830775Y-79336924D01*
X89035000Y-79200465D01*
X89239225Y-79336924D01*
X89648699Y-79506534D01*
X90083394Y-79593000D01*
X90526606Y-79593000D01*
X90961301Y-79506534D01*
X91370775Y-79336924D01*
X91739292Y-79090689D01*
X92052689Y-78777292D01*
X92298924Y-78408775D01*
X92468534Y-77999301D01*
X92555000Y-77564606D01*
X92555000Y-77121394D01*
X92468534Y-76686699D01*
X92298924Y-76277225D01*
X92052689Y-75908708D01*
X91739292Y-75595311D01*
X91370775Y-75349076D01*
X90961301Y-75179466D01*
X90526606Y-75093000D01*
X90083394Y-75093000D01*
X89648699Y-75179466D01*
X89239225Y-75349076D01*
X89035000Y-75485535D01*
X88830775Y-75349076D01*
X88421301Y-75179466D01*
X87986606Y-75093000D01*
X87543394Y-75093000D01*
X87108699Y-75179466D01*
X86919500Y-75257835D01*
X86919500Y-74121170D01*
X119044827Y-74121170D01*
X120015000Y-75091343D01*
X120985173Y-74121170D01*
X128950827Y-74121170D01*
X129921000Y-75091343D01*
X130891173Y-74121170D01*
X130861806Y-73959430D01*
X139146687Y-73959430D01*
X140436600Y-75249343D01*
X141726513Y-73959430D01*
X141619346Y-73620286D01*
X141277703Y-73420954D01*
X140903737Y-73292103D01*
X140511818Y-73238686D01*
X140117010Y-73262754D01*
X139734483Y-73363383D01*
X139378938Y-73536706D01*
X139253854Y-73620286D01*
X139146687Y-73959430D01*
X130861806Y-73959430D01*
X130837961Y-73828106D01*
X130572793Y-73673598D01*
X130282577Y-73573789D01*
X129978466Y-73532517D01*
X129672146Y-73551367D01*
X129375389Y-73629615D01*
X129099601Y-73764254D01*
X129004039Y-73828106D01*
X128950827Y-74121170D01*
X120985173Y-74121170D01*
X120931961Y-73828106D01*
X120666793Y-73673598D01*
X120376577Y-73573789D01*
X120072466Y-73532517D01*
X119766146Y-73551367D01*
X119469389Y-73629615D01*
X119193601Y-73764254D01*
X119098039Y-73828106D01*
X119044827Y-74121170D01*
X86919500Y-74121170D01*
X86919500Y-70532168D01*
X100897000Y-70532168D01*
X100897000Y-70945832D01*
X100977702Y-71351547D01*
X101136004Y-71733723D01*
X101365823Y-72077672D01*
X101658328Y-72370177D01*
X102002277Y-72599996D01*
X102384453Y-72758298D01*
X102790168Y-72839000D01*
X103203832Y-72839000D01*
X103609547Y-72758298D01*
X103991723Y-72599996D01*
X104335672Y-72370177D01*
X104628177Y-72077672D01*
X104857996Y-71733723D01*
X105016298Y-71351547D01*
X105097000Y-70945832D01*
X105097000Y-70532168D01*
X105016298Y-70126453D01*
X104857996Y-69744277D01*
X104628177Y-69400328D01*
X104554794Y-69326945D01*
X104594033Y-69197594D01*
X104608668Y-69049000D01*
X104605000Y-68392500D01*
X104415500Y-68203000D01*
X103001000Y-68203000D01*
X103001000Y-68223000D01*
X102993000Y-68223000D01*
X102993000Y-68203000D01*
X101578500Y-68203000D01*
X101389000Y-68392500D01*
X101385332Y-69049000D01*
X101399967Y-69197594D01*
X101439206Y-69326945D01*
X101365823Y-69400328D01*
X101136004Y-69744277D01*
X100977702Y-70126453D01*
X100897000Y-70532168D01*
X86919500Y-70532168D01*
X86919500Y-68384884D01*
X87955384Y-67349000D01*
X101385332Y-67349000D01*
X101389000Y-68005500D01*
X101578500Y-68195000D01*
X102993000Y-68195000D01*
X102993000Y-66780500D01*
X103001000Y-66780500D01*
X103001000Y-68195000D01*
X104415500Y-68195000D01*
X104605000Y-68005500D01*
X104608668Y-67349000D01*
X104594033Y-67200406D01*
X104550689Y-67057522D01*
X104480304Y-66925840D01*
X104385581Y-66810419D01*
X104270160Y-66715696D01*
X104138478Y-66645311D01*
X103995594Y-66601967D01*
X103847000Y-66587332D01*
X103190500Y-66591000D01*
X103001000Y-66780500D01*
X102993000Y-66780500D01*
X102803500Y-66591000D01*
X102147000Y-66587332D01*
X101998406Y-66601967D01*
X101855522Y-66645311D01*
X101723840Y-66715696D01*
X101608419Y-66810419D01*
X101513696Y-66925840D01*
X101443311Y-67057522D01*
X101399967Y-67200406D01*
X101385332Y-67349000D01*
X87955384Y-67349000D01*
X98802339Y-56502046D01*
X98866989Y-56448989D01*
X99078742Y-56190968D01*
X99236088Y-55896594D01*
X99332981Y-55577180D01*
X99357500Y-55328235D01*
X99357500Y-55328226D01*
X99365697Y-55245001D01*
X99357500Y-55161776D01*
X99357500Y-48845627D01*
X138418030Y-48845627D01*
X138764996Y-49389579D01*
X139446527Y-49788122D01*
X140192715Y-50046047D01*
X140974883Y-50153442D01*
X141762974Y-50106179D01*
X142526702Y-49906077D01*
X143236716Y-49560823D01*
X143493004Y-49389579D01*
X143839970Y-48845627D01*
X141129000Y-46134657D01*
X138418030Y-48845627D01*
X99357500Y-48845627D01*
X99357500Y-46328902D01*
X99523996Y-46079723D01*
X99567422Y-45974883D01*
X137104558Y-45974883D01*
X137151821Y-46762974D01*
X137351923Y-47526702D01*
X137697177Y-48236716D01*
X137868421Y-48493004D01*
X138412373Y-48839970D01*
X141123343Y-46129000D01*
X138412373Y-43418030D01*
X137868421Y-43764996D01*
X137469878Y-44446527D01*
X137211953Y-45192715D01*
X137104558Y-45974883D01*
X99567422Y-45974883D01*
X99682298Y-45697547D01*
X99763000Y-45291832D01*
X99763000Y-44878168D01*
X99682298Y-44472453D01*
X99523996Y-44090277D01*
X99294177Y-43746328D01*
X99001672Y-43453823D01*
X98657723Y-43224004D01*
X98275547Y-43065702D01*
X97869832Y-42985000D01*
X97456168Y-42985000D01*
X97050453Y-43065702D01*
X96668277Y-43224004D01*
X96393000Y-43407938D01*
X96117723Y-43224004D01*
X95735547Y-43065702D01*
X95329832Y-42985000D01*
X94916168Y-42985000D01*
X94510453Y-43065702D01*
X94128277Y-43224004D01*
X93784328Y-43453823D01*
X93491823Y-43746328D01*
X93484062Y-43757943D01*
X93252569Y-43623035D01*
X92954488Y-43520500D01*
X92838497Y-43497428D01*
X92587000Y-43666506D01*
X92587000Y-45081000D01*
X92607000Y-45081000D01*
X92607000Y-45089000D01*
X92587000Y-45089000D01*
X92587000Y-46503494D01*
X92838497Y-46672572D01*
X92954488Y-46649500D01*
X93252569Y-46546965D01*
X93428500Y-46444437D01*
X93428501Y-53527114D01*
X81545667Y-65409949D01*
X81481011Y-65463011D01*
X81269258Y-65721033D01*
X81111912Y-66015407D01*
X81015019Y-66334821D01*
X80990500Y-66583766D01*
X80990500Y-66583772D01*
X80982303Y-66667000D01*
X80990500Y-66750228D01*
X80990501Y-75257835D01*
X80801301Y-75179466D01*
X80366606Y-75093000D01*
X79923394Y-75093000D01*
X79488699Y-75179466D01*
X79079225Y-75349076D01*
X78875000Y-75485535D01*
X78670775Y-75349076D01*
X78261301Y-75179466D01*
X77826606Y-75093000D01*
X77383394Y-75093000D01*
X76948699Y-75179466D01*
X76539225Y-75349076D01*
X76335000Y-75485535D01*
X76130775Y-75349076D01*
X75721301Y-75179466D01*
X75286606Y-75093000D01*
X74843394Y-75093000D01*
X74408699Y-75179466D01*
X73999225Y-75349076D01*
X73795000Y-75485535D01*
X73590775Y-75349076D01*
X73181301Y-75179466D01*
X72746606Y-75093000D01*
X72303394Y-75093000D01*
X71868699Y-75179466D01*
X71459225Y-75349076D01*
X71255000Y-75485535D01*
X71050775Y-75349076D01*
X70641301Y-75179466D01*
X70206606Y-75093000D01*
X69763394Y-75093000D01*
X69328699Y-75179466D01*
X68919225Y-75349076D01*
X68715000Y-75485535D01*
X68510775Y-75349076D01*
X68101301Y-75179466D01*
X67666606Y-75093000D01*
X67223394Y-75093000D01*
X66788699Y-75179466D01*
X66379225Y-75349076D01*
X66175000Y-75485535D01*
X65970775Y-75349076D01*
X65561301Y-75179466D01*
X65126606Y-75093000D01*
X64683394Y-75093000D01*
X64248699Y-75179466D01*
X63839225Y-75349076D01*
X63635000Y-75485535D01*
X63430775Y-75349076D01*
X63021301Y-75179466D01*
X62586606Y-75093000D01*
X62143394Y-75093000D01*
X61708699Y-75179466D01*
X61299225Y-75349076D01*
X61095000Y-75485535D01*
X60890775Y-75349076D01*
X60481301Y-75179466D01*
X60046606Y-75093000D01*
X59603394Y-75093000D01*
X59168699Y-75179466D01*
X58759225Y-75349076D01*
X58390708Y-75595311D01*
X58164954Y-75821065D01*
X58020931Y-75737089D01*
X57693492Y-75624373D01*
X57350355Y-75577704D01*
X57004707Y-75598873D01*
X56669831Y-75687068D01*
X56401803Y-75817822D01*
X56179292Y-75595311D01*
X55810775Y-75349076D01*
X55401301Y-75179466D01*
X54966606Y-75093000D01*
X54891385Y-75093000D01*
X54145500Y-74347116D01*
X54145500Y-54117832D01*
X54523394Y-54193000D01*
X54966606Y-54193000D01*
X55401301Y-54106534D01*
X55810775Y-53936924D01*
X56179292Y-53690689D01*
X56405046Y-53464935D01*
X56549069Y-53548911D01*
X56876508Y-53661627D01*
X57219645Y-53708296D01*
X57565293Y-53687127D01*
X57900169Y-53598932D01*
X58168197Y-53468178D01*
X58390708Y-53690689D01*
X58759225Y-53936924D01*
X59168699Y-54106534D01*
X59603394Y-54193000D01*
X60046606Y-54193000D01*
X60481301Y-54106534D01*
X60890775Y-53936924D01*
X61095000Y-53800465D01*
X61299225Y-53936924D01*
X61708699Y-54106534D01*
X62143394Y-54193000D01*
X62586606Y-54193000D01*
X63021301Y-54106534D01*
X63430775Y-53936924D01*
X63635000Y-53800465D01*
X63839225Y-53936924D01*
X64248699Y-54106534D01*
X64683394Y-54193000D01*
X65126606Y-54193000D01*
X65561301Y-54106534D01*
X65970775Y-53936924D01*
X66175000Y-53800465D01*
X66379225Y-53936924D01*
X66788699Y-54106534D01*
X67223394Y-54193000D01*
X67666606Y-54193000D01*
X68101301Y-54106534D01*
X68510775Y-53936924D01*
X68715000Y-53800465D01*
X68919225Y-53936924D01*
X69328699Y-54106534D01*
X69763394Y-54193000D01*
X70206606Y-54193000D01*
X70641301Y-54106534D01*
X71050775Y-53936924D01*
X71255000Y-53800465D01*
X71459225Y-53936924D01*
X71868699Y-54106534D01*
X72303394Y-54193000D01*
X72746606Y-54193000D01*
X73181301Y-54106534D01*
X73590775Y-53936924D01*
X73795000Y-53800465D01*
X73999225Y-53936924D01*
X74408699Y-54106534D01*
X74843394Y-54193000D01*
X75286606Y-54193000D01*
X75721301Y-54106534D01*
X76130775Y-53936924D01*
X76335000Y-53800465D01*
X76539225Y-53936924D01*
X76948699Y-54106534D01*
X77383394Y-54193000D01*
X77826606Y-54193000D01*
X78261301Y-54106534D01*
X78670775Y-53936924D01*
X78875000Y-53800465D01*
X79079225Y-53936924D01*
X79488699Y-54106534D01*
X79923394Y-54193000D01*
X80366606Y-54193000D01*
X80801301Y-54106534D01*
X81210775Y-53936924D01*
X81415000Y-53800465D01*
X81619225Y-53936924D01*
X82028699Y-54106534D01*
X82463394Y-54193000D01*
X82906606Y-54193000D01*
X83341301Y-54106534D01*
X83750775Y-53936924D01*
X83955000Y-53800465D01*
X84159225Y-53936924D01*
X84568699Y-54106534D01*
X85003394Y-54193000D01*
X85446606Y-54193000D01*
X85881301Y-54106534D01*
X86290775Y-53936924D01*
X86495000Y-53800465D01*
X86699225Y-53936924D01*
X87108699Y-54106534D01*
X87543394Y-54193000D01*
X87986606Y-54193000D01*
X88421301Y-54106534D01*
X88830775Y-53936924D01*
X89035000Y-53800465D01*
X89239225Y-53936924D01*
X89648699Y-54106534D01*
X90083394Y-54193000D01*
X90526606Y-54193000D01*
X90961301Y-54106534D01*
X91370775Y-53936924D01*
X91739292Y-53690689D01*
X92052689Y-53377292D01*
X92298924Y-53008775D01*
X92468534Y-52599301D01*
X92555000Y-52164606D01*
X92555000Y-51721394D01*
X92468534Y-51286699D01*
X92298924Y-50877225D01*
X92052689Y-50508708D01*
X91739292Y-50195311D01*
X91370775Y-49949076D01*
X90961301Y-49779466D01*
X90526606Y-49693000D01*
X90083394Y-49693000D01*
X89648699Y-49779466D01*
X89239225Y-49949076D01*
X89035000Y-50085535D01*
X88830775Y-49949076D01*
X88421301Y-49779466D01*
X87986606Y-49693000D01*
X87543394Y-49693000D01*
X87108699Y-49779466D01*
X86699225Y-49949076D01*
X86495000Y-50085535D01*
X86290775Y-49949076D01*
X85881301Y-49779466D01*
X85446606Y-49693000D01*
X85003394Y-49693000D01*
X84568699Y-49779466D01*
X84159225Y-49949076D01*
X83955000Y-50085535D01*
X83750775Y-49949076D01*
X83341301Y-49779466D01*
X82906606Y-49693000D01*
X82463394Y-49693000D01*
X82028699Y-49779466D01*
X81619225Y-49949076D01*
X81415000Y-50085535D01*
X81210775Y-49949076D01*
X80801301Y-49779466D01*
X80366606Y-49693000D01*
X79923394Y-49693000D01*
X79488699Y-49779466D01*
X79079225Y-49949076D01*
X78875000Y-50085535D01*
X78670775Y-49949076D01*
X78261301Y-49779466D01*
X77826606Y-49693000D01*
X77383394Y-49693000D01*
X76948699Y-49779466D01*
X76539225Y-49949076D01*
X76335000Y-50085535D01*
X76130775Y-49949076D01*
X75721301Y-49779466D01*
X75286606Y-49693000D01*
X74843394Y-49693000D01*
X74408699Y-49779466D01*
X73999225Y-49949076D01*
X73795000Y-50085535D01*
X73590775Y-49949076D01*
X73181301Y-49779466D01*
X72746606Y-49693000D01*
X72303394Y-49693000D01*
X71868699Y-49779466D01*
X71459225Y-49949076D01*
X71255000Y-50085535D01*
X71050775Y-49949076D01*
X70884222Y-49880087D01*
X70926989Y-49844989D01*
X70980051Y-49780333D01*
X71116334Y-49644050D01*
X71180989Y-49590989D01*
X71392742Y-49332968D01*
X71550088Y-49038594D01*
X71646981Y-48719180D01*
X71671500Y-48470235D01*
X71671500Y-48470226D01*
X71679697Y-48387001D01*
X71671500Y-48303776D01*
X71671500Y-46328902D01*
X71837996Y-46079723D01*
X71996298Y-45697547D01*
X72077000Y-45291832D01*
X72077000Y-44878168D01*
X72000485Y-44493500D01*
X87936952Y-44493500D01*
X87936952Y-45935000D01*
X87961087Y-46180043D01*
X88032563Y-46415669D01*
X88148634Y-46632823D01*
X88304840Y-46823160D01*
X88495177Y-46979366D01*
X88712331Y-47095437D01*
X88947957Y-47166913D01*
X89193000Y-47191048D01*
X90893000Y-47191048D01*
X91138043Y-47166913D01*
X91373669Y-47095437D01*
X91590823Y-46979366D01*
X91781160Y-46823160D01*
X91937366Y-46632823D01*
X91972413Y-46567254D01*
X92211512Y-46649500D01*
X92327503Y-46672572D01*
X92579000Y-46503494D01*
X92579000Y-45089000D01*
X92559000Y-45089000D01*
X92559000Y-45081000D01*
X92579000Y-45081000D01*
X92579000Y-43666506D01*
X92327503Y-43497428D01*
X92211512Y-43520500D01*
X91972413Y-43602746D01*
X91937366Y-43537177D01*
X91781160Y-43346840D01*
X91745225Y-43317349D01*
X91737500Y-43238912D01*
X91737500Y-43238905D01*
X91712981Y-42989960D01*
X91711477Y-42985000D01*
X91690429Y-42915618D01*
X91616088Y-42670546D01*
X91473616Y-42404000D01*
X139624202Y-42404000D01*
X139021284Y-42697177D01*
G36*
X95396799Y-86472858D02*
G01*
X95382657Y-86487000D01*
X96494937Y-87599280D01*
X96808480Y-87522088D01*
X96982911Y-87222931D01*
X97018653Y-87119102D01*
X97023466Y-87143301D01*
X97193076Y-87552775D01*
X97439311Y-87921292D01*
X97752708Y-88234689D01*
X98121225Y-88480924D01*
X98530699Y-88650534D01*
X98965394Y-88737000D01*
X99040616Y-88737000D01*
X100286500Y-89982885D01*
X100286501Y-90611114D01*
X93075197Y-97822419D01*
X93160848Y-97615639D01*
X93255000Y-97142304D01*
X93255000Y-96659696D01*
X93160848Y-96186361D01*
X92976162Y-95740490D01*
X92708040Y-95339216D01*
X92366784Y-94997960D01*
X91965510Y-94729838D01*
X91519639Y-94545152D01*
X91046304Y-94451000D01*
X90751385Y-94451000D01*
X89748225Y-93447840D01*
X90055696Y-93509000D01*
X90538304Y-93509000D01*
X91011639Y-93414848D01*
X91457510Y-93230162D01*
X91858784Y-92962040D01*
X92066236Y-92754588D01*
X92077284Y-92753500D01*
X92077291Y-92753500D01*
X92326236Y-92728981D01*
X92645650Y-92632088D01*
X92940024Y-92474742D01*
X93198045Y-92262989D01*
X93251107Y-92198333D01*
X93976334Y-91473106D01*
X94040989Y-91420045D01*
X94252742Y-91162024D01*
X94410088Y-90867650D01*
X94493023Y-90594249D01*
X94506981Y-90548237D01*
X94517265Y-90443823D01*
X94531500Y-90299291D01*
X94531500Y-90299284D01*
X94539697Y-90216056D01*
X94531500Y-90132828D01*
X94531500Y-88029024D01*
X94641069Y-88092911D01*
X94968508Y-88205627D01*
X95311645Y-88252296D01*
X95657293Y-88231127D01*
X95992169Y-88142932D01*
X96303405Y-87991100D01*
X96412088Y-87918480D01*
X96489280Y-87604937D01*
X95377000Y-86492657D01*
X95362858Y-86506799D01*
X95357201Y-86501142D01*
X95371343Y-86487000D01*
X95357201Y-86472858D01*
X95362858Y-86467201D01*
X95377000Y-86481343D01*
X95391142Y-86467201D01*
X95396799Y-86472858D01*
G37*
X95396799Y-86472858D02*
X95382657Y-86487000D01*
X96494937Y-87599280D01*
X96808480Y-87522088D01*
X96982911Y-87222931D01*
X97018653Y-87119102D01*
X97023466Y-87143301D01*
X97193076Y-87552775D01*
X97439311Y-87921292D01*
X97752708Y-88234689D01*
X98121225Y-88480924D01*
X98530699Y-88650534D01*
X98965394Y-88737000D01*
X99040616Y-88737000D01*
X100286500Y-89982885D01*
X100286501Y-90611114D01*
X93075197Y-97822419D01*
X93160848Y-97615639D01*
X93255000Y-97142304D01*
X93255000Y-96659696D01*
X93160848Y-96186361D01*
X92976162Y-95740490D01*
X92708040Y-95339216D01*
X92366784Y-94997960D01*
X91965510Y-94729838D01*
X91519639Y-94545152D01*
X91046304Y-94451000D01*
X90751385Y-94451000D01*
X89748225Y-93447840D01*
X90055696Y-93509000D01*
X90538304Y-93509000D01*
X91011639Y-93414848D01*
X91457510Y-93230162D01*
X91858784Y-92962040D01*
X92066236Y-92754588D01*
X92077284Y-92753500D01*
X92077291Y-92753500D01*
X92326236Y-92728981D01*
X92645650Y-92632088D01*
X92940024Y-92474742D01*
X93198045Y-92262989D01*
X93251107Y-92198333D01*
X93976334Y-91473106D01*
X94040989Y-91420045D01*
X94252742Y-91162024D01*
X94410088Y-90867650D01*
X94493023Y-90594249D01*
X94506981Y-90548237D01*
X94517265Y-90443823D01*
X94531500Y-90299291D01*
X94531500Y-90299284D01*
X94539697Y-90216056D01*
X94531500Y-90132828D01*
X94531500Y-88029024D01*
X94641069Y-88092911D01*
X94968508Y-88205627D01*
X95311645Y-88252296D01*
X95657293Y-88231127D01*
X95992169Y-88142932D01*
X96303405Y-87991100D01*
X96412088Y-87918480D01*
X96489280Y-87604937D01*
X95377000Y-86492657D01*
X95362858Y-86506799D01*
X95357201Y-86501142D01*
X95371343Y-86487000D01*
X95357201Y-86472858D01*
X95362858Y-86467201D01*
X95377000Y-86481343D01*
X95391142Y-86467201D01*
X95396799Y-86472858D01*
G36*
X49021284Y-42697177D02*
G01*
X48764996Y-42868421D01*
X48418030Y-43412373D01*
X51129000Y-46123343D01*
X53839970Y-43412373D01*
X53493004Y-42868421D01*
X52811473Y-42469878D01*
X52620885Y-42404000D01*
X58399138Y-42404000D01*
X58243913Y-42694406D01*
X58147019Y-43013820D01*
X58135460Y-43131181D01*
X58122500Y-43262765D01*
X58122500Y-43262772D01*
X58117331Y-43315251D01*
X58078840Y-43346840D01*
X57922634Y-43537177D01*
X57806563Y-43754331D01*
X57735087Y-43989957D01*
X57710952Y-44235000D01*
X57710952Y-45935000D01*
X57735087Y-46180043D01*
X57806563Y-46415669D01*
X57814360Y-46430256D01*
X56028116Y-48216500D01*
X54551272Y-48216500D01*
X54788122Y-47811473D01*
X55046047Y-47065285D01*
X55153442Y-46283117D01*
X55106179Y-45495026D01*
X54906077Y-44731298D01*
X54560823Y-44021284D01*
X54389579Y-43764996D01*
X53845627Y-43418030D01*
X51134657Y-46129000D01*
X51148799Y-46143142D01*
X51143142Y-46148799D01*
X51129000Y-46134657D01*
X48418030Y-48845627D01*
X48764996Y-49389579D01*
X49446527Y-49788122D01*
X50192715Y-50046047D01*
X50974883Y-50153442D01*
X51108809Y-50145410D01*
X51035258Y-50235033D01*
X50877912Y-50529407D01*
X50821890Y-50714087D01*
X50792498Y-50810981D01*
X50781019Y-50848821D01*
X50756500Y-51097766D01*
X50756500Y-51097772D01*
X50748303Y-51181000D01*
X50756500Y-51264228D01*
X50756501Y-74965762D01*
X50748303Y-75049000D01*
X50781019Y-75381180D01*
X50877913Y-75700594D01*
X51035259Y-75994968D01*
X51118259Y-76096103D01*
X51247012Y-76252989D01*
X51311662Y-76306046D01*
X52495000Y-77489385D01*
X52495000Y-77564606D01*
X52581466Y-77999301D01*
X52751076Y-78408775D01*
X52871946Y-78589670D01*
X51241116Y-80220500D01*
X49652991Y-80220500D01*
X49617160Y-80176840D01*
X49426823Y-80020634D01*
X49209669Y-79904563D01*
X48974043Y-79833087D01*
X48729000Y-79808952D01*
X47029000Y-79808952D01*
X46904000Y-79821264D01*
X46904000Y-45974883D01*
X47104558Y-45974883D01*
X47151821Y-46762974D01*
X47351923Y-47526702D01*
X47697177Y-48236716D01*
X47868421Y-48493004D01*
X48412373Y-48839970D01*
X51123343Y-46129000D01*
X48412373Y-43418030D01*
X47868421Y-43764996D01*
X47469878Y-44446527D01*
X47211953Y-45192715D01*
X47104558Y-45974883D01*
X46904000Y-45974883D01*
X46904000Y-42404000D01*
X49624202Y-42404000D01*
X49021284Y-42697177D01*
G37*
X49021284Y-42697177D02*
X48764996Y-42868421D01*
X48418030Y-43412373D01*
X51129000Y-46123343D01*
X53839970Y-43412373D01*
X53493004Y-42868421D01*
X52811473Y-42469878D01*
X52620885Y-42404000D01*
X58399138Y-42404000D01*
X58243913Y-42694406D01*
X58147019Y-43013820D01*
X58135460Y-43131181D01*
X58122500Y-43262765D01*
X58122500Y-43262772D01*
X58117331Y-43315251D01*
X58078840Y-43346840D01*
X57922634Y-43537177D01*
X57806563Y-43754331D01*
X57735087Y-43989957D01*
X57710952Y-44235000D01*
X57710952Y-45935000D01*
X57735087Y-46180043D01*
X57806563Y-46415669D01*
X57814360Y-46430256D01*
X56028116Y-48216500D01*
X54551272Y-48216500D01*
X54788122Y-47811473D01*
X55046047Y-47065285D01*
X55153442Y-46283117D01*
X55106179Y-45495026D01*
X54906077Y-44731298D01*
X54560823Y-44021284D01*
X54389579Y-43764996D01*
X53845627Y-43418030D01*
X51134657Y-46129000D01*
X51148799Y-46143142D01*
X51143142Y-46148799D01*
X51129000Y-46134657D01*
X48418030Y-48845627D01*
X48764996Y-49389579D01*
X49446527Y-49788122D01*
X50192715Y-50046047D01*
X50974883Y-50153442D01*
X51108809Y-50145410D01*
X51035258Y-50235033D01*
X50877912Y-50529407D01*
X50821890Y-50714087D01*
X50792498Y-50810981D01*
X50781019Y-50848821D01*
X50756500Y-51097766D01*
X50756500Y-51097772D01*
X50748303Y-51181000D01*
X50756500Y-51264228D01*
X50756501Y-74965762D01*
X50748303Y-75049000D01*
X50781019Y-75381180D01*
X50877913Y-75700594D01*
X51035259Y-75994968D01*
X51118259Y-76096103D01*
X51247012Y-76252989D01*
X51311662Y-76306046D01*
X52495000Y-77489385D01*
X52495000Y-77564606D01*
X52581466Y-77999301D01*
X52751076Y-78408775D01*
X52871946Y-78589670D01*
X51241116Y-80220500D01*
X49652991Y-80220500D01*
X49617160Y-80176840D01*
X49426823Y-80020634D01*
X49209669Y-79904563D01*
X48974043Y-79833087D01*
X48729000Y-79808952D01*
X47029000Y-79808952D01*
X46904000Y-79821264D01*
X46904000Y-45974883D01*
X47104558Y-45974883D01*
X47151821Y-46762974D01*
X47351923Y-47526702D01*
X47697177Y-48236716D01*
X47868421Y-48493004D01*
X48412373Y-48839970D01*
X51123343Y-46129000D01*
X48412373Y-43418030D01*
X47868421Y-43764996D01*
X47469878Y-44446527D01*
X47211953Y-45192715D01*
X47104558Y-45974883D01*
X46904000Y-45974883D01*
X46904000Y-42404000D01*
X49624202Y-42404000D01*
X49021284Y-42697177D01*
G36*
X57304799Y-77328858D02*
G01*
X57290657Y-77343000D01*
X57304799Y-77357142D01*
X57299142Y-77362799D01*
X57285000Y-77348657D01*
X57270858Y-77362799D01*
X57265201Y-77357142D01*
X57279343Y-77343000D01*
X57265201Y-77328858D01*
X57270858Y-77323201D01*
X57285000Y-77337343D01*
X57299142Y-77323201D01*
X57304799Y-77328858D01*
G37*
X57304799Y-77328858D02*
X57290657Y-77343000D01*
X57304799Y-77357142D01*
X57299142Y-77362799D01*
X57285000Y-77348657D01*
X57270858Y-77362799D01*
X57265201Y-77357142D01*
X57279343Y-77343000D01*
X57265201Y-77328858D01*
X57270858Y-77323201D01*
X57285000Y-77337343D01*
X57299142Y-77323201D01*
X57304799Y-77328858D01*
G36*
X57304799Y-51928858D02*
G01*
X57290657Y-51943000D01*
X57304799Y-51957142D01*
X57299142Y-51962799D01*
X57285000Y-51948657D01*
X57270858Y-51962799D01*
X57265201Y-51957142D01*
X57279343Y-51943000D01*
X57265201Y-51928858D01*
X57270858Y-51923201D01*
X57285000Y-51937343D01*
X57299142Y-51923201D01*
X57304799Y-51928858D01*
G37*
X57304799Y-51928858D02*
X57290657Y-51943000D01*
X57304799Y-51957142D01*
X57299142Y-51962799D01*
X57285000Y-51948657D01*
X57270858Y-51962799D01*
X57265201Y-51957142D01*
X57279343Y-51943000D01*
X57265201Y-51928858D01*
X57270858Y-51923201D01*
X57285000Y-51937343D01*
X57299142Y-51923201D01*
X57304799Y-51928858D01*
G36*
X62361000Y-45081000D02*
G01*
X62381000Y-45081000D01*
X62381000Y-45089000D01*
X62361000Y-45089000D01*
X62361000Y-45109000D01*
X62353000Y-45109000D01*
X62353000Y-45089000D01*
X62333000Y-45089000D01*
X62333000Y-45081000D01*
X62353000Y-45081000D01*
X62353000Y-45061000D01*
X62361000Y-45061000D01*
X62361000Y-45081000D01*
G37*
X62361000Y-45081000D02*
X62381000Y-45081000D01*
X62381000Y-45089000D01*
X62361000Y-45089000D01*
X62361000Y-45109000D01*
X62353000Y-45109000D01*
X62353000Y-45089000D01*
X62333000Y-45089000D01*
X62333000Y-45081000D01*
X62353000Y-45081000D01*
X62353000Y-45061000D01*
X62361000Y-45061000D01*
X62361000Y-45081000D01*
M02*
