M48
; DRILL file {KiCad (5.1.5)-3} date 26.10.2020 22:42:29
; FORMAT={-:-/ absolute / inch / decimal}
; #@! TF.CreationDate,2020-10-26T22:42:29+01:00
; #@! TF.GenerationSoftware,Kicad,Pcbnew,(5.1.5)-3
; #@! TF.FileFunction,Plated,1,2,PTH
FMAT,2
INCH
T1C0.0236
T2C0.0315
T3C0.0394
T4C0.0472
T5C0.0984
%
G90
G05
T1
X5.4629Y-4.6354
X5.4629Y-4.9346
X4.2329Y-4.6354
X4.2329Y-4.9346
T2
X4.665Y-3.9366
X4.665Y-4.035
X4.515Y-4.455
X4.815Y-4.455
X4.665Y-3.555
X4.665Y-3.6534
X2.585Y-5.075
X2.885Y-5.075
X4.725Y-2.9566
X4.725Y-3.055
X5.655Y-4.635
X5.655Y-4.935
X3.155Y-5.295
X3.155Y-5.3934
X4.645Y-3.305
X4.945Y-3.305
X5.115Y-2.9566
X5.115Y-3.055
T3
X4.055Y-3.005
X2.355Y-1.775
X2.455Y-1.775
X2.555Y-1.775
X2.655Y-1.775
X2.755Y-1.775
X4.5377Y-4.6354
X4.6755Y-4.9346
X4.8133Y-4.6354
X2.4788Y-4.0175
X2.4788Y-4.175
X2.4788Y-4.3325
X2.9512Y-4.0175
X2.9512Y-4.175
X2.9512Y-4.3325
X1.885Y-3.225
X1.885Y-3.325
X1.885Y-3.425
X1.885Y-3.525
X1.885Y-3.625
X3.3077Y-4.6354
X3.4455Y-4.9346
X3.5833Y-4.6354
X3.755Y-3.205
X3.755Y-3.405
X3.905Y-3.205
X3.905Y-3.405
X4.055Y-3.205
X4.055Y-3.405
X2.1553Y-2.045
X2.1553Y-3.045
X2.2553Y-2.045
X2.2553Y-3.045
X2.3553Y-2.045
X2.3553Y-3.045
X2.4553Y-2.045
X2.4553Y-3.045
X2.5553Y-2.045
X2.5553Y-3.045
X2.6553Y-2.045
X2.6553Y-3.045
X2.7553Y-2.045
X2.7553Y-3.045
X2.8553Y-2.045
X2.8553Y-3.045
X2.9553Y-2.045
X2.9553Y-3.045
X3.0553Y-2.045
X3.0553Y-3.045
X3.1553Y-2.045
X3.1553Y-3.045
X3.2553Y-2.045
X3.2553Y-3.045
X3.3553Y-2.045
X3.3553Y-3.045
X3.4553Y-2.045
X3.4553Y-3.045
X3.5553Y-2.045
X3.5553Y-3.045
X3.261Y-4.255
X5.015Y-3.935
X5.015Y-4.035
X2.0266Y-5.065
X2.125Y-5.065
X2.2234Y-5.065
X4.055Y-2.685
X4.055Y-2.785
X4.1966Y-3.515
X4.295Y-3.515
X4.3934Y-3.515
X3.155Y-3.805
X3.155Y-3.955
X3.155Y-4.105
X3.355Y-3.805
X3.355Y-3.955
X3.355Y-4.105
X5.285Y-3.4566
X5.285Y-3.555
X5.285Y-3.6534
X5.285Y-3.8465
X5.285Y-3.941
X5.285Y-4.0355
X1.8788Y-4.5175
X1.8788Y-4.675
X1.8788Y-4.8325
X2.3512Y-4.5175
X2.3512Y-4.675
X2.3512Y-4.8325
X3.018Y-3.805
X2.4788Y-4.5175
X2.4788Y-4.675
X2.4788Y-4.8325
X2.9512Y-4.5175
X2.9512Y-4.675
X2.9512Y-4.8325
X2.395Y-5.065
X3.545Y-1.775
X3.645Y-1.775
X3.745Y-1.775
X3.845Y-1.775
X1.8788Y-4.0175
X1.8788Y-4.175
X1.8788Y-4.3325
X2.3512Y-4.0175
X2.3512Y-4.175
X2.3512Y-4.3325
T4
X2.755Y-3.585
X3.555Y-3.585
X2.755Y-3.375
X3.555Y-3.375
X4.4804Y-5.355
X4.6772Y-5.355
X5.529Y-2.9628
X5.529Y-3.1596
X3.575Y-3.815
X4.375Y-3.815
X3.5404Y-5.355
X3.7372Y-5.355
X1.875Y-3.805
X2.875Y-3.805
X3.575Y-4.035
X4.375Y-4.035
T5
X2.6035Y-5.3594
X5.5563Y-1.8161
X2.013Y-1.8161
X5.5563Y-5.3594
T0
M30
