G04 #@! TF.GenerationSoftware,KiCad,Pcbnew,(5.1.5)-3*
G04 #@! TF.CreationDate,2020-10-26T22:42:23+01:00*
G04 #@! TF.ProjectId,Fernschreiber,4665726e-7363-4687-9265-696265722e6b,v02*
G04 #@! TF.SameCoordinates,Original*
G04 #@! TF.FileFunction,Legend,Bot*
G04 #@! TF.FilePolarity,Positive*
%FSLAX46Y46*%
G04 Gerber Fmt 4.6, Leading zero omitted, Abs format (unit mm)*
G04 Created by KiCad (PCBNEW (5.1.5)-3) date 2020-10-26 22:42:23*
%MOMM*%
%LPD*%
G04 APERTURE LIST*
%ADD10C,0.300000*%
%ADD11C,0.120000*%
G04 APERTURE END LIST*
D10*
X136611085Y-42532171D02*
X136611085Y-43603600D01*
X136682514Y-43817885D01*
X136825371Y-43960742D01*
X137039657Y-44032171D01*
X137182514Y-44032171D01*
X135111085Y-44032171D02*
X135968228Y-44032171D01*
X135539657Y-44032171D02*
X135539657Y-42532171D01*
X135682514Y-42746457D01*
X135825371Y-42889314D01*
X135968228Y-42960742D01*
X132182514Y-43889314D02*
X132111085Y-43960742D01*
X132182514Y-44032171D01*
X132253942Y-43960742D01*
X132182514Y-43889314D01*
X132182514Y-44032171D01*
X132182514Y-43103600D02*
X132111085Y-43175028D01*
X132182514Y-43246457D01*
X132253942Y-43175028D01*
X132182514Y-43103600D01*
X132182514Y-43246457D01*
X129468228Y-44032171D02*
X129968228Y-43317885D01*
X130325371Y-44032171D02*
X130325371Y-42532171D01*
X129753942Y-42532171D01*
X129611085Y-42603600D01*
X129539657Y-42675028D01*
X129468228Y-42817885D01*
X129468228Y-43032171D01*
X129539657Y-43175028D01*
X129611085Y-43246457D01*
X129753942Y-43317885D01*
X130325371Y-43317885D01*
X128253942Y-43960742D02*
X128396800Y-44032171D01*
X128682514Y-44032171D01*
X128825371Y-43960742D01*
X128896800Y-43817885D01*
X128896800Y-43246457D01*
X128825371Y-43103600D01*
X128682514Y-43032171D01*
X128396800Y-43032171D01*
X128253942Y-43103600D01*
X128182514Y-43246457D01*
X128182514Y-43389314D01*
X128896800Y-43532171D01*
X127325371Y-44032171D02*
X127468228Y-43960742D01*
X127539657Y-43817885D01*
X127539657Y-42532171D01*
X126111085Y-44032171D02*
X126111085Y-43246457D01*
X126182514Y-43103600D01*
X126325371Y-43032171D01*
X126611085Y-43032171D01*
X126753942Y-43103600D01*
X126111085Y-43960742D02*
X126253942Y-44032171D01*
X126611085Y-44032171D01*
X126753942Y-43960742D01*
X126825371Y-43817885D01*
X126825371Y-43675028D01*
X126753942Y-43532171D01*
X126611085Y-43460742D01*
X126253942Y-43460742D01*
X126111085Y-43389314D01*
X125539657Y-43032171D02*
X125182514Y-44032171D01*
X124825371Y-43032171D02*
X125182514Y-44032171D01*
X125325371Y-44389314D01*
X125396800Y-44460742D01*
X125539657Y-44532171D01*
X122253942Y-43889314D02*
X122325371Y-43960742D01*
X122539657Y-44032171D01*
X122682514Y-44032171D01*
X122896800Y-43960742D01*
X123039657Y-43817885D01*
X123111085Y-43675028D01*
X123182514Y-43389314D01*
X123182514Y-43175028D01*
X123111085Y-42889314D01*
X123039657Y-42746457D01*
X122896800Y-42603600D01*
X122682514Y-42532171D01*
X122539657Y-42532171D01*
X122325371Y-42603600D01*
X122253942Y-42675028D01*
X121396800Y-44032171D02*
X121539657Y-43960742D01*
X121611085Y-43889314D01*
X121682514Y-43746457D01*
X121682514Y-43317885D01*
X121611085Y-43175028D01*
X121539657Y-43103600D01*
X121396800Y-43032171D01*
X121182514Y-43032171D01*
X121039657Y-43103600D01*
X120968228Y-43175028D01*
X120896800Y-43317885D01*
X120896800Y-43746457D01*
X120968228Y-43889314D01*
X121039657Y-43960742D01*
X121182514Y-44032171D01*
X121396800Y-44032171D01*
X120253942Y-43032171D02*
X120253942Y-44032171D01*
X120253942Y-43175028D02*
X120182514Y-43103600D01*
X120039657Y-43032171D01*
X119825371Y-43032171D01*
X119682514Y-43103600D01*
X119611085Y-43246457D01*
X119611085Y-44032171D01*
X119111085Y-43032171D02*
X118539657Y-43032171D01*
X118896800Y-42532171D02*
X118896800Y-43817885D01*
X118825371Y-43960742D01*
X118682514Y-44032171D01*
X118539657Y-44032171D01*
X118039657Y-44032171D02*
X118039657Y-43032171D01*
X118039657Y-43317885D02*
X117968228Y-43175028D01*
X117896800Y-43103600D01*
X117753942Y-43032171D01*
X117611085Y-43032171D01*
X116896800Y-44032171D02*
X117039657Y-43960742D01*
X117111085Y-43889314D01*
X117182514Y-43746457D01*
X117182514Y-43317885D01*
X117111085Y-43175028D01*
X117039657Y-43103600D01*
X116896800Y-43032171D01*
X116682514Y-43032171D01*
X116539657Y-43103600D01*
X116468228Y-43175028D01*
X116396800Y-43317885D01*
X116396800Y-43746457D01*
X116468228Y-43889314D01*
X116539657Y-43960742D01*
X116682514Y-44032171D01*
X116896800Y-44032171D01*
X115539657Y-44032171D02*
X115682514Y-43960742D01*
X115753942Y-43817885D01*
X115753942Y-42532171D01*
X114753942Y-44032171D02*
X114896800Y-43960742D01*
X114968228Y-43817885D01*
X114968228Y-42532171D01*
X136611085Y-45082171D02*
X136611085Y-46153600D01*
X136682514Y-46367885D01*
X136825371Y-46510742D01*
X137039657Y-46582171D01*
X137182514Y-46582171D01*
X135968228Y-45225028D02*
X135896800Y-45153600D01*
X135753942Y-45082171D01*
X135396800Y-45082171D01*
X135253942Y-45153600D01*
X135182514Y-45225028D01*
X135111085Y-45367885D01*
X135111085Y-45510742D01*
X135182514Y-45725028D01*
X136039657Y-46582171D01*
X135111085Y-46582171D01*
X132182514Y-46439314D02*
X132111085Y-46510742D01*
X132182514Y-46582171D01*
X132253942Y-46510742D01*
X132182514Y-46439314D01*
X132182514Y-46582171D01*
X132182514Y-45653600D02*
X132111085Y-45725028D01*
X132182514Y-45796457D01*
X132253942Y-45725028D01*
X132182514Y-45653600D01*
X132182514Y-45796457D01*
X129539657Y-45153600D02*
X129682514Y-45082171D01*
X129896800Y-45082171D01*
X130111085Y-45153600D01*
X130253942Y-45296457D01*
X130325371Y-45439314D01*
X130396800Y-45725028D01*
X130396800Y-45939314D01*
X130325371Y-46225028D01*
X130253942Y-46367885D01*
X130111085Y-46510742D01*
X129896800Y-46582171D01*
X129753942Y-46582171D01*
X129539657Y-46510742D01*
X129468228Y-46439314D01*
X129468228Y-45939314D01*
X129753942Y-45939314D01*
X128825371Y-46582171D02*
X128825371Y-45082171D01*
X127968228Y-46582171D01*
X127968228Y-45082171D01*
X127253942Y-46582171D02*
X127253942Y-45082171D01*
X126896800Y-45082171D01*
X126682514Y-45153600D01*
X126539657Y-45296457D01*
X126468228Y-45439314D01*
X126396800Y-45725028D01*
X126396800Y-45939314D01*
X126468228Y-46225028D01*
X126539657Y-46367885D01*
X126682514Y-46510742D01*
X126896800Y-46582171D01*
X127253942Y-46582171D01*
X123896800Y-45082171D02*
X124611085Y-45082171D01*
X124682514Y-45796457D01*
X124611085Y-45725028D01*
X124468228Y-45653600D01*
X124111085Y-45653600D01*
X123968228Y-45725028D01*
X123896800Y-45796457D01*
X123825371Y-45939314D01*
X123825371Y-46296457D01*
X123896800Y-46439314D01*
X123968228Y-46510742D01*
X124111085Y-46582171D01*
X124468228Y-46582171D01*
X124611085Y-46510742D01*
X124682514Y-46439314D01*
X123396800Y-45082171D02*
X122896800Y-46582171D01*
X122396800Y-45082171D01*
X136611085Y-47632171D02*
X136611085Y-48703600D01*
X136682514Y-48917885D01*
X136825371Y-49060742D01*
X137039657Y-49132171D01*
X137182514Y-49132171D01*
X136039657Y-47632171D02*
X135111085Y-47632171D01*
X135611085Y-48203600D01*
X135396800Y-48203600D01*
X135253942Y-48275028D01*
X135182514Y-48346457D01*
X135111085Y-48489314D01*
X135111085Y-48846457D01*
X135182514Y-48989314D01*
X135253942Y-49060742D01*
X135396800Y-49132171D01*
X135825371Y-49132171D01*
X135968228Y-49060742D01*
X136039657Y-48989314D01*
X132182514Y-48989314D02*
X132111085Y-49060742D01*
X132182514Y-49132171D01*
X132253942Y-49060742D01*
X132182514Y-48989314D01*
X132182514Y-49132171D01*
X132182514Y-48203600D02*
X132111085Y-48275028D01*
X132182514Y-48346457D01*
X132253942Y-48275028D01*
X132182514Y-48203600D01*
X132182514Y-48346457D01*
X130539657Y-47632171D02*
X129682514Y-47632171D01*
X130111085Y-49132171D02*
X130111085Y-47632171D01*
X128611085Y-49060742D02*
X128753942Y-49132171D01*
X129039657Y-49132171D01*
X129182514Y-49060742D01*
X129253942Y-48917885D01*
X129253942Y-48346457D01*
X129182514Y-48203600D01*
X129039657Y-48132171D01*
X128753942Y-48132171D01*
X128611085Y-48203600D01*
X128539657Y-48346457D01*
X128539657Y-48489314D01*
X129253942Y-48632171D01*
X127682514Y-49132171D02*
X127825371Y-49060742D01*
X127896800Y-48917885D01*
X127896800Y-47632171D01*
X126539657Y-49060742D02*
X126682514Y-49132171D01*
X126968228Y-49132171D01*
X127111085Y-49060742D01*
X127182514Y-48917885D01*
X127182514Y-48346457D01*
X127111085Y-48203600D01*
X126968228Y-48132171D01*
X126682514Y-48132171D01*
X126539657Y-48203600D01*
X126468228Y-48346457D01*
X126468228Y-48489314D01*
X127182514Y-48632171D01*
X125825371Y-48132171D02*
X125825371Y-49632171D01*
X125825371Y-48203600D02*
X125682514Y-48132171D01*
X125396800Y-48132171D01*
X125253942Y-48203600D01*
X125182514Y-48275028D01*
X125111085Y-48417885D01*
X125111085Y-48846457D01*
X125182514Y-48989314D01*
X125253942Y-49060742D01*
X125396800Y-49132171D01*
X125682514Y-49132171D01*
X125825371Y-49060742D01*
X124468228Y-49132171D02*
X124468228Y-48132171D01*
X124468228Y-48417885D02*
X124396800Y-48275028D01*
X124325371Y-48203600D01*
X124182514Y-48132171D01*
X124039657Y-48132171D01*
X123539657Y-49132171D02*
X123539657Y-48132171D01*
X123539657Y-47632171D02*
X123611085Y-47703600D01*
X123539657Y-47775028D01*
X123468228Y-47703600D01*
X123539657Y-47632171D01*
X123539657Y-47775028D01*
X122825371Y-48132171D02*
X122825371Y-49132171D01*
X122825371Y-48275028D02*
X122753942Y-48203600D01*
X122611085Y-48132171D01*
X122396800Y-48132171D01*
X122253942Y-48203600D01*
X122182514Y-48346457D01*
X122182514Y-49132171D01*
X121682514Y-48132171D02*
X121111085Y-48132171D01*
X121468228Y-47632171D02*
X121468228Y-48917885D01*
X121396800Y-49060742D01*
X121253942Y-49132171D01*
X121111085Y-49132171D01*
X120039657Y-49060742D02*
X120182514Y-49132171D01*
X120468228Y-49132171D01*
X120611085Y-49060742D01*
X120682514Y-48917885D01*
X120682514Y-48346457D01*
X120611085Y-48203600D01*
X120468228Y-48132171D01*
X120182514Y-48132171D01*
X120039657Y-48203600D01*
X119968228Y-48346457D01*
X119968228Y-48489314D01*
X120682514Y-48632171D01*
X119325371Y-49132171D02*
X119325371Y-48132171D01*
X119325371Y-48417885D02*
X119253942Y-48275028D01*
X119182514Y-48203600D01*
X119039657Y-48132171D01*
X118896800Y-48132171D01*
X116396800Y-48989314D02*
X116468228Y-49060742D01*
X116682514Y-49132171D01*
X116825371Y-49132171D01*
X117039657Y-49060742D01*
X117182514Y-48917885D01*
X117253942Y-48775028D01*
X117325371Y-48489314D01*
X117325371Y-48275028D01*
X117253942Y-47989314D01*
X117182514Y-47846457D01*
X117039657Y-47703600D01*
X116825371Y-47632171D01*
X116682514Y-47632171D01*
X116468228Y-47703600D01*
X116396800Y-47775028D01*
X115539657Y-49132171D02*
X115682514Y-49060742D01*
X115753942Y-48989314D01*
X115825371Y-48846457D01*
X115825371Y-48417885D01*
X115753942Y-48275028D01*
X115682514Y-48203600D01*
X115539657Y-48132171D01*
X115325371Y-48132171D01*
X115182514Y-48203600D01*
X115111085Y-48275028D01*
X115039657Y-48417885D01*
X115039657Y-48846457D01*
X115111085Y-48989314D01*
X115182514Y-49060742D01*
X115325371Y-49132171D01*
X115539657Y-49132171D01*
X114396800Y-48132171D02*
X114396800Y-49132171D01*
X114396800Y-48275028D02*
X114325371Y-48203600D01*
X114182514Y-48132171D01*
X113968228Y-48132171D01*
X113825371Y-48203600D01*
X113753942Y-48346457D01*
X113753942Y-49132171D01*
X113039657Y-48132171D02*
X113039657Y-49132171D01*
X113039657Y-48275028D02*
X112968228Y-48203600D01*
X112825371Y-48132171D01*
X112611085Y-48132171D01*
X112468228Y-48203600D01*
X112396800Y-48346457D01*
X112396800Y-49132171D01*
X111111085Y-49060742D02*
X111253942Y-49132171D01*
X111539657Y-49132171D01*
X111682514Y-49060742D01*
X111753942Y-48917885D01*
X111753942Y-48346457D01*
X111682514Y-48203600D01*
X111539657Y-48132171D01*
X111253942Y-48132171D01*
X111111085Y-48203600D01*
X111039657Y-48346457D01*
X111039657Y-48489314D01*
X111753942Y-48632171D01*
X110611085Y-48132171D02*
X110039657Y-48132171D01*
X110396800Y-47632171D02*
X110396800Y-48917885D01*
X110325371Y-49060742D01*
X110182514Y-49132171D01*
X110039657Y-49132171D01*
X109539657Y-49132171D02*
X109539657Y-48132171D01*
X109539657Y-47632171D02*
X109611085Y-47703600D01*
X109539657Y-47775028D01*
X109468228Y-47703600D01*
X109539657Y-47632171D01*
X109539657Y-47775028D01*
X108611085Y-49132171D02*
X108753942Y-49060742D01*
X108825371Y-48989314D01*
X108896800Y-48846457D01*
X108896800Y-48417885D01*
X108825371Y-48275028D01*
X108753942Y-48203600D01*
X108611085Y-48132171D01*
X108396800Y-48132171D01*
X108253942Y-48203600D01*
X108182514Y-48275028D01*
X108111085Y-48417885D01*
X108111085Y-48846457D01*
X108182514Y-48989314D01*
X108253942Y-49060742D01*
X108396800Y-49132171D01*
X108611085Y-49132171D01*
X107468228Y-48132171D02*
X107468228Y-49132171D01*
X107468228Y-48275028D02*
X107396800Y-48203600D01*
X107253942Y-48132171D01*
X107039657Y-48132171D01*
X106896800Y-48203600D01*
X106825371Y-48346457D01*
X106825371Y-49132171D01*
X136611085Y-50182171D02*
X136611085Y-51253600D01*
X136682514Y-51467885D01*
X136825371Y-51610742D01*
X137039657Y-51682171D01*
X137182514Y-51682171D01*
X135253942Y-50682171D02*
X135253942Y-51682171D01*
X135611085Y-50110742D02*
X135968228Y-51182171D01*
X135039657Y-51182171D01*
X132182514Y-51539314D02*
X132111085Y-51610742D01*
X132182514Y-51682171D01*
X132253942Y-51610742D01*
X132182514Y-51539314D01*
X132182514Y-51682171D01*
X132182514Y-50753600D02*
X132111085Y-50825028D01*
X132182514Y-50896457D01*
X132253942Y-50825028D01*
X132182514Y-50753600D01*
X132182514Y-50896457D01*
X130468228Y-50182171D02*
X130111085Y-51682171D01*
X129825371Y-50610742D01*
X129539657Y-51682171D01*
X129182514Y-50182171D01*
X128611085Y-51682171D02*
X128611085Y-50682171D01*
X128611085Y-50967885D02*
X128539657Y-50825028D01*
X128468228Y-50753600D01*
X128325371Y-50682171D01*
X128182514Y-50682171D01*
X127682514Y-51682171D02*
X127682514Y-50682171D01*
X127682514Y-50182171D02*
X127753942Y-50253600D01*
X127682514Y-50325028D01*
X127611085Y-50253600D01*
X127682514Y-50182171D01*
X127682514Y-50325028D01*
X127182514Y-50682171D02*
X126611085Y-50682171D01*
X126968228Y-50182171D02*
X126968228Y-51467885D01*
X126896800Y-51610742D01*
X126753942Y-51682171D01*
X126611085Y-51682171D01*
X125539657Y-51610742D02*
X125682514Y-51682171D01*
X125968228Y-51682171D01*
X126111085Y-51610742D01*
X126182514Y-51467885D01*
X126182514Y-50896457D01*
X126111085Y-50753600D01*
X125968228Y-50682171D01*
X125682514Y-50682171D01*
X125539657Y-50753600D01*
X125468228Y-50896457D01*
X125468228Y-51039314D01*
X126182514Y-51182171D01*
X136611085Y-52732171D02*
X136611085Y-53803600D01*
X136682514Y-54017885D01*
X136825371Y-54160742D01*
X137039657Y-54232171D01*
X137182514Y-54232171D01*
X135182514Y-52732171D02*
X135896800Y-52732171D01*
X135968228Y-53446457D01*
X135896800Y-53375028D01*
X135753942Y-53303600D01*
X135396800Y-53303600D01*
X135253942Y-53375028D01*
X135182514Y-53446457D01*
X135111085Y-53589314D01*
X135111085Y-53946457D01*
X135182514Y-54089314D01*
X135253942Y-54160742D01*
X135396800Y-54232171D01*
X135753942Y-54232171D01*
X135896800Y-54160742D01*
X135968228Y-54089314D01*
X132182514Y-54089314D02*
X132111085Y-54160742D01*
X132182514Y-54232171D01*
X132253942Y-54160742D01*
X132182514Y-54089314D01*
X132182514Y-54232171D01*
X132182514Y-53303600D02*
X132111085Y-53375028D01*
X132182514Y-53446457D01*
X132253942Y-53375028D01*
X132182514Y-53303600D01*
X132182514Y-53446457D01*
X129468228Y-54232171D02*
X129968228Y-53517885D01*
X130325371Y-54232171D02*
X130325371Y-52732171D01*
X129753942Y-52732171D01*
X129611085Y-52803600D01*
X129539657Y-52875028D01*
X129468228Y-53017885D01*
X129468228Y-53232171D01*
X129539657Y-53375028D01*
X129611085Y-53446457D01*
X129753942Y-53517885D01*
X130325371Y-53517885D01*
X128253942Y-54160742D02*
X128396800Y-54232171D01*
X128682514Y-54232171D01*
X128825371Y-54160742D01*
X128896800Y-54017885D01*
X128896800Y-53446457D01*
X128825371Y-53303600D01*
X128682514Y-53232171D01*
X128396800Y-53232171D01*
X128253942Y-53303600D01*
X128182514Y-53446457D01*
X128182514Y-53589314D01*
X128896800Y-53732171D01*
X126896800Y-54232171D02*
X126896800Y-53446457D01*
X126968228Y-53303600D01*
X127111085Y-53232171D01*
X127396800Y-53232171D01*
X127539657Y-53303600D01*
X126896800Y-54160742D02*
X127039657Y-54232171D01*
X127396800Y-54232171D01*
X127539657Y-54160742D01*
X127611085Y-54017885D01*
X127611085Y-53875028D01*
X127539657Y-53732171D01*
X127396800Y-53660742D01*
X127039657Y-53660742D01*
X126896800Y-53589314D01*
X125539657Y-54232171D02*
X125539657Y-52732171D01*
X125539657Y-54160742D02*
X125682514Y-54232171D01*
X125968228Y-54232171D01*
X126111085Y-54160742D01*
X126182514Y-54089314D01*
X126253942Y-53946457D01*
X126253942Y-53517885D01*
X126182514Y-53375028D01*
X126111085Y-53303600D01*
X125968228Y-53232171D01*
X125682514Y-53232171D01*
X125539657Y-53303600D01*
X123682514Y-54232171D02*
X123682514Y-52732171D01*
X123682514Y-53303600D02*
X123539657Y-53232171D01*
X123253942Y-53232171D01*
X123111085Y-53303600D01*
X123039657Y-53375028D01*
X122968228Y-53517885D01*
X122968228Y-53946457D01*
X123039657Y-54089314D01*
X123111085Y-54160742D01*
X123253942Y-54232171D01*
X123539657Y-54232171D01*
X123682514Y-54160742D01*
X121753942Y-54160742D02*
X121896800Y-54232171D01*
X122182514Y-54232171D01*
X122325371Y-54160742D01*
X122396800Y-54017885D01*
X122396800Y-53446457D01*
X122325371Y-53303600D01*
X122182514Y-53232171D01*
X121896800Y-53232171D01*
X121753942Y-53303600D01*
X121682514Y-53446457D01*
X121682514Y-53589314D01*
X122396800Y-53732171D01*
X121253942Y-53232171D02*
X120682514Y-53232171D01*
X121039657Y-54232171D02*
X121039657Y-52946457D01*
X120968228Y-52803600D01*
X120825371Y-52732171D01*
X120682514Y-52732171D01*
X119968228Y-54232171D02*
X120111085Y-54160742D01*
X120182514Y-54089314D01*
X120253942Y-53946457D01*
X120253942Y-53517885D01*
X120182514Y-53375028D01*
X120111085Y-53303600D01*
X119968228Y-53232171D01*
X119753942Y-53232171D01*
X119611085Y-53303600D01*
X119539657Y-53375028D01*
X119468228Y-53517885D01*
X119468228Y-53946457D01*
X119539657Y-54089314D01*
X119611085Y-54160742D01*
X119753942Y-54232171D01*
X119968228Y-54232171D01*
X118825371Y-54232171D02*
X118825371Y-53232171D01*
X118825371Y-53517885D02*
X118753942Y-53375028D01*
X118682514Y-53303600D01*
X118539657Y-53232171D01*
X118396800Y-53232171D01*
X116468228Y-52732171D02*
X116182514Y-52732171D01*
X116039657Y-52803600D01*
X115896800Y-52946457D01*
X115825371Y-53232171D01*
X115825371Y-53732171D01*
X115896800Y-54017885D01*
X116039657Y-54160742D01*
X116182514Y-54232171D01*
X116468228Y-54232171D01*
X116611085Y-54160742D01*
X116753942Y-54017885D01*
X116825371Y-53732171D01*
X116825371Y-53232171D01*
X116753942Y-52946457D01*
X116611085Y-52803600D01*
X116468228Y-52732171D01*
X115182514Y-53232171D02*
X115182514Y-54732171D01*
X115182514Y-53303600D02*
X115039657Y-53232171D01*
X114753942Y-53232171D01*
X114611085Y-53303600D01*
X114539657Y-53375028D01*
X114468228Y-53517885D01*
X114468228Y-53946457D01*
X114539657Y-54089314D01*
X114611085Y-54160742D01*
X114753942Y-54232171D01*
X115039657Y-54232171D01*
X115182514Y-54160742D01*
X114039657Y-53232171D02*
X113468228Y-53232171D01*
X113825371Y-52732171D02*
X113825371Y-54017885D01*
X113753942Y-54160742D01*
X113611085Y-54232171D01*
X113468228Y-54232171D01*
X112753942Y-54232171D02*
X112896800Y-54160742D01*
X112968228Y-54089314D01*
X113039657Y-53946457D01*
X113039657Y-53517885D01*
X112968228Y-53375028D01*
X112896800Y-53303600D01*
X112753942Y-53232171D01*
X112539657Y-53232171D01*
X112396800Y-53303600D01*
X112325371Y-53375028D01*
X112253942Y-53517885D01*
X112253942Y-53946457D01*
X112325371Y-54089314D01*
X112396800Y-54160742D01*
X112539657Y-54232171D01*
X112753942Y-54232171D01*
X136611085Y-55282171D02*
X136611085Y-56353600D01*
X136682514Y-56567885D01*
X136825371Y-56710742D01*
X137039657Y-56782171D01*
X137182514Y-56782171D01*
X135253942Y-55282171D02*
X135539657Y-55282171D01*
X135682514Y-55353600D01*
X135753942Y-55425028D01*
X135896800Y-55639314D01*
X135968228Y-55925028D01*
X135968228Y-56496457D01*
X135896800Y-56639314D01*
X135825371Y-56710742D01*
X135682514Y-56782171D01*
X135396800Y-56782171D01*
X135253942Y-56710742D01*
X135182514Y-56639314D01*
X135111085Y-56496457D01*
X135111085Y-56139314D01*
X135182514Y-55996457D01*
X135253942Y-55925028D01*
X135396800Y-55853600D01*
X135682514Y-55853600D01*
X135825371Y-55925028D01*
X135896800Y-55996457D01*
X135968228Y-56139314D01*
X132182514Y-56639314D02*
X132111085Y-56710742D01*
X132182514Y-56782171D01*
X132253942Y-56710742D01*
X132182514Y-56639314D01*
X132182514Y-56782171D01*
X132182514Y-55853600D02*
X132111085Y-55925028D01*
X132182514Y-55996457D01*
X132253942Y-55925028D01*
X132182514Y-55853600D01*
X132182514Y-55996457D01*
X130396800Y-56710742D02*
X130182514Y-56782171D01*
X129825371Y-56782171D01*
X129682514Y-56710742D01*
X129611085Y-56639314D01*
X129539657Y-56496457D01*
X129539657Y-56353600D01*
X129611085Y-56210742D01*
X129682514Y-56139314D01*
X129825371Y-56067885D01*
X130111085Y-55996457D01*
X130253942Y-55925028D01*
X130325371Y-55853600D01*
X130396800Y-55710742D01*
X130396800Y-55567885D01*
X130325371Y-55425028D01*
X130253942Y-55353600D01*
X130111085Y-55282171D01*
X129753942Y-55282171D01*
X129539657Y-55353600D01*
X129111085Y-55782171D02*
X128539657Y-55782171D01*
X128896800Y-55282171D02*
X128896800Y-56567885D01*
X128825371Y-56710742D01*
X128682514Y-56782171D01*
X128539657Y-56782171D01*
X127468228Y-56710742D02*
X127611085Y-56782171D01*
X127896800Y-56782171D01*
X128039657Y-56710742D01*
X128111085Y-56567885D01*
X128111085Y-55996457D01*
X128039657Y-55853600D01*
X127896800Y-55782171D01*
X127611085Y-55782171D01*
X127468228Y-55853600D01*
X127396800Y-55996457D01*
X127396800Y-56139314D01*
X128111085Y-56282171D01*
X126753942Y-55782171D02*
X126753942Y-57282171D01*
X126753942Y-55853600D02*
X126611085Y-55782171D01*
X126325371Y-55782171D01*
X126182514Y-55853600D01*
X126111085Y-55925028D01*
X126039657Y-56067885D01*
X126039657Y-56496457D01*
X126111085Y-56639314D01*
X126182514Y-56710742D01*
X126325371Y-56782171D01*
X126611085Y-56782171D01*
X126753942Y-56710742D01*
X125396800Y-56210742D02*
X124253942Y-56210742D01*
X123539657Y-55282171D02*
X123539657Y-56496457D01*
X123468228Y-56639314D01*
X123396800Y-56710742D01*
X123253942Y-56782171D01*
X122968228Y-56782171D01*
X122825371Y-56710742D01*
X122753942Y-56639314D01*
X122682514Y-56496457D01*
X122682514Y-55282171D01*
X121968228Y-55782171D02*
X121968228Y-57282171D01*
X121968228Y-55853600D02*
X121825371Y-55782171D01*
X121539657Y-55782171D01*
X121396800Y-55853600D01*
X121325371Y-55925028D01*
X121253942Y-56067885D01*
X121253942Y-56496457D01*
X121325371Y-56639314D01*
X121396800Y-56710742D01*
X121539657Y-56782171D01*
X121825371Y-56782171D01*
X121968228Y-56710742D01*
X117682514Y-55282171D02*
X117968228Y-55282171D01*
X118111085Y-55353600D01*
X118182514Y-55425028D01*
X118325371Y-55639314D01*
X118396800Y-55925028D01*
X118396800Y-56496457D01*
X118325371Y-56639314D01*
X118253942Y-56710742D01*
X118111085Y-56782171D01*
X117825371Y-56782171D01*
X117682514Y-56710742D01*
X117611085Y-56639314D01*
X117539657Y-56496457D01*
X117539657Y-56139314D01*
X117611085Y-55996457D01*
X117682514Y-55925028D01*
X117825371Y-55853600D01*
X118111085Y-55853600D01*
X118253942Y-55925028D01*
X118325371Y-55996457D01*
X118396800Y-56139314D01*
X116611085Y-55282171D02*
X116468228Y-55282171D01*
X116325371Y-55353600D01*
X116253942Y-55425028D01*
X116182514Y-55567885D01*
X116111085Y-55853600D01*
X116111085Y-56210742D01*
X116182514Y-56496457D01*
X116253942Y-56639314D01*
X116325371Y-56710742D01*
X116468228Y-56782171D01*
X116611085Y-56782171D01*
X116753942Y-56710742D01*
X116825371Y-56639314D01*
X116896800Y-56496457D01*
X116968228Y-56210742D01*
X116968228Y-55853600D01*
X116896800Y-55567885D01*
X116825371Y-55425028D01*
X116753942Y-55353600D01*
X116611085Y-55282171D01*
X115682514Y-55282171D02*
X115182514Y-56782171D01*
X114682514Y-55282171D01*
X136611085Y-57832171D02*
X136611085Y-58903600D01*
X136682514Y-59117885D01*
X136825371Y-59260742D01*
X137039657Y-59332171D01*
X137182514Y-59332171D01*
X136039657Y-57832171D02*
X135039657Y-57832171D01*
X135682514Y-59332171D01*
X132182514Y-59189314D02*
X132111085Y-59260742D01*
X132182514Y-59332171D01*
X132253942Y-59260742D01*
X132182514Y-59189314D01*
X132182514Y-59332171D01*
X132182514Y-58403600D02*
X132111085Y-58475028D01*
X132182514Y-58546457D01*
X132253942Y-58475028D01*
X132182514Y-58403600D01*
X132182514Y-58546457D01*
X129539657Y-57903600D02*
X129682514Y-57832171D01*
X129896800Y-57832171D01*
X130111085Y-57903600D01*
X130253942Y-58046457D01*
X130325371Y-58189314D01*
X130396800Y-58475028D01*
X130396800Y-58689314D01*
X130325371Y-58975028D01*
X130253942Y-59117885D01*
X130111085Y-59260742D01*
X129896800Y-59332171D01*
X129753942Y-59332171D01*
X129539657Y-59260742D01*
X129468228Y-59189314D01*
X129468228Y-58689314D01*
X129753942Y-58689314D01*
X128825371Y-59332171D02*
X128825371Y-57832171D01*
X127968228Y-59332171D01*
X127968228Y-57832171D01*
X127253942Y-59332171D02*
X127253942Y-57832171D01*
X126896800Y-57832171D01*
X126682514Y-57903600D01*
X126539657Y-58046457D01*
X126468228Y-58189314D01*
X126396800Y-58475028D01*
X126396800Y-58689314D01*
X126468228Y-58975028D01*
X126539657Y-59117885D01*
X126682514Y-59260742D01*
X126896800Y-59332171D01*
X127253942Y-59332171D01*
X124753942Y-57832171D02*
X123825371Y-57832171D01*
X124325371Y-58403600D01*
X124111085Y-58403600D01*
X123968228Y-58475028D01*
X123896800Y-58546457D01*
X123825371Y-58689314D01*
X123825371Y-59046457D01*
X123896800Y-59189314D01*
X123968228Y-59260742D01*
X124111085Y-59332171D01*
X124539657Y-59332171D01*
X124682514Y-59260742D01*
X124753942Y-59189314D01*
X123396800Y-57832171D02*
X122896800Y-59332171D01*
X122396800Y-57832171D01*
X122039657Y-57832171D02*
X121111085Y-57832171D01*
X121611085Y-58403600D01*
X121396800Y-58403600D01*
X121253942Y-58475028D01*
X121182514Y-58546457D01*
X121111085Y-58689314D01*
X121111085Y-59046457D01*
X121182514Y-59189314D01*
X121253942Y-59260742D01*
X121396800Y-59332171D01*
X121825371Y-59332171D01*
X121968228Y-59260742D01*
X122039657Y-59189314D01*
X136611085Y-60382171D02*
X136611085Y-61453600D01*
X136682514Y-61667885D01*
X136825371Y-61810742D01*
X137039657Y-61882171D01*
X137182514Y-61882171D01*
X135682514Y-61025028D02*
X135825371Y-60953600D01*
X135896800Y-60882171D01*
X135968228Y-60739314D01*
X135968228Y-60667885D01*
X135896800Y-60525028D01*
X135825371Y-60453600D01*
X135682514Y-60382171D01*
X135396800Y-60382171D01*
X135253942Y-60453600D01*
X135182514Y-60525028D01*
X135111085Y-60667885D01*
X135111085Y-60739314D01*
X135182514Y-60882171D01*
X135253942Y-60953600D01*
X135396800Y-61025028D01*
X135682514Y-61025028D01*
X135825371Y-61096457D01*
X135896800Y-61167885D01*
X135968228Y-61310742D01*
X135968228Y-61596457D01*
X135896800Y-61739314D01*
X135825371Y-61810742D01*
X135682514Y-61882171D01*
X135396800Y-61882171D01*
X135253942Y-61810742D01*
X135182514Y-61739314D01*
X135111085Y-61596457D01*
X135111085Y-61310742D01*
X135182514Y-61167885D01*
X135253942Y-61096457D01*
X135396800Y-61025028D01*
X132182514Y-61739314D02*
X132111085Y-61810742D01*
X132182514Y-61882171D01*
X132253942Y-61810742D01*
X132182514Y-61739314D01*
X132182514Y-61882171D01*
X132182514Y-60953600D02*
X132111085Y-61025028D01*
X132182514Y-61096457D01*
X132253942Y-61025028D01*
X132182514Y-60953600D01*
X132182514Y-61096457D01*
X129468228Y-61882171D02*
X129968228Y-61167885D01*
X130325371Y-61882171D02*
X130325371Y-60382171D01*
X129753942Y-60382171D01*
X129611085Y-60453600D01*
X129539657Y-60525028D01*
X129468228Y-60667885D01*
X129468228Y-60882171D01*
X129539657Y-61025028D01*
X129611085Y-61096457D01*
X129753942Y-61167885D01*
X130325371Y-61167885D01*
X128253942Y-61810742D02*
X128396800Y-61882171D01*
X128682514Y-61882171D01*
X128825371Y-61810742D01*
X128896800Y-61667885D01*
X128896800Y-61096457D01*
X128825371Y-60953600D01*
X128682514Y-60882171D01*
X128396800Y-60882171D01*
X128253942Y-60953600D01*
X128182514Y-61096457D01*
X128182514Y-61239314D01*
X128896800Y-61382171D01*
X126896800Y-61882171D02*
X126896800Y-61096457D01*
X126968228Y-60953600D01*
X127111085Y-60882171D01*
X127396800Y-60882171D01*
X127539657Y-60953600D01*
X126896800Y-61810742D02*
X127039657Y-61882171D01*
X127396800Y-61882171D01*
X127539657Y-61810742D01*
X127611085Y-61667885D01*
X127611085Y-61525028D01*
X127539657Y-61382171D01*
X127396800Y-61310742D01*
X127039657Y-61310742D01*
X126896800Y-61239314D01*
X125539657Y-61882171D02*
X125539657Y-60382171D01*
X125539657Y-61810742D02*
X125682514Y-61882171D01*
X125968228Y-61882171D01*
X126111085Y-61810742D01*
X126182514Y-61739314D01*
X126253942Y-61596457D01*
X126253942Y-61167885D01*
X126182514Y-61025028D01*
X126111085Y-60953600D01*
X125968228Y-60882171D01*
X125682514Y-60882171D01*
X125539657Y-60953600D01*
X123039657Y-61882171D02*
X123039657Y-61096457D01*
X123111085Y-60953600D01*
X123253942Y-60882171D01*
X123539657Y-60882171D01*
X123682514Y-60953600D01*
X123039657Y-61810742D02*
X123182514Y-61882171D01*
X123539657Y-61882171D01*
X123682514Y-61810742D01*
X123753942Y-61667885D01*
X123753942Y-61525028D01*
X123682514Y-61382171D01*
X123539657Y-61310742D01*
X123182514Y-61310742D01*
X123039657Y-61239314D01*
X122539657Y-60882171D02*
X121968228Y-60882171D01*
X122325371Y-61882171D02*
X122325371Y-60596457D01*
X122253942Y-60453600D01*
X122111085Y-60382171D01*
X121968228Y-60382171D01*
X121682514Y-60882171D02*
X121111085Y-60882171D01*
X121468228Y-60382171D02*
X121468228Y-61667885D01*
X121396800Y-61810742D01*
X121253942Y-61882171D01*
X121111085Y-61882171D01*
X120039657Y-61810742D02*
X120182514Y-61882171D01*
X120468228Y-61882171D01*
X120611085Y-61810742D01*
X120682514Y-61667885D01*
X120682514Y-61096457D01*
X120611085Y-60953600D01*
X120468228Y-60882171D01*
X120182514Y-60882171D01*
X120039657Y-60953600D01*
X119968228Y-61096457D01*
X119968228Y-61239314D01*
X120682514Y-61382171D01*
X119325371Y-61882171D02*
X119325371Y-60882171D01*
X119325371Y-61167885D02*
X119253942Y-61025028D01*
X119182514Y-60953600D01*
X119039657Y-60882171D01*
X118896800Y-60882171D01*
X116968228Y-60382171D02*
X116682514Y-60382171D01*
X116539657Y-60453600D01*
X116396800Y-60596457D01*
X116325371Y-60882171D01*
X116325371Y-61382171D01*
X116396800Y-61667885D01*
X116539657Y-61810742D01*
X116682514Y-61882171D01*
X116968228Y-61882171D01*
X117111085Y-61810742D01*
X117253942Y-61667885D01*
X117325371Y-61382171D01*
X117325371Y-60882171D01*
X117253942Y-60596457D01*
X117111085Y-60453600D01*
X116968228Y-60382171D01*
X115682514Y-60882171D02*
X115682514Y-62382171D01*
X115682514Y-60953600D02*
X115539657Y-60882171D01*
X115253942Y-60882171D01*
X115111085Y-60953600D01*
X115039657Y-61025028D01*
X114968228Y-61167885D01*
X114968228Y-61596457D01*
X115039657Y-61739314D01*
X115111085Y-61810742D01*
X115253942Y-61882171D01*
X115539657Y-61882171D01*
X115682514Y-61810742D01*
X114539657Y-60882171D02*
X113968228Y-60882171D01*
X114325371Y-60382171D02*
X114325371Y-61667885D01*
X114253942Y-61810742D01*
X114111085Y-61882171D01*
X113968228Y-61882171D01*
X113253942Y-61882171D02*
X113396800Y-61810742D01*
X113468228Y-61739314D01*
X113539657Y-61596457D01*
X113539657Y-61167885D01*
X113468228Y-61025028D01*
X113396800Y-60953600D01*
X113253942Y-60882171D01*
X113039657Y-60882171D01*
X112896800Y-60953600D01*
X112825371Y-61025028D01*
X112753942Y-61167885D01*
X112753942Y-61596457D01*
X112825371Y-61739314D01*
X112896800Y-61810742D01*
X113039657Y-61882171D01*
X113253942Y-61882171D01*
X136611085Y-62932171D02*
X136611085Y-64003600D01*
X136682514Y-64217885D01*
X136825371Y-64360742D01*
X137039657Y-64432171D01*
X137182514Y-64432171D01*
X135825371Y-64432171D02*
X135539657Y-64432171D01*
X135396800Y-64360742D01*
X135325371Y-64289314D01*
X135182514Y-64075028D01*
X135111085Y-63789314D01*
X135111085Y-63217885D01*
X135182514Y-63075028D01*
X135253942Y-63003600D01*
X135396800Y-62932171D01*
X135682514Y-62932171D01*
X135825371Y-63003600D01*
X135896800Y-63075028D01*
X135968228Y-63217885D01*
X135968228Y-63575028D01*
X135896800Y-63717885D01*
X135825371Y-63789314D01*
X135682514Y-63860742D01*
X135396800Y-63860742D01*
X135253942Y-63789314D01*
X135182514Y-63717885D01*
X135111085Y-63575028D01*
X132182514Y-64289314D02*
X132111085Y-64360742D01*
X132182514Y-64432171D01*
X132253942Y-64360742D01*
X132182514Y-64289314D01*
X132182514Y-64432171D01*
X132182514Y-63503600D02*
X132111085Y-63575028D01*
X132182514Y-63646457D01*
X132253942Y-63575028D01*
X132182514Y-63503600D01*
X132182514Y-63646457D01*
X130396800Y-64360742D02*
X130182514Y-64432171D01*
X129825371Y-64432171D01*
X129682514Y-64360742D01*
X129611085Y-64289314D01*
X129539657Y-64146457D01*
X129539657Y-64003600D01*
X129611085Y-63860742D01*
X129682514Y-63789314D01*
X129825371Y-63717885D01*
X130111085Y-63646457D01*
X130253942Y-63575028D01*
X130325371Y-63503600D01*
X130396800Y-63360742D01*
X130396800Y-63217885D01*
X130325371Y-63075028D01*
X130253942Y-63003600D01*
X130111085Y-62932171D01*
X129753942Y-62932171D01*
X129539657Y-63003600D01*
X128253942Y-63432171D02*
X128253942Y-64432171D01*
X128896800Y-63432171D02*
X128896800Y-64217885D01*
X128825371Y-64360742D01*
X128682514Y-64432171D01*
X128468228Y-64432171D01*
X128325371Y-64360742D01*
X128253942Y-64289314D01*
X127539657Y-63432171D02*
X127539657Y-64932171D01*
X127539657Y-63503600D02*
X127396800Y-63432171D01*
X127111085Y-63432171D01*
X126968228Y-63503600D01*
X126896800Y-63575028D01*
X126825371Y-63717885D01*
X126825371Y-64146457D01*
X126896800Y-64289314D01*
X126968228Y-64360742D01*
X127111085Y-64432171D01*
X127396800Y-64432171D01*
X127539657Y-64360742D01*
X126182514Y-63432171D02*
X126182514Y-64932171D01*
X126182514Y-63503600D02*
X126039657Y-63432171D01*
X125753942Y-63432171D01*
X125611085Y-63503600D01*
X125539657Y-63575028D01*
X125468228Y-63717885D01*
X125468228Y-64146457D01*
X125539657Y-64289314D01*
X125611085Y-64360742D01*
X125753942Y-64432171D01*
X126039657Y-64432171D01*
X126182514Y-64360742D01*
X124611085Y-64432171D02*
X124753942Y-64360742D01*
X124825371Y-64217885D01*
X124825371Y-62932171D01*
X124182514Y-63432171D02*
X123825371Y-64432171D01*
X123468228Y-63432171D02*
X123825371Y-64432171D01*
X123968228Y-64789314D01*
X124039657Y-64860742D01*
X124182514Y-64932171D01*
X120968228Y-64432171D02*
X121825371Y-64432171D01*
X121396800Y-64432171D02*
X121396800Y-62932171D01*
X121539657Y-63146457D01*
X121682514Y-63289314D01*
X121825371Y-63360742D01*
X120396800Y-63075028D02*
X120325371Y-63003600D01*
X120182514Y-62932171D01*
X119825371Y-62932171D01*
X119682514Y-63003600D01*
X119611085Y-63075028D01*
X119539657Y-63217885D01*
X119539657Y-63360742D01*
X119611085Y-63575028D01*
X120468228Y-64432171D01*
X119539657Y-64432171D01*
X119111085Y-62932171D02*
X118611085Y-64432171D01*
X118111085Y-62932171D01*
X136611085Y-65482171D02*
X136611085Y-66553600D01*
X136682514Y-66767885D01*
X136825371Y-66910742D01*
X137039657Y-66982171D01*
X137182514Y-66982171D01*
X135111085Y-66982171D02*
X135968228Y-66982171D01*
X135539657Y-66982171D02*
X135539657Y-65482171D01*
X135682514Y-65696457D01*
X135825371Y-65839314D01*
X135968228Y-65910742D01*
X134182514Y-65482171D02*
X134039657Y-65482171D01*
X133896800Y-65553600D01*
X133825371Y-65625028D01*
X133753942Y-65767885D01*
X133682514Y-66053600D01*
X133682514Y-66410742D01*
X133753942Y-66696457D01*
X133825371Y-66839314D01*
X133896800Y-66910742D01*
X134039657Y-66982171D01*
X134182514Y-66982171D01*
X134325371Y-66910742D01*
X134396800Y-66839314D01*
X134468228Y-66696457D01*
X134539657Y-66410742D01*
X134539657Y-66053600D01*
X134468228Y-65767885D01*
X134396800Y-65625028D01*
X134325371Y-65553600D01*
X134182514Y-65482171D01*
X133039657Y-66839314D02*
X132968228Y-66910742D01*
X133039657Y-66982171D01*
X133111085Y-66910742D01*
X133039657Y-66839314D01*
X133039657Y-66982171D01*
X133039657Y-66053600D02*
X132968228Y-66125028D01*
X133039657Y-66196457D01*
X133111085Y-66125028D01*
X133039657Y-66053600D01*
X133039657Y-66196457D01*
X131325371Y-65482171D02*
X130396800Y-65482171D01*
X130896800Y-66053600D01*
X130682514Y-66053600D01*
X130539657Y-66125028D01*
X130468228Y-66196457D01*
X130396800Y-66339314D01*
X130396800Y-66696457D01*
X130468228Y-66839314D01*
X130539657Y-66910742D01*
X130682514Y-66982171D01*
X131111085Y-66982171D01*
X131253942Y-66910742D01*
X131325371Y-66839314D01*
X129968228Y-65482171D02*
X129468228Y-66982171D01*
X128968228Y-65482171D01*
X128611085Y-65482171D02*
X127682514Y-65482171D01*
X128182514Y-66053600D01*
X127968228Y-66053600D01*
X127825371Y-66125028D01*
X127753942Y-66196457D01*
X127682514Y-66339314D01*
X127682514Y-66696457D01*
X127753942Y-66839314D01*
X127825371Y-66910742D01*
X127968228Y-66982171D01*
X128396800Y-66982171D01*
X128539657Y-66910742D01*
X128611085Y-66839314D01*
X125111085Y-65553600D02*
X125253942Y-65482171D01*
X125468228Y-65482171D01*
X125682514Y-65553600D01*
X125825371Y-65696457D01*
X125896800Y-65839314D01*
X125968228Y-66125028D01*
X125968228Y-66339314D01*
X125896800Y-66625028D01*
X125825371Y-66767885D01*
X125682514Y-66910742D01*
X125468228Y-66982171D01*
X125325371Y-66982171D01*
X125111085Y-66910742D01*
X125039657Y-66839314D01*
X125039657Y-66339314D01*
X125325371Y-66339314D01*
X124396800Y-66982171D02*
X124396800Y-65482171D01*
X123539657Y-66982171D01*
X123539657Y-65482171D01*
X122825371Y-66982171D02*
X122825371Y-65482171D01*
X122468228Y-65482171D01*
X122253942Y-65553600D01*
X122111085Y-65696457D01*
X122039657Y-65839314D01*
X121968228Y-66125028D01*
X121968228Y-66339314D01*
X122039657Y-66625028D01*
X122111085Y-66767885D01*
X122253942Y-66910742D01*
X122468228Y-66982171D01*
X122825371Y-66982171D01*
X120182514Y-66982171D02*
X120182514Y-65482171D01*
X119825371Y-65482171D01*
X119611085Y-65553600D01*
X119468228Y-65696457D01*
X119396800Y-65839314D01*
X119325371Y-66125028D01*
X119325371Y-66339314D01*
X119396800Y-66625028D01*
X119468228Y-66767885D01*
X119611085Y-66910742D01*
X119825371Y-66982171D01*
X120182514Y-66982171D01*
X117896800Y-66982171D02*
X118753942Y-66982171D01*
X118325371Y-66982171D02*
X118325371Y-65482171D01*
X118468228Y-65696457D01*
X118611085Y-65839314D01*
X118753942Y-65910742D01*
X117039657Y-66125028D02*
X117182514Y-66053600D01*
X117253942Y-65982171D01*
X117325371Y-65839314D01*
X117325371Y-65767885D01*
X117253942Y-65625028D01*
X117182514Y-65553600D01*
X117039657Y-65482171D01*
X116753942Y-65482171D01*
X116611085Y-65553600D01*
X116539657Y-65625028D01*
X116468228Y-65767885D01*
X116468228Y-65839314D01*
X116539657Y-65982171D01*
X116611085Y-66053600D01*
X116753942Y-66125028D01*
X117039657Y-66125028D01*
X117182514Y-66196457D01*
X117253942Y-66267885D01*
X117325371Y-66410742D01*
X117325371Y-66696457D01*
X117253942Y-66839314D01*
X117182514Y-66910742D01*
X117039657Y-66982171D01*
X116753942Y-66982171D01*
X116611085Y-66910742D01*
X116539657Y-66839314D01*
X116468228Y-66696457D01*
X116468228Y-66410742D01*
X116539657Y-66267885D01*
X116611085Y-66196457D01*
X116753942Y-66125028D01*
X114682514Y-66982171D02*
X114682514Y-65482171D01*
X114325371Y-65482171D01*
X114111085Y-65553600D01*
X113968228Y-65696457D01*
X113896800Y-65839314D01*
X113825371Y-66125028D01*
X113825371Y-66339314D01*
X113896800Y-66625028D01*
X113968228Y-66767885D01*
X114111085Y-66910742D01*
X114325371Y-66982171D01*
X114682514Y-66982171D01*
X112396800Y-66982171D02*
X113253942Y-66982171D01*
X112825371Y-66982171D02*
X112825371Y-65482171D01*
X112968228Y-65696457D01*
X113111085Y-65839314D01*
X113253942Y-65910742D01*
X111682514Y-66982171D02*
X111396800Y-66982171D01*
X111253942Y-66910742D01*
X111182514Y-66839314D01*
X111039657Y-66625028D01*
X110968228Y-66339314D01*
X110968228Y-65767885D01*
X111039657Y-65625028D01*
X111111085Y-65553600D01*
X111253942Y-65482171D01*
X111539657Y-65482171D01*
X111682514Y-65553600D01*
X111753942Y-65625028D01*
X111825371Y-65767885D01*
X111825371Y-66125028D01*
X111753942Y-66267885D01*
X111682514Y-66339314D01*
X111539657Y-66410742D01*
X111253942Y-66410742D01*
X111111085Y-66339314D01*
X111039657Y-66267885D01*
X110968228Y-66125028D01*
X109182514Y-66982171D02*
X109182514Y-65482171D01*
X108825371Y-65482171D01*
X108611085Y-65553600D01*
X108468228Y-65696457D01*
X108396800Y-65839314D01*
X108325371Y-66125028D01*
X108325371Y-66339314D01*
X108396800Y-66625028D01*
X108468228Y-66767885D01*
X108611085Y-66910742D01*
X108825371Y-66982171D01*
X109182514Y-66982171D01*
X107753942Y-65625028D02*
X107682514Y-65553600D01*
X107539657Y-65482171D01*
X107182514Y-65482171D01*
X107039657Y-65553600D01*
X106968228Y-65625028D01*
X106896800Y-65767885D01*
X106896800Y-65910742D01*
X106968228Y-66125028D01*
X107825371Y-66982171D01*
X106896800Y-66982171D01*
X106396800Y-65482171D02*
X105468228Y-65482171D01*
X105968228Y-66053600D01*
X105753942Y-66053600D01*
X105611085Y-66125028D01*
X105539657Y-66196457D01*
X105468228Y-66339314D01*
X105468228Y-66696457D01*
X105539657Y-66839314D01*
X105611085Y-66910742D01*
X105753942Y-66982171D01*
X106182514Y-66982171D01*
X106325371Y-66910742D01*
X106396800Y-66839314D01*
X136611085Y-68032171D02*
X136611085Y-69103600D01*
X136682514Y-69317885D01*
X136825371Y-69460742D01*
X137039657Y-69532171D01*
X137182514Y-69532171D01*
X135111085Y-69532171D02*
X135968228Y-69532171D01*
X135539657Y-69532171D02*
X135539657Y-68032171D01*
X135682514Y-68246457D01*
X135825371Y-68389314D01*
X135968228Y-68460742D01*
X133682514Y-69532171D02*
X134539657Y-69532171D01*
X134111085Y-69532171D02*
X134111085Y-68032171D01*
X134253942Y-68246457D01*
X134396800Y-68389314D01*
X134539657Y-68460742D01*
X133039657Y-69389314D02*
X132968228Y-69460742D01*
X133039657Y-69532171D01*
X133111085Y-69460742D01*
X133039657Y-69389314D01*
X133039657Y-69532171D01*
X133039657Y-68603600D02*
X132968228Y-68675028D01*
X133039657Y-68746457D01*
X133111085Y-68675028D01*
X133039657Y-68603600D01*
X133039657Y-68746457D01*
X131325371Y-68032171D02*
X130396800Y-68032171D01*
X130896800Y-68603600D01*
X130682514Y-68603600D01*
X130539657Y-68675028D01*
X130468228Y-68746457D01*
X130396800Y-68889314D01*
X130396800Y-69246457D01*
X130468228Y-69389314D01*
X130539657Y-69460742D01*
X130682514Y-69532171D01*
X131111085Y-69532171D01*
X131253942Y-69460742D01*
X131325371Y-69389314D01*
X129968228Y-68032171D02*
X129468228Y-69532171D01*
X128968228Y-68032171D01*
X128611085Y-68032171D02*
X127682514Y-68032171D01*
X128182514Y-68603600D01*
X127968228Y-68603600D01*
X127825371Y-68675028D01*
X127753942Y-68746457D01*
X127682514Y-68889314D01*
X127682514Y-69246457D01*
X127753942Y-69389314D01*
X127825371Y-69460742D01*
X127968228Y-69532171D01*
X128396800Y-69532171D01*
X128539657Y-69460742D01*
X128611085Y-69389314D01*
X125111085Y-68103600D02*
X125253942Y-68032171D01*
X125468228Y-68032171D01*
X125682514Y-68103600D01*
X125825371Y-68246457D01*
X125896800Y-68389314D01*
X125968228Y-68675028D01*
X125968228Y-68889314D01*
X125896800Y-69175028D01*
X125825371Y-69317885D01*
X125682514Y-69460742D01*
X125468228Y-69532171D01*
X125325371Y-69532171D01*
X125111085Y-69460742D01*
X125039657Y-69389314D01*
X125039657Y-68889314D01*
X125325371Y-68889314D01*
X124396800Y-69532171D02*
X124396800Y-68032171D01*
X123539657Y-69532171D01*
X123539657Y-68032171D01*
X122825371Y-69532171D02*
X122825371Y-68032171D01*
X122468228Y-68032171D01*
X122253942Y-68103600D01*
X122111085Y-68246457D01*
X122039657Y-68389314D01*
X121968228Y-68675028D01*
X121968228Y-68889314D01*
X122039657Y-69175028D01*
X122111085Y-69317885D01*
X122253942Y-69460742D01*
X122468228Y-69532171D01*
X122825371Y-69532171D01*
X120182514Y-69532171D02*
X120182514Y-68032171D01*
X119825371Y-68032171D01*
X119611085Y-68103600D01*
X119468228Y-68246457D01*
X119396800Y-68389314D01*
X119325371Y-68675028D01*
X119325371Y-68889314D01*
X119396800Y-69175028D01*
X119468228Y-69317885D01*
X119611085Y-69460742D01*
X119825371Y-69532171D01*
X120182514Y-69532171D01*
X117896800Y-69532171D02*
X118753942Y-69532171D01*
X118325371Y-69532171D02*
X118325371Y-68032171D01*
X118468228Y-68246457D01*
X118611085Y-68389314D01*
X118753942Y-68460742D01*
X117325371Y-68175028D02*
X117253942Y-68103600D01*
X117111085Y-68032171D01*
X116753942Y-68032171D01*
X116611085Y-68103600D01*
X116539657Y-68175028D01*
X116468228Y-68317885D01*
X116468228Y-68460742D01*
X116539657Y-68675028D01*
X117396800Y-69532171D01*
X116468228Y-69532171D01*
X114682514Y-69532171D02*
X114682514Y-68032171D01*
X114325371Y-68032171D01*
X114111085Y-68103600D01*
X113968228Y-68246457D01*
X113896800Y-68389314D01*
X113825371Y-68675028D01*
X113825371Y-68889314D01*
X113896800Y-69175028D01*
X113968228Y-69317885D01*
X114111085Y-69460742D01*
X114325371Y-69532171D01*
X114682514Y-69532171D01*
X112396800Y-69532171D02*
X113253942Y-69532171D01*
X112825371Y-69532171D02*
X112825371Y-68032171D01*
X112968228Y-68246457D01*
X113111085Y-68389314D01*
X113253942Y-68460742D01*
X111896800Y-68032171D02*
X110968228Y-68032171D01*
X111468228Y-68603600D01*
X111253942Y-68603600D01*
X111111085Y-68675028D01*
X111039657Y-68746457D01*
X110968228Y-68889314D01*
X110968228Y-69246457D01*
X111039657Y-69389314D01*
X111111085Y-69460742D01*
X111253942Y-69532171D01*
X111682514Y-69532171D01*
X111825371Y-69460742D01*
X111896800Y-69389314D01*
X109182514Y-69532171D02*
X109182514Y-68032171D01*
X108825371Y-68032171D01*
X108611085Y-68103600D01*
X108468228Y-68246457D01*
X108396800Y-68389314D01*
X108325371Y-68675028D01*
X108325371Y-68889314D01*
X108396800Y-69175028D01*
X108468228Y-69317885D01*
X108611085Y-69460742D01*
X108825371Y-69532171D01*
X109182514Y-69532171D01*
X106896800Y-69532171D02*
X107753942Y-69532171D01*
X107325371Y-69532171D02*
X107325371Y-68032171D01*
X107468228Y-68246457D01*
X107611085Y-68389314D01*
X107753942Y-68460742D01*
X105611085Y-68532171D02*
X105611085Y-69532171D01*
X105968228Y-67960742D02*
X106325371Y-69032171D01*
X105396800Y-69032171D01*
X136611085Y-70582171D02*
X136611085Y-71653600D01*
X136682514Y-71867885D01*
X136825371Y-72010742D01*
X137039657Y-72082171D01*
X137182514Y-72082171D01*
X135111085Y-72082171D02*
X135968228Y-72082171D01*
X135539657Y-72082171D02*
X135539657Y-70582171D01*
X135682514Y-70796457D01*
X135825371Y-70939314D01*
X135968228Y-71010742D01*
X134539657Y-70725028D02*
X134468228Y-70653600D01*
X134325371Y-70582171D01*
X133968228Y-70582171D01*
X133825371Y-70653600D01*
X133753942Y-70725028D01*
X133682514Y-70867885D01*
X133682514Y-71010742D01*
X133753942Y-71225028D01*
X134611085Y-72082171D01*
X133682514Y-72082171D01*
X133039657Y-71939314D02*
X132968228Y-72010742D01*
X133039657Y-72082171D01*
X133111085Y-72010742D01*
X133039657Y-71939314D01*
X133039657Y-72082171D01*
X133039657Y-71153600D02*
X132968228Y-71225028D01*
X133039657Y-71296457D01*
X133111085Y-71225028D01*
X133039657Y-71153600D01*
X133039657Y-71296457D01*
X131325371Y-70582171D02*
X130396800Y-70582171D01*
X130896800Y-71153600D01*
X130682514Y-71153600D01*
X130539657Y-71225028D01*
X130468228Y-71296457D01*
X130396800Y-71439314D01*
X130396800Y-71796457D01*
X130468228Y-71939314D01*
X130539657Y-72010742D01*
X130682514Y-72082171D01*
X131111085Y-72082171D01*
X131253942Y-72010742D01*
X131325371Y-71939314D01*
X129968228Y-70582171D02*
X129468228Y-72082171D01*
X128968228Y-70582171D01*
X128611085Y-70582171D02*
X127682514Y-70582171D01*
X128182514Y-71153600D01*
X127968228Y-71153600D01*
X127825371Y-71225028D01*
X127753942Y-71296457D01*
X127682514Y-71439314D01*
X127682514Y-71796457D01*
X127753942Y-71939314D01*
X127825371Y-72010742D01*
X127968228Y-72082171D01*
X128396800Y-72082171D01*
X128539657Y-72010742D01*
X128611085Y-71939314D01*
X125111085Y-70653600D02*
X125253942Y-70582171D01*
X125468228Y-70582171D01*
X125682514Y-70653600D01*
X125825371Y-70796457D01*
X125896800Y-70939314D01*
X125968228Y-71225028D01*
X125968228Y-71439314D01*
X125896800Y-71725028D01*
X125825371Y-71867885D01*
X125682514Y-72010742D01*
X125468228Y-72082171D01*
X125325371Y-72082171D01*
X125111085Y-72010742D01*
X125039657Y-71939314D01*
X125039657Y-71439314D01*
X125325371Y-71439314D01*
X124396800Y-72082171D02*
X124396800Y-70582171D01*
X123539657Y-72082171D01*
X123539657Y-70582171D01*
X122825371Y-72082171D02*
X122825371Y-70582171D01*
X122468228Y-70582171D01*
X122253942Y-70653600D01*
X122111085Y-70796457D01*
X122039657Y-70939314D01*
X121968228Y-71225028D01*
X121968228Y-71439314D01*
X122039657Y-71725028D01*
X122111085Y-71867885D01*
X122253942Y-72010742D01*
X122468228Y-72082171D01*
X122825371Y-72082171D01*
X119325371Y-72082171D02*
X119825371Y-71367885D01*
X120182514Y-72082171D02*
X120182514Y-70582171D01*
X119611085Y-70582171D01*
X119468228Y-70653600D01*
X119396800Y-70725028D01*
X119325371Y-70867885D01*
X119325371Y-71082171D01*
X119396800Y-71225028D01*
X119468228Y-71296457D01*
X119611085Y-71367885D01*
X120182514Y-71367885D01*
X118825371Y-70582171D02*
X117825371Y-72082171D01*
X117825371Y-70582171D02*
X118825371Y-72082171D01*
X116968228Y-70582171D02*
X116825371Y-70582171D01*
X116682514Y-70653600D01*
X116611085Y-70725028D01*
X116539657Y-70867885D01*
X116468228Y-71153600D01*
X116468228Y-71510742D01*
X116539657Y-71796457D01*
X116611085Y-71939314D01*
X116682514Y-72010742D01*
X116825371Y-72082171D01*
X116968228Y-72082171D01*
X117111085Y-72010742D01*
X117182514Y-71939314D01*
X117253942Y-71796457D01*
X117325371Y-71510742D01*
X117325371Y-71153600D01*
X117253942Y-70867885D01*
X117182514Y-70725028D01*
X117111085Y-70653600D01*
X116968228Y-70582171D01*
X114896800Y-70582171D02*
X114039657Y-70582171D01*
X114468228Y-72082171D02*
X114468228Y-70582171D01*
X113682514Y-70582171D02*
X112682514Y-72082171D01*
X112682514Y-70582171D02*
X113682514Y-72082171D01*
X111825371Y-70582171D02*
X111682514Y-70582171D01*
X111539657Y-70653600D01*
X111468228Y-70725028D01*
X111396800Y-70867885D01*
X111325371Y-71153600D01*
X111325371Y-71510742D01*
X111396800Y-71796457D01*
X111468228Y-71939314D01*
X111539657Y-72010742D01*
X111682514Y-72082171D01*
X111825371Y-72082171D01*
X111968228Y-72010742D01*
X112039657Y-71939314D01*
X112111085Y-71796457D01*
X112182514Y-71510742D01*
X112182514Y-71153600D01*
X112111085Y-70867885D01*
X112039657Y-70725028D01*
X111968228Y-70653600D01*
X111825371Y-70582171D01*
D11*
X144329000Y-46129000D02*
G75*
G03X144329000Y-46129000I-3200000J0D01*
G01*
X144329000Y-136129000D02*
G75*
G03X144329000Y-136129000I-3200000J0D01*
G01*
X69329000Y-136129000D02*
G75*
G03X69329000Y-136129000I-3200000J0D01*
G01*
X54329000Y-46129000D02*
G75*
G03X54329000Y-46129000I-3200000J0D01*
G01*
M02*
